<svg width="514" height="291" viewBox="0 0 514 291" fill="none" xmlns="http://www.w3.org/2000/svg">
<rect x="0.5" y="0.5" width="513" height="290" rx="20.5" fill="#2A2A2A"/>
<rect x="0.5" y="0.5" width="513" height="290" rx="20.5" stroke="#4F4242"/>
<path d="M252.222 177.64C251.71 177.64 251.198 177.512 250.686 177.256C250.174 177.085 249.79 176.787 249.534 176.36L220.734 111.208H220.35L220.606 162.024C220.691 163.645 220.819 165.224 220.99 166.76C221.246 168.211 221.928 169.448 223.038 170.472C224.147 171.411 226.024 171.88 228.67 171.88C229.608 171.88 230.376 171.965 230.974 172.136C231.571 172.307 231.912 173.117 231.998 174.568C231.998 175.251 231.784 175.891 231.358 176.488C231.016 177.085 230.462 177.384 229.694 177.384C227.902 177.299 226.451 177.213 225.342 177.128C224.232 177.128 223.166 177.085 222.142 177C221.118 177 219.752 177 218.046 177C215.486 177 213.395 177 211.774 177C210.238 177.085 208.104 177.213 205.374 177.384C204.52 177.384 203.923 177.085 203.582 176.488C203.24 175.891 203.07 175.251 203.07 174.568C203.155 173.117 203.496 172.307 204.094 172.136C204.691 171.965 205.416 171.88 206.27 171.88C209 171.88 210.878 171.411 211.902 170.472C213.011 169.448 213.694 168.211 213.95 166.76C214.206 165.224 214.333 163.645 214.333 162.024L214.59 111.208C214.59 108.477 214.291 106.472 213.694 105.192C213.096 103.827 212.158 102.888 210.878 102.376C209.598 101.779 207.976 101.309 206.014 100.968C204.819 100.712 203.966 100.499 203.454 100.328C203.027 100.157 202.814 99.3893 202.814 98.024C202.814 96.5733 203.326 95.8053 204.35 95.72C205.374 95.5493 206.568 95.464 207.934 95.464C212.115 95.464 215.784 95.8053 218.942 96.488C222.184 97.1707 225 98.4933 227.39 100.456C229.779 102.333 231.742 105.192 233.278 109.032L255.294 158.44H255.678L280.894 96.232H288.19C290.75 96.232 293.224 96.1893 295.614 96.104C298.088 96.0187 300.691 95.9333 303.422 95.848C304.275 95.848 304.872 96.1467 305.214 96.744C305.555 97.3413 305.726 97.9813 305.726 98.664C305.64 100.115 305.299 100.925 304.702 101.096C304.104 101.267 303.379 101.352 302.526 101.352C299.88 101.352 297.96 101.864 296.766 102.888C295.656 103.827 294.974 105.064 294.718 106.6C294.462 108.051 294.291 109.587 294.206 111.208V162.024C294.291 163.645 294.462 165.224 294.718 166.76C294.974 168.211 295.656 169.448 296.766 170.472C297.96 171.411 299.88 171.88 302.526 171.88C303.379 171.88 304.104 171.965 304.702 172.136C305.299 172.307 305.64 173.117 305.726 174.568C305.726 175.251 305.555 175.891 305.214 176.488C304.872 177.085 304.275 177.384 303.422 177.384C300.691 177.213 298.088 177.085 295.614 177C293.139 177 290.622 177 288.062 177C283.112 177 277.864 177.128 272.318 177.384C271.464 177.384 270.867 177.085 270.526 176.488C270.184 175.891 270.014 175.251 270.014 174.568C270.099 173.117 270.44 172.307 271.038 172.136C271.635 171.965 272.36 171.88 273.214 171.88C275.944 171.88 277.864 171.411 278.974 170.472C280.083 169.448 280.766 168.211 281.022 166.76C281.363 165.224 281.534 163.645 281.534 162.024V111.208H281.15L254.782 176.36C254.611 176.787 254.27 177.085 253.758 177.256C253.246 177.512 252.734 177.64 252.222 177.64ZM318.868 177.384C318.014 177.384 317.417 177.085 317.076 176.488C316.734 175.891 316.564 175.251 316.564 174.568C316.649 173.117 316.99 172.307 317.588 172.136C318.185 171.965 318.91 171.88 319.764 171.88C322.494 171.88 324.414 171.411 325.524 170.472C326.633 169.448 327.316 168.211 327.572 166.76C327.913 165.224 328.083 163.645 328.083 162.024V111.208C328.083 109.587 327.913 108.051 327.572 106.6C327.316 105.064 326.633 103.827 325.524 102.888C324.414 101.864 322.494 101.352 319.764 101.352C318.91 101.352 318.185 101.267 317.588 101.096C316.99 100.925 316.649 100.115 316.564 98.664C316.564 97.9813 316.734 97.3413 317.076 96.744C317.417 96.1467 318.014 95.848 318.868 95.848C321.598 95.9333 324.158 96.0187 326.548 96.104C328.937 96.1893 331.412 96.232 333.972 96.232H352.02C356.969 96.232 360.852 96.616 363.668 97.384C366.569 98.0667 369.086 99.0907 371.22 100.456C373.438 101.907 375.188 103.912 376.468 106.472C377.748 108.947 378.388 111.677 378.388 114.664C378.388 118.504 377.492 121.747 375.7 124.392C373.908 126.952 371.646 129 368.916 130.536C366.27 131.987 363.668 133.011 361.108 133.608V133.992C365.63 133.907 369.641 134.717 373.14 136.424C376.638 138.131 379.412 140.392 381.46 143.208C383.508 146.024 384.574 149.096 384.66 152.424C384.83 157.288 383.806 161.299 381.588 164.456C379.369 167.613 376.468 170.131 372.884 172.008C369.385 173.885 365.545 175.208 361.364 175.976C357.268 176.744 353.3 177.128 349.46 177.128L334.1 177C331.54 177 329.022 177 326.548 177C324.158 177.085 321.598 177.213 318.868 177.384ZM340.756 131.432H346.132C347.838 131.432 349.758 131.347 351.892 131.176C354.025 131.005 356.073 130.493 358.036 129.64C359.998 128.701 361.577 127.208 362.772 125.16C364.052 123.027 364.692 120.04 364.692 116.2C364.692 111.677 363.582 108.008 361.364 105.192C359.23 102.376 355.348 100.968 349.716 100.968H340.756V131.432ZM349.972 172.008C353.812 171.923 357.31 171.283 360.468 170.088C363.625 168.893 366.142 166.888 368.02 164.072C369.897 161.256 370.836 157.373 370.836 152.424C370.58 149.693 369.641 147.133 368.02 144.744C366.484 142.355 363.924 140.392 360.34 138.856C356.841 137.32 352.062 136.552 346.004 136.552H340.756V162.024C340.756 166.291 341.396 169.021 342.676 170.216C343.956 171.411 346.388 172.008 349.972 172.008ZM397.118 177.384C396.35 177.384 395.795 177.085 395.454 176.488C395.112 175.891 394.942 175.251 394.942 174.568C395.027 173.117 395.368 172.307 395.966 172.136C396.563 171.965 397.288 171.88 398.142 171.88C400.872 171.88 402.792 171.411 403.902 170.472C405.011 169.448 405.694 168.211 405.95 166.76C406.291 165.224 406.462 163.645 406.462 162.024V111.208C406.462 109.587 406.291 108.051 405.95 106.6C405.694 105.064 405.011 103.827 403.902 102.888C402.792 101.864 400.872 101.352 398.142 101.352C397.288 101.352 396.563 101.267 395.966 101.096C395.368 100.925 395.027 100.115 394.942 98.664C394.942 97.9813 395.112 97.3413 395.454 96.744C395.795 96.1467 396.35 95.848 397.118 95.848C399.934 95.9333 402.536 96.0187 404.926 96.104C407.315 96.1893 409.79 96.232 412.35 96.232C417.555 96.232 422.888 96.104 428.35 95.848C429.203 95.848 429.8 96.1467 430.142 96.744C430.483 97.3413 430.654 97.9813 430.654 98.664C430.568 100.115 430.227 100.925 429.63 101.096C429.032 101.267 428.307 101.352 427.454 101.352C424.808 101.352 422.888 101.864 421.694 102.888C420.584 103.827 419.902 105.064 419.646 106.6C419.39 108.051 419.219 109.587 419.134 111.208V163.944C419.219 165.053 419.39 166.248 419.646 167.528C419.902 168.808 420.627 169.875 421.822 170.728C423.102 171.581 425.192 171.965 428.094 171.88H439.614C442.6 171.795 444.862 171.325 446.398 170.472C448.019 169.533 449.299 167.997 450.238 165.864C451.176 163.731 452.2 160.787 453.31 157.032C453.651 156.179 454.206 155.624 454.974 155.368C455.827 155.112 456.723 155.069 457.662 155.24C458.344 155.325 459.027 155.624 459.71 156.136C460.478 156.648 460.819 157.331 460.734 158.184L458.174 174.312C457.918 175.507 457.491 176.275 456.894 176.616C456.382 176.872 455.571 177 454.462 177H412.478C409.918 177 407.4 177 404.926 177C402.536 177.085 399.934 177.213 397.118 177.384Z" fill="white"/>
<path d="M92.949 135.91C92.8024 137.157 92.399 138.367 91.739 139.54C91.079 140.64 90.309 141.703 89.429 142.73C88.549 143.683 87.5957 144.527 86.569 145.26C85.6157 145.993 84.699 146.543 83.819 146.91C81.2524 147.937 78.5024 148.853 75.569 149.66C72.709 150.393 69.8857 151.017 67.099 151.53C67.0257 151.53 66.769 151.567 66.329 151.64C65.889 151.64 65.5957 151.53 65.449 151.31C65.449 151.163 65.5957 150.943 65.889 150.65C66.1824 150.357 66.4024 150.21 66.549 150.21C67.5757 149.55 68.969 148.743 70.729 147.79C72.5624 146.837 74.139 146.14 75.459 145.7C75.899 145.627 76.9257 145.223 78.539 144.49C80.2257 143.683 81.9857 142.767 83.819 141.74C85.7257 140.64 87.4857 139.503 89.099 138.33C90.7857 137.157 91.849 136.093 92.289 135.14C92.4357 135.067 92.5457 134.993 92.619 134.92C92.6924 134.847 92.8024 134.81 92.949 134.81V135.91ZM92.509 131.84C91.3357 134.333 89.7224 136.313 87.669 137.78C85.6157 139.247 83.3057 140.493 80.739 141.52C78.2457 142.547 75.6057 143.463 72.819 144.27C70.1057 145.077 67.5024 146.067 65.009 147.24C61.929 148.707 58.9957 150.797 56.209 153.51C53.4957 156.15 51.6257 159.413 50.599 163.3C50.4524 163.373 50.3057 163.483 50.159 163.63C50.0857 163.777 49.9757 163.923 49.829 164.07C49.9024 161.43 50.379 159.047 51.259 156.92C52.139 154.72 53.239 152.777 54.559 151.09C55.9524 149.403 57.4924 147.973 59.179 146.8C60.8657 145.553 62.6257 144.527 64.459 143.72C67.0257 142.62 69.629 141.667 72.269 140.86C74.909 139.98 77.439 139.1 79.859 138.22C82.279 137.34 84.5524 136.35 86.679 135.25C88.8057 134.15 90.639 132.793 92.179 131.18C92.399 131.18 92.509 131.18 92.509 131.18C92.6557 131.18 92.6924 131.253 92.619 131.4C92.5457 131.547 92.509 131.693 92.509 131.84ZM94.599 173.53C94.599 173.677 94.5624 173.823 94.489 173.97C94.4157 174.043 94.3424 174.153 94.269 174.3L93.939 174.63C93.059 175.437 92.289 176.06 91.629 176.5C90.969 176.94 89.9057 177.27 88.439 177.49C87.8524 177.563 87.1924 177.6 86.459 177.6C85.7257 177.6 85.029 177.563 84.369 177.49C83.7824 177.343 83.269 177.197 82.829 177.05C82.389 176.83 82.2424 176.61 82.389 176.39C82.4624 176.243 82.829 176.133 83.489 176.06C84.2224 175.913 84.699 175.84 84.919 175.84C85.7257 175.693 86.459 175.583 87.119 175.51C87.8524 175.437 88.5124 175.327 89.099 175.18C90.0524 174.96 90.8957 174.74 91.629 174.52C92.3624 174.3 93.2057 173.97 94.159 173.53C94.4524 173.383 94.599 173.383 94.599 173.53ZM88.549 173.86C88.549 173.933 88.4024 173.97 88.109 173.97C87.8157 173.897 87.559 173.86 87.339 173.86C84.259 173.273 81.289 172.283 78.429 170.89C75.569 169.497 72.7457 167.92 69.959 166.16C69.739 166.013 69.2624 165.683 68.529 165.17C67.7957 164.583 66.8424 164.033 65.669 163.52C64.4957 162.933 63.1024 162.457 61.489 162.09C59.949 161.65 58.2624 161.467 56.429 161.54L57.199 160.77C59.7657 158.203 62.809 156.26 66.329 154.94C69.9224 153.547 73.5524 152.227 77.219 150.98C79.4924 150.173 81.7657 149.293 84.039 148.34C86.3857 147.387 88.5857 146.03 90.639 144.27C90.7857 143.977 90.9324 143.903 91.079 144.05C91.2257 144.197 91.2624 144.343 91.189 144.49C91.1157 144.563 91.0057 144.71 90.859 144.93C90.419 146.47 89.3557 147.9 87.669 149.22C86.0557 150.54 84.2224 151.713 82.169 152.74C80.189 153.767 78.1724 154.683 76.119 155.49C74.0657 156.297 72.4157 156.957 71.169 157.47C70.1424 157.91 69.0057 158.35 67.759 158.79C66.5857 159.23 65.3757 159.633 64.129 160C65.3757 160.293 66.6224 160.697 67.869 161.21C69.189 161.723 70.4357 162.31 71.609 162.97C72.8557 163.557 73.9924 164.143 75.019 164.73C76.0457 165.317 76.9257 165.793 77.659 166.16C79.419 167.113 81.179 168.25 82.939 169.57C84.7724 170.817 86.4224 171.953 87.889 172.98C88.4024 173.273 88.6224 173.567 88.549 173.86ZM58.959 155.05C59.1057 155.05 59.1057 155.197 58.959 155.49C58.8857 155.71 58.739 155.967 58.519 156.26C58.3724 156.48 58.189 156.737 57.969 157.03C57.749 157.25 57.639 157.397 57.639 157.47C57.1257 158.203 56.6124 158.863 56.099 159.45C55.5857 160.037 55.1457 160.623 54.779 161.21L54.339 161.98L51.809 162.86C51.8824 162.42 51.9924 161.907 52.139 161.32C52.359 160.733 52.7257 160.073 53.239 159.34C53.6057 158.827 54.0824 158.277 54.669 157.69C55.329 157.03 55.9524 156.48 56.539 156.04C57.1257 155.527 57.639 155.16 58.079 154.94C58.5924 154.72 58.8857 154.757 58.959 155.05ZM93.389 177.16C91.409 178.993 89.429 180.313 87.449 181.12C85.469 181.927 83.5624 182.403 81.729 182.55C79.8957 182.623 78.099 182.44 76.339 182C74.6524 181.487 73.039 180.827 71.499 180.02C69.3724 178.92 67.319 177.71 65.339 176.39C63.4324 175.07 61.5257 173.823 59.619 172.65C57.7124 171.477 55.8057 170.487 53.899 169.68C52.0657 168.873 50.159 168.47 48.179 168.47C47.5924 168.47 47.4457 168.36 47.739 168.14C48.0324 167.92 48.2157 167.81 48.289 167.81C50.6357 166.93 52.8724 166.747 54.999 167.26C57.199 167.773 59.3257 168.617 61.379 169.79C63.5057 170.89 65.559 172.173 67.539 173.64C69.5924 175.033 71.6824 176.28 73.809 177.38C75.129 178.04 76.559 178.627 78.099 179.14C79.639 179.58 81.2524 179.837 82.939 179.91C84.6257 179.91 86.3124 179.69 87.999 179.25C89.6857 178.81 91.3724 178.003 93.059 176.83C93.499 176.537 93.6824 176.5 93.609 176.72C93.5357 176.94 93.4624 177.087 93.389 177.16ZM76.449 174.19C76.3024 174.41 76.0457 174.52 75.679 174.52C75.3124 174.447 75.0924 174.337 75.019 174.19C73.919 174.043 72.5624 173.603 70.949 172.87C69.3357 172.137 68.0524 171.403 67.099 170.67C66.8057 170.45 65.9624 170.01 64.569 169.35C63.1757 168.69 61.599 168.067 59.839 167.48C58.1524 166.82 56.429 166.307 54.669 165.94C52.9824 165.5 51.699 165.427 50.819 165.72C50.5257 165.867 50.379 165.83 50.379 165.61C50.5257 165.463 50.6357 165.353 50.709 165.28C50.7824 165.207 50.8924 165.097 51.039 164.95C51.9924 164.217 53.019 163.703 54.119 163.41C55.2924 163.043 56.4657 162.86 57.639 162.86C58.8124 162.787 59.9124 162.86 60.939 163.08C62.039 163.3 62.9557 163.63 63.689 164.07C65.7424 165.243 67.7957 166.6 69.849 168.14C71.9757 169.68 73.8824 171.293 75.569 172.98C75.7157 173.053 75.9357 173.237 76.229 173.53C76.5224 173.823 76.5957 174.043 76.449 174.19ZM107.808 131.62C109.348 136.093 110.778 140.897 112.098 146.03C113.491 151.163 114.591 156.003 115.398 160.55C115.544 160.843 115.654 161.357 115.728 162.09C115.874 162.75 115.874 163.153 115.728 163.3C115.434 163.3 115.104 163.007 114.738 162.42C114.444 161.833 114.261 161.393 114.188 161.1C113.674 160.147 113.124 158.973 112.538 157.58C111.951 156.113 111.364 154.61 110.778 153.07C110.264 151.53 109.751 150.027 109.238 148.56C108.724 147.02 108.321 145.7 108.028 144.6C107.881 144.087 107.514 143.06 106.928 141.52C106.341 139.98 105.644 138.183 104.838 136.13C104.031 134.077 103.114 131.877 102.088 129.53C101.061 127.11 100.034 124.837 99.0076 122.71C97.9809 120.51 96.9543 118.567 95.9276 116.88C94.9743 115.12 94.1309 113.873 93.3976 113.14C93.2509 112.993 93.1409 112.883 93.0676 112.81C92.9943 112.663 92.9209 112.517 92.8476 112.37C92.7743 112.223 92.7376 112.113 92.7376 112.04C92.8843 111.967 93.0309 112.003 93.1776 112.15C93.3976 112.223 93.5809 112.26 93.7276 112.26C95.1943 112.993 96.6243 114.13 98.0176 115.67C99.4843 117.137 100.841 118.787 102.088 120.62C103.408 122.38 104.544 124.25 105.498 126.23C106.451 128.21 107.221 130.007 107.808 131.62ZM121.448 156.48C122.768 160.44 124.088 164.51 125.408 168.69C126.801 172.87 128.084 176.5 129.258 179.58C129.331 180.167 129.404 180.643 129.478 181.01C129.551 181.303 129.514 181.45 129.368 181.45C129.294 181.597 129.111 181.487 128.818 181.12C128.598 180.753 128.378 180.387 128.158 180.02C126.398 177.38 124.821 174.63 123.428 171.77C122.108 168.91 120.861 165.977 119.688 162.97C118.588 159.963 117.524 156.847 116.498 153.62C115.544 150.393 114.554 147.13 113.528 143.83C112.281 139.87 110.924 135.837 109.458 131.73C107.991 127.623 106.048 123.48 103.628 119.3C103.408 119.08 103.298 118.97 103.298 118.97C103.298 118.897 103.371 118.823 103.518 118.75C103.591 118.603 103.664 118.603 103.738 118.75C103.811 118.897 103.958 119.043 104.178 119.19C106.011 120.583 107.808 122.93 109.568 126.23C111.328 129.457 112.978 132.977 114.518 136.79C116.058 140.603 117.414 144.343 118.588 148.01C119.834 151.603 120.788 154.427 121.448 156.48ZM133.658 191.46C133.951 191.607 134.171 191.79 134.318 192.01C134.464 192.157 134.464 192.23 134.318 192.23C134.244 192.45 134.061 192.45 133.768 192.23C130.541 191.423 127.534 190.03 124.748 188.05C122.034 186.07 119.578 183.723 117.378 181.01C115.178 178.223 113.198 175.18 111.438 171.88C109.751 168.58 108.321 165.207 107.148 161.76C105.608 157.14 104.141 152.557 102.748 148.01C101.428 143.39 100.034 138.917 98.5676 134.59C97.1743 130.19 95.6709 126.047 94.0576 122.16C92.5176 118.273 90.7209 114.753 88.6676 111.6C88.6676 111.233 88.6676 111.05 88.6676 111.05C88.6676 110.903 88.6676 110.867 88.6676 110.94C88.7409 111.013 88.8509 111.087 88.9976 111.16C89.1443 111.307 89.2909 111.417 89.4376 111.49C92.3709 114.35 94.8276 117.76 96.8076 121.72C98.8609 125.607 100.658 129.823 102.198 134.37C103.738 138.843 105.168 143.5 106.488 148.34C107.881 153.107 109.384 157.763 110.998 162.31C112.024 165.243 113.308 168.177 114.848 171.11C116.461 174.043 118.221 176.793 120.128 179.36C122.108 181.927 124.234 184.273 126.508 186.4C128.781 188.527 131.164 190.213 133.658 191.46ZM129.368 184.09C130.541 185.117 131.678 186.07 132.778 186.95C133.878 187.757 135.051 188.527 136.298 189.26C136.444 189.407 136.591 189.59 136.738 189.81C136.958 190.03 137.031 190.14 136.958 190.14C136.811 190.287 136.628 190.36 136.408 190.36C136.261 190.36 136.114 190.36 135.968 190.36C135.748 190.36 135.601 190.323 135.528 190.25C134.794 190.03 134.134 189.847 133.548 189.7C132.961 189.553 132.374 189.333 131.788 189.04C131.201 188.673 130.578 188.27 129.918 187.83C129.258 187.317 128.488 186.62 127.608 185.74C126.948 185.08 126.178 184.163 125.298 182.99C124.491 181.817 123.721 180.68 122.988 179.58C122.254 178.407 121.668 177.417 121.228 176.61C120.861 175.73 120.788 175.217 121.008 175.07C121.081 174.997 121.264 175.107 121.558 175.4C121.924 175.62 122.291 175.95 122.658 176.39C123.024 176.757 123.354 177.16 123.648 177.6C124.014 177.967 124.271 178.223 124.418 178.37C125.224 179.543 126.031 180.57 126.838 181.45C127.644 182.33 128.488 183.21 129.368 184.09ZM177.27 158.24C177.197 158.387 177.013 158.423 176.72 158.35C176.427 158.277 176.17 158.167 175.95 158.02C172.503 156.773 169.313 155.013 166.38 152.74C163.447 150.467 160.55 148.01 157.69 145.37C156.003 143.757 154.17 142.18 152.19 140.64C150.283 139.1 148.047 137.817 145.48 136.79C145.333 136.79 145.26 136.753 145.26 136.68C145.333 136.46 145.517 136.313 145.81 136.24C147.423 135.947 149.22 136.24 151.2 137.12C153.18 137.927 155.087 138.953 156.92 140.2C158.827 141.447 160.623 142.767 162.31 144.16C163.997 145.553 165.39 146.653 166.49 147.46C168.323 148.927 170.157 150.577 171.99 152.41C173.897 154.17 175.473 155.747 176.72 157.14C176.867 157.36 177.013 157.58 177.16 157.8C177.38 157.947 177.417 158.093 177.27 158.24ZM181.67 162.97C181.377 164.217 180.827 165.39 180.02 166.49C179.287 167.59 178.443 168.617 177.49 169.57C176.537 170.45 175.51 171.22 174.41 171.88C173.31 172.467 172.283 172.87 171.33 173.09C168.763 174.043 165.94 174.813 162.86 175.4C159.78 175.913 156.92 176.17 154.28 176.17C153.913 176.243 153.547 176.28 153.18 176.28C152.887 176.28 152.703 176.243 152.63 176.17C152.483 175.877 152.557 175.62 152.85 175.4C153.217 175.18 153.473 175.07 153.62 175.07C154.133 174.777 154.793 174.447 155.6 174.08C156.407 173.713 157.25 173.347 158.13 172.98C159.01 172.613 159.89 172.283 160.77 171.99C161.65 171.697 162.383 171.477 162.97 171.33C163.483 171.183 164.583 170.817 166.27 170.23C168.03 169.57 169.9 168.837 171.88 168.03C173.933 167.223 175.84 166.343 177.6 165.39C179.36 164.363 180.533 163.373 181.12 162.42C181.34 162.053 181.523 161.907 181.67 161.98C181.817 162.053 181.817 162.383 181.67 162.97ZM163.74 155.38C163.593 155.527 163.337 155.563 162.97 155.49C162.677 155.343 162.493 155.197 162.42 155.05C161.247 154.463 159.817 153.62 158.13 152.52C156.443 151.42 155.16 150.393 154.28 149.44C153.913 149.147 152.96 148.487 151.42 147.46C149.953 146.36 148.303 145.26 146.47 144.16C144.637 142.987 142.803 141.96 140.97 141.08C139.21 140.127 137.853 139.65 136.9 139.65C136.753 139.797 136.57 139.833 136.35 139.76C136.203 139.613 136.13 139.467 136.13 139.32L137.12 138.88C138.22 138.367 139.43 138.11 140.75 138.11C142.07 138.11 143.353 138.293 144.6 138.66C145.92 138.953 147.13 139.393 148.23 139.98C149.403 140.493 150.357 141.08 151.09 141.74C153.07 143.427 155.123 145.37 157.25 147.57C159.45 149.697 161.43 151.823 163.19 153.95C163.337 154.097 163.483 154.353 163.63 154.72C163.85 155.013 163.887 155.233 163.74 155.38ZM181.56 158.9C180.167 161.32 178.333 163.19 176.06 164.51C173.86 165.757 171.44 166.783 168.8 167.59C166.16 168.323 163.41 168.983 160.55 169.57C157.69 170.157 154.94 170.89 152.3 171.77C150.687 172.283 149.073 173.017 147.46 173.97C145.847 174.85 144.307 175.95 142.84 177.27C141.373 178.517 140.053 179.947 138.88 181.56C137.707 183.173 136.79 184.97 136.13 186.95C135.983 187.39 135.91 187.61 135.91 187.61C135.763 187.61 135.69 187.537 135.69 187.39C135.69 187.243 135.69 187.097 135.69 186.95C136.057 184.237 136.753 181.853 137.78 179.8C138.807 177.747 140.053 175.987 141.52 174.52C142.987 172.98 144.637 171.697 146.47 170.67C148.377 169.643 150.32 168.8 152.3 168.14C154.573 167.333 156.883 166.71 159.23 166.27C161.577 165.757 163.887 165.207 166.16 164.62C164.547 164.18 163.08 163.557 161.76 162.75C160.44 161.943 159.083 161.027 157.69 160C155.49 158.313 153.363 156.553 151.31 154.72C149.33 152.887 147.35 151.127 145.37 149.44C143.463 147.753 141.52 146.25 139.54 144.93C137.633 143.537 135.617 142.473 133.49 141.74H133.27C133.123 141.74 133.087 141.703 133.16 141.63C133.087 141.483 133.16 141.41 133.38 141.41C133.6 141.337 133.783 141.3 133.93 141.3C136.57 141.08 139.027 141.52 141.3 142.62C143.573 143.647 145.737 145.003 147.79 146.69C149.917 148.377 152.007 150.21 154.06 152.19C156.113 154.17 158.24 156.003 160.44 157.69C161.54 158.497 162.677 159.303 163.85 160.11C165.097 160.843 166.343 161.467 167.59 161.98C168.837 162.42 170.12 162.677 171.44 162.75C172.833 162.823 174.19 162.567 175.51 161.98C174.85 161.907 174.153 161.76 173.42 161.54C172.76 161.32 172.137 161.1 171.55 160.88C170.963 160.587 170.487 160.293 170.12 160C169.827 159.707 169.753 159.45 169.9 159.23C170.047 159.01 170.56 158.973 171.44 159.12C172.393 159.193 173.053 159.23 173.42 159.23C174.74 159.45 176.023 159.597 177.27 159.67C178.59 159.67 179.763 159.377 180.79 158.79C180.937 158.643 181.193 158.497 181.56 158.35C181.927 158.203 181.927 158.387 181.56 158.9ZM178.92 171.11C178.92 171.183 178.883 171.257 178.81 171.33C178.81 171.403 178.81 171.477 178.81 171.55C178.737 171.697 178.7 171.807 178.7 171.88C178.04 173.493 176.793 174.887 174.96 176.06C173.127 177.16 171.11 178.113 168.91 178.92C166.783 179.727 164.657 180.423 162.53 181.01C160.477 181.523 158.827 182 157.58 182.44C155.307 183.247 152.887 183.907 150.32 184.42C147.753 184.86 145.517 185.3 143.61 185.74C142.877 185.74 142.4 185.703 142.18 185.63C142.18 185.41 142.29 185.227 142.51 185.08C142.803 184.86 143.06 184.677 143.28 184.53C146.36 182.403 149.66 180.827 153.18 179.8C156.773 178.7 160.44 177.673 164.18 176.72C166.527 176.133 168.91 175.473 171.33 174.74C173.75 173.933 176.133 172.723 178.48 171.11C178.773 171.037 178.92 171.037 178.92 171.11ZM145.7 178.81C145.773 178.957 145.737 179.177 145.59 179.47C145.443 179.763 145.26 180.057 145.04 180.35C144.82 180.57 144.6 180.79 144.38 181.01C144.16 181.23 144.05 181.377 144.05 181.45C143.317 182.037 142.693 182.623 142.18 183.21C141.667 183.723 141.153 184.273 140.64 184.86C140.127 185.667 139.65 186.473 139.21 187.28C138.77 188.013 138.293 188.673 137.78 189.26C137.78 189.407 137.707 189.517 137.56 189.59C137.413 189.663 137.413 189.627 137.56 189.48C137.413 189.333 137.34 189.077 137.34 188.71V188.38C137.34 187.573 137.45 186.767 137.67 185.96C137.89 185.08 138.513 184.017 139.54 182.77C139.907 182.33 140.42 181.853 141.08 181.34C141.74 180.753 142.4 180.24 143.06 179.8C143.72 179.36 144.27 179.03 144.71 178.81C145.223 178.59 145.553 178.59 145.7 178.81Z" fill="white"/>
<path d="M204.133 215.352C203.365 215.352 203.024 215.096 203.109 214.584C203.344 213.667 203.536 212.739 203.685 211.8C203.856 210.84 203.941 209.923 203.941 209.048C203.941 207.917 203.866 207.096 203.717 206.584C203.589 206.051 203.408 205.688 203.173 205.496C202.938 205.283 202.65 205.123 202.309 205.016C202.16 204.952 202.021 204.867 201.893 204.76C201.786 204.653 201.733 204.504 201.733 204.312C201.733 204.013 201.85 203.683 202.085 203.32C202.32 202.957 202.65 202.648 203.077 202.392C203.525 202.115 204.026 201.976 204.581 201.976C205.306 201.976 205.808 202.232 206.085 202.744C206.362 203.235 206.501 203.885 206.501 204.696C206.501 205.229 206.448 205.827 206.341 206.488C206.234 207.149 206.128 207.747 206.021 208.28L206.085 208.312C206.426 207.181 206.842 206.136 207.333 205.176C207.845 204.216 208.453 203.437 209.157 202.84C209.882 202.243 210.714 201.944 211.653 201.944C212.613 201.944 213.37 202.275 213.925 202.936C214.48 203.576 214.757 204.525 214.757 205.784V206.488C215.376 205.187 216.122 204.099 216.997 203.224C217.893 202.349 218.97 201.912 220.229 201.912C221.253 201.912 222.053 202.253 222.629 202.936C223.205 203.619 223.493 204.472 223.493 205.496C223.493 205.901 223.45 206.296 223.365 206.68C223.28 207.043 223.184 207.405 223.077 207.768C222.992 208.109 222.906 208.461 222.821 208.824C222.736 209.187 222.693 209.549 222.693 209.912C222.693 211.192 223.237 212.024 224.325 212.408C224.474 212.472 224.592 212.547 224.677 212.632C224.762 212.696 224.805 212.824 224.805 213.016C224.805 213.208 224.741 213.485 224.613 213.848C224.506 214.211 224.282 214.552 223.941 214.872C223.6 215.171 223.109 215.32 222.469 215.32C221.637 215.32 220.997 215.021 220.549 214.424C220.101 213.805 219.877 213.027 219.877 212.088C219.877 211.619 219.92 211.128 220.005 210.616C220.09 210.104 220.197 209.613 220.325 209.144C220.432 208.717 220.517 208.312 220.581 207.928C220.666 207.544 220.709 207.213 220.709 206.936C220.709 206.424 220.581 206.051 220.325 205.816C220.09 205.581 219.77 205.464 219.365 205.464C218.682 205.464 218.064 205.677 217.509 206.104C216.976 206.531 216.496 207.085 216.069 207.768C215.664 208.451 215.312 209.197 215.013 210.008C215.034 210.2 215.045 210.456 215.045 210.776C215.066 211.075 215.077 211.341 215.077 211.576C215.077 211.981 215.045 212.408 214.981 212.856C214.938 213.304 214.842 213.677 214.693 213.976C214.522 214.381 214.266 214.712 213.925 214.968C213.605 215.224 213.168 215.352 212.613 215.352C212.378 215.352 212.154 215.299 211.941 215.192C211.728 215.107 211.621 214.957 211.621 214.744C211.621 214.659 211.685 214.285 211.813 213.624C211.941 212.941 212.069 212.109 212.197 211.128C212.325 210.147 212.389 209.187 212.389 208.248C212.389 207.224 212.282 206.52 212.069 206.136C211.856 205.731 211.536 205.528 211.109 205.528C210.576 205.528 210.064 205.752 209.573 206.2C209.104 206.648 208.666 207.224 208.261 207.928C207.877 208.632 207.536 209.368 207.237 210.136C206.96 210.904 206.736 211.619 206.565 212.28V212.632C206.565 213.421 206.341 214.072 205.893 214.584C205.466 215.096 204.88 215.352 204.133 215.352ZM256.441 215.416C255.374 215.416 254.542 215.107 253.945 214.488C253.369 213.869 253.081 212.973 253.081 211.8C253.081 210.968 253.198 210.115 253.433 209.24C253.54 208.877 253.625 208.515 253.689 208.152C253.753 207.789 253.785 207.427 253.785 207.064C253.785 206.125 253.497 205.517 252.921 205.24C252.366 204.941 252.089 204.621 252.089 204.28C252.089 203.939 252.228 203.597 252.505 203.256C252.804 202.915 253.166 202.637 253.593 202.424C254.02 202.189 254.446 202.072 254.873 202.072C256.089 202.072 256.697 203.064 256.697 205.048C256.697 205.688 256.644 206.285 256.537 206.84C256.452 207.373 256.345 207.885 256.217 208.376C256.132 208.717 256.057 209.059 255.993 209.4C255.95 209.741 255.929 210.04 255.929 210.296C255.929 211.363 256.452 211.896 257.497 211.896C258.478 211.896 259.396 211.373 260.249 210.328C261.102 209.283 261.806 207.821 262.361 205.944L262.329 205.336C262.286 204.269 262.468 203.459 262.873 202.904C263.3 202.349 263.918 202.072 264.729 202.072C265.433 202.072 265.785 202.296 265.785 202.744C265.785 202.893 265.753 203.085 265.689 203.32C265.646 203.555 265.572 203.832 265.465 204.152C265.252 204.941 265.07 205.784 264.921 206.68C264.772 207.555 264.697 208.365 264.697 209.112C264.697 209.944 264.825 210.637 265.081 211.192C265.337 211.725 265.817 212.088 266.521 212.28C266.713 212.301 266.862 212.365 266.969 212.472C267.097 212.557 267.161 212.749 267.161 213.048C267.161 213.56 266.948 214.061 266.521 214.552C266.094 215.043 265.476 215.288 264.665 215.288C263.108 215.288 262.329 214.189 262.329 211.992C262.329 211.608 262.361 211.032 262.425 210.264L262.361 210.232C261.017 213.688 259.044 215.416 256.441 215.416ZM301.036 215.416C300.247 215.416 299.564 215.277 298.988 215C298.434 214.723 297.943 214.371 297.516 213.944C297.303 214.307 297.047 214.637 296.748 214.936C296.471 215.213 296.151 215.352 295.788 215.352C295.554 215.352 295.33 215.277 295.116 215.128C294.903 215 294.818 214.819 294.86 214.584C295.18 212.877 295.447 211.149 295.66 209.4C295.895 207.651 296.012 205.869 296.012 204.056C296.012 202.541 295.959 201.123 295.852 199.8C295.746 198.477 295.415 197.261 294.86 196.152C294.754 195.939 294.658 195.736 294.572 195.544C294.508 195.352 294.476 195.171 294.476 195C294.476 194.595 294.711 194.2 295.18 193.816C295.65 193.432 296.151 193.24 296.684 193.24C297.452 193.24 297.975 193.709 298.252 194.648C298.53 195.587 298.668 196.973 298.668 198.808C298.668 200.365 298.594 201.795 298.444 203.096C298.316 204.376 298.167 205.475 297.996 206.392C298.594 205.133 299.404 204.077 300.428 203.224C301.474 202.349 302.647 201.912 303.948 201.912C305.25 201.912 306.263 202.349 306.988 203.224C307.735 204.077 308.108 205.24 308.108 206.712C308.108 207.8 307.938 208.867 307.596 209.912C307.255 210.936 306.775 211.864 306.156 212.696C305.538 213.528 304.791 214.189 303.916 214.68C303.063 215.171 302.103 215.416 301.036 215.416ZM301.772 211.96C302.988 211.96 303.927 211.576 304.588 210.808C305.25 210.04 305.58 209.155 305.58 208.152C305.58 207.277 305.335 206.605 304.844 206.136C304.375 205.645 303.746 205.4 302.956 205.4C302.167 205.4 301.463 205.645 300.844 206.136C300.226 206.605 299.703 207.235 299.276 208.024C298.85 208.792 298.519 209.624 298.284 210.52C298.775 210.989 299.319 211.352 299.916 211.608C300.535 211.843 301.154 211.96 301.772 211.96ZM341.196 215.416C339.575 215.416 338.306 214.957 337.388 214.04C336.492 213.101 336.044 211.8 336.044 210.136C336.044 208.621 336.375 207.245 337.036 206.008C337.698 204.771 338.583 203.789 339.692 203.064C340.823 202.317 342.06 201.944 343.404 201.944C344.684 201.944 345.708 202.264 346.476 202.904C347.244 203.523 347.628 204.355 347.628 205.4C347.628 206.232 347.372 207 346.86 207.704C346.348 208.408 345.666 208.973 344.812 209.4C343.959 209.805 343.01 210.008 341.964 210.008C340.684 210.008 339.639 209.72 338.828 209.144C338.85 210.125 339.18 210.915 339.82 211.512C340.482 212.109 341.324 212.408 342.348 212.408C342.967 212.408 343.596 212.301 344.236 212.088C344.898 211.853 345.463 211.544 345.932 211.16C346.231 210.904 346.508 210.776 346.764 210.776C346.978 210.776 347.148 210.851 347.276 211C347.426 211.128 347.5 211.299 347.5 211.512C347.5 211.981 347.095 212.6 346.284 213.368C344.855 214.733 343.159 215.416 341.196 215.416ZM341.676 207.896C342.444 207.896 343.084 207.736 343.596 207.416C344.108 207.096 344.364 206.691 344.364 206.2C344.364 205.795 344.194 205.485 343.852 205.272C343.511 205.037 343.042 204.92 342.444 204.92C341.655 204.92 340.962 205.133 340.364 205.56C339.788 205.965 339.372 206.541 339.116 207.288C339.415 207.48 339.799 207.629 340.268 207.736C340.738 207.843 341.207 207.896 341.676 207.896ZM380.577 215.416C378.956 215.416 377.687 214.957 376.769 214.04C375.873 213.101 375.425 211.8 375.425 210.136C375.425 208.621 375.756 207.245 376.417 206.008C377.079 204.771 377.964 203.789 379.073 203.064C380.204 202.317 381.441 201.944 382.785 201.944C384.065 201.944 385.089 202.264 385.857 202.904C386.625 203.523 387.009 204.355 387.009 205.4C387.009 206.232 386.753 207 386.241 207.704C385.729 208.408 385.047 208.973 384.193 209.4C383.34 209.805 382.391 210.008 381.345 210.008C380.065 210.008 379.02 209.72 378.209 209.144C378.231 210.125 378.561 210.915 379.201 211.512C379.863 212.109 380.705 212.408 381.729 212.408C382.348 212.408 382.977 212.301 383.617 212.088C384.279 211.853 384.844 211.544 385.313 211.16C385.612 210.904 385.889 210.776 386.145 210.776C386.359 210.776 386.529 210.851 386.657 211C386.807 211.128 386.881 211.299 386.881 211.512C386.881 211.981 386.476 212.6 385.665 213.368C384.236 214.733 382.54 215.416 380.577 215.416ZM381.057 207.896C381.825 207.896 382.465 207.736 382.977 207.416C383.489 207.096 383.745 206.691 383.745 206.2C383.745 205.795 383.575 205.485 383.233 205.272C382.892 205.037 382.423 204.92 381.825 204.92C381.036 204.92 380.343 205.133 379.745 205.56C379.169 205.965 378.753 206.541 378.497 207.288C378.796 207.48 379.18 207.629 379.649 207.736C380.119 207.843 380.588 207.896 381.057 207.896ZM417.178 215.32C416.559 215.32 416.1 215.149 415.802 214.808C415.503 214.467 415.354 213.869 415.354 213.016C415.354 212.611 415.386 212.088 415.45 211.448C415.514 210.808 415.588 210.115 415.674 209.368C415.802 208.451 415.908 207.491 415.994 206.488C416.1 205.485 416.154 204.525 416.154 203.608C416.154 202.307 416.09 200.963 415.962 199.576C415.855 198.168 415.535 196.941 415.002 195.896C414.81 195.469 414.714 195.16 414.714 194.968C414.714 194.691 414.831 194.424 415.066 194.168C415.322 193.912 415.631 193.699 415.994 193.528C416.356 193.336 416.708 193.24 417.05 193.24C417.604 193.24 418.02 193.496 418.298 194.008C418.575 194.499 418.756 195.181 418.842 196.056C418.927 196.909 418.97 197.891 418.97 199C418.97 200.685 418.895 202.147 418.746 203.384C418.618 204.621 418.49 205.709 418.362 206.648C418.276 207.267 418.191 207.853 418.106 208.408C418.042 208.963 418.01 209.464 418.01 209.912C418.01 210.659 418.127 211.203 418.362 211.544C418.618 211.864 419.023 212.184 419.578 212.504C419.727 212.589 419.834 212.675 419.898 212.76C419.983 212.824 420.026 212.931 420.026 213.08C420.026 213.251 419.94 213.517 419.77 213.88C419.599 214.243 419.3 214.573 418.874 214.872C418.468 215.171 417.903 215.32 417.178 215.32Z" fill="white"/>
</svg>
