<svg width="429" height="193" viewBox="0 0 429 193" fill="none" xmlns="http://www.w3.org/2000/svg">
<path d="M211.47 126.623C210.958 126.623 210.446 126.495 209.934 126.239C209.422 126.068 209.038 125.769 208.782 125.343L179.982 60.1908H179.598L179.854 111.007C179.94 112.628 180.068 114.207 180.238 115.743C180.494 117.193 181.177 118.431 182.286 119.455C183.396 120.393 185.273 120.863 187.918 120.863C188.857 120.863 189.625 120.948 190.222 121.119C190.82 121.289 191.161 122.1 191.246 123.551C191.246 124.233 191.033 124.873 190.606 125.471C190.265 126.068 189.71 126.367 188.942 126.367C187.15 126.281 185.7 126.196 184.59 126.111C183.481 126.111 182.414 126.068 181.39 125.983C180.366 125.983 179.001 125.983 177.294 125.983C174.734 125.983 172.644 125.983 171.022 125.983C169.486 126.068 167.353 126.196 164.622 126.367C163.769 126.367 163.172 126.068 162.83 125.471C162.489 124.873 162.318 124.233 162.318 123.551C162.404 122.1 162.745 121.289 163.342 121.119C163.94 120.948 164.665 120.863 165.518 120.863C168.249 120.863 170.126 120.393 171.15 119.455C172.26 118.431 172.942 117.193 173.198 115.743C173.454 114.207 173.582 112.628 173.582 111.007L173.838 60.1908C173.838 57.4601 173.54 55.4548 172.942 54.1748C172.345 52.8095 171.406 51.8708 170.126 51.3588C168.846 50.7615 167.225 50.2921 165.262 49.9508C164.068 49.6948 163.214 49.4815 162.702 49.3108C162.276 49.1401 162.062 48.3721 162.062 47.0068C162.062 45.5561 162.574 44.7881 163.598 44.7028C164.622 44.5321 165.817 44.4468 167.182 44.4468C171.364 44.4468 175.033 44.7881 178.19 45.4708C181.433 46.1535 184.249 47.4761 186.638 49.4388C189.028 51.3161 190.99 54.1748 192.526 58.0148L214.542 107.423H214.926L240.142 45.2148H247.438C249.998 45.2148 252.473 45.1721 254.862 45.0868C257.337 45.0015 259.94 44.9161 262.67 44.8308C263.524 44.8308 264.121 45.1295 264.462 45.7268C264.804 46.3241 264.974 46.9641 264.974 47.6468C264.889 49.0975 264.548 49.9081 263.95 50.0788C263.353 50.2495 262.628 50.3348 261.774 50.3348C259.129 50.3348 257.209 50.8468 256.014 51.8708C254.905 52.8095 254.222 54.0468 253.966 55.5828C253.71 57.0334 253.54 58.5695 253.454 60.1908V111.007C253.54 112.628 253.71 114.207 253.966 115.743C254.222 117.193 254.905 118.431 256.014 119.455C257.209 120.393 259.129 120.863 261.774 120.863C262.628 120.863 263.353 120.948 263.95 121.119C264.548 121.289 264.889 122.1 264.974 123.551C264.974 124.233 264.804 124.873 264.462 125.471C264.121 126.068 263.524 126.367 262.67 126.367C259.94 126.196 257.337 126.068 254.862 125.983C252.388 125.983 249.87 125.983 247.31 125.983C242.361 125.983 237.113 126.111 231.566 126.367C230.713 126.367 230.116 126.068 229.774 125.471C229.433 124.873 229.262 124.233 229.262 123.551C229.348 122.1 229.689 121.289 230.286 121.119C230.884 120.948 231.609 120.863 232.462 120.863C235.193 120.863 237.113 120.393 238.222 119.455C239.332 118.431 240.014 117.193 240.27 115.743C240.612 114.207 240.782 112.628 240.782 111.007V60.1908H240.398L214.03 125.343C213.86 125.769 213.518 126.068 213.006 126.239C212.494 126.495 211.982 126.623 211.47 126.623ZM278.116 126.367C277.263 126.367 276.666 126.068 276.324 125.471C275.983 124.873 275.812 124.233 275.812 123.551C275.898 122.1 276.239 121.289 276.836 121.119C277.434 120.948 278.159 120.863 279.012 120.863C281.743 120.863 283.663 120.393 284.772 119.455C285.882 118.431 286.564 117.193 286.82 115.743C287.162 114.207 287.332 112.628 287.332 111.007V60.1908C287.332 58.5695 287.162 57.0334 286.82 55.5828C286.564 54.0468 285.882 52.8095 284.772 51.8708C283.663 50.8468 281.743 50.3348 279.012 50.3348C278.159 50.3348 277.434 50.2495 276.836 50.0788C276.239 49.9081 275.898 49.0975 275.812 47.6468C275.812 46.9641 275.983 46.3241 276.324 45.7268C276.666 45.1295 277.263 44.8308 278.116 44.8308C280.847 44.9161 283.407 45.0015 285.796 45.0868C288.186 45.1721 290.66 45.2148 293.22 45.2148H311.268C316.218 45.2148 320.1 45.5988 322.916 46.3668C325.818 47.0495 328.335 48.0735 330.468 49.4388C332.687 50.8895 334.436 52.8948 335.716 55.4548C336.996 57.9295 337.636 60.6601 337.636 63.6468C337.636 67.4868 336.74 70.7295 334.948 73.3748C333.156 75.9348 330.895 77.9828 328.164 79.5188C325.519 80.9695 322.916 81.9935 320.356 82.5908V82.9748C324.879 82.8895 328.89 83.7001 332.388 85.4068C335.887 87.1135 338.66 89.3748 340.708 92.1908C342.756 95.0068 343.823 98.0788 343.908 101.407C344.079 106.271 343.055 110.281 340.836 113.439C338.618 116.596 335.716 119.113 332.132 120.991C328.634 122.868 324.794 124.191 320.612 124.959C316.516 125.727 312.548 126.111 308.708 126.111L293.348 125.983C290.788 125.983 288.271 125.983 285.796 125.983C283.407 126.068 280.847 126.196 278.116 126.367ZM300.004 80.4148H305.38C307.087 80.4148 309.007 80.3295 311.14 80.1588C313.274 79.9881 315.322 79.4761 317.284 78.6228C319.247 77.6841 320.826 76.1908 322.02 74.1428C323.3 72.0095 323.94 69.0228 323.94 65.1828C323.94 60.6601 322.831 56.9908 320.612 54.1748C318.479 51.3588 314.596 49.9508 308.964 49.9508H300.004V80.4148ZM309.22 120.991C313.06 120.905 316.559 120.265 319.716 119.071C322.874 117.876 325.391 115.871 327.268 113.055C329.146 110.239 330.084 106.356 330.084 101.407C329.828 98.6761 328.89 96.1161 327.268 93.7268C325.732 91.3375 323.172 89.3748 319.588 87.8388C316.09 86.3028 311.311 85.5348 305.252 85.5348H300.004V111.007C300.004 115.273 300.644 118.004 301.924 119.199C303.204 120.393 305.636 120.991 309.22 120.991ZM356.366 126.367C355.598 126.367 355.044 126.068 354.702 125.471C354.361 124.873 354.19 124.233 354.19 123.551C354.276 122.1 354.617 121.289 355.214 121.119C355.812 120.948 356.537 120.863 357.39 120.863C360.121 120.863 362.041 120.393 363.15 119.455C364.26 118.431 364.942 117.193 365.198 115.743C365.54 114.207 365.71 112.628 365.71 111.007V60.1908C365.71 58.5695 365.54 57.0334 365.198 55.5828C364.942 54.0468 364.26 52.8095 363.15 51.8708C362.041 50.8468 360.121 50.3348 357.39 50.3348C356.537 50.3348 355.812 50.2495 355.214 50.0788C354.617 49.9081 354.276 49.0975 354.19 47.6468C354.19 46.9641 354.361 46.3241 354.702 45.7268C355.044 45.1295 355.598 44.8308 356.366 44.8308C359.182 44.9161 361.785 45.0015 364.174 45.0868C366.564 45.1721 369.038 45.2148 371.598 45.2148C376.804 45.2148 382.137 45.0868 387.598 44.8308C388.452 44.8308 389.049 45.1295 389.39 45.7268C389.732 46.3241 389.902 46.9641 389.902 47.6468C389.817 49.0975 389.476 49.9081 388.878 50.0788C388.281 50.2495 387.556 50.3348 386.702 50.3348C384.057 50.3348 382.137 50.8468 380.942 51.8708C379.833 52.8095 379.15 54.0468 378.894 55.5828C378.638 57.0334 378.468 58.5695 378.382 60.1908V112.927C378.468 114.036 378.638 115.231 378.894 116.511C379.15 117.791 379.876 118.857 381.07 119.711C382.35 120.564 384.441 120.948 387.342 120.863H398.862C401.849 120.777 404.11 120.308 405.646 119.455C407.268 118.516 408.548 116.98 409.486 114.847C410.425 112.713 411.449 109.769 412.558 106.015C412.9 105.161 413.454 104.607 414.222 104.351C415.076 104.095 415.972 104.052 416.91 104.223C417.593 104.308 418.276 104.607 418.958 105.119C419.726 105.631 420.068 106.313 419.982 107.167L417.422 123.295C417.166 124.489 416.74 125.257 416.142 125.599C415.63 125.855 414.82 125.983 413.71 125.983H371.726C369.166 125.983 366.649 125.983 364.174 125.983C361.785 126.068 359.182 126.196 356.366 126.367Z" fill="black"/>
<path d="M54.457 88.9251C54.3103 90.1718 53.907 91.3818 53.247 92.5551C52.587 93.6551 51.817 94.7185 50.937 95.7451C50.057 96.6985 49.1037 97.5418 48.077 98.2751C47.1237 99.0085 46.207 99.5585 45.327 99.9251C42.7603 100.952 40.0103 101.868 37.077 102.675C34.217 103.408 31.3937 104.032 28.607 104.545C28.5337 104.545 28.277 104.582 27.837 104.655C27.397 104.655 27.1037 104.545 26.957 104.325C26.957 104.178 27.1037 103.958 27.397 103.665C27.6903 103.372 27.9103 103.225 28.057 103.225C29.0837 102.565 30.477 101.758 32.237 100.805C34.0703 99.8518 35.647 99.1551 36.967 98.7151C37.407 98.6418 38.4337 98.2385 40.047 97.5051C41.7337 96.6985 43.4937 95.7818 45.327 94.7551C47.2337 93.6551 48.9937 92.5185 50.607 91.3451C52.2937 90.1718 53.357 89.1085 53.797 88.1551C53.9437 88.0818 54.0537 88.0085 54.127 87.9351C54.2003 87.8618 54.3103 87.8251 54.457 87.8251V88.9251ZM54.017 84.8551C52.8437 87.3485 51.2303 89.3285 49.177 90.7951C47.1237 92.2618 44.8137 93.5085 42.247 94.5351C39.7537 95.5618 37.1137 96.4785 34.327 97.2851C31.6137 98.0918 29.0103 99.0818 26.517 100.255C23.437 101.722 20.5037 103.812 17.717 106.525C15.0037 109.165 13.1337 112.428 12.107 116.315C11.9603 116.388 11.8137 116.498 11.667 116.645C11.5937 116.792 11.4837 116.938 11.337 117.085C11.4103 114.445 11.887 112.062 12.767 109.935C13.647 107.735 14.747 105.792 16.067 104.105C17.4603 102.418 19.0003 100.988 20.687 99.8151C22.3737 98.5685 24.1337 97.5418 25.967 96.7351C28.5337 95.6351 31.137 94.6818 33.777 93.8751C36.417 92.9951 38.947 92.1151 41.367 91.2351C43.787 90.3551 46.0603 89.3651 48.187 88.2651C50.3137 87.1651 52.147 85.8085 53.687 84.1951C53.907 84.1951 54.017 84.1951 54.017 84.1951C54.1637 84.1951 54.2003 84.2685 54.127 84.4151C54.0537 84.5618 54.017 84.7085 54.017 84.8551ZM56.107 126.545C56.107 126.692 56.0703 126.838 55.997 126.985C55.9237 127.058 55.8503 127.168 55.777 127.315L55.447 127.645C54.567 128.452 53.797 129.075 53.137 129.515C52.477 129.955 51.4137 130.285 49.947 130.505C49.3603 130.578 48.7003 130.615 47.967 130.615C47.2337 130.615 46.537 130.578 45.877 130.505C45.2903 130.358 44.777 130.212 44.337 130.065C43.897 129.845 43.7503 129.625 43.897 129.405C43.9703 129.258 44.337 129.148 44.997 129.075C45.7303 128.928 46.207 128.855 46.427 128.855C47.2337 128.708 47.967 128.598 48.627 128.525C49.3603 128.452 50.0203 128.342 50.607 128.195C51.5603 127.975 52.4037 127.755 53.137 127.535C53.8703 127.315 54.7137 126.985 55.667 126.545C55.9603 126.398 56.107 126.398 56.107 126.545ZM50.057 126.875C50.057 126.948 49.9103 126.985 49.617 126.985C49.3237 126.912 49.067 126.875 48.847 126.875C45.767 126.288 42.797 125.298 39.937 123.905C37.077 122.512 34.2537 120.935 31.467 119.175C31.247 119.028 30.7703 118.698 30.037 118.185C29.3037 117.598 28.3503 117.048 27.177 116.535C26.0037 115.948 24.6103 115.472 22.997 115.105C21.457 114.665 19.7703 114.482 17.937 114.555L18.707 113.785C21.2737 111.218 24.317 109.275 27.837 107.955C31.4303 106.562 35.0603 105.242 38.727 103.995C41.0003 103.188 43.2737 102.308 45.547 101.355C47.8937 100.402 50.0937 99.0451 52.147 97.2851C52.2937 96.9918 52.4403 96.9185 52.587 97.0651C52.7337 97.2118 52.7703 97.3585 52.697 97.5051C52.6237 97.5785 52.5137 97.7251 52.367 97.9451C51.927 99.4851 50.8637 100.915 49.177 102.235C47.5637 103.555 45.7303 104.728 43.677 105.755C41.697 106.782 39.6803 107.698 37.627 108.505C35.5737 109.312 33.9237 109.972 32.677 110.485C31.6503 110.925 30.5137 111.365 29.267 111.805C28.0937 112.245 26.8837 112.648 25.637 113.015C26.8837 113.308 28.1303 113.712 29.377 114.225C30.697 114.738 31.9437 115.325 33.117 115.985C34.3637 116.572 35.5003 117.158 36.527 117.745C37.5537 118.332 38.4337 118.808 39.167 119.175C40.927 120.128 42.687 121.265 44.447 122.585C46.2803 123.832 47.9303 124.968 49.397 125.995C49.9103 126.288 50.1303 126.582 50.057 126.875ZM20.467 108.065C20.6137 108.065 20.6137 108.212 20.467 108.505C20.3937 108.725 20.247 108.982 20.027 109.275C19.8803 109.495 19.697 109.752 19.477 110.045C19.257 110.265 19.147 110.412 19.147 110.485C18.6337 111.218 18.1203 111.878 17.607 112.465C17.0937 113.052 16.6537 113.638 16.287 114.225L15.847 114.995L13.317 115.875C13.3903 115.435 13.5003 114.922 13.647 114.335C13.867 113.748 14.2337 113.088 14.747 112.355C15.1137 111.842 15.5903 111.292 16.177 110.705C16.837 110.045 17.4603 109.495 18.047 109.055C18.6337 108.542 19.147 108.175 19.587 107.955C20.1003 107.735 20.3937 107.772 20.467 108.065ZM54.897 130.175C52.917 132.008 50.937 133.328 48.957 134.135C46.977 134.942 45.0703 135.418 43.237 135.565C41.4037 135.638 39.607 135.455 37.847 135.015C36.1603 134.502 34.547 133.842 33.007 133.035C30.8803 131.935 28.827 130.725 26.847 129.405C24.9403 128.085 23.0337 126.838 21.127 125.665C19.2203 124.492 17.3137 123.502 15.407 122.695C13.5737 121.888 11.667 121.485 9.68699 121.485C9.10032 121.485 8.95365 121.375 9.24699 121.155C9.54032 120.935 9.72365 120.825 9.79699 120.825C12.1437 119.945 14.3803 119.762 16.507 120.275C18.707 120.788 20.8337 121.632 22.887 122.805C25.0137 123.905 27.067 125.188 29.047 126.655C31.1003 128.048 33.1903 129.295 35.317 130.395C36.637 131.055 38.067 131.642 39.607 132.155C41.147 132.595 42.7603 132.852 44.447 132.925C46.1337 132.925 47.8203 132.705 49.507 132.265C51.1937 131.825 52.8803 131.018 54.567 129.845C55.007 129.552 55.1903 129.515 55.117 129.735C55.0437 129.955 54.9703 130.102 54.897 130.175ZM37.957 127.205C37.8103 127.425 37.5537 127.535 37.187 127.535C36.8203 127.462 36.6003 127.352 36.527 127.205C35.427 127.058 34.0703 126.618 32.457 125.885C30.8437 125.152 29.5603 124.418 28.607 123.685C28.3137 123.465 27.4703 123.025 26.077 122.365C24.6837 121.705 23.107 121.082 21.347 120.495C19.6603 119.835 17.937 119.322 16.177 118.955C14.4903 118.515 13.207 118.442 12.327 118.735C12.0337 118.882 11.887 118.845 11.887 118.625C12.0337 118.478 12.1437 118.368 12.217 118.295C12.2903 118.222 12.4003 118.112 12.547 117.965C13.5003 117.232 14.527 116.718 15.627 116.425C16.8003 116.058 17.9737 115.875 19.147 115.875C20.3203 115.802 21.4203 115.875 22.447 116.095C23.547 116.315 24.4637 116.645 25.197 117.085C27.2503 118.258 29.3037 119.615 31.357 121.155C33.4837 122.695 35.3903 124.308 37.077 125.995C37.2237 126.068 37.4437 126.252 37.737 126.545C38.0303 126.838 38.1037 127.058 37.957 127.205ZM69.3156 84.6351C70.8556 89.1085 72.2856 93.9118 73.6056 99.0451C74.9989 104.178 76.0989 109.018 76.9056 113.565C77.0522 113.858 77.1622 114.372 77.2356 115.105C77.3822 115.765 77.3822 116.168 77.2356 116.315C76.9422 116.315 76.6122 116.022 76.2456 115.435C75.9522 114.848 75.7689 114.408 75.6956 114.115C75.1822 113.162 74.6322 111.988 74.0456 110.595C73.4589 109.128 72.8722 107.625 72.2856 106.085C71.7722 104.545 71.2589 103.042 70.7456 101.575C70.2322 100.035 69.8289 98.7151 69.5356 97.6151C69.3889 97.1018 69.0222 96.0751 68.4356 94.5351C67.8489 92.9951 67.1522 91.1985 66.3456 89.1451C65.5389 87.0918 64.6222 84.8918 63.5956 82.5451C62.5689 80.1251 61.5422 77.8518 60.5156 75.7251C59.4889 73.5251 58.4622 71.5818 57.4356 69.8951C56.4822 68.1351 55.6389 66.8885 54.9056 66.1551C54.7589 66.0085 54.6489 65.8985 54.5756 65.8251C54.5022 65.6785 54.4289 65.5318 54.3556 65.3851C54.2822 65.2385 54.2456 65.1285 54.2456 65.0551C54.3922 64.9818 54.5389 65.0185 54.6856 65.1651C54.9056 65.2385 55.0889 65.2751 55.2356 65.2751C56.7022 66.0085 58.1322 67.1451 59.5256 68.6851C60.9922 70.1518 62.3489 71.8018 63.5956 73.6351C64.9156 75.3951 66.0522 77.2651 67.0056 79.2451C67.9589 81.2251 68.7289 83.0218 69.3156 84.6351ZM82.9556 109.495C84.2756 113.455 85.5956 117.525 86.9156 121.705C88.3089 125.885 89.5922 129.515 90.7656 132.595C90.8389 133.182 90.9122 133.658 90.9856 134.025C91.0589 134.318 91.0222 134.465 90.8756 134.465C90.8022 134.612 90.6189 134.502 90.3256 134.135C90.1056 133.768 89.8856 133.402 89.6656 133.035C87.9056 130.395 86.3289 127.645 84.9356 124.785C83.6156 121.925 82.3689 118.992 81.1956 115.985C80.0956 112.978 79.0322 109.862 78.0056 106.635C77.0522 103.408 76.0622 100.145 75.0356 96.8451C73.7889 92.8851 72.4322 88.8518 70.9656 84.7451C69.4989 80.6385 67.5556 76.4951 65.1356 72.3151C64.9156 72.0951 64.8056 71.9851 64.8056 71.9851C64.8056 71.9118 64.8789 71.8385 65.0256 71.7651C65.0989 71.6185 65.1722 71.6185 65.2456 71.7651C65.3189 71.9118 65.4656 72.0585 65.6856 72.2051C67.5189 73.5985 69.3156 75.9451 71.0756 79.2451C72.8356 82.4718 74.4856 85.9918 76.0256 89.8051C77.5656 93.6185 78.9222 97.3585 80.0956 101.025C81.3422 104.618 82.2956 107.442 82.9556 109.495ZM95.1656 144.475C95.4589 144.622 95.6789 144.805 95.8256 145.025C95.9722 145.172 95.9722 145.245 95.8256 145.245C95.7522 145.465 95.5689 145.465 95.2756 145.245C92.0489 144.438 89.0422 143.045 86.2556 141.065C83.5422 139.085 81.0856 136.738 78.8856 134.025C76.6856 131.238 74.7056 128.195 72.9456 124.895C71.2589 121.595 69.8289 118.222 68.6556 114.775C67.1156 110.155 65.6489 105.572 64.2556 101.025C62.9356 96.4051 61.5422 91.9318 60.0756 87.6051C58.6822 83.2051 57.1789 79.0618 55.5656 75.1751C54.0256 71.2885 52.2289 67.7685 50.1756 64.6151C50.1756 64.2485 50.1756 64.0651 50.1756 64.0651C50.1756 63.9185 50.1756 63.8818 50.1756 63.9551C50.2489 64.0285 50.3589 64.1018 50.5056 64.1751C50.6522 64.3218 50.7989 64.4318 50.9456 64.5051C53.8789 67.3651 56.3356 70.7751 58.3156 74.7351C60.3689 78.6218 62.1656 82.8385 63.7056 87.3851C65.2456 91.8585 66.6756 96.5151 67.9956 101.355C69.3889 106.122 70.8922 110.778 72.5056 115.325C73.5322 118.258 74.8156 121.192 76.3556 124.125C77.9689 127.058 79.7289 129.808 81.6356 132.375C83.6156 134.942 85.7422 137.288 88.0156 139.415C90.2889 141.542 92.6722 143.228 95.1656 144.475ZM90.8756 137.105C92.0489 138.132 93.1856 139.085 94.2856 139.965C95.3856 140.772 96.5589 141.542 97.8056 142.275C97.9522 142.422 98.0989 142.605 98.2456 142.825C98.4656 143.045 98.5389 143.155 98.4656 143.155C98.3189 143.302 98.1356 143.375 97.9156 143.375C97.7689 143.375 97.6222 143.375 97.4756 143.375C97.2556 143.375 97.1089 143.338 97.0356 143.265C96.3022 143.045 95.6422 142.862 95.0556 142.715C94.4689 142.568 93.8822 142.348 93.2956 142.055C92.7089 141.688 92.0856 141.285 91.4256 140.845C90.7656 140.332 89.9956 139.635 89.1156 138.755C88.4556 138.095 87.6856 137.178 86.8056 136.005C85.9989 134.832 85.2289 133.695 84.4956 132.595C83.7622 131.422 83.1756 130.432 82.7356 129.625C82.3689 128.745 82.2956 128.232 82.5156 128.085C82.5889 128.012 82.7722 128.122 83.0656 128.415C83.4322 128.635 83.7989 128.965 84.1656 129.405C84.5322 129.772 84.8622 130.175 85.1556 130.615C85.5222 130.982 85.7789 131.238 85.9256 131.385C86.7322 132.558 87.5389 133.585 88.3456 134.465C89.1522 135.345 89.9956 136.225 90.8756 137.105ZM138.778 111.255C138.705 111.402 138.521 111.438 138.228 111.365C137.935 111.292 137.678 111.182 137.458 111.035C134.011 109.788 130.821 108.028 127.888 105.755C124.955 103.482 122.058 101.025 119.198 98.3851C117.511 96.7718 115.678 95.1951 113.698 93.6551C111.791 92.1151 109.555 90.8318 106.988 89.8051C106.841 89.8051 106.768 89.7685 106.768 89.6951C106.841 89.4751 107.025 89.3285 107.318 89.2551C108.931 88.9618 110.728 89.2551 112.708 90.1351C114.688 90.9418 116.595 91.9685 118.428 93.2151C120.335 94.4618 122.131 95.7818 123.818 97.1751C125.505 98.5685 126.898 99.6685 127.998 100.475C129.831 101.942 131.665 103.592 133.498 105.425C135.405 107.185 136.981 108.762 138.228 110.155C138.375 110.375 138.521 110.595 138.668 110.815C138.888 110.962 138.925 111.108 138.778 111.255ZM143.178 115.985C142.885 117.232 142.335 118.405 141.528 119.505C140.795 120.605 139.951 121.632 138.998 122.585C138.045 123.465 137.018 124.235 135.918 124.895C134.818 125.482 133.791 125.885 132.838 126.105C130.271 127.058 127.448 127.828 124.368 128.415C121.288 128.928 118.428 129.185 115.788 129.185C115.421 129.258 115.055 129.295 114.688 129.295C114.395 129.295 114.211 129.258 114.138 129.185C113.991 128.892 114.065 128.635 114.358 128.415C114.725 128.195 114.981 128.085 115.128 128.085C115.641 127.792 116.301 127.462 117.108 127.095C117.915 126.728 118.758 126.362 119.638 125.995C120.518 125.628 121.398 125.298 122.278 125.005C123.158 124.712 123.891 124.492 124.478 124.345C124.991 124.198 126.091 123.832 127.778 123.245C129.538 122.585 131.408 121.852 133.388 121.045C135.441 120.238 137.348 119.358 139.108 118.405C140.868 117.378 142.041 116.388 142.628 115.435C142.848 115.068 143.031 114.922 143.178 114.995C143.325 115.068 143.325 115.398 143.178 115.985ZM125.248 108.395C125.101 108.542 124.845 108.578 124.478 108.505C124.185 108.358 124.001 108.212 123.928 108.065C122.755 107.478 121.325 106.635 119.638 105.535C117.951 104.435 116.668 103.408 115.788 102.455C115.421 102.162 114.468 101.502 112.928 100.475C111.461 99.3751 109.811 98.2751 107.978 97.1751C106.145 96.0018 104.311 94.9751 102.478 94.0951C100.718 93.1418 99.3613 92.6651 98.408 92.6651C98.2613 92.8118 98.078 92.8485 97.858 92.7751C97.7113 92.6285 97.638 92.4818 97.638 92.3351L98.628 91.8951C99.728 91.3818 100.938 91.1251 102.258 91.1251C103.578 91.1251 104.861 91.3085 106.108 91.6751C107.428 91.9685 108.638 92.4085 109.738 92.9951C110.911 93.5085 111.865 94.0951 112.598 94.7551C114.578 96.4418 116.631 98.3851 118.758 100.585C120.958 102.712 122.938 104.838 124.698 106.965C124.845 107.112 124.991 107.368 125.138 107.735C125.358 108.028 125.395 108.248 125.248 108.395ZM143.068 111.915C141.675 114.335 139.841 116.205 137.568 117.525C135.368 118.772 132.948 119.798 130.308 120.605C127.668 121.338 124.918 121.998 122.058 122.585C119.198 123.172 116.448 123.905 113.808 124.785C112.195 125.298 110.581 126.032 108.968 126.985C107.355 127.865 105.815 128.965 104.348 130.285C102.881 131.532 101.561 132.962 100.388 134.575C99.2147 136.188 98.298 137.985 97.638 139.965C97.4913 140.405 97.418 140.625 97.418 140.625C97.2713 140.625 97.198 140.552 97.198 140.405C97.198 140.258 97.198 140.112 97.198 139.965C97.5647 137.252 98.2613 134.868 99.288 132.815C100.315 130.762 101.561 129.002 103.028 127.535C104.495 125.995 106.145 124.712 107.978 123.685C109.885 122.658 111.828 121.815 113.808 121.155C116.081 120.348 118.391 119.725 120.738 119.285C123.085 118.772 125.395 118.222 127.668 117.635C126.055 117.195 124.588 116.572 123.268 115.765C121.948 114.958 120.591 114.042 119.198 113.015C116.998 111.328 114.871 109.568 112.818 107.735C110.838 105.902 108.858 104.142 106.878 102.455C104.971 100.768 103.028 99.2651 101.048 97.9451C99.1413 96.5518 97.1247 95.4885 94.998 94.7551H94.778C94.6313 94.7551 94.5947 94.7185 94.668 94.6451C94.5947 94.4985 94.668 94.4251 94.888 94.4251C95.108 94.3518 95.2913 94.3151 95.438 94.3151C98.078 94.0951 100.535 94.5351 102.808 95.6351C105.081 96.6618 107.245 98.0185 109.298 99.7051C111.425 101.392 113.515 103.225 115.568 105.205C117.621 107.185 119.748 109.018 121.948 110.705C123.048 111.512 124.185 112.318 125.358 113.125C126.605 113.858 127.851 114.482 129.098 114.995C130.345 115.435 131.628 115.692 132.948 115.765C134.341 115.838 135.698 115.582 137.018 114.995C136.358 114.922 135.661 114.775 134.928 114.555C134.268 114.335 133.645 114.115 133.058 113.895C132.471 113.602 131.995 113.308 131.628 113.015C131.335 112.722 131.261 112.465 131.408 112.245C131.555 112.025 132.068 111.988 132.948 112.135C133.901 112.208 134.561 112.245 134.928 112.245C136.248 112.465 137.531 112.612 138.778 112.685C140.098 112.685 141.271 112.392 142.298 111.805C142.445 111.658 142.701 111.512 143.068 111.365C143.435 111.218 143.435 111.402 143.068 111.915ZM140.428 124.125C140.428 124.198 140.391 124.272 140.318 124.345C140.318 124.418 140.318 124.492 140.318 124.565C140.245 124.712 140.208 124.822 140.208 124.895C139.548 126.508 138.301 127.902 136.468 129.075C134.635 130.175 132.618 131.128 130.418 131.935C128.291 132.742 126.165 133.438 124.038 134.025C121.985 134.538 120.335 135.015 119.088 135.455C116.815 136.262 114.395 136.922 111.828 137.435C109.261 137.875 107.025 138.315 105.118 138.755C104.385 138.755 103.908 138.718 103.688 138.645C103.688 138.425 103.798 138.242 104.018 138.095C104.311 137.875 104.568 137.692 104.788 137.545C107.868 135.418 111.168 133.842 114.688 132.815C118.281 131.715 121.948 130.688 125.688 129.735C128.035 129.148 130.418 128.488 132.838 127.755C135.258 126.948 137.641 125.738 139.988 124.125C140.281 124.052 140.428 124.052 140.428 124.125ZM107.208 131.825C107.281 131.972 107.245 132.192 107.098 132.485C106.951 132.778 106.768 133.072 106.548 133.365C106.328 133.585 106.108 133.805 105.888 134.025C105.668 134.245 105.558 134.392 105.558 134.465C104.825 135.052 104.201 135.638 103.688 136.225C103.175 136.738 102.661 137.288 102.148 137.875C101.635 138.682 101.158 139.488 100.718 140.295C100.278 141.028 99.8013 141.688 99.288 142.275C99.288 142.422 99.2147 142.532 99.068 142.605C98.9213 142.678 98.9213 142.642 99.068 142.495C98.9213 142.348 98.848 142.092 98.848 141.725V141.395C98.848 140.588 98.958 139.782 99.178 138.975C99.398 138.095 100.021 137.032 101.048 135.785C101.415 135.345 101.928 134.868 102.588 134.355C103.248 133.768 103.908 133.255 104.568 132.815C105.228 132.375 105.778 132.045 106.218 131.825C106.731 131.605 107.061 131.605 107.208 131.825Z" fill="black"/>
<path d="M168.762 159.321C167.994 159.321 167.652 159.065 167.738 158.553C167.972 157.636 168.164 156.708 168.314 155.769C168.484 154.809 168.57 153.892 168.57 153.017C168.57 151.886 168.495 151.065 168.346 150.553C168.218 150.02 168.036 149.657 167.802 149.465C167.567 149.252 167.279 149.092 166.938 148.985C166.788 148.921 166.65 148.836 166.522 148.729C166.415 148.622 166.362 148.473 166.362 148.281C166.362 147.982 166.479 147.652 166.714 147.289C166.948 146.926 167.279 146.617 167.706 146.361C168.154 146.084 168.655 145.945 169.21 145.945C169.935 145.945 170.436 146.201 170.714 146.713C170.991 147.204 171.13 147.854 171.13 148.665C171.13 149.198 171.076 149.796 170.97 150.457C170.863 151.118 170.756 151.716 170.65 152.249L170.714 152.281C171.055 151.15 171.471 150.105 171.962 149.145C172.474 148.185 173.082 147.406 173.786 146.809C174.511 146.212 175.343 145.913 176.282 145.913C177.242 145.913 177.999 146.244 178.554 146.905C179.108 147.545 179.386 148.494 179.386 149.753V150.457C180.004 149.156 180.751 148.068 181.626 147.193C182.522 146.318 183.599 145.881 184.858 145.881C185.882 145.881 186.682 146.222 187.258 146.905C187.834 147.588 188.122 148.441 188.122 149.465C188.122 149.87 188.079 150.265 187.994 150.649C187.908 151.012 187.812 151.374 187.706 151.737C187.62 152.078 187.535 152.43 187.45 152.793C187.364 153.156 187.322 153.518 187.322 153.881C187.322 155.161 187.866 155.993 188.954 156.377C189.103 156.441 189.22 156.516 189.306 156.601C189.391 156.665 189.434 156.793 189.434 156.985C189.434 157.177 189.37 157.454 189.242 157.817C189.135 158.18 188.911 158.521 188.57 158.841C188.228 159.14 187.738 159.289 187.098 159.289C186.266 159.289 185.626 158.99 185.178 158.393C184.73 157.774 184.506 156.996 184.506 156.057C184.506 155.588 184.548 155.097 184.634 154.585C184.719 154.073 184.826 153.582 184.954 153.113C185.06 152.686 185.146 152.281 185.21 151.897C185.295 151.513 185.338 151.182 185.338 150.905C185.338 150.393 185.21 150.02 184.954 149.785C184.719 149.55 184.399 149.433 183.994 149.433C183.311 149.433 182.692 149.646 182.138 150.073C181.604 150.5 181.124 151.054 180.698 151.737C180.292 152.42 179.94 153.166 179.642 153.977C179.663 154.169 179.674 154.425 179.674 154.745C179.695 155.044 179.706 155.31 179.706 155.545C179.706 155.95 179.674 156.377 179.61 156.825C179.567 157.273 179.471 157.646 179.322 157.945C179.151 158.35 178.895 158.681 178.554 158.937C178.234 159.193 177.796 159.321 177.242 159.321C177.007 159.321 176.783 159.268 176.57 159.161C176.356 159.076 176.25 158.926 176.25 158.713C176.25 158.628 176.314 158.254 176.442 157.593C176.57 156.91 176.698 156.078 176.826 155.097C176.954 154.116 177.018 153.156 177.018 152.217C177.018 151.193 176.911 150.489 176.698 150.105C176.484 149.7 176.164 149.497 175.738 149.497C175.204 149.497 174.692 149.721 174.202 150.169C173.732 150.617 173.295 151.193 172.89 151.897C172.506 152.601 172.164 153.337 171.866 154.105C171.588 154.873 171.364 155.588 171.194 156.249V156.601C171.194 157.39 170.97 158.041 170.522 158.553C170.095 159.065 169.508 159.321 168.762 159.321ZM221.07 159.385C220.003 159.385 219.171 159.076 218.574 158.457C217.998 157.838 217.71 156.942 217.71 155.769C217.71 154.937 217.827 154.084 218.062 153.209C218.168 152.846 218.254 152.484 218.318 152.121C218.382 151.758 218.414 151.396 218.414 151.033C218.414 150.094 218.126 149.486 217.55 149.209C216.995 148.91 216.718 148.59 216.718 148.249C216.718 147.908 216.856 147.566 217.134 147.225C217.432 146.884 217.795 146.606 218.222 146.393C218.648 146.158 219.075 146.041 219.502 146.041C220.718 146.041 221.326 147.033 221.326 149.017C221.326 149.657 221.272 150.254 221.166 150.809C221.08 151.342 220.974 151.854 220.846 152.345C220.76 152.686 220.686 153.028 220.622 153.369C220.579 153.71 220.558 154.009 220.558 154.265C220.558 155.332 221.08 155.865 222.126 155.865C223.107 155.865 224.024 155.342 224.878 154.297C225.731 153.252 226.435 151.79 226.99 149.913L226.958 149.305C226.915 148.238 227.096 147.428 227.502 146.873C227.928 146.318 228.547 146.041 229.358 146.041C230.062 146.041 230.414 146.265 230.414 146.713C230.414 146.862 230.382 147.054 230.318 147.289C230.275 147.524 230.2 147.801 230.094 148.121C229.88 148.91 229.699 149.753 229.55 150.649C229.4 151.524 229.326 152.334 229.326 153.081C229.326 153.913 229.454 154.606 229.71 155.161C229.966 155.694 230.446 156.057 231.15 156.249C231.342 156.27 231.491 156.334 231.598 156.441C231.726 156.526 231.79 156.718 231.79 157.017C231.79 157.529 231.576 158.03 231.15 158.521C230.723 159.012 230.104 159.257 229.294 159.257C227.736 159.257 226.958 158.158 226.958 155.961C226.958 155.577 226.99 155.001 227.054 154.233L226.99 154.201C225.646 157.657 223.672 159.385 221.07 159.385ZM265.665 159.385C264.875 159.385 264.193 159.246 263.617 158.969C263.062 158.692 262.571 158.34 262.145 157.913C261.931 158.276 261.675 158.606 261.377 158.905C261.099 159.182 260.779 159.321 260.417 159.321C260.182 159.321 259.958 159.246 259.745 159.097C259.531 158.969 259.446 158.788 259.489 158.553C259.809 156.846 260.075 155.118 260.289 153.369C260.523 151.62 260.641 149.838 260.641 148.025C260.641 146.51 260.587 145.092 260.481 143.769C260.374 142.446 260.043 141.23 259.489 140.121C259.382 139.908 259.286 139.705 259.201 139.513C259.137 139.321 259.105 139.14 259.105 138.969C259.105 138.564 259.339 138.169 259.809 137.785C260.278 137.401 260.779 137.209 261.313 137.209C262.081 137.209 262.603 137.678 262.881 138.617C263.158 139.556 263.297 140.942 263.297 142.777C263.297 144.334 263.222 145.764 263.073 147.065C262.945 148.345 262.795 149.444 262.625 150.361C263.222 149.102 264.033 148.046 265.057 147.193C266.102 146.318 267.275 145.881 268.577 145.881C269.878 145.881 270.891 146.318 271.617 147.193C272.363 148.046 272.737 149.209 272.737 150.681C272.737 151.769 272.566 152.836 272.225 153.881C271.883 154.905 271.403 155.833 270.785 156.665C270.166 157.497 269.419 158.158 268.545 158.649C267.691 159.14 266.731 159.385 265.665 159.385ZM266.401 155.929C267.617 155.929 268.555 155.545 269.217 154.777C269.878 154.009 270.209 153.124 270.209 152.121C270.209 151.246 269.963 150.574 269.473 150.105C269.003 149.614 268.374 149.369 267.585 149.369C266.795 149.369 266.091 149.614 265.473 150.105C264.854 150.574 264.331 151.204 263.905 151.993C263.478 152.761 263.147 153.593 262.913 154.489C263.403 154.958 263.947 155.321 264.545 155.577C265.163 155.812 265.782 155.929 266.401 155.929ZM305.825 159.385C304.203 159.385 302.934 158.926 302.017 158.009C301.121 157.07 300.673 155.769 300.673 154.105C300.673 152.59 301.003 151.214 301.665 149.977C302.326 148.74 303.211 147.758 304.321 147.033C305.451 146.286 306.689 145.913 308.033 145.913C309.313 145.913 310.337 146.233 311.105 146.873C311.873 147.492 312.257 148.324 312.257 149.369C312.257 150.201 312.001 150.969 311.489 151.673C310.977 152.377 310.294 152.942 309.441 153.369C308.587 153.774 307.638 153.977 306.593 153.977C305.313 153.977 304.267 153.689 303.457 153.113C303.478 154.094 303.809 154.884 304.449 155.481C305.11 156.078 305.953 156.377 306.977 156.377C307.595 156.377 308.225 156.27 308.865 156.057C309.526 155.822 310.091 155.513 310.561 155.129C310.859 154.873 311.137 154.745 311.393 154.745C311.606 154.745 311.777 154.82 311.905 154.969C312.054 155.097 312.129 155.268 312.129 155.481C312.129 155.95 311.723 156.569 310.913 157.337C309.483 158.702 307.787 159.385 305.825 159.385ZM306.305 151.865C307.073 151.865 307.713 151.705 308.225 151.385C308.737 151.065 308.993 150.66 308.993 150.169C308.993 149.764 308.822 149.454 308.481 149.241C308.139 149.006 307.67 148.889 307.073 148.889C306.283 148.889 305.59 149.102 304.993 149.529C304.417 149.934 304.001 150.51 303.745 151.257C304.043 151.449 304.427 151.598 304.897 151.705C305.366 151.812 305.835 151.865 306.305 151.865ZM345.206 159.385C343.585 159.385 342.315 158.926 341.398 158.009C340.502 157.07 340.054 155.769 340.054 154.105C340.054 152.59 340.385 151.214 341.046 149.977C341.707 148.74 342.593 147.758 343.702 147.033C344.833 146.286 346.07 145.913 347.414 145.913C348.694 145.913 349.718 146.233 350.486 146.873C351.254 147.492 351.638 148.324 351.638 149.369C351.638 150.201 351.382 150.969 350.87 151.673C350.358 152.377 349.675 152.942 348.822 153.369C347.969 153.774 347.019 153.977 345.974 153.977C344.694 153.977 343.649 153.689 342.838 153.113C342.859 154.094 343.19 154.884 343.83 155.481C344.491 156.078 345.334 156.377 346.358 156.377C346.977 156.377 347.606 156.27 348.246 156.057C348.907 155.822 349.473 155.513 349.942 155.129C350.241 154.873 350.518 154.745 350.774 154.745C350.987 154.745 351.158 154.82 351.286 154.969C351.435 155.097 351.51 155.268 351.51 155.481C351.51 155.95 351.105 156.569 350.294 157.337C348.865 158.702 347.169 159.385 345.206 159.385ZM345.686 151.865C346.454 151.865 347.094 151.705 347.606 151.385C348.118 151.065 348.374 150.66 348.374 150.169C348.374 149.764 348.203 149.454 347.862 149.241C347.521 149.006 347.051 148.889 346.454 148.889C345.665 148.889 344.971 149.102 344.374 149.529C343.798 149.934 343.382 150.51 343.126 151.257C343.425 151.449 343.809 151.598 344.278 151.705C344.747 151.812 345.217 151.865 345.686 151.865ZM381.806 159.289C381.188 159.289 380.729 159.118 380.43 158.777C380.132 158.436 379.982 157.838 379.982 156.985C379.982 156.58 380.014 156.057 380.078 155.417C380.142 154.777 380.217 154.084 380.302 153.337C380.43 152.42 380.537 151.46 380.622 150.457C380.729 149.454 380.782 148.494 380.782 147.577C380.782 146.276 380.718 144.932 380.59 143.545C380.484 142.137 380.164 140.91 379.63 139.865C379.438 139.438 379.342 139.129 379.342 138.937C379.342 138.66 379.46 138.393 379.694 138.137C379.95 137.881 380.26 137.668 380.622 137.497C380.985 137.305 381.337 137.209 381.678 137.209C382.233 137.209 382.649 137.465 382.926 137.977C383.204 138.468 383.385 139.15 383.47 140.025C383.556 140.878 383.598 141.86 383.598 142.969C383.598 144.654 383.524 146.116 383.374 147.353C383.246 148.59 383.118 149.678 382.99 150.617C382.905 151.236 382.82 151.822 382.734 152.377C382.67 152.932 382.638 153.433 382.638 153.881C382.638 154.628 382.756 155.172 382.99 155.513C383.246 155.833 383.652 156.153 384.206 156.473C384.356 156.558 384.462 156.644 384.526 156.729C384.612 156.793 384.654 156.9 384.654 157.049C384.654 157.22 384.569 157.486 384.398 157.849C384.228 158.212 383.929 158.542 383.502 158.841C383.097 159.14 382.532 159.289 381.806 159.289Z" fill="black"/>
</svg>
