<svg width="280" height="166" viewBox="0 0 280 166" fill="none" xmlns="http://www.w3.org/2000/svg">
<path d="M118.2 51.8928C118.054 53.1395 117.65 54.3495 116.99 55.5228C116.33 56.6228 115.56 57.6861 114.68 58.7128C113.8 59.6661 112.847 60.5095 111.82 61.2428C110.867 61.9761 109.95 62.5261 109.07 62.8928C106.504 63.9195 103.754 64.8361 100.82 65.6428C97.9602 66.3761 95.1368 66.9995 92.3502 67.5128C92.2768 67.5128 92.0202 67.5495 91.5802 67.6228C91.1402 67.6228 90.8468 67.5128 90.7002 67.2928C90.7002 67.1461 90.8468 66.9261 91.1402 66.6328C91.4335 66.3395 91.6535 66.1928 91.8002 66.1928C92.8268 65.5328 94.2202 64.7261 95.9802 63.7728C97.8135 62.8195 99.3902 62.1228 100.71 61.6828C101.15 61.6095 102.177 61.2061 103.79 60.4728C105.477 59.6661 107.237 58.7495 109.07 57.7228C110.977 56.6228 112.737 55.4861 114.35 54.3128C116.037 53.1395 117.1 52.0761 117.54 51.1228C117.687 51.0495 117.797 50.9761 117.87 50.9028C117.944 50.8295 118.054 50.7928 118.2 50.7928V51.8928ZM117.76 47.8228C116.587 50.3161 114.974 52.2961 112.92 53.7628C110.867 55.2295 108.557 56.4761 105.99 57.5028C103.497 58.5295 100.857 59.4461 98.0702 60.2528C95.3568 61.0595 92.7535 62.0495 90.2602 63.2228C87.1802 64.6895 84.2468 66.7795 81.4602 69.4928C78.7468 72.1328 76.8768 75.3961 75.8502 79.2828C75.7035 79.3561 75.5568 79.4661 75.4102 79.6128C75.3368 79.7595 75.2268 79.9061 75.0802 80.0528C75.1535 77.4128 75.6302 75.0295 76.5102 72.9028C77.3902 70.7028 78.4902 68.7595 79.8102 67.0728C81.2035 65.3861 82.7435 63.9561 84.4302 62.7828C86.1168 61.5361 87.8768 60.5095 89.7102 59.7028C92.2768 58.6028 94.8802 57.6495 97.5202 56.8428C100.16 55.9628 102.69 55.0828 105.11 54.2028C107.53 53.3228 109.804 52.3328 111.93 51.2328C114.057 50.1328 115.89 48.7761 117.43 47.1628C117.65 47.1628 117.76 47.1628 117.76 47.1628C117.907 47.1628 117.944 47.2361 117.87 47.3828C117.797 47.5295 117.76 47.6761 117.76 47.8228ZM119.85 89.5128C119.85 89.6595 119.814 89.8061 119.74 89.9528C119.667 90.0261 119.594 90.1361 119.52 90.2828L119.19 90.6128C118.31 91.4195 117.54 92.0428 116.88 92.4828C116.22 92.9228 115.157 93.2528 113.69 93.4728C113.104 93.5461 112.444 93.5828 111.71 93.5828C110.977 93.5828 110.28 93.5461 109.62 93.4728C109.034 93.3261 108.52 93.1795 108.08 93.0328C107.64 92.8128 107.494 92.5928 107.64 92.3728C107.714 92.2261 108.08 92.1161 108.74 92.0428C109.474 91.8961 109.95 91.8228 110.17 91.8228C110.977 91.6761 111.71 91.5661 112.37 91.4928C113.104 91.4195 113.764 91.3095 114.35 91.1628C115.304 90.9428 116.147 90.7228 116.88 90.5028C117.614 90.2828 118.457 89.9528 119.41 89.5128C119.704 89.3661 119.85 89.3661 119.85 89.5128ZM113.8 89.8428C113.8 89.9161 113.654 89.9528 113.36 89.9528C113.067 89.8795 112.81 89.8428 112.59 89.8428C109.51 89.2561 106.54 88.2661 103.68 86.8728C100.82 85.4795 97.9968 83.9028 95.2102 82.1428C94.9902 81.9961 94.5135 81.6661 93.7802 81.1528C93.0468 80.5661 92.0935 80.0161 90.9202 79.5028C89.7468 78.9161 88.3535 78.4395 86.7402 78.0728C85.2002 77.6328 83.5135 77.4495 81.6802 77.5228L82.4502 76.7528C85.0168 74.1861 88.0602 72.2428 91.5802 70.9228C95.1735 69.5295 98.8035 68.2095 102.47 66.9628C104.744 66.1561 107.017 65.2761 109.29 64.3228C111.637 63.3695 113.837 62.0128 115.89 60.2528C116.037 59.9595 116.184 59.8861 116.33 60.0328C116.477 60.1795 116.514 60.3261 116.44 60.4728C116.367 60.5461 116.257 60.6928 116.11 60.9128C115.67 62.4528 114.607 63.8828 112.92 65.2028C111.307 66.5228 109.474 67.6961 107.42 68.7228C105.44 69.7495 103.424 70.6661 101.37 71.4728C99.3168 72.2795 97.6668 72.9395 96.4202 73.4528C95.3935 73.8928 94.2568 74.3328 93.0102 74.7728C91.8368 75.2128 90.6268 75.6161 89.3802 75.9828C90.6268 76.2761 91.8735 76.6795 93.1202 77.1928C94.4402 77.7061 95.6868 78.2928 96.8602 78.9528C98.1068 79.5395 99.2435 80.1261 100.27 80.7128C101.297 81.2995 102.177 81.7761 102.91 82.1428C104.67 83.0961 106.43 84.2328 108.19 85.5528C110.024 86.7995 111.674 87.9361 113.14 88.9628C113.654 89.2561 113.874 89.5495 113.8 89.8428ZM84.2102 71.0328C84.3568 71.0328 84.3568 71.1795 84.2102 71.4728C84.1368 71.6928 83.9902 71.9495 83.7702 72.2428C83.6235 72.4628 83.4402 72.7195 83.2202 73.0128C83.0002 73.2328 82.8902 73.3795 82.8902 73.4528C82.3768 74.1861 81.8635 74.8461 81.3502 75.4328C80.8368 76.0195 80.3968 76.6061 80.0302 77.1928L79.5902 77.9628L77.0602 78.8428C77.1335 78.4028 77.2435 77.8895 77.3902 77.3028C77.6102 76.7161 77.9768 76.0561 78.4902 75.3228C78.8568 74.8095 79.3335 74.2595 79.9202 73.6728C80.5802 73.0128 81.2035 72.4628 81.7902 72.0228C82.3768 71.5095 82.8902 71.1428 83.3302 70.9228C83.8435 70.7028 84.1368 70.7395 84.2102 71.0328ZM118.64 93.1428C116.66 94.9761 114.68 96.2961 112.7 97.1028C110.72 97.9095 108.814 98.3861 106.98 98.5328C105.147 98.6061 103.35 98.4228 101.59 97.9828C99.9035 97.4695 98.2902 96.8095 96.7502 96.0028C94.6235 94.9028 92.5702 93.6928 90.5902 92.3728C88.6835 91.0528 86.7768 89.8061 84.8702 88.6328C82.9635 87.4595 81.0568 86.4695 79.1502 85.6628C77.3168 84.8561 75.4102 84.4528 73.4302 84.4528C72.8435 84.4528 72.6968 84.3428 72.9902 84.1228C73.2835 83.9028 73.4668 83.7928 73.5402 83.7928C75.8868 82.9128 78.1235 82.7295 80.2502 83.2428C82.4502 83.7561 84.5768 84.5995 86.6302 85.7728C88.7568 86.8728 90.8102 88.1561 92.7902 89.6228C94.8435 91.0161 96.9335 92.2628 99.0602 93.3628C100.38 94.0228 101.81 94.6095 103.35 95.1228C104.89 95.5628 106.504 95.8195 108.19 95.8928C109.877 95.8928 111.564 95.6728 113.25 95.2328C114.937 94.7928 116.624 93.9861 118.31 92.8128C118.75 92.5195 118.934 92.4828 118.86 92.7028C118.787 92.9228 118.714 93.0695 118.64 93.1428ZM101.7 90.1728C101.554 90.3928 101.297 90.5028 100.93 90.5028C100.564 90.4295 100.344 90.3195 100.27 90.1728C99.1702 90.0261 97.8135 89.5861 96.2002 88.8528C94.5868 88.1195 93.3035 87.3861 92.3502 86.6528C92.0568 86.4328 91.2135 85.9928 89.8202 85.3328C88.4268 84.6728 86.8502 84.0495 85.0902 83.4628C83.4035 82.8028 81.6802 82.2895 79.9202 81.9228C78.2335 81.4828 76.9502 81.4095 76.0702 81.7028C75.7768 81.8495 75.6302 81.8128 75.6302 81.5928C75.7768 81.4461 75.8868 81.3361 75.9602 81.2628C76.0335 81.1895 76.1435 81.0795 76.2902 80.9328C77.2435 80.1995 78.2702 79.6861 79.3702 79.3928C80.5435 79.0261 81.7168 78.8428 82.8902 78.8428C84.0635 78.7695 85.1635 78.8428 86.1902 79.0628C87.2902 79.2828 88.2068 79.6128 88.9402 80.0528C90.9935 81.2261 93.0468 82.5828 95.1002 84.1228C97.2268 85.6628 99.1335 87.2761 100.82 88.9628C100.967 89.0361 101.187 89.2195 101.48 89.5128C101.774 89.8061 101.847 90.0261 101.7 90.1728ZM133.059 47.6028C134.599 52.0761 136.029 56.8795 137.349 62.0128C138.742 67.1461 139.842 71.9861 140.649 76.5328C140.795 76.8261 140.905 77.3395 140.979 78.0728C141.125 78.7328 141.125 79.1361 140.979 79.2828C140.685 79.2828 140.355 78.9895 139.989 78.4028C139.695 77.8161 139.512 77.3761 139.439 77.0828C138.925 76.1295 138.375 74.9561 137.789 73.5628C137.202 72.0961 136.615 70.5928 136.029 69.0528C135.515 67.5128 135.002 66.0095 134.489 64.5428C133.975 63.0028 133.572 61.6828 133.279 60.5828C133.132 60.0695 132.765 59.0428 132.179 57.5028C131.592 55.9628 130.895 54.1661 130.089 52.1128C129.282 50.0595 128.365 47.8595 127.339 45.5128C126.312 43.0928 125.285 40.8195 124.259 38.6928C123.232 36.4928 122.205 34.5495 121.179 32.8628C120.225 31.1028 119.382 29.8561 118.649 29.1228C118.502 28.9761 118.392 28.8661 118.319 28.7928C118.245 28.6461 118.172 28.4995 118.099 28.3528C118.025 28.2061 117.989 28.0961 117.989 28.0228C118.135 27.9494 118.282 27.9861 118.429 28.1328C118.649 28.2061 118.832 28.2428 118.979 28.2428C120.445 28.9761 121.875 30.1128 123.269 31.6528C124.735 33.1195 126.092 34.7695 127.339 36.6028C128.659 38.3628 129.795 40.2328 130.749 42.2128C131.702 44.1928 132.472 45.9895 133.059 47.6028ZM146.699 72.4628C148.019 76.4228 149.339 80.4928 150.659 84.6728C152.052 88.8528 153.335 92.4828 154.509 95.5628C154.582 96.1495 154.655 96.6261 154.729 96.9928C154.802 97.2861 154.765 97.4328 154.619 97.4328C154.545 97.5795 154.362 97.4695 154.069 97.1028C153.849 96.7361 153.629 96.3695 153.409 96.0028C151.649 93.3628 150.072 90.6128 148.679 87.7528C147.359 84.8928 146.112 81.9595 144.939 78.9528C143.839 75.9461 142.775 72.8295 141.749 69.6028C140.795 66.3761 139.805 63.1128 138.779 59.8128C137.532 55.8528 136.175 51.8194 134.709 47.7128C133.242 43.6061 131.299 39.4628 128.879 35.2828C128.659 35.0628 128.549 34.9528 128.549 34.9528C128.549 34.8795 128.622 34.8061 128.769 34.7328C128.842 34.5861 128.915 34.5861 128.989 34.7328C129.062 34.8795 129.209 35.0261 129.429 35.1728C131.262 36.5661 133.059 38.9128 134.819 42.2128C136.579 45.4395 138.229 48.9595 139.769 52.7728C141.309 56.5861 142.665 60.3261 143.839 63.9928C145.085 67.5861 146.039 70.4095 146.699 72.4628ZM158.909 107.443C159.202 107.589 159.422 107.773 159.569 107.993C159.715 108.139 159.715 108.213 159.569 108.213C159.495 108.433 159.312 108.433 159.019 108.213C155.792 107.406 152.785 106.013 149.999 104.033C147.285 102.053 144.829 99.7061 142.629 96.9928C140.429 94.2061 138.449 91.1628 136.689 87.8628C135.002 84.5628 133.572 81.1895 132.399 77.7428C130.859 73.1228 129.392 68.5395 127.999 63.9928C126.679 59.3728 125.285 54.8995 123.819 50.5728C122.425 46.1728 120.922 42.0295 119.309 38.1428C117.769 34.2561 115.972 30.7361 113.919 27.5828C113.919 27.2161 113.919 27.0328 113.919 27.0328C113.919 26.8861 113.919 26.8495 113.919 26.9228C113.992 26.9961 114.102 27.0694 114.249 27.1428C114.395 27.2895 114.542 27.3994 114.689 27.4728C117.622 30.3328 120.079 33.7428 122.059 37.7028C124.112 41.5895 125.909 45.8061 127.449 50.3528C128.989 54.8261 130.419 59.4828 131.739 64.3228C133.132 69.0895 134.635 73.7461 136.249 78.2928C137.275 81.2261 138.559 84.1595 140.099 87.0928C141.712 90.0261 143.472 92.7761 145.379 95.3428C147.359 97.9095 149.485 100.256 151.759 102.383C154.032 104.509 156.415 106.196 158.909 107.443ZM154.619 100.073C155.792 101.099 156.929 102.053 158.029 102.933C159.129 103.739 160.302 104.509 161.549 105.243C161.695 105.389 161.842 105.573 161.989 105.793C162.209 106.013 162.282 106.123 162.209 106.123C162.062 106.269 161.879 106.343 161.659 106.343C161.512 106.343 161.365 106.343 161.219 106.343C160.999 106.343 160.852 106.306 160.779 106.233C160.045 106.013 159.385 105.829 158.799 105.683C158.212 105.536 157.625 105.316 157.039 105.023C156.452 104.656 155.829 104.253 155.169 103.813C154.509 103.299 153.739 102.603 152.859 101.723C152.199 101.063 151.429 100.146 150.549 98.9728C149.742 97.7995 148.972 96.6628 148.239 95.5628C147.505 94.3895 146.919 93.3995 146.479 92.5928C146.112 91.7128 146.039 91.1995 146.259 91.0528C146.332 90.9795 146.515 91.0895 146.809 91.3828C147.175 91.6028 147.542 91.9328 147.909 92.3728C148.275 92.7395 148.605 93.1428 148.899 93.5828C149.265 93.9495 149.522 94.2061 149.669 94.3528C150.475 95.5261 151.282 96.5528 152.089 97.4328C152.895 98.3128 153.739 99.1928 154.619 100.073ZM202.521 74.2228C202.448 74.3695 202.265 74.4061 201.971 74.3328C201.678 74.2595 201.421 74.1495 201.201 74.0028C197.755 72.7561 194.565 70.9961 191.631 68.7228C188.698 66.4495 185.801 63.9928 182.941 61.3528C181.255 59.7395 179.421 58.1628 177.441 56.6228C175.535 55.0828 173.298 53.7995 170.731 52.7728C170.585 52.7728 170.511 52.7361 170.511 52.6628C170.585 52.4428 170.768 52.2961 171.061 52.2228C172.675 51.9295 174.471 52.2228 176.451 53.1028C178.431 53.9095 180.338 54.9361 182.171 56.1828C184.078 57.4295 185.875 58.7495 187.561 60.1428C189.248 61.5361 190.641 62.6361 191.741 63.4428C193.575 64.9095 195.408 66.5595 197.241 68.3928C199.148 70.1528 200.725 71.7295 201.971 73.1228C202.118 73.3428 202.265 73.5628 202.411 73.7828C202.631 73.9295 202.668 74.0761 202.521 74.2228ZM206.921 78.9528C206.628 80.1995 206.078 81.3728 205.271 82.4728C204.538 83.5728 203.695 84.5995 202.741 85.5528C201.788 86.4328 200.761 87.2028 199.661 87.8628C198.561 88.4495 197.535 88.8528 196.581 89.0728C194.015 90.0261 191.191 90.7961 188.111 91.3828C185.031 91.8961 182.171 92.1528 179.531 92.1528C179.165 92.2261 178.798 92.2628 178.431 92.2628C178.138 92.2628 177.955 92.2261 177.881 92.1528C177.735 91.8595 177.808 91.6028 178.101 91.3828C178.468 91.1628 178.725 91.0528 178.871 91.0528C179.385 90.7595 180.045 90.4295 180.851 90.0628C181.658 89.6961 182.501 89.3295 183.381 88.9628C184.261 88.5961 185.141 88.2661 186.021 87.9728C186.901 87.6795 187.635 87.4595 188.221 87.3128C188.735 87.1661 189.835 86.7995 191.521 86.2128C193.281 85.5528 195.151 84.8195 197.131 84.0128C199.185 83.2061 201.091 82.3261 202.851 81.3728C204.611 80.3461 205.785 79.3561 206.371 78.4028C206.591 78.0361 206.775 77.8895 206.921 77.9628C207.068 78.0361 207.068 78.3661 206.921 78.9528ZM188.991 71.3628C188.845 71.5095 188.588 71.5461 188.221 71.4728C187.928 71.3261 187.745 71.1795 187.671 71.0328C186.498 70.4461 185.068 69.6028 183.381 68.5028C181.695 67.4028 180.411 66.3761 179.531 65.4228C179.165 65.1295 178.211 64.4695 176.671 63.4428C175.205 62.3428 173.555 61.2428 171.721 60.1428C169.888 58.9695 168.055 57.9428 166.221 57.0628C164.461 56.1095 163.105 55.6328 162.151 55.6328C162.005 55.7795 161.821 55.8161 161.601 55.7428C161.455 55.5961 161.381 55.4495 161.381 55.3028L162.371 54.8628C163.471 54.3495 164.681 54.0928 166.001 54.0928C167.321 54.0928 168.605 54.2761 169.851 54.6428C171.171 54.9361 172.381 55.3761 173.481 55.9628C174.655 56.4761 175.608 57.0628 176.341 57.7228C178.321 59.4095 180.375 61.3528 182.501 63.5528C184.701 65.6795 186.681 67.8061 188.441 69.9328C188.588 70.0795 188.735 70.3361 188.881 70.7028C189.101 70.9961 189.138 71.2161 188.991 71.3628ZM206.811 74.8828C205.418 77.3028 203.585 79.1728 201.311 80.4928C199.111 81.7395 196.691 82.7661 194.051 83.5728C191.411 84.3061 188.661 84.9661 185.801 85.5528C182.941 86.1395 180.191 86.8728 177.551 87.7528C175.938 88.2661 174.325 88.9995 172.711 89.9528C171.098 90.8328 169.558 91.9328 168.091 93.2528C166.625 94.4995 165.305 95.9295 164.131 97.5428C162.958 99.1561 162.041 100.953 161.381 102.933C161.235 103.373 161.161 103.593 161.161 103.593C161.015 103.593 160.941 103.519 160.941 103.373C160.941 103.226 160.941 103.079 160.941 102.933C161.308 100.219 162.005 97.8361 163.031 95.7828C164.058 93.7295 165.305 91.9695 166.771 90.5028C168.238 88.9628 169.888 87.6795 171.721 86.6528C173.628 85.6261 175.571 84.7828 177.551 84.1228C179.825 83.3161 182.135 82.6928 184.481 82.2528C186.828 81.7395 189.138 81.1895 191.411 80.6028C189.798 80.1628 188.331 79.5395 187.011 78.7328C185.691 77.9261 184.335 77.0095 182.941 75.9828C180.741 74.2961 178.615 72.5361 176.561 70.7028C174.581 68.8695 172.601 67.1095 170.621 65.4228C168.715 63.7361 166.771 62.2328 164.791 60.9128C162.885 59.5195 160.868 58.4561 158.741 57.7228H158.521C158.375 57.7228 158.338 57.6861 158.411 57.6128C158.338 57.4661 158.411 57.3928 158.631 57.3928C158.851 57.3195 159.035 57.2828 159.181 57.2828C161.821 57.0628 164.278 57.5028 166.551 58.6028C168.825 59.6295 170.988 60.9861 173.041 62.6728C175.168 64.3595 177.258 66.1928 179.311 68.1728C181.365 70.1528 183.491 71.9861 185.691 73.6728C186.791 74.4795 187.928 75.2861 189.101 76.0928C190.348 76.8261 191.595 77.4495 192.841 77.9628C194.088 78.4028 195.371 78.6595 196.691 78.7328C198.085 78.8061 199.441 78.5495 200.761 77.9628C200.101 77.8895 199.405 77.7428 198.671 77.5228C198.011 77.3028 197.388 77.0828 196.801 76.8628C196.215 76.5695 195.738 76.2761 195.371 75.9828C195.078 75.6895 195.005 75.4328 195.151 75.2128C195.298 74.9928 195.811 74.9561 196.691 75.1028C197.645 75.1761 198.305 75.2128 198.671 75.2128C199.991 75.4328 201.275 75.5795 202.521 75.6528C203.841 75.6528 205.015 75.3595 206.041 74.7728C206.188 74.6261 206.445 74.4795 206.811 74.3328C207.178 74.1861 207.178 74.3695 206.811 74.8828ZM204.171 87.0928C204.171 87.1661 204.135 87.2395 204.061 87.3128C204.061 87.3861 204.061 87.4595 204.061 87.5328C203.988 87.6795 203.951 87.7895 203.951 87.8628C203.291 89.4761 202.045 90.8695 200.211 92.0428C198.378 93.1428 196.361 94.0961 194.161 94.9028C192.035 95.7095 189.908 96.4061 187.781 96.9928C185.728 97.5061 184.078 97.9828 182.831 98.4228C180.558 99.2295 178.138 99.8895 175.571 100.403C173.005 100.843 170.768 101.283 168.861 101.723C168.128 101.723 167.651 101.686 167.431 101.613C167.431 101.393 167.541 101.209 167.761 101.063C168.055 100.843 168.311 100.659 168.531 100.513C171.611 98.3861 174.911 96.8095 178.431 95.7828C182.025 94.6828 185.691 93.6561 189.431 92.7028C191.778 92.1161 194.161 91.4561 196.581 90.7228C199.001 89.9161 201.385 88.7061 203.731 87.0928C204.025 87.0195 204.171 87.0195 204.171 87.0928ZM170.951 94.7928C171.025 94.9395 170.988 95.1595 170.841 95.4528C170.695 95.7461 170.511 96.0395 170.291 96.3328C170.071 96.5528 169.851 96.7728 169.631 96.9928C169.411 97.2128 169.301 97.3595 169.301 97.4328C168.568 98.0195 167.945 98.6061 167.431 99.1928C166.918 99.7061 166.405 100.256 165.891 100.843C165.378 101.649 164.901 102.456 164.461 103.263C164.021 103.996 163.545 104.656 163.031 105.243C163.031 105.389 162.958 105.499 162.811 105.573C162.665 105.646 162.665 105.609 162.811 105.463C162.665 105.316 162.591 105.059 162.591 104.693V104.363C162.591 103.556 162.701 102.749 162.921 101.943C163.141 101.063 163.765 99.9995 164.791 98.7528C165.158 98.3128 165.671 97.8361 166.331 97.3228C166.991 96.7361 167.651 96.2228 168.311 95.7828C168.971 95.3428 169.521 95.0128 169.961 94.7928C170.475 94.5728 170.805 94.5728 170.951 94.7928Z" fill="white"/>
</svg>
