<svg width="507" height="304" viewBox="0 0 507 304" fill="none" xmlns="http://www.w3.org/2000/svg">
<rect width="507" height="304" rx="20" fill="#ABEDD8"/>
<path d="M250.47 182.123C249.958 182.123 249.446 181.995 248.934 181.739C248.422 181.568 248.038 181.269 247.782 180.843L218.982 115.691H218.598L218.854 166.507C218.94 168.128 219.068 169.707 219.238 171.243C219.494 172.693 220.177 173.931 221.286 174.955C222.396 175.893 224.273 176.363 226.918 176.363C227.857 176.363 228.625 176.448 229.222 176.619C229.82 176.789 230.161 177.6 230.246 179.051C230.246 179.733 230.033 180.373 229.606 180.971C229.265 181.568 228.71 181.867 227.942 181.867C226.15 181.781 224.7 181.696 223.59 181.611C222.481 181.611 221.414 181.568 220.39 181.483C219.366 181.483 218.001 181.483 216.294 181.483C213.734 181.483 211.644 181.483 210.022 181.483C208.486 181.568 206.353 181.696 203.622 181.867C202.769 181.867 202.172 181.568 201.83 180.971C201.489 180.373 201.318 179.733 201.318 179.051C201.404 177.6 201.745 176.789 202.342 176.619C202.94 176.448 203.665 176.363 204.518 176.363C207.249 176.363 209.126 175.893 210.15 174.955C211.26 173.931 211.942 172.693 212.198 171.243C212.454 169.707 212.582 168.128 212.582 166.507L212.838 115.691C212.838 112.96 212.54 110.955 211.942 109.675C211.345 108.309 210.406 107.371 209.126 106.859C207.846 106.261 206.225 105.792 204.262 105.451C203.068 105.195 202.214 104.981 201.702 104.811C201.276 104.64 201.062 103.872 201.062 102.507C201.062 101.056 201.574 100.288 202.598 100.203C203.622 100.032 204.817 99.9468 206.182 99.9468C210.364 99.9468 214.033 100.288 217.19 100.971C220.433 101.653 223.249 102.976 225.638 104.939C228.028 106.816 229.99 109.675 231.526 113.515L253.542 162.923H253.926L279.142 100.715H286.438C288.998 100.715 291.473 100.672 293.862 100.587C296.337 100.501 298.94 100.416 301.67 100.331C302.524 100.331 303.121 100.629 303.462 101.227C303.804 101.824 303.974 102.464 303.974 103.147C303.889 104.597 303.548 105.408 302.95 105.579C302.353 105.749 301.628 105.835 300.774 105.835C298.129 105.835 296.209 106.347 295.014 107.371C293.905 108.309 293.222 109.547 292.966 111.083C292.71 112.533 292.54 114.069 292.454 115.691V166.507C292.54 168.128 292.71 169.707 292.966 171.243C293.222 172.693 293.905 173.931 295.014 174.955C296.209 175.893 298.129 176.363 300.774 176.363C301.628 176.363 302.353 176.448 302.95 176.619C303.548 176.789 303.889 177.6 303.974 179.051C303.974 179.733 303.804 180.373 303.462 180.971C303.121 181.568 302.524 181.867 301.67 181.867C298.94 181.696 296.337 181.568 293.862 181.483C291.388 181.483 288.87 181.483 286.31 181.483C281.361 181.483 276.113 181.611 270.566 181.867C269.713 181.867 269.116 181.568 268.774 180.971C268.433 180.373 268.262 179.733 268.262 179.051C268.348 177.6 268.689 176.789 269.286 176.619C269.884 176.448 270.609 176.363 271.462 176.363C274.193 176.363 276.113 175.893 277.222 174.955C278.332 173.931 279.014 172.693 279.27 171.243C279.612 169.707 279.782 168.128 279.782 166.507V115.691H279.398L253.03 180.843C252.86 181.269 252.518 181.568 252.006 181.739C251.494 181.995 250.982 182.123 250.47 182.123ZM317.116 181.867C316.263 181.867 315.666 181.568 315.324 180.971C314.983 180.373 314.812 179.733 314.812 179.051C314.898 177.6 315.239 176.789 315.836 176.619C316.434 176.448 317.159 176.363 318.012 176.363C320.743 176.363 322.663 175.893 323.772 174.955C324.882 173.931 325.564 172.693 325.82 171.243C326.162 169.707 326.332 168.128 326.332 166.507V115.691C326.332 114.069 326.162 112.533 325.82 111.083C325.564 109.547 324.882 108.309 323.772 107.371C322.663 106.347 320.743 105.835 318.012 105.835C317.159 105.835 316.434 105.749 315.836 105.579C315.239 105.408 314.898 104.597 314.812 103.147C314.812 102.464 314.983 101.824 315.324 101.227C315.666 100.629 316.263 100.331 317.116 100.331C319.847 100.416 322.407 100.501 324.796 100.587C327.186 100.672 329.66 100.715 332.22 100.715H350.268C355.218 100.715 359.1 101.099 361.916 101.867C364.818 102.549 367.335 103.573 369.468 104.939C371.687 106.389 373.436 108.395 374.716 110.955C375.996 113.429 376.636 116.16 376.636 119.147C376.636 122.987 375.74 126.229 373.948 128.875C372.156 131.435 369.895 133.483 367.164 135.019C364.519 136.469 361.916 137.493 359.356 138.091V138.475C363.879 138.389 367.89 139.2 371.388 140.907C374.887 142.613 377.66 144.875 379.708 147.691C381.756 150.507 382.823 153.579 382.908 156.907C383.079 161.771 382.055 165.781 379.836 168.939C377.618 172.096 374.716 174.613 371.132 176.491C367.634 178.368 363.794 179.691 359.612 180.459C355.516 181.227 351.548 181.611 347.708 181.611L332.348 181.483C329.788 181.483 327.271 181.483 324.796 181.483C322.407 181.568 319.847 181.696 317.116 181.867ZM339.004 135.915H344.38C346.087 135.915 348.007 135.829 350.14 135.659C352.274 135.488 354.322 134.976 356.284 134.123C358.247 133.184 359.826 131.691 361.02 129.643C362.3 127.509 362.94 124.523 362.94 120.683C362.94 116.16 361.831 112.491 359.612 109.675C357.479 106.859 353.596 105.451 347.964 105.451H339.004V135.915ZM348.22 176.491C352.06 176.405 355.559 175.765 358.716 174.571C361.874 173.376 364.391 171.371 366.268 168.555C368.146 165.739 369.084 161.856 369.084 156.907C368.828 154.176 367.89 151.616 366.268 149.227C364.732 146.837 362.172 144.875 358.588 143.339C355.09 141.803 350.311 141.035 344.252 141.035H339.004V166.507C339.004 170.773 339.644 173.504 340.924 174.699C342.204 175.893 344.636 176.491 348.22 176.491ZM395.366 181.867C394.598 181.867 394.044 181.568 393.702 180.971C393.361 180.373 393.19 179.733 393.19 179.051C393.276 177.6 393.617 176.789 394.214 176.619C394.812 176.448 395.537 176.363 396.39 176.363C399.121 176.363 401.041 175.893 402.15 174.955C403.26 173.931 403.942 172.693 404.198 171.243C404.54 169.707 404.71 168.128 404.71 166.507V115.691C404.71 114.069 404.54 112.533 404.198 111.083C403.942 109.547 403.26 108.309 402.15 107.371C401.041 106.347 399.121 105.835 396.39 105.835C395.537 105.835 394.812 105.749 394.214 105.579C393.617 105.408 393.276 104.597 393.19 103.147C393.19 102.464 393.361 101.824 393.702 101.227C394.044 100.629 394.598 100.331 395.366 100.331C398.182 100.416 400.785 100.501 403.174 100.587C405.564 100.672 408.038 100.715 410.598 100.715C415.804 100.715 421.137 100.587 426.598 100.331C427.452 100.331 428.049 100.629 428.39 101.227C428.732 101.824 428.902 102.464 428.902 103.147C428.817 104.597 428.476 105.408 427.878 105.579C427.281 105.749 426.556 105.835 425.702 105.835C423.057 105.835 421.137 106.347 419.942 107.371C418.833 108.309 418.15 109.547 417.894 111.083C417.638 112.533 417.468 114.069 417.382 115.691V168.427C417.468 169.536 417.638 170.731 417.894 172.011C418.15 173.291 418.876 174.357 420.07 175.211C421.35 176.064 423.441 176.448 426.342 176.363H437.862C440.849 176.277 443.11 175.808 444.646 174.955C446.268 174.016 447.548 172.48 448.486 170.347C449.425 168.213 450.449 165.269 451.558 161.515C451.9 160.661 452.454 160.107 453.222 159.851C454.076 159.595 454.972 159.552 455.91 159.723C456.593 159.808 457.276 160.107 457.958 160.619C458.726 161.131 459.068 161.813 458.982 162.667L456.422 178.795C456.166 179.989 455.74 180.757 455.142 181.099C454.63 181.355 453.82 181.483 452.71 181.483H410.726C408.166 181.483 405.649 181.483 403.174 181.483C400.785 181.568 398.182 181.696 395.366 181.867Z" fill="black"/>
<path d="M93.457 144.425C93.3103 145.672 92.907 146.882 92.247 148.055C91.587 149.155 90.817 150.218 89.937 151.245C89.057 152.198 88.1036 153.042 87.077 153.775C86.1236 154.508 85.207 155.058 84.327 155.425C81.7603 156.452 79.0103 157.368 76.077 158.175C73.217 158.908 70.3936 159.532 67.607 160.045C67.5336 160.045 67.277 160.082 66.837 160.155C66.397 160.155 66.1036 160.045 65.957 159.825C65.957 159.678 66.1036 159.458 66.397 159.165C66.6903 158.872 66.9103 158.725 67.057 158.725C68.0836 158.065 69.477 157.258 71.237 156.305C73.0703 155.352 74.647 154.655 75.967 154.215C76.407 154.142 77.4336 153.738 79.047 153.005C80.7336 152.198 82.4936 151.282 84.327 150.255C86.2336 149.155 87.9936 148.018 89.607 146.845C91.2936 145.672 92.357 144.608 92.797 143.655C92.9436 143.582 93.0536 143.508 93.127 143.435C93.2003 143.362 93.3103 143.325 93.457 143.325V144.425ZM93.017 140.355C91.8436 142.848 90.2303 144.828 88.177 146.295C86.1236 147.762 83.8136 149.008 81.247 150.035C78.7536 151.062 76.1136 151.978 73.327 152.785C70.6136 153.592 68.0103 154.582 65.517 155.755C62.437 157.222 59.5036 159.312 56.717 162.025C54.0036 164.665 52.1336 167.928 51.107 171.815C50.9603 171.888 50.8136 171.998 50.667 172.145C50.5936 172.292 50.4836 172.438 50.337 172.585C50.4103 169.945 50.887 167.562 51.767 165.435C52.647 163.235 53.747 161.292 55.067 159.605C56.4603 157.918 58.0003 156.488 59.687 155.315C61.3736 154.068 63.1336 153.042 64.967 152.235C67.5336 151.135 70.137 150.182 72.777 149.375C75.417 148.495 77.947 147.615 80.367 146.735C82.787 145.855 85.0603 144.865 87.187 143.765C89.3136 142.665 91.147 141.308 92.687 139.695C92.907 139.695 93.017 139.695 93.017 139.695C93.1636 139.695 93.2003 139.768 93.127 139.915C93.0536 140.062 93.017 140.208 93.017 140.355ZM95.107 182.045C95.107 182.192 95.0703 182.338 94.997 182.485C94.9236 182.558 94.8503 182.668 94.777 182.815L94.447 183.145C93.567 183.952 92.797 184.575 92.137 185.015C91.477 185.455 90.4136 185.785 88.947 186.005C88.3603 186.078 87.7003 186.115 86.967 186.115C86.2336 186.115 85.537 186.078 84.877 186.005C84.2903 185.858 83.777 185.712 83.337 185.565C82.897 185.345 82.7503 185.125 82.897 184.905C82.9703 184.758 83.337 184.648 83.997 184.575C84.7303 184.428 85.207 184.355 85.427 184.355C86.2336 184.208 86.967 184.098 87.627 184.025C88.3603 183.952 89.0203 183.842 89.607 183.695C90.5603 183.475 91.4036 183.255 92.137 183.035C92.8703 182.815 93.7136 182.485 94.667 182.045C94.9603 181.898 95.107 181.898 95.107 182.045ZM89.057 182.375C89.057 182.448 88.9103 182.485 88.617 182.485C88.3236 182.412 88.067 182.375 87.847 182.375C84.767 181.788 81.797 180.798 78.937 179.405C76.077 178.012 73.2536 176.435 70.467 174.675C70.247 174.528 69.7703 174.198 69.037 173.685C68.3036 173.098 67.3503 172.548 66.177 172.035C65.0036 171.448 63.6103 170.972 61.997 170.605C60.457 170.165 58.7703 169.982 56.937 170.055L57.707 169.285C60.2736 166.718 63.317 164.775 66.837 163.455C70.4303 162.062 74.0603 160.742 77.727 159.495C80.0003 158.688 82.2736 157.808 84.547 156.855C86.8936 155.902 89.0936 154.545 91.147 152.785C91.2936 152.492 91.4403 152.418 91.587 152.565C91.7336 152.712 91.7703 152.858 91.697 153.005C91.6236 153.078 91.5136 153.225 91.367 153.445C90.927 154.985 89.8636 156.415 88.177 157.735C86.5636 159.055 84.7303 160.228 82.677 161.255C80.697 162.282 78.6803 163.198 76.627 164.005C74.5736 164.812 72.9236 165.472 71.677 165.985C70.6503 166.425 69.5136 166.865 68.267 167.305C67.0936 167.745 65.8836 168.148 64.637 168.515C65.8836 168.808 67.1303 169.212 68.377 169.725C69.697 170.238 70.9436 170.825 72.117 171.485C73.3636 172.072 74.5003 172.658 75.527 173.245C76.5536 173.832 77.4336 174.308 78.167 174.675C79.927 175.628 81.687 176.765 83.447 178.085C85.2803 179.332 86.9303 180.468 88.397 181.495C88.9103 181.788 89.1303 182.082 89.057 182.375ZM59.467 163.565C59.6136 163.565 59.6136 163.712 59.467 164.005C59.3936 164.225 59.247 164.482 59.027 164.775C58.8803 164.995 58.697 165.252 58.477 165.545C58.257 165.765 58.147 165.912 58.147 165.985C57.6336 166.718 57.1203 167.378 56.607 167.965C56.0936 168.552 55.6536 169.138 55.287 169.725L54.847 170.495L52.317 171.375C52.3903 170.935 52.5003 170.422 52.647 169.835C52.867 169.248 53.2336 168.588 53.747 167.855C54.1136 167.342 54.5903 166.792 55.177 166.205C55.837 165.545 56.4603 164.995 57.047 164.555C57.6336 164.042 58.147 163.675 58.587 163.455C59.1003 163.235 59.3936 163.272 59.467 163.565ZM93.897 185.675C91.917 187.508 89.937 188.828 87.957 189.635C85.977 190.442 84.0703 190.918 82.237 191.065C80.4036 191.138 78.607 190.955 76.847 190.515C75.1603 190.002 73.547 189.342 72.007 188.535C69.8803 187.435 67.827 186.225 65.847 184.905C63.9403 183.585 62.0336 182.338 60.127 181.165C58.2203 179.992 56.3136 179.002 54.407 178.195C52.5736 177.388 50.667 176.985 48.687 176.985C48.1003 176.985 47.9536 176.875 48.247 176.655C48.5403 176.435 48.7236 176.325 48.797 176.325C51.1436 175.445 53.3803 175.262 55.507 175.775C57.707 176.288 59.8336 177.132 61.887 178.305C64.0136 179.405 66.067 180.688 68.047 182.155C70.1003 183.548 72.1903 184.795 74.317 185.895C75.637 186.555 77.067 187.142 78.607 187.655C80.147 188.095 81.7603 188.352 83.447 188.425C85.1336 188.425 86.8203 188.205 88.507 187.765C90.1936 187.325 91.8803 186.518 93.567 185.345C94.007 185.052 94.1903 185.015 94.117 185.235C94.0436 185.455 93.9703 185.602 93.897 185.675ZM76.957 182.705C76.8103 182.925 76.5536 183.035 76.187 183.035C75.8203 182.962 75.6003 182.852 75.527 182.705C74.427 182.558 73.0703 182.118 71.457 181.385C69.8436 180.652 68.5603 179.918 67.607 179.185C67.3136 178.965 66.4703 178.525 65.077 177.865C63.6836 177.205 62.107 176.582 60.347 175.995C58.6603 175.335 56.937 174.822 55.177 174.455C53.4903 174.015 52.207 173.942 51.327 174.235C51.0336 174.382 50.887 174.345 50.887 174.125C51.0336 173.978 51.1436 173.868 51.217 173.795C51.2903 173.722 51.4003 173.612 51.547 173.465C52.5003 172.732 53.527 172.218 54.627 171.925C55.8003 171.558 56.9736 171.375 58.147 171.375C59.3203 171.302 60.4203 171.375 61.447 171.595C62.547 171.815 63.4636 172.145 64.197 172.585C66.2503 173.758 68.3036 175.115 70.357 176.655C72.4836 178.195 74.3903 179.808 76.077 181.495C76.2236 181.568 76.4436 181.752 76.737 182.045C77.0303 182.338 77.1036 182.558 76.957 182.705ZM108.316 140.135C109.856 144.608 111.286 149.412 112.606 154.545C113.999 159.678 115.099 164.518 115.906 169.065C116.052 169.358 116.162 169.872 116.236 170.605C116.382 171.265 116.382 171.668 116.236 171.815C115.942 171.815 115.612 171.522 115.246 170.935C114.952 170.348 114.769 169.908 114.696 169.615C114.182 168.662 113.632 167.488 113.046 166.095C112.459 164.628 111.872 163.125 111.286 161.585C110.772 160.045 110.259 158.542 109.746 157.075C109.232 155.535 108.829 154.215 108.536 153.115C108.389 152.602 108.022 151.575 107.436 150.035C106.849 148.495 106.152 146.698 105.346 144.645C104.539 142.592 103.622 140.392 102.596 138.045C101.569 135.625 100.542 133.352 99.5155 131.225C98.4889 129.025 97.4622 127.082 96.4355 125.395C95.4822 123.635 94.6389 122.388 93.9055 121.655C93.7589 121.508 93.6489 121.398 93.5755 121.325C93.5022 121.178 93.4289 121.032 93.3555 120.885C93.2822 120.738 93.2455 120.628 93.2455 120.555C93.3922 120.482 93.5389 120.518 93.6855 120.665C93.9055 120.738 94.0889 120.775 94.2355 120.775C95.7022 121.508 97.1322 122.645 98.5255 124.185C99.9922 125.652 101.349 127.302 102.596 129.135C103.916 130.895 105.052 132.765 106.006 134.745C106.959 136.725 107.729 138.522 108.316 140.135ZM121.956 164.995C123.276 168.955 124.596 173.025 125.916 177.205C127.309 181.385 128.592 185.015 129.766 188.095C129.839 188.682 129.912 189.158 129.986 189.525C130.059 189.818 130.022 189.965 129.876 189.965C129.802 190.112 129.619 190.002 129.326 189.635C129.106 189.268 128.886 188.902 128.666 188.535C126.906 185.895 125.329 183.145 123.936 180.285C122.616 177.425 121.369 174.492 120.196 171.485C119.096 168.478 118.032 165.362 117.006 162.135C116.052 158.908 115.062 155.645 114.036 152.345C112.789 148.385 111.432 144.352 109.966 140.245C108.499 136.138 106.556 131.995 104.136 127.815C103.916 127.595 103.806 127.485 103.806 127.485C103.806 127.412 103.879 127.338 104.026 127.265C104.099 127.118 104.172 127.118 104.246 127.265C104.319 127.412 104.466 127.558 104.686 127.705C106.519 129.098 108.316 131.445 110.076 134.745C111.836 137.972 113.486 141.492 115.026 145.305C116.566 149.118 117.922 152.858 119.096 156.525C120.342 160.118 121.296 162.942 121.956 164.995ZM134.166 199.975C134.459 200.122 134.679 200.305 134.826 200.525C134.972 200.672 134.972 200.745 134.826 200.745C134.752 200.965 134.569 200.965 134.276 200.745C131.049 199.938 128.042 198.545 125.256 196.565C122.542 194.585 120.086 192.238 117.886 189.525C115.686 186.738 113.706 183.695 111.946 180.395C110.259 177.095 108.829 173.722 107.656 170.275C106.116 165.655 104.649 161.072 103.256 156.525C101.936 151.905 100.542 147.432 99.0755 143.105C97.6822 138.705 96.1789 134.562 94.5655 130.675C93.0255 126.788 91.2289 123.268 89.1755 120.115C89.1755 119.748 89.1755 119.565 89.1755 119.565C89.1755 119.418 89.1755 119.382 89.1755 119.455C89.2489 119.528 89.3589 119.602 89.5055 119.675C89.6522 119.822 89.7989 119.932 89.9455 120.005C92.8789 122.865 95.3355 126.275 97.3155 130.235C99.3689 134.122 101.166 138.338 102.706 142.885C104.246 147.358 105.676 152.015 106.996 156.855C108.389 161.622 109.892 166.278 111.506 170.825C112.532 173.758 113.816 176.692 115.356 179.625C116.969 182.558 118.729 185.308 120.636 187.875C122.616 190.442 124.742 192.788 127.016 194.915C129.289 197.042 131.672 198.728 134.166 199.975ZM129.876 192.605C131.049 193.632 132.186 194.585 133.286 195.465C134.386 196.272 135.559 197.042 136.806 197.775C136.952 197.922 137.099 198.105 137.246 198.325C137.466 198.545 137.539 198.655 137.466 198.655C137.319 198.802 137.136 198.875 136.916 198.875C136.769 198.875 136.622 198.875 136.476 198.875C136.256 198.875 136.109 198.838 136.036 198.765C135.302 198.545 134.642 198.362 134.056 198.215C133.469 198.068 132.882 197.848 132.296 197.555C131.709 197.188 131.086 196.785 130.426 196.345C129.766 195.832 128.996 195.135 128.116 194.255C127.456 193.595 126.686 192.678 125.806 191.505C124.999 190.332 124.229 189.195 123.496 188.095C122.762 186.922 122.176 185.932 121.736 185.125C121.369 184.245 121.296 183.732 121.516 183.585C121.589 183.512 121.772 183.622 122.066 183.915C122.432 184.135 122.799 184.465 123.166 184.905C123.532 185.272 123.862 185.675 124.156 186.115C124.522 186.482 124.779 186.738 124.926 186.885C125.732 188.058 126.539 189.085 127.346 189.965C128.152 190.845 128.996 191.725 129.876 192.605ZM177.778 166.755C177.705 166.902 177.521 166.938 177.228 166.865C176.935 166.792 176.678 166.682 176.458 166.535C173.011 165.288 169.821 163.528 166.888 161.255C163.955 158.982 161.058 156.525 158.198 153.885C156.511 152.272 154.678 150.695 152.698 149.155C150.791 147.615 148.555 146.332 145.988 145.305C145.841 145.305 145.768 145.268 145.768 145.195C145.841 144.975 146.025 144.828 146.318 144.755C147.931 144.462 149.728 144.755 151.708 145.635C153.688 146.442 155.595 147.468 157.428 148.715C159.335 149.962 161.131 151.282 162.818 152.675C164.505 154.068 165.898 155.168 166.998 155.975C168.831 157.442 170.665 159.092 172.498 160.925C174.405 162.685 175.981 164.262 177.228 165.655C177.375 165.875 177.521 166.095 177.668 166.315C177.888 166.462 177.925 166.608 177.778 166.755ZM182.178 171.485C181.885 172.732 181.335 173.905 180.528 175.005C179.795 176.105 178.951 177.132 177.998 178.085C177.045 178.965 176.018 179.735 174.918 180.395C173.818 180.982 172.791 181.385 171.838 181.605C169.271 182.558 166.448 183.328 163.368 183.915C160.288 184.428 157.428 184.685 154.788 184.685C154.421 184.758 154.055 184.795 153.688 184.795C153.395 184.795 153.211 184.758 153.138 184.685C152.991 184.392 153.065 184.135 153.358 183.915C153.725 183.695 153.981 183.585 154.128 183.585C154.641 183.292 155.301 182.962 156.108 182.595C156.915 182.228 157.758 181.862 158.638 181.495C159.518 181.128 160.398 180.798 161.278 180.505C162.158 180.212 162.891 179.992 163.478 179.845C163.991 179.698 165.091 179.332 166.778 178.745C168.538 178.085 170.408 177.352 172.388 176.545C174.441 175.738 176.348 174.858 178.108 173.905C179.868 172.878 181.041 171.888 181.628 170.935C181.848 170.568 182.031 170.422 182.178 170.495C182.325 170.568 182.325 170.898 182.178 171.485ZM164.248 163.895C164.101 164.042 163.845 164.078 163.478 164.005C163.185 163.858 163.001 163.712 162.928 163.565C161.755 162.978 160.325 162.135 158.638 161.035C156.951 159.935 155.668 158.908 154.788 157.955C154.421 157.662 153.468 157.002 151.928 155.975C150.461 154.875 148.811 153.775 146.978 152.675C145.145 151.502 143.311 150.475 141.478 149.595C139.718 148.642 138.361 148.165 137.408 148.165C137.261 148.312 137.078 148.348 136.858 148.275C136.711 148.128 136.638 147.982 136.638 147.835L137.628 147.395C138.728 146.882 139.938 146.625 141.258 146.625C142.578 146.625 143.861 146.808 145.108 147.175C146.428 147.468 147.638 147.908 148.738 148.495C149.911 149.008 150.865 149.595 151.598 150.255C153.578 151.942 155.631 153.885 157.758 156.085C159.958 158.212 161.938 160.338 163.698 162.465C163.845 162.612 163.991 162.868 164.138 163.235C164.358 163.528 164.395 163.748 164.248 163.895ZM182.068 167.415C180.675 169.835 178.841 171.705 176.568 173.025C174.368 174.272 171.948 175.298 169.308 176.105C166.668 176.838 163.918 177.498 161.058 178.085C158.198 178.672 155.448 179.405 152.808 180.285C151.195 180.798 149.581 181.532 147.968 182.485C146.355 183.365 144.815 184.465 143.348 185.785C141.881 187.032 140.561 188.462 139.388 190.075C138.215 191.688 137.298 193.485 136.638 195.465C136.491 195.905 136.418 196.125 136.418 196.125C136.271 196.125 136.198 196.052 136.198 195.905C136.198 195.758 136.198 195.612 136.198 195.465C136.565 192.752 137.261 190.368 138.288 188.315C139.315 186.262 140.561 184.502 142.028 183.035C143.495 181.495 145.145 180.212 146.978 179.185C148.885 178.158 150.828 177.315 152.808 176.655C155.081 175.848 157.391 175.225 159.738 174.785C162.085 174.272 164.395 173.722 166.668 173.135C165.055 172.695 163.588 172.072 162.268 171.265C160.948 170.458 159.591 169.542 158.198 168.515C155.998 166.828 153.871 165.068 151.818 163.235C149.838 161.402 147.858 159.642 145.878 157.955C143.971 156.268 142.028 154.765 140.048 153.445C138.141 152.052 136.125 150.988 133.998 150.255H133.778C133.631 150.255 133.595 150.218 133.668 150.145C133.595 149.998 133.668 149.925 133.888 149.925C134.108 149.852 134.291 149.815 134.438 149.815C137.078 149.595 139.535 150.035 141.808 151.135C144.081 152.162 146.245 153.518 148.298 155.205C150.425 156.892 152.515 158.725 154.568 160.705C156.621 162.685 158.748 164.518 160.948 166.205C162.048 167.012 163.185 167.818 164.358 168.625C165.605 169.358 166.851 169.982 168.098 170.495C169.345 170.935 170.628 171.192 171.948 171.265C173.341 171.338 174.698 171.082 176.018 170.495C175.358 170.422 174.661 170.275 173.928 170.055C173.268 169.835 172.645 169.615 172.058 169.395C171.471 169.102 170.995 168.808 170.628 168.515C170.335 168.222 170.261 167.965 170.408 167.745C170.555 167.525 171.068 167.488 171.948 167.635C172.901 167.708 173.561 167.745 173.928 167.745C175.248 167.965 176.531 168.112 177.778 168.185C179.098 168.185 180.271 167.892 181.298 167.305C181.445 167.158 181.701 167.012 182.068 166.865C182.435 166.718 182.435 166.902 182.068 167.415ZM179.428 179.625C179.428 179.698 179.391 179.772 179.318 179.845C179.318 179.918 179.318 179.992 179.318 180.065C179.245 180.212 179.208 180.322 179.208 180.395C178.548 182.008 177.301 183.402 175.468 184.575C173.635 185.675 171.618 186.628 169.418 187.435C167.291 188.242 165.165 188.938 163.038 189.525C160.985 190.038 159.335 190.515 158.088 190.955C155.815 191.762 153.395 192.422 150.828 192.935C148.261 193.375 146.025 193.815 144.118 194.255C143.385 194.255 142.908 194.218 142.688 194.145C142.688 193.925 142.798 193.742 143.018 193.595C143.311 193.375 143.568 193.192 143.788 193.045C146.868 190.918 150.168 189.342 153.688 188.315C157.281 187.215 160.948 186.188 164.688 185.235C167.035 184.648 169.418 183.988 171.838 183.255C174.258 182.448 176.641 181.238 178.988 179.625C179.281 179.552 179.428 179.552 179.428 179.625ZM146.208 187.325C146.281 187.472 146.245 187.692 146.098 187.985C145.951 188.278 145.768 188.572 145.548 188.865C145.328 189.085 145.108 189.305 144.888 189.525C144.668 189.745 144.558 189.892 144.558 189.965C143.825 190.552 143.201 191.138 142.688 191.725C142.175 192.238 141.661 192.788 141.148 193.375C140.635 194.182 140.158 194.988 139.718 195.795C139.278 196.528 138.801 197.188 138.288 197.775C138.288 197.922 138.215 198.032 138.068 198.105C137.921 198.178 137.921 198.142 138.068 197.995C137.921 197.848 137.848 197.592 137.848 197.225V196.895C137.848 196.088 137.958 195.282 138.178 194.475C138.398 193.595 139.021 192.532 140.048 191.285C140.415 190.845 140.928 190.368 141.588 189.855C142.248 189.268 142.908 188.755 143.568 188.315C144.228 187.875 144.778 187.545 145.218 187.325C145.731 187.105 146.061 187.105 146.208 187.325Z" fill="black"/>
<path d="M207.762 214.821C206.994 214.821 206.652 214.565 206.738 214.053C206.972 213.136 207.164 212.208 207.314 211.269C207.484 210.309 207.57 209.392 207.57 208.517C207.57 207.386 207.495 206.565 207.346 206.053C207.218 205.52 207.036 205.157 206.802 204.965C206.567 204.752 206.279 204.592 205.938 204.485C205.788 204.421 205.65 204.336 205.522 204.229C205.415 204.122 205.362 203.973 205.362 203.781C205.362 203.482 205.479 203.152 205.714 202.789C205.948 202.426 206.279 202.117 206.706 201.861C207.154 201.584 207.655 201.445 208.21 201.445C208.935 201.445 209.436 201.701 209.714 202.213C209.991 202.704 210.13 203.354 210.13 204.165C210.13 204.698 210.076 205.296 209.97 205.957C209.863 206.618 209.756 207.216 209.65 207.749L209.714 207.781C210.055 206.65 210.471 205.605 210.962 204.645C211.474 203.685 212.082 202.906 212.786 202.309C213.511 201.712 214.343 201.413 215.282 201.413C216.242 201.413 216.999 201.744 217.554 202.405C218.108 203.045 218.386 203.994 218.386 205.253V205.957C219.004 204.656 219.751 203.568 220.626 202.693C221.522 201.818 222.599 201.381 223.858 201.381C224.882 201.381 225.682 201.722 226.258 202.405C226.834 203.088 227.122 203.941 227.122 204.965C227.122 205.37 227.079 205.765 226.994 206.149C226.908 206.512 226.812 206.874 226.706 207.237C226.62 207.578 226.535 207.93 226.45 208.293C226.364 208.656 226.322 209.018 226.322 209.381C226.322 210.661 226.866 211.493 227.954 211.877C228.103 211.941 228.22 212.016 228.306 212.101C228.391 212.165 228.434 212.293 228.434 212.485C228.434 212.677 228.37 212.954 228.242 213.317C228.135 213.68 227.911 214.021 227.57 214.341C227.228 214.64 226.738 214.789 226.098 214.789C225.266 214.789 224.626 214.49 224.178 213.893C223.73 213.274 223.506 212.496 223.506 211.557C223.506 211.088 223.548 210.597 223.634 210.085C223.719 209.573 223.826 209.082 223.954 208.613C224.06 208.186 224.146 207.781 224.21 207.397C224.295 207.013 224.338 206.682 224.338 206.405C224.338 205.893 224.21 205.52 223.954 205.285C223.719 205.05 223.399 204.933 222.994 204.933C222.311 204.933 221.692 205.146 221.138 205.573C220.604 206 220.124 206.554 219.698 207.237C219.292 207.92 218.94 208.666 218.642 209.477C218.663 209.669 218.674 209.925 218.674 210.245C218.695 210.544 218.706 210.81 218.706 211.045C218.706 211.45 218.674 211.877 218.61 212.325C218.567 212.773 218.471 213.146 218.322 213.445C218.151 213.85 217.895 214.181 217.554 214.437C217.234 214.693 216.796 214.821 216.242 214.821C216.007 214.821 215.783 214.768 215.57 214.661C215.356 214.576 215.25 214.426 215.25 214.213C215.25 214.128 215.314 213.754 215.442 213.093C215.57 212.41 215.698 211.578 215.826 210.597C215.954 209.616 216.018 208.656 216.018 207.717C216.018 206.693 215.911 205.989 215.698 205.605C215.484 205.2 215.164 204.997 214.738 204.997C214.204 204.997 213.692 205.221 213.202 205.669C212.732 206.117 212.295 206.693 211.89 207.397C211.506 208.101 211.164 208.837 210.866 209.605C210.588 210.373 210.364 211.088 210.194 211.749V212.101C210.194 212.89 209.97 213.541 209.522 214.053C209.095 214.565 208.508 214.821 207.762 214.821ZM260.07 214.885C259.003 214.885 258.171 214.576 257.574 213.957C256.998 213.338 256.71 212.442 256.71 211.269C256.71 210.437 256.827 209.584 257.062 208.709C257.168 208.346 257.254 207.984 257.318 207.621C257.382 207.258 257.414 206.896 257.414 206.533C257.414 205.594 257.126 204.986 256.55 204.709C255.995 204.41 255.718 204.09 255.718 203.749C255.718 203.408 255.856 203.066 256.134 202.725C256.432 202.384 256.795 202.106 257.222 201.893C257.648 201.658 258.075 201.541 258.502 201.541C259.718 201.541 260.326 202.533 260.326 204.517C260.326 205.157 260.272 205.754 260.166 206.309C260.08 206.842 259.974 207.354 259.846 207.845C259.76 208.186 259.686 208.528 259.622 208.869C259.579 209.21 259.558 209.509 259.558 209.765C259.558 210.832 260.08 211.365 261.126 211.365C262.107 211.365 263.024 210.842 263.878 209.797C264.731 208.752 265.435 207.29 265.99 205.413L265.958 204.805C265.915 203.738 266.096 202.928 266.502 202.373C266.928 201.818 267.547 201.541 268.358 201.541C269.062 201.541 269.414 201.765 269.414 202.213C269.414 202.362 269.382 202.554 269.318 202.789C269.275 203.024 269.2 203.301 269.094 203.621C268.88 204.41 268.699 205.253 268.55 206.149C268.4 207.024 268.326 207.834 268.326 208.581C268.326 209.413 268.454 210.106 268.71 210.661C268.966 211.194 269.446 211.557 270.15 211.749C270.342 211.77 270.491 211.834 270.598 211.941C270.726 212.026 270.79 212.218 270.79 212.517C270.79 213.029 270.576 213.53 270.15 214.021C269.723 214.512 269.104 214.757 268.294 214.757C266.736 214.757 265.958 213.658 265.958 211.461C265.958 211.077 265.99 210.501 266.054 209.733L265.99 209.701C264.646 213.157 262.672 214.885 260.07 214.885ZM304.665 214.885C303.875 214.885 303.193 214.746 302.617 214.469C302.062 214.192 301.571 213.84 301.145 213.413C300.931 213.776 300.675 214.106 300.377 214.405C300.099 214.682 299.779 214.821 299.417 214.821C299.182 214.821 298.958 214.746 298.745 214.597C298.531 214.469 298.446 214.288 298.489 214.053C298.809 212.346 299.075 210.618 299.289 208.869C299.523 207.12 299.641 205.338 299.641 203.525C299.641 202.01 299.587 200.592 299.481 199.269C299.374 197.946 299.043 196.73 298.489 195.621C298.382 195.408 298.286 195.205 298.201 195.013C298.137 194.821 298.105 194.64 298.105 194.469C298.105 194.064 298.339 193.669 298.809 193.285C299.278 192.901 299.779 192.709 300.313 192.709C301.081 192.709 301.603 193.178 301.881 194.117C302.158 195.056 302.297 196.442 302.297 198.277C302.297 199.834 302.222 201.264 302.073 202.565C301.945 203.845 301.795 204.944 301.625 205.861C302.222 204.602 303.033 203.546 304.057 202.693C305.102 201.818 306.275 201.381 307.577 201.381C308.878 201.381 309.891 201.818 310.617 202.693C311.363 203.546 311.737 204.709 311.737 206.181C311.737 207.269 311.566 208.336 311.225 209.381C310.883 210.405 310.403 211.333 309.785 212.165C309.166 212.997 308.419 213.658 307.545 214.149C306.691 214.64 305.731 214.885 304.665 214.885ZM305.401 211.429C306.617 211.429 307.555 211.045 308.217 210.277C308.878 209.509 309.209 208.624 309.209 207.621C309.209 206.746 308.963 206.074 308.473 205.605C308.003 205.114 307.374 204.869 306.585 204.869C305.795 204.869 305.091 205.114 304.473 205.605C303.854 206.074 303.331 206.704 302.905 207.493C302.478 208.261 302.147 209.093 301.913 209.989C302.403 210.458 302.947 210.821 303.545 211.077C304.163 211.312 304.782 211.429 305.401 211.429ZM344.825 214.885C343.203 214.885 341.934 214.426 341.017 213.509C340.121 212.57 339.673 211.269 339.673 209.605C339.673 208.09 340.003 206.714 340.665 205.477C341.326 204.24 342.211 203.258 343.321 202.533C344.451 201.786 345.689 201.413 347.033 201.413C348.313 201.413 349.337 201.733 350.105 202.373C350.873 202.992 351.257 203.824 351.257 204.869C351.257 205.701 351.001 206.469 350.489 207.173C349.977 207.877 349.294 208.442 348.441 208.869C347.587 209.274 346.638 209.477 345.593 209.477C344.313 209.477 343.267 209.189 342.457 208.613C342.478 209.594 342.809 210.384 343.449 210.981C344.11 211.578 344.953 211.877 345.977 211.877C346.595 211.877 347.225 211.77 347.865 211.557C348.526 211.322 349.091 211.013 349.561 210.629C349.859 210.373 350.137 210.245 350.393 210.245C350.606 210.245 350.777 210.32 350.905 210.469C351.054 210.597 351.129 210.768 351.129 210.981C351.129 211.45 350.723 212.069 349.913 212.837C348.483 214.202 346.787 214.885 344.825 214.885ZM345.305 207.365C346.073 207.365 346.713 207.205 347.225 206.885C347.737 206.565 347.993 206.16 347.993 205.669C347.993 205.264 347.822 204.954 347.481 204.741C347.139 204.506 346.67 204.389 346.073 204.389C345.283 204.389 344.59 204.602 343.993 205.029C343.417 205.434 343.001 206.01 342.745 206.757C343.043 206.949 343.427 207.098 343.897 207.205C344.366 207.312 344.835 207.365 345.305 207.365ZM384.206 214.885C382.585 214.885 381.315 214.426 380.398 213.509C379.502 212.57 379.054 211.269 379.054 209.605C379.054 208.09 379.385 206.714 380.046 205.477C380.707 204.24 381.593 203.258 382.702 202.533C383.833 201.786 385.07 201.413 386.414 201.413C387.694 201.413 388.718 201.733 389.486 202.373C390.254 202.992 390.638 203.824 390.638 204.869C390.638 205.701 390.382 206.469 389.87 207.173C389.358 207.877 388.675 208.442 387.822 208.869C386.969 209.274 386.019 209.477 384.974 209.477C383.694 209.477 382.649 209.189 381.838 208.613C381.859 209.594 382.19 210.384 382.83 210.981C383.491 211.578 384.334 211.877 385.358 211.877C385.977 211.877 386.606 211.77 387.246 211.557C387.907 211.322 388.473 211.013 388.942 210.629C389.241 210.373 389.518 210.245 389.774 210.245C389.987 210.245 390.158 210.32 390.286 210.469C390.435 210.597 390.51 210.768 390.51 210.981C390.51 211.45 390.105 212.069 389.294 212.837C387.865 214.202 386.169 214.885 384.206 214.885ZM384.686 207.365C385.454 207.365 386.094 207.205 386.606 206.885C387.118 206.565 387.374 206.16 387.374 205.669C387.374 205.264 387.203 204.954 386.862 204.741C386.521 204.506 386.051 204.389 385.454 204.389C384.665 204.389 383.971 204.602 383.374 205.029C382.798 205.434 382.382 206.01 382.126 206.757C382.425 206.949 382.809 207.098 383.278 207.205C383.747 207.312 384.217 207.365 384.686 207.365ZM420.806 214.789C420.188 214.789 419.729 214.618 419.43 214.277C419.132 213.936 418.982 213.338 418.982 212.485C418.982 212.08 419.014 211.557 419.078 210.917C419.142 210.277 419.217 209.584 419.302 208.837C419.43 207.92 419.537 206.96 419.622 205.957C419.729 204.954 419.782 203.994 419.782 203.077C419.782 201.776 419.718 200.432 419.59 199.045C419.484 197.637 419.164 196.41 418.63 195.365C418.438 194.938 418.342 194.629 418.342 194.437C418.342 194.16 418.46 193.893 418.694 193.637C418.95 193.381 419.26 193.168 419.622 192.997C419.985 192.805 420.337 192.709 420.678 192.709C421.233 192.709 421.649 192.965 421.926 193.477C422.204 193.968 422.385 194.65 422.47 195.525C422.556 196.378 422.598 197.36 422.598 198.469C422.598 200.154 422.524 201.616 422.374 202.853C422.246 204.09 422.118 205.178 421.99 206.117C421.905 206.736 421.82 207.322 421.734 207.877C421.67 208.432 421.638 208.933 421.638 209.381C421.638 210.128 421.756 210.672 421.99 211.013C422.246 211.333 422.652 211.653 423.206 211.973C423.356 212.058 423.462 212.144 423.526 212.229C423.612 212.293 423.654 212.4 423.654 212.549C423.654 212.72 423.569 212.986 423.398 213.349C423.228 213.712 422.929 214.042 422.502 214.341C422.097 214.64 421.532 214.789 420.806 214.789Z" fill="black"/>
</svg>
