<svg width="510" height="294" viewBox="0 0 510 294" fill="none" xmlns="http://www.w3.org/2000/svg">
<rect width="510" height="294" rx="20" fill="#81E4C4"/>
<path d="M253.222 169.64C252.71 169.64 252.198 169.512 251.686 169.256C251.174 169.085 250.79 168.787 250.534 168.36L221.734 103.208H221.35L221.606 154.024C221.691 155.645 221.819 157.224 221.99 158.76C222.246 160.211 222.928 161.448 224.038 162.472C225.147 163.411 227.024 163.88 229.67 163.88C230.608 163.88 231.376 163.965 231.974 164.136C232.571 164.307 232.912 165.117 232.998 166.568C232.998 167.251 232.784 167.891 232.358 168.488C232.016 169.085 231.462 169.384 230.694 169.384C228.902 169.299 227.451 169.213 226.342 169.128C225.232 169.128 224.166 169.085 223.142 169C222.118 169 220.752 169 219.046 169C216.486 169 214.395 169 212.774 169C211.238 169.085 209.104 169.213 206.374 169.384C205.52 169.384 204.923 169.085 204.582 168.488C204.24 167.891 204.07 167.251 204.07 166.568C204.155 165.117 204.496 164.307 205.094 164.136C205.691 163.965 206.416 163.88 207.27 163.88C210 163.88 211.878 163.411 212.902 162.472C214.011 161.448 214.694 160.211 214.95 158.76C215.206 157.224 215.333 155.645 215.333 154.024L215.59 103.208C215.59 100.477 215.291 98.472 214.694 97.192C214.096 95.8267 213.158 94.888 211.878 94.376C210.598 93.7787 208.976 93.3093 207.014 92.968C205.819 92.712 204.966 92.4987 204.454 92.328C204.027 92.1573 203.814 91.3893 203.814 90.024C203.814 88.5733 204.326 87.8053 205.35 87.72C206.374 87.5493 207.568 87.464 208.934 87.464C213.115 87.464 216.784 87.8053 219.942 88.488C223.184 89.1707 226 90.4933 228.39 92.456C230.779 94.3333 232.742 97.192 234.278 101.032L256.294 150.44H256.678L281.894 88.232H289.19C291.75 88.232 294.224 88.1893 296.614 88.104C299.088 88.0187 301.691 87.9333 304.422 87.848C305.275 87.848 305.872 88.1467 306.214 88.744C306.555 89.3413 306.726 89.9813 306.726 90.664C306.64 92.1147 306.299 92.9253 305.702 93.096C305.104 93.2667 304.379 93.352 303.526 93.352C300.88 93.352 298.96 93.864 297.766 94.888C296.656 95.8267 295.974 97.064 295.718 98.6C295.462 100.051 295.291 101.587 295.206 103.208V154.024C295.291 155.645 295.462 157.224 295.718 158.76C295.974 160.211 296.656 161.448 297.766 162.472C298.96 163.411 300.88 163.88 303.526 163.88C304.379 163.88 305.104 163.965 305.702 164.136C306.299 164.307 306.64 165.117 306.726 166.568C306.726 167.251 306.555 167.891 306.214 168.488C305.872 169.085 305.275 169.384 304.422 169.384C301.691 169.213 299.088 169.085 296.614 169C294.139 169 291.622 169 289.062 169C284.112 169 278.864 169.128 273.318 169.384C272.464 169.384 271.867 169.085 271.526 168.488C271.184 167.891 271.014 167.251 271.014 166.568C271.099 165.117 271.44 164.307 272.038 164.136C272.635 163.965 273.36 163.88 274.214 163.88C276.944 163.88 278.864 163.411 279.974 162.472C281.083 161.448 281.766 160.211 282.022 158.76C282.363 157.224 282.534 155.645 282.534 154.024V103.208H282.15L255.782 168.36C255.611 168.787 255.27 169.085 254.758 169.256C254.246 169.512 253.734 169.64 253.222 169.64ZM319.868 169.384C319.014 169.384 318.417 169.085 318.076 168.488C317.734 167.891 317.564 167.251 317.564 166.568C317.649 165.117 317.99 164.307 318.588 164.136C319.185 163.965 319.91 163.88 320.764 163.88C323.494 163.88 325.414 163.411 326.524 162.472C327.633 161.448 328.316 160.211 328.572 158.76C328.913 157.224 329.083 155.645 329.083 154.024V103.208C329.083 101.587 328.913 100.051 328.572 98.6C328.316 97.064 327.633 95.8267 326.524 94.888C325.414 93.864 323.494 93.352 320.764 93.352C319.91 93.352 319.185 93.2667 318.588 93.096C317.99 92.9253 317.649 92.1147 317.564 90.664C317.564 89.9813 317.734 89.3413 318.076 88.744C318.417 88.1467 319.014 87.848 319.868 87.848C322.598 87.9333 325.158 88.0187 327.548 88.104C329.937 88.1893 332.412 88.232 334.972 88.232H353.02C357.969 88.232 361.852 88.616 364.668 89.384C367.569 90.0667 370.086 91.0907 372.22 92.456C374.438 93.9067 376.188 95.912 377.468 98.472C378.748 100.947 379.388 103.677 379.388 106.664C379.388 110.504 378.492 113.747 376.7 116.392C374.908 118.952 372.646 121 369.916 122.536C367.27 123.987 364.668 125.011 362.108 125.608V125.992C366.63 125.907 370.641 126.717 374.14 128.424C377.638 130.131 380.412 132.392 382.46 135.208C384.508 138.024 385.574 141.096 385.66 144.424C385.83 149.288 384.806 153.299 382.588 156.456C380.369 159.613 377.468 162.131 373.884 164.008C370.385 165.885 366.545 167.208 362.364 167.976C358.268 168.744 354.3 169.128 350.46 169.128L335.1 169C332.54 169 330.022 169 327.548 169C325.158 169.085 322.598 169.213 319.868 169.384ZM341.756 123.432H347.132C348.838 123.432 350.758 123.347 352.892 123.176C355.025 123.005 357.073 122.493 359.036 121.64C360.998 120.701 362.577 119.208 363.772 117.16C365.052 115.027 365.692 112.04 365.692 108.2C365.692 103.677 364.582 100.008 362.364 97.192C360.23 94.376 356.348 92.968 350.716 92.968H341.756V123.432ZM350.972 164.008C354.812 163.923 358.31 163.283 361.468 162.088C364.625 160.893 367.142 158.888 369.02 156.072C370.897 153.256 371.836 149.373 371.836 144.424C371.58 141.693 370.641 139.133 369.02 136.744C367.484 134.355 364.924 132.392 361.34 130.856C357.841 129.32 353.062 128.552 347.004 128.552H341.756V154.024C341.756 158.291 342.396 161.021 343.676 162.216C344.956 163.411 347.388 164.008 350.972 164.008ZM398.118 169.384C397.35 169.384 396.795 169.085 396.454 168.488C396.112 167.891 395.942 167.251 395.942 166.568C396.027 165.117 396.368 164.307 396.966 164.136C397.563 163.965 398.288 163.88 399.142 163.88C401.872 163.88 403.792 163.411 404.902 162.472C406.011 161.448 406.694 160.211 406.95 158.76C407.291 157.224 407.462 155.645 407.462 154.024V103.208C407.462 101.587 407.291 100.051 406.95 98.6C406.694 97.064 406.011 95.8267 404.902 94.888C403.792 93.864 401.872 93.352 399.142 93.352C398.288 93.352 397.563 93.2667 396.966 93.096C396.368 92.9253 396.027 92.1147 395.942 90.664C395.942 89.9813 396.112 89.3413 396.454 88.744C396.795 88.1467 397.35 87.848 398.118 87.848C400.934 87.9333 403.536 88.0187 405.926 88.104C408.315 88.1893 410.79 88.232 413.35 88.232C418.555 88.232 423.888 88.104 429.35 87.848C430.203 87.848 430.8 88.1467 431.142 88.744C431.483 89.3413 431.654 89.9813 431.654 90.664C431.568 92.1147 431.227 92.9253 430.63 93.096C430.032 93.2667 429.307 93.352 428.454 93.352C425.808 93.352 423.888 93.864 422.694 94.888C421.584 95.8267 420.902 97.064 420.646 98.6C420.39 100.051 420.219 101.587 420.134 103.208V155.944C420.219 157.053 420.39 158.248 420.646 159.528C420.902 160.808 421.627 161.875 422.822 162.728C424.102 163.581 426.192 163.965 429.094 163.88H440.614C443.6 163.795 445.862 163.325 447.398 162.472C449.019 161.533 450.299 159.997 451.238 157.864C452.176 155.731 453.2 152.787 454.31 149.032C454.651 148.179 455.206 147.624 455.974 147.368C456.827 147.112 457.723 147.069 458.662 147.24C459.344 147.325 460.027 147.624 460.71 148.136C461.478 148.648 461.819 149.331 461.734 150.184L459.174 166.312C458.918 167.507 458.491 168.275 457.894 168.616C457.382 168.872 456.571 169 455.462 169H413.478C410.918 169 408.4 169 405.926 169C403.536 169.085 400.934 169.213 398.118 169.384Z" fill="black"/>
<path d="M87.949 137.27C87.8024 138.517 87.399 139.727 86.739 140.9C86.079 142 85.309 143.063 84.429 144.09C83.549 145.043 82.5957 145.887 81.569 146.62C80.6157 147.353 79.699 147.903 78.819 148.27C76.2524 149.297 73.5024 150.213 70.569 151.02C67.709 151.753 64.8857 152.377 62.099 152.89C62.0257 152.89 61.769 152.927 61.329 153C60.889 153 60.5957 152.89 60.449 152.67C60.449 152.523 60.5957 152.303 60.889 152.01C61.1824 151.717 61.4024 151.57 61.549 151.57C62.5757 150.91 63.969 150.103 65.729 149.15C67.5624 148.197 69.139 147.5 70.459 147.06C70.899 146.987 71.9257 146.583 73.539 145.85C75.2257 145.043 76.9857 144.127 78.819 143.1C80.7257 142 82.4857 140.863 84.099 139.69C85.7857 138.517 86.849 137.453 87.289 136.5C87.4357 136.427 87.5457 136.353 87.619 136.28C87.6924 136.207 87.8024 136.17 87.949 136.17V137.27ZM87.509 133.2C86.3357 135.693 84.7224 137.673 82.669 139.14C80.6157 140.607 78.3057 141.853 75.739 142.88C73.2457 143.907 70.6057 144.823 67.819 145.63C65.1057 146.437 62.5024 147.427 60.009 148.6C56.929 150.067 53.9957 152.157 51.209 154.87C48.4957 157.51 46.6257 160.773 45.599 164.66C45.4524 164.733 45.3057 164.843 45.159 164.99C45.0857 165.137 44.9757 165.283 44.829 165.43C44.9024 162.79 45.379 160.407 46.259 158.28C47.139 156.08 48.239 154.137 49.559 152.45C50.9524 150.763 52.4924 149.333 54.179 148.16C55.8657 146.913 57.6257 145.887 59.459 145.08C62.0257 143.98 64.629 143.027 67.269 142.22C69.909 141.34 72.439 140.46 74.859 139.58C77.279 138.7 79.5524 137.71 81.679 136.61C83.8057 135.51 85.639 134.153 87.179 132.54C87.399 132.54 87.509 132.54 87.509 132.54C87.6557 132.54 87.6924 132.613 87.619 132.76C87.5457 132.907 87.509 133.053 87.509 133.2ZM89.599 174.89C89.599 175.037 89.5624 175.183 89.489 175.33C89.4157 175.403 89.3424 175.513 89.269 175.66L88.939 175.99C88.059 176.797 87.289 177.42 86.629 177.86C85.969 178.3 84.9057 178.63 83.439 178.85C82.8524 178.923 82.1924 178.96 81.459 178.96C80.7257 178.96 80.029 178.923 79.369 178.85C78.7824 178.703 78.269 178.557 77.829 178.41C77.389 178.19 77.2424 177.97 77.389 177.75C77.4624 177.603 77.829 177.493 78.489 177.42C79.2224 177.273 79.699 177.2 79.919 177.2C80.7257 177.053 81.459 176.943 82.119 176.87C82.8524 176.797 83.5124 176.687 84.099 176.54C85.0524 176.32 85.8957 176.1 86.629 175.88C87.3624 175.66 88.2057 175.33 89.159 174.89C89.4524 174.743 89.599 174.743 89.599 174.89ZM83.549 175.22C83.549 175.293 83.4024 175.33 83.109 175.33C82.8157 175.257 82.559 175.22 82.339 175.22C79.259 174.633 76.289 173.643 73.429 172.25C70.569 170.857 67.7457 169.28 64.959 167.52C64.739 167.373 64.2624 167.043 63.529 166.53C62.7957 165.943 61.8424 165.393 60.669 164.88C59.4957 164.293 58.1024 163.817 56.489 163.45C54.949 163.01 53.2624 162.827 51.429 162.9L52.199 162.13C54.7657 159.563 57.809 157.62 61.329 156.3C64.9224 154.907 68.5524 153.587 72.219 152.34C74.4924 151.533 76.7657 150.653 79.039 149.7C81.3857 148.747 83.5857 147.39 85.639 145.63C85.7857 145.337 85.9324 145.263 86.079 145.41C86.2257 145.557 86.2624 145.703 86.189 145.85C86.1157 145.923 86.0057 146.07 85.859 146.29C85.419 147.83 84.3557 149.26 82.669 150.58C81.0557 151.9 79.2224 153.073 77.169 154.1C75.189 155.127 73.1724 156.043 71.119 156.85C69.0657 157.657 67.4157 158.317 66.169 158.83C65.1424 159.27 64.0057 159.71 62.759 160.15C61.5857 160.59 60.3757 160.993 59.129 161.36C60.3757 161.653 61.6224 162.057 62.869 162.57C64.189 163.083 65.4357 163.67 66.609 164.33C67.8557 164.917 68.9924 165.503 70.019 166.09C71.0457 166.677 71.9257 167.153 72.659 167.52C74.419 168.473 76.179 169.61 77.939 170.93C79.7724 172.177 81.4224 173.313 82.889 174.34C83.4024 174.633 83.6224 174.927 83.549 175.22ZM53.959 156.41C54.1057 156.41 54.1057 156.557 53.959 156.85C53.8857 157.07 53.739 157.327 53.519 157.62C53.3724 157.84 53.189 158.097 52.969 158.39C52.749 158.61 52.639 158.757 52.639 158.83C52.1257 159.563 51.6124 160.223 51.099 160.81C50.5857 161.397 50.1457 161.983 49.779 162.57L49.339 163.34L46.809 164.22C46.8824 163.78 46.9924 163.267 47.139 162.68C47.359 162.093 47.7257 161.433 48.239 160.7C48.6057 160.187 49.0824 159.637 49.669 159.05C50.329 158.39 50.9524 157.84 51.539 157.4C52.1257 156.887 52.639 156.52 53.079 156.3C53.5924 156.08 53.8857 156.117 53.959 156.41ZM88.389 178.52C86.409 180.353 84.429 181.673 82.449 182.48C80.469 183.287 78.5624 183.763 76.729 183.91C74.8957 183.983 73.099 183.8 71.339 183.36C69.6524 182.847 68.039 182.187 66.499 181.38C64.3724 180.28 62.319 179.07 60.339 177.75C58.4324 176.43 56.5257 175.183 54.619 174.01C52.7124 172.837 50.8057 171.847 48.899 171.04C47.0657 170.233 45.159 169.83 43.179 169.83C42.5924 169.83 42.4457 169.72 42.739 169.5C43.0324 169.28 43.2157 169.17 43.289 169.17C45.6357 168.29 47.8724 168.107 49.999 168.62C52.199 169.133 54.3257 169.977 56.379 171.15C58.5057 172.25 60.559 173.533 62.539 175C64.5924 176.393 66.6824 177.64 68.809 178.74C70.129 179.4 71.559 179.987 73.099 180.5C74.639 180.94 76.2524 181.197 77.939 181.27C79.6257 181.27 81.3124 181.05 82.999 180.61C84.6857 180.17 86.3724 179.363 88.059 178.19C88.499 177.897 88.6824 177.86 88.609 178.08C88.5357 178.3 88.4624 178.447 88.389 178.52ZM71.449 175.55C71.3024 175.77 71.0457 175.88 70.679 175.88C70.3124 175.807 70.0924 175.697 70.019 175.55C68.919 175.403 67.5624 174.963 65.949 174.23C64.3357 173.497 63.0524 172.763 62.099 172.03C61.8057 171.81 60.9624 171.37 59.569 170.71C58.1757 170.05 56.599 169.427 54.839 168.84C53.1524 168.18 51.429 167.667 49.669 167.3C47.9824 166.86 46.699 166.787 45.819 167.08C45.5257 167.227 45.379 167.19 45.379 166.97C45.5257 166.823 45.6357 166.713 45.709 166.64C45.7824 166.567 45.8924 166.457 46.039 166.31C46.9924 165.577 48.019 165.063 49.119 164.77C50.2924 164.403 51.4657 164.22 52.639 164.22C53.8124 164.147 54.9124 164.22 55.939 164.44C57.039 164.66 57.9557 164.99 58.689 165.43C60.7424 166.603 62.7957 167.96 64.849 169.5C66.9757 171.04 68.8824 172.653 70.569 174.34C70.7157 174.413 70.9357 174.597 71.229 174.89C71.5224 175.183 71.5957 175.403 71.449 175.55ZM102.808 132.98C104.348 137.453 105.778 142.257 107.098 147.39C108.491 152.523 109.591 157.363 110.398 161.91C110.544 162.203 110.654 162.717 110.728 163.45C110.874 164.11 110.874 164.513 110.728 164.66C110.434 164.66 110.104 164.367 109.738 163.78C109.444 163.193 109.261 162.753 109.188 162.46C108.674 161.507 108.124 160.333 107.538 158.94C106.951 157.473 106.364 155.97 105.778 154.43C105.264 152.89 104.751 151.387 104.238 149.92C103.724 148.38 103.321 147.06 103.028 145.96C102.881 145.447 102.514 144.42 101.928 142.88C101.341 141.34 100.644 139.543 99.8376 137.49C99.0309 135.437 98.1143 133.237 97.0876 130.89C96.0609 128.47 95.0343 126.197 94.0076 124.07C92.9809 121.87 91.9543 119.927 90.9276 118.24C89.9743 116.48 89.1309 115.233 88.3976 114.5C88.2509 114.353 88.1409 114.243 88.0676 114.17C87.9943 114.023 87.9209 113.877 87.8476 113.73C87.7743 113.583 87.7376 113.473 87.7376 113.4C87.8843 113.327 88.0309 113.363 88.1776 113.51C88.3976 113.583 88.5809 113.62 88.7276 113.62C90.1943 114.353 91.6243 115.49 93.0176 117.03C94.4843 118.497 95.8409 120.147 97.0876 121.98C98.4076 123.74 99.5443 125.61 100.498 127.59C101.451 129.57 102.221 131.367 102.808 132.98ZM116.448 157.84C117.768 161.8 119.088 165.87 120.408 170.05C121.801 174.23 123.084 177.86 124.258 180.94C124.331 181.527 124.404 182.003 124.478 182.37C124.551 182.663 124.514 182.81 124.368 182.81C124.294 182.957 124.111 182.847 123.818 182.48C123.598 182.113 123.378 181.747 123.158 181.38C121.398 178.74 119.821 175.99 118.428 173.13C117.108 170.27 115.861 167.337 114.688 164.33C113.588 161.323 112.524 158.207 111.498 154.98C110.544 151.753 109.554 148.49 108.528 145.19C107.281 141.23 105.924 137.197 104.458 133.09C102.991 128.983 101.048 124.84 98.6276 120.66C98.4076 120.44 98.2976 120.33 98.2976 120.33C98.2976 120.257 98.3709 120.183 98.5176 120.11C98.5909 119.963 98.6643 119.963 98.7376 120.11C98.8109 120.257 98.9576 120.403 99.1776 120.55C101.011 121.943 102.808 124.29 104.568 127.59C106.328 130.817 107.978 134.337 109.518 138.15C111.058 141.963 112.414 145.703 113.588 149.37C114.834 152.963 115.788 155.787 116.448 157.84ZM128.658 192.82C128.951 192.967 129.171 193.15 129.318 193.37C129.464 193.517 129.464 193.59 129.318 193.59C129.244 193.81 129.061 193.81 128.768 193.59C125.541 192.783 122.534 191.39 119.748 189.41C117.034 187.43 114.578 185.083 112.378 182.37C110.178 179.583 108.198 176.54 106.438 173.24C104.751 169.94 103.321 166.567 102.148 163.12C100.608 158.5 99.1409 153.917 97.7476 149.37C96.4276 144.75 95.0343 140.277 93.5676 135.95C92.1743 131.55 90.6709 127.407 89.0576 123.52C87.5176 119.633 85.7209 116.113 83.6676 112.96C83.6676 112.593 83.6676 112.41 83.6676 112.41C83.6676 112.263 83.6676 112.227 83.6676 112.3C83.7409 112.373 83.8509 112.447 83.9976 112.52C84.1443 112.667 84.2909 112.777 84.4376 112.85C87.3709 115.71 89.8276 119.12 91.8076 123.08C93.8609 126.967 95.6576 131.183 97.1976 135.73C98.7376 140.203 100.168 144.86 101.488 149.7C102.881 154.467 104.384 159.123 105.998 163.67C107.024 166.603 108.308 169.537 109.848 172.47C111.461 175.403 113.221 178.153 115.128 180.72C117.108 183.287 119.234 185.633 121.508 187.76C123.781 189.887 126.164 191.573 128.658 192.82ZM124.368 185.45C125.541 186.477 126.678 187.43 127.778 188.31C128.878 189.117 130.051 189.887 131.298 190.62C131.444 190.767 131.591 190.95 131.738 191.17C131.958 191.39 132.031 191.5 131.958 191.5C131.811 191.647 131.628 191.72 131.408 191.72C131.261 191.72 131.114 191.72 130.968 191.72C130.748 191.72 130.601 191.683 130.528 191.61C129.794 191.39 129.134 191.207 128.548 191.06C127.961 190.913 127.374 190.693 126.788 190.4C126.201 190.033 125.578 189.63 124.918 189.19C124.258 188.677 123.488 187.98 122.608 187.1C121.948 186.44 121.178 185.523 120.298 184.35C119.491 183.177 118.721 182.04 117.988 180.94C117.254 179.767 116.668 178.777 116.228 177.97C115.861 177.09 115.788 176.577 116.008 176.43C116.081 176.357 116.264 176.467 116.558 176.76C116.924 176.98 117.291 177.31 117.658 177.75C118.024 178.117 118.354 178.52 118.648 178.96C119.014 179.327 119.271 179.583 119.418 179.73C120.224 180.903 121.031 181.93 121.838 182.81C122.644 183.69 123.488 184.57 124.368 185.45ZM172.27 159.6C172.197 159.747 172.013 159.783 171.72 159.71C171.427 159.637 171.17 159.527 170.95 159.38C167.503 158.133 164.313 156.373 161.38 154.1C158.447 151.827 155.55 149.37 152.69 146.73C151.003 145.117 149.17 143.54 147.19 142C145.283 140.46 143.047 139.177 140.48 138.15C140.333 138.15 140.26 138.113 140.26 138.04C140.333 137.82 140.517 137.673 140.81 137.6C142.423 137.307 144.22 137.6 146.2 138.48C148.18 139.287 150.087 140.313 151.92 141.56C153.827 142.807 155.623 144.127 157.31 145.52C158.997 146.913 160.39 148.013 161.49 148.82C163.323 150.287 165.157 151.937 166.99 153.77C168.897 155.53 170.473 157.107 171.72 158.5C171.867 158.72 172.013 158.94 172.16 159.16C172.38 159.307 172.417 159.453 172.27 159.6ZM176.67 164.33C176.377 165.577 175.827 166.75 175.02 167.85C174.287 168.95 173.443 169.977 172.49 170.93C171.537 171.81 170.51 172.58 169.41 173.24C168.31 173.827 167.283 174.23 166.33 174.45C163.763 175.403 160.94 176.173 157.86 176.76C154.78 177.273 151.92 177.53 149.28 177.53C148.913 177.603 148.547 177.64 148.18 177.64C147.887 177.64 147.703 177.603 147.63 177.53C147.483 177.237 147.557 176.98 147.85 176.76C148.217 176.54 148.473 176.43 148.62 176.43C149.133 176.137 149.793 175.807 150.6 175.44C151.407 175.073 152.25 174.707 153.13 174.34C154.01 173.973 154.89 173.643 155.77 173.35C156.65 173.057 157.383 172.837 157.97 172.69C158.483 172.543 159.583 172.177 161.27 171.59C163.03 170.93 164.9 170.197 166.88 169.39C168.933 168.583 170.84 167.703 172.6 166.75C174.36 165.723 175.533 164.733 176.12 163.78C176.34 163.413 176.523 163.267 176.67 163.34C176.817 163.413 176.817 163.743 176.67 164.33ZM158.74 156.74C158.593 156.887 158.337 156.923 157.97 156.85C157.677 156.703 157.493 156.557 157.42 156.41C156.247 155.823 154.817 154.98 153.13 153.88C151.443 152.78 150.16 151.753 149.28 150.8C148.913 150.507 147.96 149.847 146.42 148.82C144.953 147.72 143.303 146.62 141.47 145.52C139.637 144.347 137.803 143.32 135.97 142.44C134.21 141.487 132.853 141.01 131.9 141.01C131.753 141.157 131.57 141.193 131.35 141.12C131.203 140.973 131.13 140.827 131.13 140.68L132.12 140.24C133.22 139.727 134.43 139.47 135.75 139.47C137.07 139.47 138.353 139.653 139.6 140.02C140.92 140.313 142.13 140.753 143.23 141.34C144.403 141.853 145.357 142.44 146.09 143.1C148.07 144.787 150.123 146.73 152.25 148.93C154.45 151.057 156.43 153.183 158.19 155.31C158.337 155.457 158.483 155.713 158.63 156.08C158.85 156.373 158.887 156.593 158.74 156.74ZM176.56 160.26C175.167 162.68 173.333 164.55 171.06 165.87C168.86 167.117 166.44 168.143 163.8 168.95C161.16 169.683 158.41 170.343 155.55 170.93C152.69 171.517 149.94 172.25 147.3 173.13C145.687 173.643 144.073 174.377 142.46 175.33C140.847 176.21 139.307 177.31 137.84 178.63C136.373 179.877 135.053 181.307 133.88 182.92C132.707 184.533 131.79 186.33 131.13 188.31C130.983 188.75 130.91 188.97 130.91 188.97C130.763 188.97 130.69 188.897 130.69 188.75C130.69 188.603 130.69 188.457 130.69 188.31C131.057 185.597 131.753 183.213 132.78 181.16C133.807 179.107 135.053 177.347 136.52 175.88C137.987 174.34 139.637 173.057 141.47 172.03C143.377 171.003 145.32 170.16 147.3 169.5C149.573 168.693 151.883 168.07 154.23 167.63C156.577 167.117 158.887 166.567 161.16 165.98C159.547 165.54 158.08 164.917 156.76 164.11C155.44 163.303 154.083 162.387 152.69 161.36C150.49 159.673 148.363 157.913 146.31 156.08C144.33 154.247 142.35 152.487 140.37 150.8C138.463 149.113 136.52 147.61 134.54 146.29C132.633 144.897 130.617 143.833 128.49 143.1H128.27C128.123 143.1 128.087 143.063 128.16 142.99C128.087 142.843 128.16 142.77 128.38 142.77C128.6 142.697 128.783 142.66 128.93 142.66C131.57 142.44 134.027 142.88 136.3 143.98C138.573 145.007 140.737 146.363 142.79 148.05C144.917 149.737 147.007 151.57 149.06 153.55C151.113 155.53 153.24 157.363 155.44 159.05C156.54 159.857 157.677 160.663 158.85 161.47C160.097 162.203 161.343 162.827 162.59 163.34C163.837 163.78 165.12 164.037 166.44 164.11C167.833 164.183 169.19 163.927 170.51 163.34C169.85 163.267 169.153 163.12 168.42 162.9C167.76 162.68 167.137 162.46 166.55 162.24C165.963 161.947 165.487 161.653 165.12 161.36C164.827 161.067 164.753 160.81 164.9 160.59C165.047 160.37 165.56 160.333 166.44 160.48C167.393 160.553 168.053 160.59 168.42 160.59C169.74 160.81 171.023 160.957 172.27 161.03C173.59 161.03 174.763 160.737 175.79 160.15C175.937 160.003 176.193 159.857 176.56 159.71C176.927 159.563 176.927 159.747 176.56 160.26ZM173.92 172.47C173.92 172.543 173.883 172.617 173.81 172.69C173.81 172.763 173.81 172.837 173.81 172.91C173.737 173.057 173.7 173.167 173.7 173.24C173.04 174.853 171.793 176.247 169.96 177.42C168.127 178.52 166.11 179.473 163.91 180.28C161.783 181.087 159.657 181.783 157.53 182.37C155.477 182.883 153.827 183.36 152.58 183.8C150.307 184.607 147.887 185.267 145.32 185.78C142.753 186.22 140.517 186.66 138.61 187.1C137.877 187.1 137.4 187.063 137.18 186.99C137.18 186.77 137.29 186.587 137.51 186.44C137.803 186.22 138.06 186.037 138.28 185.89C141.36 183.763 144.66 182.187 148.18 181.16C151.773 180.06 155.44 179.033 159.18 178.08C161.527 177.493 163.91 176.833 166.33 176.1C168.75 175.293 171.133 174.083 173.48 172.47C173.773 172.397 173.92 172.397 173.92 172.47ZM140.7 180.17C140.773 180.317 140.737 180.537 140.59 180.83C140.443 181.123 140.26 181.417 140.04 181.71C139.82 181.93 139.6 182.15 139.38 182.37C139.16 182.59 139.05 182.737 139.05 182.81C138.317 183.397 137.693 183.983 137.18 184.57C136.667 185.083 136.153 185.633 135.64 186.22C135.127 187.027 134.65 187.833 134.21 188.64C133.77 189.373 133.293 190.033 132.78 190.62C132.78 190.767 132.707 190.877 132.56 190.95C132.413 191.023 132.413 190.987 132.56 190.84C132.413 190.693 132.34 190.437 132.34 190.07V189.74C132.34 188.933 132.45 188.127 132.67 187.32C132.89 186.44 133.513 185.377 134.54 184.13C134.907 183.69 135.42 183.213 136.08 182.7C136.74 182.113 137.4 181.6 138.06 181.16C138.72 180.72 139.27 180.39 139.71 180.17C140.223 179.95 140.553 179.95 140.7 180.17Z" fill="black"/>
<path d="M205.133 215.923C204.365 215.923 204.024 215.667 204.109 215.155C204.344 214.238 204.536 213.31 204.685 212.371C204.856 211.411 204.941 210.494 204.941 209.619C204.941 208.489 204.866 207.667 204.717 207.155C204.589 206.622 204.408 206.259 204.173 206.067C203.938 205.854 203.65 205.694 203.309 205.587C203.16 205.523 203.021 205.438 202.893 205.331C202.786 205.225 202.733 205.075 202.733 204.883C202.733 204.585 202.85 204.254 203.085 203.891C203.32 203.529 203.65 203.219 204.077 202.963C204.525 202.686 205.026 202.547 205.581 202.547C206.306 202.547 206.808 202.803 207.085 203.315C207.362 203.806 207.501 204.457 207.501 205.267C207.501 205.801 207.448 206.398 207.341 207.059C207.234 207.721 207.128 208.318 207.021 208.851L207.085 208.883C207.426 207.753 207.842 206.707 208.333 205.747C208.845 204.787 209.453 204.009 210.157 203.411C210.882 202.814 211.714 202.515 212.653 202.515C213.613 202.515 214.37 202.846 214.925 203.507C215.48 204.147 215.757 205.097 215.757 206.355V207.059C216.376 205.758 217.122 204.67 217.997 203.795C218.893 202.921 219.97 202.483 221.229 202.483C222.253 202.483 223.053 202.825 223.629 203.507C224.205 204.19 224.493 205.043 224.493 206.067C224.493 206.473 224.45 206.867 224.365 207.251C224.28 207.614 224.184 207.977 224.077 208.339C223.992 208.681 223.906 209.033 223.821 209.395C223.736 209.758 223.693 210.121 223.693 210.483C223.693 211.763 224.237 212.595 225.325 212.979C225.474 213.043 225.592 213.118 225.677 213.203C225.762 213.267 225.805 213.395 225.805 213.587C225.805 213.779 225.741 214.057 225.613 214.419C225.506 214.782 225.282 215.123 224.941 215.443C224.6 215.742 224.109 215.891 223.469 215.891C222.637 215.891 221.997 215.593 221.549 214.995C221.101 214.377 220.877 213.598 220.877 212.659C220.877 212.19 220.92 211.699 221.005 211.187C221.09 210.675 221.197 210.185 221.325 209.715C221.432 209.289 221.517 208.883 221.581 208.499C221.666 208.115 221.709 207.785 221.709 207.507C221.709 206.995 221.581 206.622 221.325 206.387C221.09 206.153 220.77 206.035 220.365 206.035C219.682 206.035 219.064 206.249 218.509 206.675C217.976 207.102 217.496 207.657 217.069 208.339C216.664 209.022 216.312 209.769 216.013 210.579C216.034 210.771 216.045 211.027 216.045 211.347C216.066 211.646 216.077 211.913 216.077 212.147C216.077 212.553 216.045 212.979 215.981 213.427C215.938 213.875 215.842 214.249 215.693 214.547C215.522 214.953 215.266 215.283 214.925 215.539C214.605 215.795 214.168 215.923 213.613 215.923C213.378 215.923 213.154 215.87 212.941 215.763C212.728 215.678 212.621 215.529 212.621 215.315C212.621 215.23 212.685 214.857 212.813 214.195C212.941 213.513 213.069 212.681 213.197 211.699C213.325 210.718 213.389 209.758 213.389 208.819C213.389 207.795 213.282 207.091 213.069 206.707C212.856 206.302 212.536 206.099 212.109 206.099C211.576 206.099 211.064 206.323 210.573 206.771C210.104 207.219 209.666 207.795 209.261 208.499C208.877 209.203 208.536 209.939 208.237 210.707C207.96 211.475 207.736 212.19 207.565 212.851V213.203C207.565 213.993 207.341 214.643 206.893 215.155C206.466 215.667 205.88 215.923 205.133 215.923ZM257.441 215.987C256.374 215.987 255.542 215.678 254.945 215.059C254.369 214.441 254.081 213.545 254.081 212.371C254.081 211.539 254.198 210.686 254.433 209.811C254.54 209.449 254.625 209.086 254.689 208.723C254.753 208.361 254.785 207.998 254.785 207.635C254.785 206.697 254.497 206.089 253.921 205.811C253.366 205.513 253.089 205.193 253.089 204.851C253.089 204.51 253.228 204.169 253.505 203.827C253.804 203.486 254.166 203.209 254.593 202.995C255.02 202.761 255.446 202.643 255.873 202.643C257.089 202.643 257.697 203.635 257.697 205.619C257.697 206.259 257.644 206.857 257.537 207.411C257.452 207.945 257.345 208.457 257.217 208.947C257.132 209.289 257.057 209.63 256.993 209.971C256.95 210.313 256.929 210.611 256.929 210.867C256.929 211.934 257.452 212.467 258.497 212.467C259.478 212.467 260.396 211.945 261.249 210.899C262.102 209.854 262.806 208.393 263.361 206.515L263.329 205.907C263.286 204.841 263.468 204.03 263.873 203.475C264.3 202.921 264.918 202.643 265.729 202.643C266.433 202.643 266.785 202.867 266.785 203.315C266.785 203.465 266.753 203.657 266.689 203.891C266.646 204.126 266.572 204.403 266.465 204.723C266.252 205.513 266.07 206.355 265.921 207.251C265.772 208.126 265.697 208.937 265.697 209.683C265.697 210.515 265.825 211.209 266.081 211.763C266.337 212.297 266.817 212.659 267.521 212.851C267.713 212.873 267.862 212.937 267.969 213.043C268.097 213.129 268.161 213.321 268.161 213.619C268.161 214.131 267.948 214.633 267.521 215.123C267.094 215.614 266.476 215.859 265.665 215.859C264.108 215.859 263.329 214.761 263.329 212.563C263.329 212.179 263.361 211.603 263.425 210.835L263.361 210.803C262.017 214.259 260.044 215.987 257.441 215.987ZM302.036 215.987C301.247 215.987 300.564 215.849 299.988 215.571C299.434 215.294 298.943 214.942 298.516 214.515C298.303 214.878 298.047 215.209 297.748 215.507C297.471 215.785 297.151 215.923 296.788 215.923C296.554 215.923 296.33 215.849 296.116 215.699C295.903 215.571 295.818 215.39 295.86 215.155C296.18 213.449 296.447 211.721 296.66 209.971C296.895 208.222 297.012 206.441 297.012 204.627C297.012 203.113 296.959 201.694 296.852 200.371C296.746 199.049 296.415 197.833 295.86 196.723C295.754 196.51 295.658 196.307 295.572 196.115C295.508 195.923 295.476 195.742 295.476 195.571C295.476 195.166 295.711 194.771 296.18 194.387C296.65 194.003 297.151 193.811 297.684 193.811C298.452 193.811 298.975 194.281 299.252 195.219C299.53 196.158 299.668 197.545 299.668 199.379C299.668 200.937 299.594 202.366 299.444 203.667C299.316 204.947 299.167 206.046 298.996 206.963C299.594 205.705 300.404 204.649 301.428 203.795C302.474 202.921 303.647 202.483 304.948 202.483C306.25 202.483 307.263 202.921 307.988 203.795C308.735 204.649 309.108 205.811 309.108 207.283C309.108 208.371 308.938 209.438 308.596 210.483C308.255 211.507 307.775 212.435 307.156 213.267C306.538 214.099 305.791 214.761 304.916 215.251C304.063 215.742 303.103 215.987 302.036 215.987ZM302.772 212.531C303.988 212.531 304.927 212.147 305.588 211.379C306.25 210.611 306.58 209.726 306.58 208.723C306.58 207.849 306.335 207.177 305.844 206.707C305.375 206.217 304.746 205.971 303.956 205.971C303.167 205.971 302.463 206.217 301.844 206.707C301.226 207.177 300.703 207.806 300.276 208.595C299.85 209.363 299.519 210.195 299.284 211.091C299.775 211.561 300.319 211.923 300.916 212.179C301.535 212.414 302.154 212.531 302.772 212.531ZM342.196 215.987C340.575 215.987 339.306 215.529 338.388 214.611C337.492 213.673 337.044 212.371 337.044 210.707C337.044 209.193 337.375 207.817 338.036 206.579C338.698 205.342 339.583 204.361 340.692 203.635C341.823 202.889 343.06 202.515 344.404 202.515C345.684 202.515 346.708 202.835 347.476 203.475C348.244 204.094 348.628 204.926 348.628 205.971C348.628 206.803 348.372 207.571 347.86 208.275C347.348 208.979 346.666 209.545 345.812 209.971C344.959 210.377 344.01 210.579 342.964 210.579C341.684 210.579 340.639 210.291 339.828 209.715C339.85 210.697 340.18 211.486 340.82 212.083C341.482 212.681 342.324 212.979 343.348 212.979C343.967 212.979 344.596 212.873 345.236 212.659C345.898 212.425 346.463 212.115 346.932 211.731C347.231 211.475 347.508 211.347 347.764 211.347C347.978 211.347 348.148 211.422 348.276 211.571C348.426 211.699 348.5 211.87 348.5 212.083C348.5 212.553 348.095 213.171 347.284 213.939C345.855 215.305 344.159 215.987 342.196 215.987ZM342.676 208.467C343.444 208.467 344.084 208.307 344.596 207.987C345.108 207.667 345.364 207.262 345.364 206.771C345.364 206.366 345.194 206.057 344.852 205.843C344.511 205.609 344.042 205.491 343.444 205.491C342.655 205.491 341.962 205.705 341.364 206.131C340.788 206.537 340.372 207.113 340.116 207.859C340.415 208.051 340.799 208.201 341.268 208.307C341.738 208.414 342.207 208.467 342.676 208.467ZM381.577 215.987C379.956 215.987 378.687 215.529 377.769 214.611C376.873 213.673 376.425 212.371 376.425 210.707C376.425 209.193 376.756 207.817 377.417 206.579C378.079 205.342 378.964 204.361 380.073 203.635C381.204 202.889 382.441 202.515 383.785 202.515C385.065 202.515 386.089 202.835 386.857 203.475C387.625 204.094 388.009 204.926 388.009 205.971C388.009 206.803 387.753 207.571 387.241 208.275C386.729 208.979 386.047 209.545 385.193 209.971C384.34 210.377 383.391 210.579 382.345 210.579C381.065 210.579 380.02 210.291 379.209 209.715C379.231 210.697 379.561 211.486 380.201 212.083C380.863 212.681 381.705 212.979 382.729 212.979C383.348 212.979 383.977 212.873 384.617 212.659C385.279 212.425 385.844 212.115 386.313 211.731C386.612 211.475 386.889 211.347 387.145 211.347C387.359 211.347 387.529 211.422 387.657 211.571C387.807 211.699 387.881 211.87 387.881 212.083C387.881 212.553 387.476 213.171 386.665 213.939C385.236 215.305 383.54 215.987 381.577 215.987ZM382.057 208.467C382.825 208.467 383.465 208.307 383.977 207.987C384.489 207.667 384.745 207.262 384.745 206.771C384.745 206.366 384.575 206.057 384.233 205.843C383.892 205.609 383.423 205.491 382.825 205.491C382.036 205.491 381.343 205.705 380.745 206.131C380.169 206.537 379.753 207.113 379.497 207.859C379.796 208.051 380.18 208.201 380.649 208.307C381.119 208.414 381.588 208.467 382.057 208.467ZM418.178 215.891C417.559 215.891 417.1 215.721 416.802 215.379C416.503 215.038 416.354 214.441 416.354 213.587C416.354 213.182 416.386 212.659 416.45 212.019C416.514 211.379 416.588 210.686 416.674 209.939C416.802 209.022 416.908 208.062 416.994 207.059C417.1 206.057 417.154 205.097 417.154 204.179C417.154 202.878 417.09 201.534 416.962 200.147C416.855 198.739 416.535 197.513 416.002 196.467C415.81 196.041 415.714 195.731 415.714 195.539C415.714 195.262 415.831 194.995 416.066 194.739C416.322 194.483 416.631 194.27 416.994 194.099C417.356 193.907 417.708 193.811 418.05 193.811C418.604 193.811 419.02 194.067 419.298 194.579C419.575 195.07 419.756 195.753 419.842 196.627C419.927 197.481 419.97 198.462 419.97 199.571C419.97 201.257 419.895 202.718 419.746 203.955C419.618 205.193 419.49 206.281 419.362 207.219C419.276 207.838 419.191 208.425 419.106 208.979C419.042 209.534 419.01 210.035 419.01 210.483C419.01 211.23 419.127 211.774 419.362 212.115C419.618 212.435 420.023 212.755 420.578 213.075C420.727 213.161 420.834 213.246 420.898 213.331C420.983 213.395 421.026 213.502 421.026 213.651C421.026 213.822 420.94 214.089 420.77 214.451C420.599 214.814 420.3 215.145 419.874 215.443C419.468 215.742 418.903 215.891 418.178 215.891Z" fill="black"/>
</svg>
