<svg width="520" height="304" viewBox="0 0 520 304" fill="none" xmlns="http://www.w3.org/2000/svg">
<rect width="520" height="304" rx="20" fill="#D5F6EB"/>
<path d="M258.222 180.64C257.71 180.64 257.198 180.512 256.686 180.256C256.174 180.085 255.79 179.787 255.534 179.36L226.734 114.208H226.35L226.606 165.024C226.691 166.645 226.819 168.224 226.99 169.76C227.246 171.211 227.928 172.448 229.038 173.472C230.147 174.411 232.024 174.88 234.67 174.88C235.608 174.88 236.376 174.965 236.974 175.136C237.571 175.307 237.912 176.117 237.998 177.568C237.998 178.251 237.784 178.891 237.358 179.488C237.016 180.085 236.462 180.384 235.694 180.384C233.902 180.299 232.451 180.213 231.342 180.128C230.232 180.128 229.166 180.085 228.142 180C227.118 180 225.752 180 224.046 180C221.486 180 219.395 180 217.774 180C216.238 180.085 214.104 180.213 211.374 180.384C210.52 180.384 209.923 180.085 209.582 179.488C209.24 178.891 209.07 178.251 209.07 177.568C209.155 176.117 209.496 175.307 210.094 175.136C210.691 174.965 211.416 174.88 212.27 174.88C215 174.88 216.878 174.411 217.902 173.472C219.011 172.448 219.694 171.211 219.95 169.76C220.206 168.224 220.333 166.645 220.333 165.024L220.59 114.208C220.59 111.477 220.291 109.472 219.694 108.192C219.096 106.827 218.158 105.888 216.878 105.376C215.598 104.779 213.976 104.309 212.014 103.968C210.819 103.712 209.966 103.499 209.454 103.328C209.027 103.157 208.814 102.389 208.814 101.024C208.814 99.5733 209.326 98.8053 210.35 98.72C211.374 98.5493 212.568 98.464 213.934 98.464C218.115 98.464 221.784 98.8053 224.942 99.488C228.184 100.171 231 101.493 233.39 103.456C235.779 105.333 237.742 108.192 239.278 112.032L261.294 161.44H261.678L286.894 99.232H294.19C296.75 99.232 299.224 99.1893 301.614 99.104C304.088 99.0187 306.691 98.9333 309.422 98.848C310.275 98.848 310.872 99.1467 311.214 99.744C311.555 100.341 311.726 100.981 311.726 101.664C311.64 103.115 311.299 103.925 310.702 104.096C310.104 104.267 309.379 104.352 308.526 104.352C305.88 104.352 303.96 104.864 302.766 105.888C301.656 106.827 300.974 108.064 300.718 109.6C300.462 111.051 300.291 112.587 300.206 114.208V165.024C300.291 166.645 300.462 168.224 300.718 169.76C300.974 171.211 301.656 172.448 302.766 173.472C303.96 174.411 305.88 174.88 308.526 174.88C309.379 174.88 310.104 174.965 310.702 175.136C311.299 175.307 311.64 176.117 311.726 177.568C311.726 178.251 311.555 178.891 311.214 179.488C310.872 180.085 310.275 180.384 309.422 180.384C306.691 180.213 304.088 180.085 301.614 180C299.139 180 296.622 180 294.062 180C289.112 180 283.864 180.128 278.318 180.384C277.464 180.384 276.867 180.085 276.526 179.488C276.184 178.891 276.014 178.251 276.014 177.568C276.099 176.117 276.44 175.307 277.038 175.136C277.635 174.965 278.36 174.88 279.214 174.88C281.944 174.88 283.864 174.411 284.974 173.472C286.083 172.448 286.766 171.211 287.022 169.76C287.363 168.224 287.534 166.645 287.534 165.024V114.208H287.15L260.782 179.36C260.611 179.787 260.27 180.085 259.758 180.256C259.246 180.512 258.734 180.64 258.222 180.64ZM324.868 180.384C324.014 180.384 323.417 180.085 323.076 179.488C322.734 178.891 322.564 178.251 322.564 177.568C322.649 176.117 322.99 175.307 323.588 175.136C324.185 174.965 324.91 174.88 325.764 174.88C328.494 174.88 330.414 174.411 331.524 173.472C332.633 172.448 333.316 171.211 333.572 169.76C333.913 168.224 334.083 166.645 334.083 165.024V114.208C334.083 112.587 333.913 111.051 333.572 109.6C333.316 108.064 332.633 106.827 331.524 105.888C330.414 104.864 328.494 104.352 325.764 104.352C324.91 104.352 324.185 104.267 323.588 104.096C322.99 103.925 322.649 103.115 322.564 101.664C322.564 100.981 322.734 100.341 323.076 99.744C323.417 99.1467 324.014 98.848 324.868 98.848C327.598 98.9333 330.158 99.0187 332.548 99.104C334.937 99.1893 337.412 99.232 339.972 99.232H358.02C362.969 99.232 366.852 99.616 369.668 100.384C372.569 101.067 375.086 102.091 377.22 103.456C379.438 104.907 381.188 106.912 382.468 109.472C383.748 111.947 384.388 114.677 384.388 117.664C384.388 121.504 383.492 124.747 381.7 127.392C379.908 129.952 377.646 132 374.916 133.536C372.27 134.987 369.668 136.011 367.108 136.608V136.992C371.63 136.907 375.641 137.717 379.14 139.424C382.638 141.131 385.412 143.392 387.46 146.208C389.508 149.024 390.574 152.096 390.66 155.424C390.83 160.288 389.806 164.299 387.588 167.456C385.369 170.613 382.468 173.131 378.884 175.008C375.385 176.885 371.545 178.208 367.364 178.976C363.268 179.744 359.3 180.128 355.46 180.128L340.1 180C337.54 180 335.022 180 332.548 180C330.158 180.085 327.598 180.213 324.868 180.384ZM346.756 134.432H352.132C353.838 134.432 355.758 134.347 357.892 134.176C360.025 134.005 362.073 133.493 364.036 132.64C365.998 131.701 367.577 130.208 368.772 128.16C370.052 126.027 370.692 123.04 370.692 119.2C370.692 114.677 369.582 111.008 367.364 108.192C365.23 105.376 361.348 103.968 355.716 103.968H346.756V134.432ZM355.972 175.008C359.812 174.923 363.31 174.283 366.468 173.088C369.625 171.893 372.142 169.888 374.02 167.072C375.897 164.256 376.836 160.373 376.836 155.424C376.58 152.693 375.641 150.133 374.02 147.744C372.484 145.355 369.924 143.392 366.34 141.856C362.841 140.32 358.062 139.552 352.004 139.552H346.756V165.024C346.756 169.291 347.396 172.021 348.676 173.216C349.956 174.411 352.388 175.008 355.972 175.008ZM403.118 180.384C402.35 180.384 401.795 180.085 401.454 179.488C401.112 178.891 400.942 178.251 400.942 177.568C401.027 176.117 401.368 175.307 401.966 175.136C402.563 174.965 403.288 174.88 404.142 174.88C406.872 174.88 408.792 174.411 409.902 173.472C411.011 172.448 411.694 171.211 411.95 169.76C412.291 168.224 412.462 166.645 412.462 165.024V114.208C412.462 112.587 412.291 111.051 411.95 109.6C411.694 108.064 411.011 106.827 409.902 105.888C408.792 104.864 406.872 104.352 404.142 104.352C403.288 104.352 402.563 104.267 401.966 104.096C401.368 103.925 401.027 103.115 400.942 101.664C400.942 100.981 401.112 100.341 401.454 99.744C401.795 99.1467 402.35 98.848 403.118 98.848C405.934 98.9333 408.536 99.0187 410.926 99.104C413.315 99.1893 415.79 99.232 418.35 99.232C423.555 99.232 428.888 99.104 434.35 98.848C435.203 98.848 435.8 99.1467 436.142 99.744C436.483 100.341 436.654 100.981 436.654 101.664C436.568 103.115 436.227 103.925 435.63 104.096C435.032 104.267 434.307 104.352 433.454 104.352C430.808 104.352 428.888 104.864 427.694 105.888C426.584 106.827 425.902 108.064 425.646 109.6C425.39 111.051 425.219 112.587 425.134 114.208V166.944C425.219 168.053 425.39 169.248 425.646 170.528C425.902 171.808 426.627 172.875 427.822 173.728C429.102 174.581 431.192 174.965 434.094 174.88H445.614C448.6 174.795 450.862 174.325 452.398 173.472C454.019 172.533 455.299 170.997 456.238 168.864C457.176 166.731 458.2 163.787 459.31 160.032C459.651 159.179 460.206 158.624 460.974 158.368C461.827 158.112 462.723 158.069 463.662 158.24C464.344 158.325 465.027 158.624 465.71 159.136C466.478 159.648 466.819 160.331 466.734 161.184L464.174 177.312C463.918 178.507 463.491 179.275 462.894 179.616C462.382 179.872 461.571 180 460.462 180H418.478C415.918 180 413.4 180 410.926 180C408.536 180.085 405.934 180.213 403.118 180.384Z" fill="black"/>
<path d="M92.949 144.91C92.8024 146.157 92.399 147.367 91.739 148.54C91.079 149.64 90.309 150.703 89.429 151.73C88.549 152.683 87.5957 153.527 86.569 154.26C85.6157 154.993 84.699 155.543 83.819 155.91C81.2524 156.937 78.5024 157.853 75.569 158.66C72.709 159.393 69.8857 160.017 67.099 160.53C67.0257 160.53 66.769 160.567 66.329 160.64C65.889 160.64 65.5957 160.53 65.449 160.31C65.449 160.163 65.5957 159.943 65.889 159.65C66.1824 159.357 66.4024 159.21 66.549 159.21C67.5757 158.55 68.969 157.743 70.729 156.79C72.5624 155.837 74.139 155.14 75.459 154.7C75.899 154.627 76.9257 154.223 78.539 153.49C80.2257 152.683 81.9857 151.767 83.819 150.74C85.7257 149.64 87.4857 148.503 89.099 147.33C90.7857 146.157 91.849 145.093 92.289 144.14C92.4357 144.067 92.5457 143.993 92.619 143.92C92.6924 143.847 92.8024 143.81 92.949 143.81V144.91ZM92.509 140.84C91.3357 143.333 89.7224 145.313 87.669 146.78C85.6157 148.247 83.3057 149.493 80.739 150.52C78.2457 151.547 75.6057 152.463 72.819 153.27C70.1057 154.077 67.5024 155.067 65.009 156.24C61.929 157.707 58.9957 159.797 56.209 162.51C53.4957 165.15 51.6257 168.413 50.599 172.3C50.4524 172.373 50.3057 172.483 50.159 172.63C50.0857 172.777 49.9757 172.923 49.829 173.07C49.9024 170.43 50.379 168.047 51.259 165.92C52.139 163.72 53.239 161.777 54.559 160.09C55.9524 158.403 57.4924 156.973 59.179 155.8C60.8657 154.553 62.6257 153.527 64.459 152.72C67.0257 151.62 69.629 150.667 72.269 149.86C74.909 148.98 77.439 148.1 79.859 147.22C82.279 146.34 84.5524 145.35 86.679 144.25C88.8057 143.15 90.639 141.793 92.179 140.18C92.399 140.18 92.509 140.18 92.509 140.18C92.6557 140.18 92.6924 140.253 92.619 140.4C92.5457 140.547 92.509 140.693 92.509 140.84ZM94.599 182.53C94.599 182.677 94.5624 182.823 94.489 182.97C94.4157 183.043 94.3424 183.153 94.269 183.3L93.939 183.63C93.059 184.437 92.289 185.06 91.629 185.5C90.969 185.94 89.9057 186.27 88.439 186.49C87.8524 186.563 87.1924 186.6 86.459 186.6C85.7257 186.6 85.029 186.563 84.369 186.49C83.7824 186.343 83.269 186.197 82.829 186.05C82.389 185.83 82.2424 185.61 82.389 185.39C82.4624 185.243 82.829 185.133 83.489 185.06C84.2224 184.913 84.699 184.84 84.919 184.84C85.7257 184.693 86.459 184.583 87.119 184.51C87.8524 184.437 88.5124 184.327 89.099 184.18C90.0524 183.96 90.8957 183.74 91.629 183.52C92.3624 183.3 93.2057 182.97 94.159 182.53C94.4524 182.383 94.599 182.383 94.599 182.53ZM88.549 182.86C88.549 182.933 88.4024 182.97 88.109 182.97C87.8157 182.897 87.559 182.86 87.339 182.86C84.259 182.273 81.289 181.283 78.429 179.89C75.569 178.497 72.7457 176.92 69.959 175.16C69.739 175.013 69.2624 174.683 68.529 174.17C67.7957 173.583 66.8424 173.033 65.669 172.52C64.4957 171.933 63.1024 171.457 61.489 171.09C59.949 170.65 58.2624 170.467 56.429 170.54L57.199 169.77C59.7657 167.203 62.809 165.26 66.329 163.94C69.9224 162.547 73.5524 161.227 77.219 159.98C79.4924 159.173 81.7657 158.293 84.039 157.34C86.3857 156.387 88.5857 155.03 90.639 153.27C90.7857 152.977 90.9324 152.903 91.079 153.05C91.2257 153.197 91.2624 153.343 91.189 153.49C91.1157 153.563 91.0057 153.71 90.859 153.93C90.419 155.47 89.3557 156.9 87.669 158.22C86.0557 159.54 84.2224 160.713 82.169 161.74C80.189 162.767 78.1724 163.683 76.119 164.49C74.0657 165.297 72.4157 165.957 71.169 166.47C70.1424 166.91 69.0057 167.35 67.759 167.79C66.5857 168.23 65.3757 168.633 64.129 169C65.3757 169.293 66.6224 169.697 67.869 170.21C69.189 170.723 70.4357 171.31 71.609 171.97C72.8557 172.557 73.9924 173.143 75.019 173.73C76.0457 174.317 76.9257 174.793 77.659 175.16C79.419 176.113 81.179 177.25 82.939 178.57C84.7724 179.817 86.4224 180.953 87.889 181.98C88.4024 182.273 88.6224 182.567 88.549 182.86ZM58.959 164.05C59.1057 164.05 59.1057 164.197 58.959 164.49C58.8857 164.71 58.739 164.967 58.519 165.26C58.3724 165.48 58.189 165.737 57.969 166.03C57.749 166.25 57.639 166.397 57.639 166.47C57.1257 167.203 56.6124 167.863 56.099 168.45C55.5857 169.037 55.1457 169.623 54.779 170.21L54.339 170.98L51.809 171.86C51.8824 171.42 51.9924 170.907 52.139 170.32C52.359 169.733 52.7257 169.073 53.239 168.34C53.6057 167.827 54.0824 167.277 54.669 166.69C55.329 166.03 55.9524 165.48 56.539 165.04C57.1257 164.527 57.639 164.16 58.079 163.94C58.5924 163.72 58.8857 163.757 58.959 164.05ZM93.389 186.16C91.409 187.993 89.429 189.313 87.449 190.12C85.469 190.927 83.5624 191.403 81.729 191.55C79.8957 191.623 78.099 191.44 76.339 191C74.6524 190.487 73.039 189.827 71.499 189.02C69.3724 187.92 67.319 186.71 65.339 185.39C63.4324 184.07 61.5257 182.823 59.619 181.65C57.7124 180.477 55.8057 179.487 53.899 178.68C52.0657 177.873 50.159 177.47 48.179 177.47C47.5924 177.47 47.4457 177.36 47.739 177.14C48.0324 176.92 48.2157 176.81 48.289 176.81C50.6357 175.93 52.8724 175.747 54.999 176.26C57.199 176.773 59.3257 177.617 61.379 178.79C63.5057 179.89 65.559 181.173 67.539 182.64C69.5924 184.033 71.6824 185.28 73.809 186.38C75.129 187.04 76.559 187.627 78.099 188.14C79.639 188.58 81.2524 188.837 82.939 188.91C84.6257 188.91 86.3124 188.69 87.999 188.25C89.6857 187.81 91.3724 187.003 93.059 185.83C93.499 185.537 93.6824 185.5 93.609 185.72C93.5357 185.94 93.4624 186.087 93.389 186.16ZM76.449 183.19C76.3024 183.41 76.0457 183.52 75.679 183.52C75.3124 183.447 75.0924 183.337 75.019 183.19C73.919 183.043 72.5624 182.603 70.949 181.87C69.3357 181.137 68.0524 180.403 67.099 179.67C66.8057 179.45 65.9624 179.01 64.569 178.35C63.1757 177.69 61.599 177.067 59.839 176.48C58.1524 175.82 56.429 175.307 54.669 174.94C52.9824 174.5 51.699 174.427 50.819 174.72C50.5257 174.867 50.379 174.83 50.379 174.61C50.5257 174.463 50.6357 174.353 50.709 174.28C50.7824 174.207 50.8924 174.097 51.039 173.95C51.9924 173.217 53.019 172.703 54.119 172.41C55.2924 172.043 56.4657 171.86 57.639 171.86C58.8124 171.787 59.9124 171.86 60.939 172.08C62.039 172.3 62.9557 172.63 63.689 173.07C65.7424 174.243 67.7957 175.6 69.849 177.14C71.9757 178.68 73.8824 180.293 75.569 181.98C75.7157 182.053 75.9357 182.237 76.229 182.53C76.5224 182.823 76.5957 183.043 76.449 183.19ZM107.808 140.62C109.348 145.093 110.778 149.897 112.098 155.03C113.491 160.163 114.591 165.003 115.398 169.55C115.544 169.843 115.654 170.357 115.728 171.09C115.874 171.75 115.874 172.153 115.728 172.3C115.434 172.3 115.104 172.007 114.738 171.42C114.444 170.833 114.261 170.393 114.188 170.1C113.674 169.147 113.124 167.973 112.538 166.58C111.951 165.113 111.364 163.61 110.778 162.07C110.264 160.53 109.751 159.027 109.238 157.56C108.724 156.02 108.321 154.7 108.028 153.6C107.881 153.087 107.514 152.06 106.928 150.52C106.341 148.98 105.644 147.183 104.838 145.13C104.031 143.077 103.114 140.877 102.088 138.53C101.061 136.11 100.034 133.837 99.0076 131.71C97.9809 129.51 96.9543 127.567 95.9276 125.88C94.9743 124.12 94.1309 122.873 93.3976 122.14C93.2509 121.993 93.1409 121.883 93.0676 121.81C92.9943 121.663 92.9209 121.517 92.8476 121.37C92.7743 121.223 92.7376 121.113 92.7376 121.04C92.8843 120.967 93.0309 121.003 93.1776 121.15C93.3976 121.223 93.5809 121.26 93.7276 121.26C95.1943 121.993 96.6243 123.13 98.0176 124.67C99.4843 126.137 100.841 127.787 102.088 129.62C103.408 131.38 104.544 133.25 105.498 135.23C106.451 137.21 107.221 139.007 107.808 140.62ZM121.448 165.48C122.768 169.44 124.088 173.51 125.408 177.69C126.801 181.87 128.084 185.5 129.258 188.58C129.331 189.167 129.404 189.643 129.478 190.01C129.551 190.303 129.514 190.45 129.368 190.45C129.294 190.597 129.111 190.487 128.818 190.12C128.598 189.753 128.378 189.387 128.158 189.02C126.398 186.38 124.821 183.63 123.428 180.77C122.108 177.91 120.861 174.977 119.688 171.97C118.588 168.963 117.524 165.847 116.498 162.62C115.544 159.393 114.554 156.13 113.528 152.83C112.281 148.87 110.924 144.837 109.458 140.73C107.991 136.623 106.048 132.48 103.628 128.3C103.408 128.08 103.298 127.97 103.298 127.97C103.298 127.897 103.371 127.823 103.518 127.75C103.591 127.603 103.664 127.603 103.738 127.75C103.811 127.897 103.958 128.043 104.178 128.19C106.011 129.583 107.808 131.93 109.568 135.23C111.328 138.457 112.978 141.977 114.518 145.79C116.058 149.603 117.414 153.343 118.588 157.01C119.834 160.603 120.788 163.427 121.448 165.48ZM133.658 200.46C133.951 200.607 134.171 200.79 134.318 201.01C134.464 201.157 134.464 201.23 134.318 201.23C134.244 201.45 134.061 201.45 133.768 201.23C130.541 200.423 127.534 199.03 124.748 197.05C122.034 195.07 119.578 192.723 117.378 190.01C115.178 187.223 113.198 184.18 111.438 180.88C109.751 177.58 108.321 174.207 107.148 170.76C105.608 166.14 104.141 161.557 102.748 157.01C101.428 152.39 100.034 147.917 98.5676 143.59C97.1743 139.19 95.6709 135.047 94.0576 131.16C92.5176 127.273 90.7209 123.753 88.6676 120.6C88.6676 120.233 88.6676 120.05 88.6676 120.05C88.6676 119.903 88.6676 119.867 88.6676 119.94C88.7409 120.013 88.8509 120.087 88.9976 120.16C89.1443 120.307 89.2909 120.417 89.4376 120.49C92.3709 123.35 94.8276 126.76 96.8076 130.72C98.8609 134.607 100.658 138.823 102.198 143.37C103.738 147.843 105.168 152.5 106.488 157.34C107.881 162.107 109.384 166.763 110.998 171.31C112.024 174.243 113.308 177.177 114.848 180.11C116.461 183.043 118.221 185.793 120.128 188.36C122.108 190.927 124.234 193.273 126.508 195.4C128.781 197.527 131.164 199.213 133.658 200.46ZM129.368 193.09C130.541 194.117 131.678 195.07 132.778 195.95C133.878 196.757 135.051 197.527 136.298 198.26C136.444 198.407 136.591 198.59 136.738 198.81C136.958 199.03 137.031 199.14 136.958 199.14C136.811 199.287 136.628 199.36 136.408 199.36C136.261 199.36 136.114 199.36 135.968 199.36C135.748 199.36 135.601 199.323 135.528 199.25C134.794 199.03 134.134 198.847 133.548 198.7C132.961 198.553 132.374 198.333 131.788 198.04C131.201 197.673 130.578 197.27 129.918 196.83C129.258 196.317 128.488 195.62 127.608 194.74C126.948 194.08 126.178 193.163 125.298 191.99C124.491 190.817 123.721 189.68 122.988 188.58C122.254 187.407 121.668 186.417 121.228 185.61C120.861 184.73 120.788 184.217 121.008 184.07C121.081 183.997 121.264 184.107 121.558 184.4C121.924 184.62 122.291 184.95 122.658 185.39C123.024 185.757 123.354 186.16 123.648 186.6C124.014 186.967 124.271 187.223 124.418 187.37C125.224 188.543 126.031 189.57 126.838 190.45C127.644 191.33 128.488 192.21 129.368 193.09ZM177.27 167.24C177.197 167.387 177.013 167.423 176.72 167.35C176.427 167.277 176.17 167.167 175.95 167.02C172.503 165.773 169.313 164.013 166.38 161.74C163.447 159.467 160.55 157.01 157.69 154.37C156.003 152.757 154.17 151.18 152.19 149.64C150.283 148.1 148.047 146.817 145.48 145.79C145.333 145.79 145.26 145.753 145.26 145.68C145.333 145.46 145.517 145.313 145.81 145.24C147.423 144.947 149.22 145.24 151.2 146.12C153.18 146.927 155.087 147.953 156.92 149.2C158.827 150.447 160.623 151.767 162.31 153.16C163.997 154.553 165.39 155.653 166.49 156.46C168.323 157.927 170.157 159.577 171.99 161.41C173.897 163.17 175.473 164.747 176.72 166.14C176.867 166.36 177.013 166.58 177.16 166.8C177.38 166.947 177.417 167.093 177.27 167.24ZM181.67 171.97C181.377 173.217 180.827 174.39 180.02 175.49C179.287 176.59 178.443 177.617 177.49 178.57C176.537 179.45 175.51 180.22 174.41 180.88C173.31 181.467 172.283 181.87 171.33 182.09C168.763 183.043 165.94 183.813 162.86 184.4C159.78 184.913 156.92 185.17 154.28 185.17C153.913 185.243 153.547 185.28 153.18 185.28C152.887 185.28 152.703 185.243 152.63 185.17C152.483 184.877 152.557 184.62 152.85 184.4C153.217 184.18 153.473 184.07 153.62 184.07C154.133 183.777 154.793 183.447 155.6 183.08C156.407 182.713 157.25 182.347 158.13 181.98C159.01 181.613 159.89 181.283 160.77 180.99C161.65 180.697 162.383 180.477 162.97 180.33C163.483 180.183 164.583 179.817 166.27 179.23C168.03 178.57 169.9 177.837 171.88 177.03C173.933 176.223 175.84 175.343 177.6 174.39C179.36 173.363 180.533 172.373 181.12 171.42C181.34 171.053 181.523 170.907 181.67 170.98C181.817 171.053 181.817 171.383 181.67 171.97ZM163.74 164.38C163.593 164.527 163.337 164.563 162.97 164.49C162.677 164.343 162.493 164.197 162.42 164.05C161.247 163.463 159.817 162.62 158.13 161.52C156.443 160.42 155.16 159.393 154.28 158.44C153.913 158.147 152.96 157.487 151.42 156.46C149.953 155.36 148.303 154.26 146.47 153.16C144.637 151.987 142.803 150.96 140.97 150.08C139.21 149.127 137.853 148.65 136.9 148.65C136.753 148.797 136.57 148.833 136.35 148.76C136.203 148.613 136.13 148.467 136.13 148.32L137.12 147.88C138.22 147.367 139.43 147.11 140.75 147.11C142.07 147.11 143.353 147.293 144.6 147.66C145.92 147.953 147.13 148.393 148.23 148.98C149.403 149.493 150.357 150.08 151.09 150.74C153.07 152.427 155.123 154.37 157.25 156.57C159.45 158.697 161.43 160.823 163.19 162.95C163.337 163.097 163.483 163.353 163.63 163.72C163.85 164.013 163.887 164.233 163.74 164.38ZM181.56 167.9C180.167 170.32 178.333 172.19 176.06 173.51C173.86 174.757 171.44 175.783 168.8 176.59C166.16 177.323 163.41 177.983 160.55 178.57C157.69 179.157 154.94 179.89 152.3 180.77C150.687 181.283 149.073 182.017 147.46 182.97C145.847 183.85 144.307 184.95 142.84 186.27C141.373 187.517 140.053 188.947 138.88 190.56C137.707 192.173 136.79 193.97 136.13 195.95C135.983 196.39 135.91 196.61 135.91 196.61C135.763 196.61 135.69 196.537 135.69 196.39C135.69 196.243 135.69 196.097 135.69 195.95C136.057 193.237 136.753 190.853 137.78 188.8C138.807 186.747 140.053 184.987 141.52 183.52C142.987 181.98 144.637 180.697 146.47 179.67C148.377 178.643 150.32 177.8 152.3 177.14C154.573 176.333 156.883 175.71 159.23 175.27C161.577 174.757 163.887 174.207 166.16 173.62C164.547 173.18 163.08 172.557 161.76 171.75C160.44 170.943 159.083 170.027 157.69 169C155.49 167.313 153.363 165.553 151.31 163.72C149.33 161.887 147.35 160.127 145.37 158.44C143.463 156.753 141.52 155.25 139.54 153.93C137.633 152.537 135.617 151.473 133.49 150.74H133.27C133.123 150.74 133.087 150.703 133.16 150.63C133.087 150.483 133.16 150.41 133.38 150.41C133.6 150.337 133.783 150.3 133.93 150.3C136.57 150.08 139.027 150.52 141.3 151.62C143.573 152.647 145.737 154.003 147.79 155.69C149.917 157.377 152.007 159.21 154.06 161.19C156.113 163.17 158.24 165.003 160.44 166.69C161.54 167.497 162.677 168.303 163.85 169.11C165.097 169.843 166.343 170.467 167.59 170.98C168.837 171.42 170.12 171.677 171.44 171.75C172.833 171.823 174.19 171.567 175.51 170.98C174.85 170.907 174.153 170.76 173.42 170.54C172.76 170.32 172.137 170.1 171.55 169.88C170.963 169.587 170.487 169.293 170.12 169C169.827 168.707 169.753 168.45 169.9 168.23C170.047 168.01 170.56 167.973 171.44 168.12C172.393 168.193 173.053 168.23 173.42 168.23C174.74 168.45 176.023 168.597 177.27 168.67C178.59 168.67 179.763 168.377 180.79 167.79C180.937 167.643 181.193 167.497 181.56 167.35C181.927 167.203 181.927 167.387 181.56 167.9ZM178.92 180.11C178.92 180.183 178.883 180.257 178.81 180.33C178.81 180.403 178.81 180.477 178.81 180.55C178.737 180.697 178.7 180.807 178.7 180.88C178.04 182.493 176.793 183.887 174.96 185.06C173.127 186.16 171.11 187.113 168.91 187.92C166.783 188.727 164.657 189.423 162.53 190.01C160.477 190.523 158.827 191 157.58 191.44C155.307 192.247 152.887 192.907 150.32 193.42C147.753 193.86 145.517 194.3 143.61 194.74C142.877 194.74 142.4 194.703 142.18 194.63C142.18 194.41 142.29 194.227 142.51 194.08C142.803 193.86 143.06 193.677 143.28 193.53C146.36 191.403 149.66 189.827 153.18 188.8C156.773 187.7 160.44 186.673 164.18 185.72C166.527 185.133 168.91 184.473 171.33 183.74C173.75 182.933 176.133 181.723 178.48 180.11C178.773 180.037 178.92 180.037 178.92 180.11ZM145.7 187.81C145.773 187.957 145.737 188.177 145.59 188.47C145.443 188.763 145.26 189.057 145.04 189.35C144.82 189.57 144.6 189.79 144.38 190.01C144.16 190.23 144.05 190.377 144.05 190.45C143.317 191.037 142.693 191.623 142.18 192.21C141.667 192.723 141.153 193.273 140.64 193.86C140.127 194.667 139.65 195.473 139.21 196.28C138.77 197.013 138.293 197.673 137.78 198.26C137.78 198.407 137.707 198.517 137.56 198.59C137.413 198.663 137.413 198.627 137.56 198.48C137.413 198.333 137.34 198.077 137.34 197.71V197.38C137.34 196.573 137.45 195.767 137.67 194.96C137.89 194.08 138.513 193.017 139.54 191.77C139.907 191.33 140.42 190.853 141.08 190.34C141.74 189.753 142.4 189.24 143.06 188.8C143.72 188.36 144.27 188.03 144.71 187.81C145.223 187.59 145.553 187.59 145.7 187.81Z" fill="black"/>
<path d="M210.133 218.352C209.365 218.352 209.024 218.096 209.109 217.584C209.344 216.667 209.536 215.739 209.685 214.8C209.856 213.84 209.941 212.923 209.941 212.048C209.941 210.917 209.866 210.096 209.717 209.584C209.589 209.051 209.408 208.688 209.173 208.496C208.938 208.283 208.65 208.123 208.309 208.016C208.16 207.952 208.021 207.867 207.893 207.76C207.786 207.653 207.733 207.504 207.733 207.312C207.733 207.013 207.85 206.683 208.085 206.32C208.32 205.957 208.65 205.648 209.077 205.392C209.525 205.115 210.026 204.976 210.581 204.976C211.306 204.976 211.808 205.232 212.085 205.744C212.362 206.235 212.501 206.885 212.501 207.696C212.501 208.229 212.448 208.827 212.341 209.488C212.234 210.149 212.128 210.747 212.021 211.28L212.085 211.312C212.426 210.181 212.842 209.136 213.333 208.176C213.845 207.216 214.453 206.437 215.157 205.84C215.882 205.243 216.714 204.944 217.653 204.944C218.613 204.944 219.37 205.275 219.925 205.936C220.48 206.576 220.757 207.525 220.757 208.784V209.488C221.376 208.187 222.122 207.099 222.997 206.224C223.893 205.349 224.97 204.912 226.229 204.912C227.253 204.912 228.053 205.253 228.629 205.936C229.205 206.619 229.493 207.472 229.493 208.496C229.493 208.901 229.45 209.296 229.365 209.68C229.28 210.043 229.184 210.405 229.077 210.768C228.992 211.109 228.906 211.461 228.821 211.824C228.736 212.187 228.693 212.549 228.693 212.912C228.693 214.192 229.237 215.024 230.325 215.408C230.474 215.472 230.592 215.547 230.677 215.632C230.762 215.696 230.805 215.824 230.805 216.016C230.805 216.208 230.741 216.485 230.613 216.848C230.506 217.211 230.282 217.552 229.941 217.872C229.6 218.171 229.109 218.32 228.469 218.32C227.637 218.32 226.997 218.021 226.549 217.424C226.101 216.805 225.877 216.027 225.877 215.088C225.877 214.619 225.92 214.128 226.005 213.616C226.09 213.104 226.197 212.613 226.325 212.144C226.432 211.717 226.517 211.312 226.581 210.928C226.666 210.544 226.709 210.213 226.709 209.936C226.709 209.424 226.581 209.051 226.325 208.816C226.09 208.581 225.77 208.464 225.365 208.464C224.682 208.464 224.064 208.677 223.509 209.104C222.976 209.531 222.496 210.085 222.069 210.768C221.664 211.451 221.312 212.197 221.013 213.008C221.034 213.2 221.045 213.456 221.045 213.776C221.066 214.075 221.077 214.341 221.077 214.576C221.077 214.981 221.045 215.408 220.981 215.856C220.938 216.304 220.842 216.677 220.693 216.976C220.522 217.381 220.266 217.712 219.925 217.968C219.605 218.224 219.168 218.352 218.613 218.352C218.378 218.352 218.154 218.299 217.941 218.192C217.728 218.107 217.621 217.957 217.621 217.744C217.621 217.659 217.685 217.285 217.813 216.624C217.941 215.941 218.069 215.109 218.197 214.128C218.325 213.147 218.389 212.187 218.389 211.248C218.389 210.224 218.282 209.52 218.069 209.136C217.856 208.731 217.536 208.528 217.109 208.528C216.576 208.528 216.064 208.752 215.573 209.2C215.104 209.648 214.666 210.224 214.261 210.928C213.877 211.632 213.536 212.368 213.237 213.136C212.96 213.904 212.736 214.619 212.565 215.28V215.632C212.565 216.421 212.341 217.072 211.893 217.584C211.466 218.096 210.88 218.352 210.133 218.352ZM262.441 218.416C261.374 218.416 260.542 218.107 259.945 217.488C259.369 216.869 259.081 215.973 259.081 214.8C259.081 213.968 259.198 213.115 259.433 212.24C259.54 211.877 259.625 211.515 259.689 211.152C259.753 210.789 259.785 210.427 259.785 210.064C259.785 209.125 259.497 208.517 258.921 208.24C258.366 207.941 258.089 207.621 258.089 207.28C258.089 206.939 258.228 206.597 258.505 206.256C258.804 205.915 259.166 205.637 259.593 205.424C260.02 205.189 260.446 205.072 260.873 205.072C262.089 205.072 262.697 206.064 262.697 208.048C262.697 208.688 262.644 209.285 262.537 209.84C262.452 210.373 262.345 210.885 262.217 211.376C262.132 211.717 262.057 212.059 261.993 212.4C261.95 212.741 261.929 213.04 261.929 213.296C261.929 214.363 262.452 214.896 263.497 214.896C264.478 214.896 265.396 214.373 266.249 213.328C267.102 212.283 267.806 210.821 268.361 208.944L268.329 208.336C268.286 207.269 268.468 206.459 268.873 205.904C269.3 205.349 269.918 205.072 270.729 205.072C271.433 205.072 271.785 205.296 271.785 205.744C271.785 205.893 271.753 206.085 271.689 206.32C271.646 206.555 271.572 206.832 271.465 207.152C271.252 207.941 271.07 208.784 270.921 209.68C270.772 210.555 270.697 211.365 270.697 212.112C270.697 212.944 270.825 213.637 271.081 214.192C271.337 214.725 271.817 215.088 272.521 215.28C272.713 215.301 272.862 215.365 272.969 215.472C273.097 215.557 273.161 215.749 273.161 216.048C273.161 216.56 272.948 217.061 272.521 217.552C272.094 218.043 271.476 218.288 270.665 218.288C269.108 218.288 268.329 217.189 268.329 214.992C268.329 214.608 268.361 214.032 268.425 213.264L268.361 213.232C267.017 216.688 265.044 218.416 262.441 218.416ZM307.036 218.416C306.247 218.416 305.564 218.277 304.988 218C304.434 217.723 303.943 217.371 303.516 216.944C303.303 217.307 303.047 217.637 302.748 217.936C302.471 218.213 302.151 218.352 301.788 218.352C301.554 218.352 301.33 218.277 301.116 218.128C300.903 218 300.818 217.819 300.86 217.584C301.18 215.877 301.447 214.149 301.66 212.4C301.895 210.651 302.012 208.869 302.012 207.056C302.012 205.541 301.959 204.123 301.852 202.8C301.746 201.477 301.415 200.261 300.86 199.152C300.754 198.939 300.658 198.736 300.572 198.544C300.508 198.352 300.476 198.171 300.476 198C300.476 197.595 300.711 197.2 301.18 196.816C301.65 196.432 302.151 196.24 302.684 196.24C303.452 196.24 303.975 196.709 304.252 197.648C304.53 198.587 304.668 199.973 304.668 201.808C304.668 203.365 304.594 204.795 304.444 206.096C304.316 207.376 304.167 208.475 303.996 209.392C304.594 208.133 305.404 207.077 306.428 206.224C307.474 205.349 308.647 204.912 309.948 204.912C311.25 204.912 312.263 205.349 312.988 206.224C313.735 207.077 314.108 208.24 314.108 209.712C314.108 210.8 313.938 211.867 313.596 212.912C313.255 213.936 312.775 214.864 312.156 215.696C311.538 216.528 310.791 217.189 309.916 217.68C309.063 218.171 308.103 218.416 307.036 218.416ZM307.772 214.96C308.988 214.96 309.927 214.576 310.588 213.808C311.25 213.04 311.58 212.155 311.58 211.152C311.58 210.277 311.335 209.605 310.844 209.136C310.375 208.645 309.746 208.4 308.956 208.4C308.167 208.4 307.463 208.645 306.844 209.136C306.226 209.605 305.703 210.235 305.276 211.024C304.85 211.792 304.519 212.624 304.284 213.52C304.775 213.989 305.319 214.352 305.916 214.608C306.535 214.843 307.154 214.96 307.772 214.96ZM347.196 218.416C345.575 218.416 344.306 217.957 343.388 217.04C342.492 216.101 342.044 214.8 342.044 213.136C342.044 211.621 342.375 210.245 343.036 209.008C343.698 207.771 344.583 206.789 345.692 206.064C346.823 205.317 348.06 204.944 349.404 204.944C350.684 204.944 351.708 205.264 352.476 205.904C353.244 206.523 353.628 207.355 353.628 208.4C353.628 209.232 353.372 210 352.86 210.704C352.348 211.408 351.666 211.973 350.812 212.4C349.959 212.805 349.01 213.008 347.964 213.008C346.684 213.008 345.639 212.72 344.828 212.144C344.85 213.125 345.18 213.915 345.82 214.512C346.482 215.109 347.324 215.408 348.348 215.408C348.967 215.408 349.596 215.301 350.236 215.088C350.898 214.853 351.463 214.544 351.932 214.16C352.231 213.904 352.508 213.776 352.764 213.776C352.978 213.776 353.148 213.851 353.276 214C353.426 214.128 353.5 214.299 353.5 214.512C353.5 214.981 353.095 215.6 352.284 216.368C350.855 217.733 349.159 218.416 347.196 218.416ZM347.676 210.896C348.444 210.896 349.084 210.736 349.596 210.416C350.108 210.096 350.364 209.691 350.364 209.2C350.364 208.795 350.194 208.485 349.852 208.272C349.511 208.037 349.042 207.92 348.444 207.92C347.655 207.92 346.962 208.133 346.364 208.56C345.788 208.965 345.372 209.541 345.116 210.288C345.415 210.48 345.799 210.629 346.268 210.736C346.738 210.843 347.207 210.896 347.676 210.896ZM386.577 218.416C384.956 218.416 383.687 217.957 382.769 217.04C381.873 216.101 381.425 214.8 381.425 213.136C381.425 211.621 381.756 210.245 382.417 209.008C383.079 207.771 383.964 206.789 385.073 206.064C386.204 205.317 387.441 204.944 388.785 204.944C390.065 204.944 391.089 205.264 391.857 205.904C392.625 206.523 393.009 207.355 393.009 208.4C393.009 209.232 392.753 210 392.241 210.704C391.729 211.408 391.047 211.973 390.193 212.4C389.34 212.805 388.391 213.008 387.345 213.008C386.065 213.008 385.02 212.72 384.209 212.144C384.231 213.125 384.561 213.915 385.201 214.512C385.863 215.109 386.705 215.408 387.729 215.408C388.348 215.408 388.977 215.301 389.617 215.088C390.279 214.853 390.844 214.544 391.313 214.16C391.612 213.904 391.889 213.776 392.145 213.776C392.359 213.776 392.529 213.851 392.657 214C392.807 214.128 392.881 214.299 392.881 214.512C392.881 214.981 392.476 215.6 391.665 216.368C390.236 217.733 388.54 218.416 386.577 218.416ZM387.057 210.896C387.825 210.896 388.465 210.736 388.977 210.416C389.489 210.096 389.745 209.691 389.745 209.2C389.745 208.795 389.575 208.485 389.233 208.272C388.892 208.037 388.423 207.92 387.825 207.92C387.036 207.92 386.343 208.133 385.745 208.56C385.169 208.965 384.753 209.541 384.497 210.288C384.796 210.48 385.18 210.629 385.649 210.736C386.119 210.843 386.588 210.896 387.057 210.896ZM423.178 218.32C422.559 218.32 422.1 218.149 421.802 217.808C421.503 217.467 421.354 216.869 421.354 216.016C421.354 215.611 421.386 215.088 421.45 214.448C421.514 213.808 421.588 213.115 421.674 212.368C421.802 211.451 421.908 210.491 421.994 209.488C422.1 208.485 422.154 207.525 422.154 206.608C422.154 205.307 422.09 203.963 421.962 202.576C421.855 201.168 421.535 199.941 421.002 198.896C420.81 198.469 420.714 198.16 420.714 197.968C420.714 197.691 420.831 197.424 421.066 197.168C421.322 196.912 421.631 196.699 421.994 196.528C422.356 196.336 422.708 196.24 423.05 196.24C423.604 196.24 424.02 196.496 424.298 197.008C424.575 197.499 424.756 198.181 424.842 199.056C424.927 199.909 424.97 200.891 424.97 202C424.97 203.685 424.895 205.147 424.746 206.384C424.618 207.621 424.49 208.709 424.362 209.648C424.276 210.267 424.191 210.853 424.106 211.408C424.042 211.963 424.01 212.464 424.01 212.912C424.01 213.659 424.127 214.203 424.362 214.544C424.618 214.864 425.023 215.184 425.578 215.504C425.727 215.589 425.834 215.675 425.898 215.76C425.983 215.824 426.026 215.931 426.026 216.08C426.026 216.251 425.94 216.517 425.77 216.88C425.599 217.243 425.3 217.573 424.874 217.872C424.468 218.171 423.903 218.32 423.178 218.32Z" fill="black"/>
</svg>
