<svg width="413" height="169" viewBox="0 0 413 169" fill="none" xmlns="http://www.w3.org/2000/svg">
<path d="M197.222 116.64C196.71 116.64 196.198 116.512 195.686 116.256C195.174 116.085 194.79 115.787 194.534 115.36L165.734 50.208H165.35L165.606 101.024C165.691 102.645 165.819 104.224 165.99 105.76C166.246 107.211 166.928 108.448 168.038 109.472C169.147 110.411 171.024 110.88 173.67 110.88C174.608 110.88 175.376 110.965 175.974 111.136C176.571 111.307 176.912 112.117 176.998 113.568C176.998 114.251 176.784 114.891 176.358 115.488C176.016 116.085 175.462 116.384 174.694 116.384C172.902 116.299 171.451 116.213 170.342 116.128C169.232 116.128 168.166 116.085 167.142 116C166.118 116 164.752 116 163.046 116C160.486 116 158.395 116 156.774 116C155.238 116.085 153.104 116.213 150.374 116.384C149.52 116.384 148.923 116.085 148.582 115.488C148.24 114.891 148.07 114.251 148.07 113.568C148.155 112.117 148.496 111.307 149.094 111.136C149.691 110.965 150.416 110.88 151.27 110.88C154 110.88 155.878 110.411 156.902 109.472C158.011 108.448 158.694 107.211 158.95 105.76C159.206 104.224 159.333 102.645 159.333 101.024L159.59 50.208C159.59 47.4773 159.291 45.472 158.694 44.192C158.096 42.8267 157.158 41.888 155.878 41.376C154.598 40.7787 152.976 40.3093 151.014 39.968C149.819 39.712 148.966 39.4987 148.454 39.328C148.027 39.1573 147.814 38.3893 147.814 37.024C147.814 35.5733 148.326 34.8053 149.35 34.72C150.374 34.5493 151.568 34.464 152.934 34.464C157.115 34.464 160.784 34.8053 163.942 35.488C167.184 36.1707 170 37.4933 172.39 39.456C174.779 41.3333 176.742 44.192 178.278 48.032L200.294 97.44H200.678L225.894 35.232H233.19C235.75 35.232 238.224 35.1893 240.614 35.104C243.088 35.0187 245.691 34.9333 248.422 34.848C249.275 34.848 249.872 35.1467 250.214 35.744C250.555 36.3413 250.726 36.9813 250.726 37.664C250.64 39.1147 250.299 39.9253 249.702 40.096C249.104 40.2667 248.379 40.352 247.526 40.352C244.88 40.352 242.96 40.864 241.766 41.888C240.656 42.8267 239.974 44.064 239.718 45.6C239.462 47.0507 239.291 48.5867 239.206 50.208V101.024C239.291 102.645 239.462 104.224 239.718 105.76C239.974 107.211 240.656 108.448 241.766 109.472C242.96 110.411 244.88 110.88 247.526 110.88C248.379 110.88 249.104 110.965 249.702 111.136C250.299 111.307 250.64 112.117 250.726 113.568C250.726 114.251 250.555 114.891 250.214 115.488C249.872 116.085 249.275 116.384 248.422 116.384C245.691 116.213 243.088 116.085 240.614 116C238.139 116 235.622 116 233.062 116C228.112 116 222.864 116.128 217.318 116.384C216.464 116.384 215.867 116.085 215.526 115.488C215.184 114.891 215.014 114.251 215.014 113.568C215.099 112.117 215.44 111.307 216.038 111.136C216.635 110.965 217.36 110.88 218.214 110.88C220.944 110.88 222.864 110.411 223.974 109.472C225.083 108.448 225.766 107.211 226.022 105.76C226.363 104.224 226.534 102.645 226.534 101.024V50.208H226.15L199.782 115.36C199.611 115.787 199.27 116.085 198.758 116.256C198.246 116.512 197.734 116.64 197.222 116.64ZM263.868 116.384C263.014 116.384 262.417 116.085 262.076 115.488C261.734 114.891 261.564 114.251 261.564 113.568C261.649 112.117 261.99 111.307 262.588 111.136C263.185 110.965 263.91 110.88 264.764 110.88C267.494 110.88 269.414 110.411 270.524 109.472C271.633 108.448 272.316 107.211 272.572 105.76C272.913 104.224 273.083 102.645 273.083 101.024V50.208C273.083 48.5867 272.913 47.0507 272.572 45.6C272.316 44.064 271.633 42.8267 270.524 41.888C269.414 40.864 267.494 40.352 264.764 40.352C263.91 40.352 263.185 40.2667 262.588 40.096C261.99 39.9253 261.649 39.1147 261.564 37.664C261.564 36.9813 261.734 36.3413 262.076 35.744C262.417 35.1467 263.014 34.848 263.868 34.848C266.598 34.9333 269.158 35.0187 271.548 35.104C273.937 35.1893 276.412 35.232 278.972 35.232H297.02C301.969 35.232 305.852 35.616 308.668 36.384C311.569 37.0667 314.086 38.0907 316.22 39.456C318.438 40.9067 320.188 42.912 321.468 45.472C322.748 47.9467 323.388 50.6773 323.388 53.664C323.388 57.504 322.492 60.7467 320.7 63.392C318.908 65.952 316.646 68 313.916 69.536C311.27 70.9867 308.668 72.0107 306.108 72.608V72.992C310.63 72.9067 314.641 73.7173 318.14 75.424C321.638 77.1307 324.412 79.392 326.46 82.208C328.508 85.024 329.574 88.096 329.66 91.424C329.83 96.288 328.806 100.299 326.588 103.456C324.369 106.613 321.468 109.131 317.884 111.008C314.385 112.885 310.545 114.208 306.364 114.976C302.268 115.744 298.3 116.128 294.46 116.128L279.1 116C276.54 116 274.022 116 271.548 116C269.158 116.085 266.598 116.213 263.868 116.384ZM285.756 70.432H291.132C292.838 70.432 294.758 70.3467 296.892 70.176C299.025 70.0053 301.073 69.4933 303.036 68.64C304.998 67.7013 306.577 66.208 307.772 64.16C309.052 62.0267 309.692 59.04 309.692 55.2C309.692 50.6773 308.582 47.008 306.364 44.192C304.23 41.376 300.348 39.968 294.716 39.968H285.756V70.432ZM294.972 111.008C298.812 110.923 302.31 110.283 305.468 109.088C308.625 107.893 311.142 105.888 313.02 103.072C314.897 100.256 315.836 96.3733 315.836 91.424C315.58 88.6933 314.641 86.1333 313.02 83.744C311.484 81.3547 308.924 79.392 305.34 77.856C301.841 76.32 297.062 75.552 291.004 75.552H285.756V101.024C285.756 105.291 286.396 108.021 287.676 109.216C288.956 110.411 291.388 111.008 294.972 111.008ZM342.118 116.384C341.35 116.384 340.795 116.085 340.454 115.488C340.112 114.891 339.942 114.251 339.942 113.568C340.027 112.117 340.368 111.307 340.966 111.136C341.563 110.965 342.288 110.88 343.142 110.88C345.872 110.88 347.792 110.411 348.902 109.472C350.011 108.448 350.694 107.211 350.95 105.76C351.291 104.224 351.462 102.645 351.462 101.024V50.208C351.462 48.5867 351.291 47.0507 350.95 45.6C350.694 44.064 350.011 42.8267 348.902 41.888C347.792 40.864 345.872 40.352 343.142 40.352C342.288 40.352 341.563 40.2667 340.966 40.096C340.368 39.9253 340.027 39.1147 339.942 37.664C339.942 36.9813 340.112 36.3413 340.454 35.744C340.795 35.1467 341.35 34.848 342.118 34.848C344.934 34.9333 347.536 35.0187 349.926 35.104C352.315 35.1893 354.79 35.232 357.35 35.232C362.555 35.232 367.888 35.104 373.35 34.848C374.203 34.848 374.8 35.1467 375.142 35.744C375.483 36.3413 375.654 36.9813 375.654 37.664C375.568 39.1147 375.227 39.9253 374.63 40.096C374.032 40.2667 373.307 40.352 372.454 40.352C369.808 40.352 367.888 40.864 366.694 41.888C365.584 42.8267 364.902 44.064 364.646 45.6C364.39 47.0507 364.219 48.5867 364.134 50.208V102.944C364.219 104.053 364.39 105.248 364.646 106.528C364.902 107.808 365.627 108.875 366.822 109.728C368.102 110.581 370.192 110.965 373.094 110.88H384.614C387.6 110.795 389.862 110.325 391.398 109.472C393.019 108.533 394.299 106.997 395.238 104.864C396.176 102.731 397.2 99.7867 398.31 96.032C398.651 95.1787 399.206 94.624 399.974 94.368C400.827 94.112 401.723 94.0693 402.662 94.24C403.344 94.3253 404.027 94.624 404.71 95.136C405.478 95.648 405.819 96.3307 405.734 97.184L403.174 113.312C402.918 114.507 402.491 115.275 401.894 115.616C401.382 115.872 400.571 116 399.462 116H357.478C354.918 116 352.4 116 349.926 116C347.536 116.085 344.934 116.213 342.118 116.384Z" fill="#81E4C4"/>
<path d="M46.949 74.91C46.8024 76.1567 46.399 77.3667 45.739 78.54C45.079 79.64 44.309 80.7033 43.429 81.73C42.549 82.6833 41.5957 83.5267 40.569 84.26C39.6157 84.9933 38.699 85.5433 37.819 85.91C35.2524 86.9367 32.5024 87.8533 29.569 88.66C26.709 89.3933 23.8857 90.0167 21.099 90.53C21.0257 90.53 20.769 90.5667 20.329 90.64C19.889 90.64 19.5957 90.53 19.449 90.31C19.449 90.1633 19.5957 89.9433 19.889 89.65C20.1824 89.3567 20.4024 89.21 20.549 89.21C21.5757 88.55 22.969 87.7433 24.729 86.79C26.5624 85.8367 28.139 85.14 29.459 84.7C29.899 84.6267 30.9257 84.2233 32.539 83.49C34.2257 82.6833 35.9857 81.7667 37.819 80.74C39.7257 79.64 41.4857 78.5033 43.099 77.33C44.7857 76.1567 45.849 75.0933 46.289 74.14C46.4357 74.0667 46.5457 73.9933 46.619 73.92C46.6924 73.8467 46.8024 73.81 46.949 73.81V74.91ZM46.509 70.84C45.3357 73.3333 43.7224 75.3133 41.669 76.78C39.6157 78.2467 37.3057 79.4933 34.739 80.52C32.2457 81.5467 29.6057 82.4633 26.819 83.27C24.1057 84.0767 21.5024 85.0667 19.009 86.24C15.929 87.7067 12.9957 89.7967 10.209 92.51C7.49569 95.15 5.62569 98.4133 4.59902 102.3C4.45235 102.373 4.30569 102.483 4.15902 102.63C4.08569 102.777 3.97569 102.923 3.82902 103.07C3.90235 100.43 4.37902 98.0467 5.25902 95.92C6.13902 93.72 7.23902 91.7767 8.55902 90.09C9.95235 88.4033 11.4924 86.9733 13.179 85.8C14.8657 84.5533 16.6257 83.5267 18.459 82.72C21.0257 81.62 23.629 80.6667 26.269 79.86C28.909 78.98 31.439 78.1 33.859 77.22C36.279 76.34 38.5524 75.35 40.679 74.25C42.8057 73.15 44.639 71.7933 46.179 70.18C46.399 70.18 46.509 70.18 46.509 70.18C46.6557 70.18 46.6924 70.2533 46.619 70.4C46.5457 70.5467 46.509 70.6933 46.509 70.84ZM48.599 112.53C48.599 112.677 48.5624 112.823 48.489 112.97C48.4157 113.043 48.3424 113.153 48.269 113.3L47.939 113.63C47.059 114.437 46.289 115.06 45.629 115.5C44.969 115.94 43.9057 116.27 42.439 116.49C41.8524 116.563 41.1924 116.6 40.459 116.6C39.7257 116.6 39.029 116.563 38.369 116.49C37.7824 116.343 37.269 116.197 36.829 116.05C36.389 115.83 36.2424 115.61 36.389 115.39C36.4624 115.243 36.829 115.133 37.489 115.06C38.2224 114.913 38.699 114.84 38.919 114.84C39.7257 114.693 40.459 114.583 41.119 114.51C41.8524 114.437 42.5124 114.327 43.099 114.18C44.0524 113.96 44.8957 113.74 45.629 113.52C46.3624 113.3 47.2057 112.97 48.159 112.53C48.4524 112.383 48.599 112.383 48.599 112.53ZM42.549 112.86C42.549 112.933 42.4024 112.97 42.109 112.97C41.8157 112.897 41.559 112.86 41.339 112.86C38.259 112.273 35.289 111.283 32.429 109.89C29.569 108.497 26.7457 106.92 23.959 105.16C23.739 105.013 23.2624 104.683 22.529 104.17C21.7957 103.583 20.8424 103.033 19.669 102.52C18.4957 101.933 17.1024 101.457 15.489 101.09C13.949 100.65 12.2624 100.467 10.429 100.54L11.199 99.77C13.7657 97.2033 16.809 95.26 20.329 93.94C23.9224 92.5467 27.5524 91.2267 31.219 89.98C33.4924 89.1733 35.7657 88.2933 38.039 87.34C40.3857 86.3867 42.5857 85.03 44.639 83.27C44.7857 82.9767 44.9324 82.9033 45.079 83.05C45.2257 83.1967 45.2624 83.3433 45.189 83.49C45.1157 83.5633 45.0057 83.71 44.859 83.93C44.419 85.47 43.3557 86.9 41.669 88.22C40.0557 89.54 38.2224 90.7133 36.169 91.74C34.189 92.7667 32.1724 93.6833 30.119 94.49C28.0657 95.2967 26.4157 95.9567 25.169 96.47C24.1424 96.91 23.0057 97.35 21.759 97.79C20.5857 98.23 19.3757 98.6333 18.129 99C19.3757 99.2933 20.6224 99.6967 21.869 100.21C23.189 100.723 24.4357 101.31 25.609 101.97C26.8557 102.557 27.9924 103.143 29.019 103.73C30.0457 104.317 30.9257 104.793 31.659 105.16C33.419 106.113 35.179 107.25 36.939 108.57C38.7724 109.817 40.4224 110.953 41.889 111.98C42.4024 112.273 42.6224 112.567 42.549 112.86ZM12.959 94.05C13.1057 94.05 13.1057 94.1967 12.959 94.49C12.8857 94.71 12.739 94.9667 12.519 95.26C12.3724 95.48 12.189 95.7367 11.969 96.03C11.749 96.25 11.639 96.3967 11.639 96.47C11.1257 97.2033 10.6124 97.8633 10.099 98.45C9.58569 99.0367 9.14569 99.6233 8.77902 100.21L8.33902 100.98L5.80902 101.86C5.88235 101.42 5.99235 100.907 6.13902 100.32C6.35902 99.7333 6.72569 99.0733 7.23902 98.34C7.60569 97.8267 8.08235 97.2767 8.66902 96.69C9.32902 96.03 9.95235 95.48 10.539 95.04C11.1257 94.5267 11.639 94.16 12.079 93.94C12.5924 93.72 12.8857 93.7567 12.959 94.05ZM47.389 116.16C45.409 117.993 43.429 119.313 41.449 120.12C39.469 120.927 37.5624 121.403 35.729 121.55C33.8957 121.623 32.099 121.44 30.339 121C28.6524 120.487 27.039 119.827 25.499 119.02C23.3724 117.92 21.319 116.71 19.339 115.39C17.4324 114.07 15.5257 112.823 13.619 111.65C11.7124 110.477 9.80569 109.487 7.89902 108.68C6.06569 107.873 4.15902 107.47 2.17902 107.47C1.59235 107.47 1.44569 107.36 1.73902 107.14C2.03235 106.92 2.21569 106.81 2.28902 106.81C4.63569 105.93 6.87235 105.747 8.99902 106.26C11.199 106.773 13.3257 107.617 15.379 108.79C17.5057 109.89 19.559 111.173 21.539 112.64C23.5924 114.033 25.6824 115.28 27.809 116.38C29.129 117.04 30.559 117.627 32.099 118.14C33.639 118.58 35.2524 118.837 36.939 118.91C38.6257 118.91 40.3124 118.69 41.999 118.25C43.6857 117.81 45.3724 117.003 47.059 115.83C47.499 115.537 47.6824 115.5 47.609 115.72C47.5357 115.94 47.4624 116.087 47.389 116.16ZM30.449 113.19C30.3024 113.41 30.0457 113.52 29.679 113.52C29.3124 113.447 29.0924 113.337 29.019 113.19C27.919 113.043 26.5624 112.603 24.949 111.87C23.3357 111.137 22.0524 110.403 21.099 109.67C20.8057 109.45 19.9624 109.01 18.569 108.35C17.1757 107.69 15.599 107.067 13.839 106.48C12.1524 105.82 10.429 105.307 8.66902 104.94C6.98235 104.5 5.69902 104.427 4.81902 104.72C4.52569 104.867 4.37902 104.83 4.37902 104.61C4.52569 104.463 4.63569 104.353 4.70902 104.28C4.78235 104.207 4.89235 104.097 5.03902 103.95C5.99235 103.217 7.01902 102.703 8.11902 102.41C9.29235 102.043 10.4657 101.86 11.639 101.86C12.8124 101.787 13.9124 101.86 14.939 102.08C16.039 102.3 16.9557 102.63 17.689 103.07C19.7424 104.243 21.7957 105.6 23.849 107.14C25.9757 108.68 27.8824 110.293 29.569 111.98C29.7157 112.053 29.9357 112.237 30.229 112.53C30.5224 112.823 30.5957 113.043 30.449 113.19ZM61.8076 70.62C63.3476 75.0933 64.7776 79.8967 66.0976 85.03C67.4909 90.1633 68.5909 95.0033 69.3976 99.55C69.5443 99.8433 69.6543 100.357 69.7276 101.09C69.8743 101.75 69.8743 102.153 69.7276 102.3C69.4343 102.3 69.1043 102.007 68.7376 101.42C68.4443 100.833 68.2609 100.393 68.1876 100.1C67.6743 99.1467 67.1243 97.9733 66.5376 96.58C65.9509 95.1133 65.3643 93.61 64.7776 92.07C64.2643 90.53 63.7509 89.0267 63.2376 87.56C62.7243 86.02 62.3209 84.7 62.0276 83.6C61.8809 83.0867 61.5143 82.06 60.9276 80.52C60.3409 78.98 59.6443 77.1833 58.8376 75.13C58.0309 73.0767 57.1143 70.8767 56.0876 68.53C55.0609 66.11 54.0343 63.8367 53.0076 61.71C51.9809 59.51 50.9543 57.5667 49.9276 55.88C48.9743 54.12 48.1309 52.8733 47.3976 52.14C47.2509 51.9933 47.1409 51.8833 47.0676 51.81C46.9943 51.6633 46.9209 51.5167 46.8476 51.37C46.7743 51.2233 46.7376 51.1133 46.7376 51.04C46.8843 50.9667 47.0309 51.0033 47.1776 51.15C47.3976 51.2233 47.5809 51.26 47.7276 51.26C49.1943 51.9933 50.6243 53.13 52.0176 54.67C53.4843 56.1367 54.8409 57.7867 56.0876 59.62C57.4076 61.38 58.5443 63.25 59.4976 65.23C60.4509 67.21 61.2209 69.0067 61.8076 70.62ZM75.4476 95.48C76.7676 99.44 78.0876 103.51 79.4076 107.69C80.8009 111.87 82.0843 115.5 83.2576 118.58C83.3309 119.167 83.4043 119.643 83.4776 120.01C83.5509 120.303 83.5143 120.45 83.3676 120.45C83.2943 120.597 83.1109 120.487 82.8176 120.12C82.5976 119.753 82.3776 119.387 82.1576 119.02C80.3976 116.38 78.8209 113.63 77.4276 110.77C76.1076 107.91 74.8609 104.977 73.6876 101.97C72.5876 98.9633 71.5243 95.8467 70.4976 92.62C69.5443 89.3933 68.5543 86.13 67.5276 82.83C66.2809 78.87 64.9243 74.8367 63.4576 70.73C61.9909 66.6233 60.0476 62.48 57.6276 58.3C57.4076 58.08 57.2976 57.97 57.2976 57.97C57.2976 57.8967 57.3709 57.8233 57.5176 57.75C57.5909 57.6033 57.6643 57.6033 57.7376 57.75C57.8109 57.8967 57.9576 58.0433 58.1776 58.19C60.0109 59.5833 61.8076 61.93 63.5676 65.23C65.3276 68.4567 66.9776 71.9767 68.5176 75.79C70.0576 79.6033 71.4143 83.3433 72.5876 87.01C73.8343 90.6033 74.7876 93.4267 75.4476 95.48ZM87.6576 130.46C87.951 130.607 88.1709 130.79 88.3176 131.01C88.4643 131.157 88.4643 131.23 88.3176 131.23C88.2443 131.45 88.0609 131.45 87.7676 131.23C84.5409 130.423 81.5343 129.03 78.7476 127.05C76.0343 125.07 73.5776 122.723 71.3776 120.01C69.1776 117.223 67.1976 114.18 65.4376 110.88C63.7509 107.58 62.3209 104.207 61.1476 100.76C59.6076 96.14 58.1409 91.5567 56.7476 87.01C55.4276 82.39 54.0343 77.9167 52.5676 73.59C51.1743 69.19 49.6709 65.0467 48.0576 61.16C46.5176 57.2733 44.7209 53.7533 42.6676 50.6C42.6676 50.2333 42.6676 50.05 42.6676 50.05C42.6676 49.9033 42.6676 49.8667 42.6676 49.94C42.7409 50.0133 42.8509 50.0867 42.9976 50.16C43.1443 50.3067 43.2909 50.4167 43.4376 50.49C46.3709 53.35 48.8276 56.76 50.8076 60.72C52.8609 64.6067 54.6576 68.8233 56.1976 73.37C57.7376 77.8433 59.1676 82.5 60.4876 87.34C61.8809 92.1067 63.3843 96.7633 64.9976 101.31C66.0243 104.243 67.3076 107.177 68.8476 110.11C70.4609 113.043 72.2209 115.793 74.1276 118.36C76.1076 120.927 78.2343 123.273 80.5076 125.4C82.7809 127.527 85.1643 129.213 87.6576 130.46ZM83.3676 123.09C84.5409 124.117 85.6776 125.07 86.7776 125.95C87.8776 126.757 89.0509 127.527 90.2976 128.26C90.4443 128.407 90.5909 128.59 90.7376 128.81C90.9576 129.03 91.0309 129.14 90.9576 129.14C90.8109 129.287 90.6276 129.36 90.4076 129.36C90.2609 129.36 90.1143 129.36 89.9676 129.36C89.7476 129.36 89.6009 129.323 89.5276 129.25C88.7943 129.03 88.1343 128.847 87.5476 128.7C86.9609 128.553 86.3743 128.333 85.7876 128.04C85.2009 127.673 84.5776 127.27 83.9176 126.83C83.2576 126.317 82.4876 125.62 81.6076 124.74C80.9476 124.08 80.1776 123.163 79.2976 121.99C78.4909 120.817 77.7209 119.68 76.9876 118.58C76.2543 117.407 75.6676 116.417 75.2276 115.61C74.8609 114.73 74.7876 114.217 75.0076 114.07C75.0809 113.997 75.2643 114.107 75.5576 114.4C75.9243 114.62 76.2909 114.95 76.6576 115.39C77.0243 115.757 77.3543 116.16 77.6476 116.6C78.0143 116.967 78.2709 117.223 78.4176 117.37C79.2243 118.543 80.0309 119.57 80.8376 120.45C81.6443 121.33 82.4876 122.21 83.3676 123.09ZM131.27 97.24C131.197 97.3867 131.013 97.4233 130.72 97.35C130.427 97.2767 130.17 97.1667 129.95 97.02C126.503 95.7733 123.313 94.0133 120.38 91.74C117.447 89.4667 114.55 87.01 111.69 84.37C110.003 82.7567 108.17 81.18 106.19 79.64C104.283 78.1 102.047 76.8167 99.48 75.79C99.3334 75.79 99.26 75.7533 99.26 75.68C99.3334 75.46 99.5167 75.3133 99.81 75.24C101.423 74.9467 103.22 75.24 105.2 76.12C107.18 76.9267 109.087 77.9533 110.92 79.2C112.827 80.4467 114.623 81.7667 116.31 83.16C117.997 84.5533 119.39 85.6533 120.49 86.46C122.323 87.9267 124.157 89.5767 125.99 91.41C127.897 93.17 129.473 94.7467 130.72 96.14C130.867 96.36 131.013 96.58 131.16 96.8C131.38 96.9467 131.417 97.0933 131.27 97.24ZM135.67 101.97C135.377 103.217 134.827 104.39 134.02 105.49C133.287 106.59 132.443 107.617 131.49 108.57C130.537 109.45 129.51 110.22 128.41 110.88C127.31 111.467 126.283 111.87 125.33 112.09C122.763 113.043 119.94 113.813 116.86 114.4C113.78 114.913 110.92 115.17 108.28 115.17C107.913 115.243 107.547 115.28 107.18 115.28C106.887 115.28 106.703 115.243 106.63 115.17C106.483 114.877 106.557 114.62 106.85 114.4C107.217 114.18 107.473 114.07 107.62 114.07C108.133 113.777 108.793 113.447 109.6 113.08C110.407 112.713 111.25 112.347 112.13 111.98C113.01 111.613 113.89 111.283 114.77 110.99C115.65 110.697 116.383 110.477 116.97 110.33C117.483 110.183 118.583 109.817 120.27 109.23C122.03 108.57 123.9 107.837 125.88 107.03C127.933 106.223 129.84 105.343 131.6 104.39C133.36 103.363 134.533 102.373 135.12 101.42C135.34 101.053 135.523 100.907 135.67 100.98C135.817 101.053 135.817 101.383 135.67 101.97ZM117.74 94.38C117.593 94.5267 117.337 94.5633 116.97 94.49C116.677 94.3433 116.493 94.1967 116.42 94.05C115.247 93.4633 113.817 92.62 112.13 91.52C110.443 90.42 109.16 89.3933 108.28 88.44C107.913 88.1467 106.96 87.4867 105.42 86.46C103.953 85.36 102.303 84.26 100.47 83.16C98.6367 81.9867 96.8034 80.96 94.97 80.08C93.21 79.1267 91.8534 78.65 90.9 78.65C90.7534 78.7967 90.57 78.8333 90.35 78.76C90.2034 78.6133 90.13 78.4667 90.13 78.32L91.12 77.88C92.22 77.3667 93.43 77.11 94.75 77.11C96.07 77.11 97.3534 77.2933 98.6 77.66C99.92 77.9533 101.13 78.3933 102.23 78.98C103.403 79.4933 104.357 80.08 105.09 80.74C107.07 82.4267 109.123 84.37 111.25 86.57C113.45 88.6967 115.43 90.8233 117.19 92.95C117.337 93.0967 117.483 93.3533 117.63 93.72C117.85 94.0133 117.887 94.2333 117.74 94.38ZM135.56 97.9C134.167 100.32 132.333 102.19 130.06 103.51C127.86 104.757 125.44 105.783 122.8 106.59C120.16 107.323 117.41 107.983 114.55 108.57C111.69 109.157 108.94 109.89 106.3 110.77C104.687 111.283 103.073 112.017 101.46 112.97C99.8467 113.85 98.3067 114.95 96.84 116.27C95.3734 117.517 94.0534 118.947 92.88 120.56C91.7067 122.173 90.79 123.97 90.13 125.95C89.9834 126.39 89.91 126.61 89.91 126.61C89.7634 126.61 89.69 126.537 89.69 126.39C89.69 126.243 89.69 126.097 89.69 125.95C90.0567 123.237 90.7534 120.853 91.78 118.8C92.8067 116.747 94.0534 114.987 95.52 113.52C96.9867 111.98 98.6367 110.697 100.47 109.67C102.377 108.643 104.32 107.8 106.3 107.14C108.573 106.333 110.883 105.71 113.23 105.27C115.577 104.757 117.887 104.207 120.16 103.62C118.547 103.18 117.08 102.557 115.76 101.75C114.44 100.943 113.083 100.027 111.69 99C109.49 97.3133 107.363 95.5533 105.31 93.72C103.33 91.8867 101.35 90.1267 99.37 88.44C97.4634 86.7533 95.52 85.25 93.54 83.93C91.6334 82.5367 89.6167 81.4733 87.49 80.74H87.27C87.1234 80.74 87.0867 80.7033 87.16 80.63C87.0867 80.4833 87.16 80.41 87.38 80.41C87.6 80.3367 87.7834 80.3 87.93 80.3C90.57 80.08 93.0267 80.52 95.3 81.62C97.5734 82.6467 99.7367 84.0033 101.79 85.69C103.917 87.3767 106.007 89.21 108.06 91.19C110.113 93.17 112.24 95.0033 114.44 96.69C115.54 97.4967 116.677 98.3033 117.85 99.11C119.097 99.8433 120.343 100.467 121.59 100.98C122.837 101.42 124.12 101.677 125.44 101.75C126.833 101.823 128.19 101.567 129.51 100.98C128.85 100.907 128.153 100.76 127.42 100.54C126.76 100.32 126.137 100.1 125.55 99.88C124.963 99.5867 124.487 99.2933 124.12 99C123.827 98.7067 123.753 98.45 123.9 98.23C124.047 98.01 124.56 97.9733 125.44 98.12C126.393 98.1933 127.053 98.23 127.42 98.23C128.74 98.45 130.023 98.5967 131.27 98.67C132.59 98.67 133.763 98.3767 134.79 97.79C134.937 97.6433 135.193 97.4967 135.56 97.35C135.927 97.2033 135.927 97.3867 135.56 97.9ZM132.92 110.11C132.92 110.183 132.883 110.257 132.81 110.33C132.81 110.403 132.81 110.477 132.81 110.55C132.737 110.697 132.7 110.807 132.7 110.88C132.04 112.493 130.793 113.887 128.96 115.06C127.127 116.16 125.11 117.113 122.91 117.92C120.783 118.727 118.657 119.423 116.53 120.01C114.477 120.523 112.827 121 111.58 121.44C109.307 122.247 106.887 122.907 104.32 123.42C101.753 123.86 99.5167 124.3 97.61 124.74C96.8767 124.74 96.4 124.703 96.18 124.63C96.18 124.41 96.29 124.227 96.51 124.08C96.8034 123.86 97.06 123.677 97.28 123.53C100.36 121.403 103.66 119.827 107.18 118.8C110.773 117.7 114.44 116.673 118.18 115.72C120.527 115.133 122.91 114.473 125.33 113.74C127.75 112.933 130.133 111.723 132.48 110.11C132.773 110.037 132.92 110.037 132.92 110.11ZM99.7 117.81C99.7734 117.957 99.7367 118.177 99.59 118.47C99.4434 118.763 99.26 119.057 99.04 119.35C98.82 119.57 98.6 119.79 98.38 120.01C98.16 120.23 98.05 120.377 98.05 120.45C97.3167 121.037 96.6934 121.623 96.18 122.21C95.6667 122.723 95.1534 123.273 94.64 123.86C94.1267 124.667 93.65 125.473 93.21 126.28C92.77 127.013 92.2934 127.673 91.78 128.26C91.78 128.407 91.7067 128.517 91.56 128.59C91.4134 128.663 91.4134 128.627 91.56 128.48C91.4134 128.333 91.34 128.077 91.34 127.71V127.38C91.34 126.573 91.45 125.767 91.67 124.96C91.89 124.08 92.5134 123.017 93.54 121.77C93.9067 121.33 94.42 120.853 95.08 120.34C95.74 119.753 96.4 119.24 97.06 118.8C97.72 118.36 98.27 118.03 98.71 117.81C99.2234 117.59 99.5534 117.59 99.7 117.81Z" fill="#81E4C4"/>
<path d="M149.133 154.352C148.365 154.352 148.024 154.096 148.109 153.584C148.344 152.667 148.536 151.739 148.685 150.8C148.856 149.84 148.941 148.923 148.941 148.048C148.941 146.917 148.866 146.096 148.717 145.584C148.589 145.051 148.408 144.688 148.173 144.496C147.938 144.283 147.65 144.123 147.309 144.016C147.16 143.952 147.021 143.867 146.893 143.76C146.786 143.653 146.733 143.504 146.733 143.312C146.733 143.013 146.85 142.683 147.085 142.32C147.32 141.957 147.65 141.648 148.077 141.392C148.525 141.115 149.026 140.976 149.581 140.976C150.306 140.976 150.808 141.232 151.085 141.744C151.362 142.235 151.501 142.885 151.501 143.696C151.501 144.229 151.448 144.827 151.341 145.488C151.234 146.149 151.128 146.747 151.021 147.28L151.085 147.312C151.426 146.181 151.842 145.136 152.333 144.176C152.845 143.216 153.453 142.437 154.157 141.84C154.882 141.243 155.714 140.944 156.653 140.944C157.613 140.944 158.37 141.275 158.925 141.936C159.48 142.576 159.757 143.525 159.757 144.784V145.488C160.376 144.187 161.122 143.099 161.997 142.224C162.893 141.349 163.97 140.912 165.229 140.912C166.253 140.912 167.053 141.253 167.629 141.936C168.205 142.619 168.493 143.472 168.493 144.496C168.493 144.901 168.45 145.296 168.365 145.68C168.28 146.043 168.184 146.405 168.077 146.768C167.992 147.109 167.906 147.461 167.821 147.824C167.736 148.187 167.693 148.549 167.693 148.912C167.693 150.192 168.237 151.024 169.325 151.408C169.474 151.472 169.592 151.547 169.677 151.632C169.762 151.696 169.805 151.824 169.805 152.016C169.805 152.208 169.741 152.485 169.613 152.848C169.506 153.211 169.282 153.552 168.941 153.872C168.6 154.171 168.109 154.32 167.469 154.32C166.637 154.32 165.997 154.021 165.549 153.424C165.101 152.805 164.877 152.027 164.877 151.088C164.877 150.619 164.92 150.128 165.005 149.616C165.09 149.104 165.197 148.613 165.325 148.144C165.432 147.717 165.517 147.312 165.581 146.928C165.666 146.544 165.709 146.213 165.709 145.936C165.709 145.424 165.581 145.051 165.325 144.816C165.09 144.581 164.77 144.464 164.365 144.464C163.682 144.464 163.064 144.677 162.509 145.104C161.976 145.531 161.496 146.085 161.069 146.768C160.664 147.451 160.312 148.197 160.013 149.008C160.034 149.2 160.045 149.456 160.045 149.776C160.066 150.075 160.077 150.341 160.077 150.576C160.077 150.981 160.045 151.408 159.981 151.856C159.938 152.304 159.842 152.677 159.693 152.976C159.522 153.381 159.266 153.712 158.925 153.968C158.605 154.224 158.168 154.352 157.613 154.352C157.378 154.352 157.154 154.299 156.941 154.192C156.728 154.107 156.621 153.957 156.621 153.744C156.621 153.659 156.685 153.285 156.813 152.624C156.941 151.941 157.069 151.109 157.197 150.128C157.325 149.147 157.389 148.187 157.389 147.248C157.389 146.224 157.282 145.52 157.069 145.136C156.856 144.731 156.536 144.528 156.109 144.528C155.576 144.528 155.064 144.752 154.573 145.2C154.104 145.648 153.666 146.224 153.261 146.928C152.877 147.632 152.536 148.368 152.237 149.136C151.96 149.904 151.736 150.619 151.565 151.28V151.632C151.565 152.421 151.341 153.072 150.893 153.584C150.466 154.096 149.88 154.352 149.133 154.352ZM201.441 154.416C200.374 154.416 199.542 154.107 198.945 153.488C198.369 152.869 198.081 151.973 198.081 150.8C198.081 149.968 198.198 149.115 198.433 148.24C198.54 147.877 198.625 147.515 198.689 147.152C198.753 146.789 198.785 146.427 198.785 146.064C198.785 145.125 198.497 144.517 197.921 144.24C197.366 143.941 197.089 143.621 197.089 143.28C197.089 142.939 197.228 142.597 197.505 142.256C197.804 141.915 198.166 141.637 198.593 141.424C199.02 141.189 199.446 141.072 199.873 141.072C201.089 141.072 201.697 142.064 201.697 144.048C201.697 144.688 201.644 145.285 201.537 145.84C201.452 146.373 201.345 146.885 201.217 147.376C201.132 147.717 201.057 148.059 200.993 148.4C200.95 148.741 200.929 149.04 200.929 149.296C200.929 150.363 201.452 150.896 202.497 150.896C203.478 150.896 204.396 150.373 205.249 149.328C206.102 148.283 206.806 146.821 207.361 144.944L207.329 144.336C207.286 143.269 207.468 142.459 207.873 141.904C208.3 141.349 208.918 141.072 209.729 141.072C210.433 141.072 210.785 141.296 210.785 141.744C210.785 141.893 210.753 142.085 210.689 142.32C210.646 142.555 210.572 142.832 210.465 143.152C210.252 143.941 210.07 144.784 209.921 145.68C209.772 146.555 209.697 147.365 209.697 148.112C209.697 148.944 209.825 149.637 210.081 150.192C210.337 150.725 210.817 151.088 211.521 151.28C211.713 151.301 211.862 151.365 211.969 151.472C212.097 151.557 212.161 151.749 212.161 152.048C212.161 152.56 211.948 153.061 211.521 153.552C211.094 154.043 210.476 154.288 209.665 154.288C208.108 154.288 207.329 153.189 207.329 150.992C207.329 150.608 207.361 150.032 207.425 149.264L207.361 149.232C206.017 152.688 204.044 154.416 201.441 154.416ZM246.036 154.416C245.247 154.416 244.564 154.277 243.988 154C243.434 153.723 242.943 153.371 242.516 152.944C242.303 153.307 242.047 153.637 241.748 153.936C241.471 154.213 241.151 154.352 240.788 154.352C240.554 154.352 240.33 154.277 240.116 154.128C239.903 154 239.818 153.819 239.86 153.584C240.18 151.877 240.447 150.149 240.66 148.4C240.895 146.651 241.012 144.869 241.012 143.056C241.012 141.541 240.959 140.123 240.852 138.8C240.746 137.477 240.415 136.261 239.86 135.152C239.754 134.939 239.658 134.736 239.572 134.544C239.508 134.352 239.476 134.171 239.476 134C239.476 133.595 239.711 133.2 240.18 132.816C240.65 132.432 241.151 132.24 241.684 132.24C242.452 132.24 242.975 132.709 243.252 133.648C243.53 134.587 243.668 135.973 243.668 137.808C243.668 139.365 243.594 140.795 243.444 142.096C243.316 143.376 243.167 144.475 242.996 145.392C243.594 144.133 244.404 143.077 245.428 142.224C246.474 141.349 247.647 140.912 248.948 140.912C250.25 140.912 251.263 141.349 251.988 142.224C252.735 143.077 253.108 144.24 253.108 145.712C253.108 146.8 252.938 147.867 252.596 148.912C252.255 149.936 251.775 150.864 251.156 151.696C250.538 152.528 249.791 153.189 248.916 153.68C248.063 154.171 247.103 154.416 246.036 154.416ZM246.772 150.96C247.988 150.96 248.927 150.576 249.588 149.808C250.25 149.04 250.58 148.155 250.58 147.152C250.58 146.277 250.335 145.605 249.844 145.136C249.375 144.645 248.746 144.4 247.956 144.4C247.167 144.4 246.463 144.645 245.844 145.136C245.226 145.605 244.703 146.235 244.276 147.024C243.85 147.792 243.519 148.624 243.284 149.52C243.775 149.989 244.319 150.352 244.916 150.608C245.535 150.843 246.154 150.96 246.772 150.96ZM286.196 154.416C284.575 154.416 283.306 153.957 282.388 153.04C281.492 152.101 281.044 150.8 281.044 149.136C281.044 147.621 281.375 146.245 282.036 145.008C282.698 143.771 283.583 142.789 284.692 142.064C285.823 141.317 287.06 140.944 288.404 140.944C289.684 140.944 290.708 141.264 291.476 141.904C292.244 142.523 292.628 143.355 292.628 144.4C292.628 145.232 292.372 146 291.86 146.704C291.348 147.408 290.666 147.973 289.812 148.4C288.959 148.805 288.01 149.008 286.964 149.008C285.684 149.008 284.639 148.72 283.828 148.144C283.85 149.125 284.18 149.915 284.82 150.512C285.482 151.109 286.324 151.408 287.348 151.408C287.967 151.408 288.596 151.301 289.236 151.088C289.898 150.853 290.463 150.544 290.932 150.16C291.231 149.904 291.508 149.776 291.764 149.776C291.978 149.776 292.148 149.851 292.276 150C292.426 150.128 292.5 150.299 292.5 150.512C292.5 150.981 292.095 151.6 291.284 152.368C289.855 153.733 288.159 154.416 286.196 154.416ZM286.676 146.896C287.444 146.896 288.084 146.736 288.596 146.416C289.108 146.096 289.364 145.691 289.364 145.2C289.364 144.795 289.194 144.485 288.852 144.272C288.511 144.037 288.042 143.92 287.444 143.92C286.655 143.92 285.962 144.133 285.364 144.56C284.788 144.965 284.372 145.541 284.116 146.288C284.415 146.48 284.799 146.629 285.268 146.736C285.738 146.843 286.207 146.896 286.676 146.896ZM325.577 154.416C323.956 154.416 322.687 153.957 321.769 153.04C320.873 152.101 320.425 150.8 320.425 149.136C320.425 147.621 320.756 146.245 321.417 145.008C322.079 143.771 322.964 142.789 324.073 142.064C325.204 141.317 326.441 140.944 327.785 140.944C329.065 140.944 330.089 141.264 330.857 141.904C331.625 142.523 332.009 143.355 332.009 144.4C332.009 145.232 331.753 146 331.241 146.704C330.729 147.408 330.047 147.973 329.193 148.4C328.34 148.805 327.391 149.008 326.345 149.008C325.065 149.008 324.02 148.72 323.209 148.144C323.231 149.125 323.561 149.915 324.201 150.512C324.863 151.109 325.705 151.408 326.729 151.408C327.348 151.408 327.977 151.301 328.617 151.088C329.279 150.853 329.844 150.544 330.313 150.16C330.612 149.904 330.889 149.776 331.145 149.776C331.359 149.776 331.529 149.851 331.657 150C331.807 150.128 331.881 150.299 331.881 150.512C331.881 150.981 331.476 151.6 330.665 152.368C329.236 153.733 327.54 154.416 325.577 154.416ZM326.057 146.896C326.825 146.896 327.465 146.736 327.977 146.416C328.489 146.096 328.745 145.691 328.745 145.2C328.745 144.795 328.575 144.485 328.233 144.272C327.892 144.037 327.423 143.92 326.825 143.92C326.036 143.92 325.343 144.133 324.745 144.56C324.169 144.965 323.753 145.541 323.497 146.288C323.796 146.48 324.18 146.629 324.649 146.736C325.119 146.843 325.588 146.896 326.057 146.896ZM362.178 154.32C361.559 154.32 361.1 154.149 360.802 153.808C360.503 153.467 360.354 152.869 360.354 152.016C360.354 151.611 360.386 151.088 360.45 150.448C360.514 149.808 360.588 149.115 360.674 148.368C360.802 147.451 360.908 146.491 360.994 145.488C361.1 144.485 361.154 143.525 361.154 142.608C361.154 141.307 361.09 139.963 360.962 138.576C360.855 137.168 360.535 135.941 360.002 134.896C359.81 134.469 359.714 134.16 359.714 133.968C359.714 133.691 359.831 133.424 360.066 133.168C360.322 132.912 360.631 132.699 360.994 132.528C361.356 132.336 361.708 132.24 362.05 132.24C362.604 132.24 363.02 132.496 363.298 133.008C363.575 133.499 363.756 134.181 363.842 135.056C363.927 135.909 363.97 136.891 363.97 138C363.97 139.685 363.895 141.147 363.746 142.384C363.618 143.621 363.49 144.709 363.362 145.648C363.276 146.267 363.191 146.853 363.106 147.408C363.042 147.963 363.01 148.464 363.01 148.912C363.01 149.659 363.127 150.203 363.362 150.544C363.618 150.864 364.023 151.184 364.578 151.504C364.727 151.589 364.834 151.675 364.898 151.76C364.983 151.824 365.026 151.931 365.026 152.08C365.026 152.251 364.94 152.517 364.77 152.88C364.599 153.243 364.3 153.573 363.874 153.872C363.468 154.171 362.903 154.32 362.178 154.32Z" fill="#81E4C4"/>
</svg>
