<svg width="493" height="137" viewBox="0 0 493 137" fill="none" xmlns="http://www.w3.org/2000/svg">
<path d="M159.299 89.056C156.995 89.056 155.971 88.288 156.227 86.752C156.931 84 157.507 81.216 157.955 78.4C158.467 75.52 158.723 72.768 158.723 70.144C158.723 66.752 158.499 64.288 158.051 62.752C157.667 61.152 157.123 60.064 156.419 59.488C155.715 58.848 154.851 58.368 153.827 58.048C153.379 57.856 152.963 57.6 152.579 57.28C152.259 56.96 152.099 56.512 152.099 55.936C152.099 55.04 152.451 54.048 153.155 52.96C153.859 51.872 154.851 50.944 156.131 50.176C157.475 49.344 158.979 48.928 160.643 48.928C162.819 48.928 164.323 49.696 165.155 51.232C165.987 52.704 166.403 54.656 166.403 57.088C166.403 58.688 166.243 60.48 165.923 62.464C165.603 64.448 165.283 66.24 164.963 67.84L165.155 67.936C166.179 64.544 167.427 61.408 168.899 58.528C170.435 55.648 172.259 53.312 174.371 51.52C176.547 49.728 179.043 48.832 181.859 48.832C184.739 48.832 187.011 49.824 188.675 51.808C190.339 53.728 191.171 56.576 191.171 60.352V62.464C193.027 58.56 195.267 55.296 197.891 52.672C200.579 50.048 203.811 48.736 207.587 48.736C210.659 48.736 213.059 49.76 214.787 51.808C216.515 53.856 217.379 56.416 217.379 59.488C217.379 60.704 217.251 61.888 216.995 63.04C216.739 64.128 216.451 65.216 216.131 66.304C215.875 67.328 215.619 68.384 215.363 69.472C215.107 70.56 214.979 71.648 214.979 72.736C214.979 76.576 216.611 79.072 219.875 80.224C220.323 80.416 220.675 80.64 220.931 80.896C221.187 81.088 221.315 81.472 221.315 82.048C221.315 82.624 221.123 83.456 220.739 84.544C220.419 85.632 219.747 86.656 218.723 87.616C217.699 88.512 216.227 88.96 214.307 88.96C211.811 88.96 209.891 88.064 208.547 86.272C207.203 84.416 206.531 82.08 206.531 79.264C206.531 77.856 206.659 76.384 206.915 74.848C207.171 73.312 207.491 71.84 207.875 70.432C208.195 69.152 208.451 67.936 208.643 66.784C208.899 65.632 209.027 64.64 209.027 63.808C209.027 62.272 208.643 61.152 207.875 60.448C207.171 59.744 206.211 59.392 204.995 59.392C202.947 59.392 201.091 60.032 199.427 61.312C197.827 62.592 196.387 64.256 195.107 66.304C193.891 68.352 192.835 70.592 191.939 73.024C192.003 73.6 192.035 74.368 192.035 75.328C192.099 76.224 192.131 77.024 192.131 77.728C192.131 78.944 192.035 80.224 191.843 81.568C191.715 82.912 191.427 84.032 190.979 84.928C190.467 86.144 189.699 87.136 188.675 87.904C187.715 88.672 186.403 89.056 184.739 89.056C184.035 89.056 183.363 88.896 182.723 88.576C182.083 88.32 181.763 87.872 181.763 87.232C181.763 86.976 181.955 85.856 182.339 83.872C182.723 81.824 183.107 79.328 183.491 76.384C183.875 73.44 184.067 70.56 184.067 67.744C184.067 64.672 183.747 62.56 183.107 61.408C182.467 60.192 181.507 59.584 180.227 59.584C178.627 59.584 177.091 60.256 175.619 61.6C174.211 62.944 172.899 64.672 171.683 66.784C170.531 68.896 169.507 71.104 168.611 73.408C167.779 75.712 167.107 77.856 166.595 79.84V80.896C166.595 83.264 165.923 85.216 164.579 86.752C163.299 88.288 161.539 89.056 159.299 89.056ZM252.863 89.248C249.663 89.248 247.167 88.32 245.375 86.464C243.647 84.608 242.783 81.92 242.783 78.4C242.783 75.904 243.135 73.344 243.839 70.72C244.159 69.632 244.415 68.544 244.607 67.456C244.799 66.368 244.895 65.28 244.895 64.192C244.895 61.376 244.031 59.552 242.303 58.72C240.639 57.824 239.807 56.864 239.807 55.84C239.807 54.816 240.223 53.792 241.055 52.768C241.951 51.744 243.039 50.912 244.319 50.272C245.599 49.568 246.879 49.216 248.159 49.216C251.807 49.216 253.631 52.192 253.631 58.144C253.631 60.064 253.471 61.856 253.151 63.52C252.895 65.12 252.575 66.656 252.191 68.128C251.935 69.152 251.711 70.176 251.519 71.2C251.391 72.224 251.327 73.12 251.327 73.888C251.327 77.088 252.895 78.688 256.031 78.688C258.975 78.688 261.727 77.12 264.287 73.984C266.847 70.848 268.959 66.464 270.623 60.832L270.527 59.008C270.399 55.808 270.943 53.376 272.159 51.712C273.439 50.048 275.295 49.216 277.727 49.216C279.839 49.216 280.895 49.888 280.895 51.232C280.895 51.68 280.799 52.256 280.607 52.96C280.479 53.664 280.255 54.496 279.935 55.456C279.295 57.824 278.751 60.352 278.303 63.04C277.855 65.664 277.631 68.096 277.631 70.336C277.631 72.832 278.015 74.912 278.783 76.576C279.551 78.176 280.991 79.264 283.103 79.84C283.679 79.904 284.127 80.096 284.447 80.416C284.831 80.672 285.023 81.248 285.023 82.144C285.023 83.68 284.383 85.184 283.103 86.656C281.823 88.128 279.967 88.864 277.535 88.864C272.863 88.864 270.527 85.568 270.527 78.976C270.527 77.824 270.623 76.096 270.815 73.792L270.623 73.696C266.591 84.064 260.671 89.248 252.863 89.248ZM323.289 89.248C320.921 89.248 318.873 88.832 317.145 88C315.481 87.168 314.009 86.112 312.729 84.832C312.089 85.92 311.321 86.912 310.425 87.808C309.593 88.64 308.633 89.056 307.545 89.056C306.841 89.056 306.169 88.832 305.529 88.384C304.889 88 304.633 87.456 304.761 86.752C305.721 81.632 306.521 76.448 307.161 71.2C307.865 65.952 308.217 60.608 308.217 55.168C308.217 50.624 308.057 46.368 307.737 42.4C307.417 38.432 306.425 34.784 304.761 31.456C304.441 30.816 304.153 30.208 303.897 29.632C303.705 29.056 303.609 28.512 303.609 28C303.609 26.784 304.313 25.6 305.721 24.448C307.129 23.296 308.633 22.72 310.233 22.72C312.537 22.72 314.105 24.128 314.937 26.944C315.769 29.76 316.185 33.92 316.185 39.424C316.185 44.096 315.961 48.384 315.513 52.288C315.129 56.128 314.681 59.424 314.169 62.176C315.961 58.4 318.393 55.232 321.465 52.672C324.601 50.048 328.121 48.736 332.025 48.736C335.929 48.736 338.969 50.048 341.145 52.672C343.385 55.232 344.505 58.72 344.505 63.136C344.505 66.4 343.993 69.6 342.969 72.736C341.945 75.808 340.505 78.592 338.649 81.088C336.793 83.584 334.553 85.568 331.929 87.04C329.369 88.512 326.489 89.248 323.289 89.248ZM325.497 78.88C329.145 78.88 331.961 77.728 333.945 75.424C335.929 73.12 336.921 70.464 336.921 67.456C336.921 64.832 336.185 62.816 334.713 61.408C333.305 59.936 331.417 59.2 329.049 59.2C326.681 59.2 324.569 59.936 322.713 61.408C320.857 62.816 319.289 64.704 318.009 67.072C316.729 69.376 315.737 71.872 315.033 74.56C316.505 75.968 318.137 77.056 319.929 77.824C321.785 78.528 323.641 78.88 325.497 78.88ZM380.409 89.248C375.545 89.248 371.737 87.872 368.985 85.12C366.297 82.304 364.953 78.4 364.953 73.408C364.953 68.864 365.945 64.736 367.929 61.024C369.913 57.312 372.569 54.368 375.897 52.192C379.289 49.952 383.001 48.832 387.033 48.832C390.873 48.832 393.945 49.792 396.249 51.712C398.553 53.568 399.705 56.064 399.705 59.2C399.705 61.696 398.937 64 397.401 66.112C395.865 68.224 393.817 69.92 391.257 71.2C388.697 72.416 385.849 73.024 382.713 73.024C378.873 73.024 375.737 72.16 373.305 70.432C373.369 73.376 374.361 75.744 376.281 77.536C378.265 79.328 380.793 80.224 383.865 80.224C385.721 80.224 387.609 79.904 389.529 79.264C391.513 78.56 393.209 77.632 394.617 76.48C395.513 75.712 396.345 75.328 397.113 75.328C397.753 75.328 398.265 75.552 398.649 76C399.097 76.384 399.321 76.896 399.321 77.536C399.321 78.944 398.105 80.8 395.673 83.104C391.385 87.2 386.297 89.248 380.409 89.248ZM381.849 66.688C384.153 66.688 386.073 66.208 387.609 65.248C389.145 64.288 389.913 63.072 389.913 61.6C389.913 60.384 389.401 59.456 388.377 58.816C387.353 58.112 385.945 57.76 384.153 57.76C381.785 57.76 379.705 58.4 377.913 59.68C376.185 60.896 374.937 62.624 374.169 64.864C375.065 65.44 376.217 65.888 377.625 66.208C379.033 66.528 380.441 66.688 381.849 66.688ZM435.193 89.248C430.329 89.248 426.521 87.872 423.769 85.12C421.081 82.304 419.737 78.4 419.737 73.408C419.737 68.864 420.729 64.736 422.713 61.024C424.697 57.312 427.353 54.368 430.681 52.192C434.073 49.952 437.785 48.832 441.817 48.832C445.657 48.832 448.729 49.792 451.033 51.712C453.337 53.568 454.489 56.064 454.489 59.2C454.489 61.696 453.721 64 452.185 66.112C450.649 68.224 448.601 69.92 446.041 71.2C443.481 72.416 440.633 73.024 437.497 73.024C433.657 73.024 430.521 72.16 428.089 70.432C428.153 73.376 429.145 75.744 431.065 77.536C433.049 79.328 435.577 80.224 438.649 80.224C440.505 80.224 442.393 79.904 444.313 79.264C446.297 78.56 447.993 77.632 449.401 76.48C450.297 75.712 451.129 75.328 451.897 75.328C452.537 75.328 453.049 75.552 453.433 76C453.881 76.384 454.105 76.896 454.105 77.536C454.105 78.944 452.889 80.8 450.457 83.104C446.169 87.2 441.081 89.248 435.193 89.248ZM436.633 66.688C438.937 66.688 440.857 66.208 442.393 65.248C443.929 64.288 444.697 63.072 444.697 61.6C444.697 60.384 444.185 59.456 443.161 58.816C442.137 58.112 440.729 57.76 438.937 57.76C436.569 57.76 434.489 58.4 432.697 59.68C430.969 60.896 429.721 62.624 428.953 64.864C429.849 65.44 431.001 65.888 432.409 66.208C433.817 66.528 435.225 66.688 436.633 66.688ZM481.633 88.96C479.777 88.96 478.401 88.448 477.505 87.424C476.609 86.4 476.161 84.608 476.161 82.048C476.161 80.832 476.257 79.264 476.449 77.344C476.641 75.424 476.865 73.344 477.121 71.104C477.505 68.352 477.825 65.472 478.081 62.464C478.401 59.456 478.561 56.576 478.561 53.824C478.561 49.92 478.369 45.888 477.985 41.728C477.665 37.504 476.705 33.824 475.105 30.688C474.529 29.408 474.241 28.48 474.241 27.904C474.241 27.072 474.593 26.272 475.297 25.504C476.065 24.736 476.993 24.096 478.081 23.584C479.169 23.008 480.225 22.72 481.249 22.72C482.913 22.72 484.161 23.488 484.993 25.024C485.825 26.496 486.369 28.544 486.625 31.168C486.881 33.728 487.009 36.672 487.009 40C487.009 45.056 486.785 49.44 486.337 53.152C485.953 56.864 485.569 60.128 485.185 62.944C484.929 64.8 484.673 66.56 484.417 68.224C484.225 69.888 484.129 71.392 484.129 72.736C484.129 74.976 484.481 76.608 485.185 77.632C485.953 78.592 487.169 79.552 488.833 80.512C489.281 80.768 489.601 81.024 489.793 81.28C490.049 81.472 490.177 81.792 490.177 82.24C490.177 82.752 489.921 83.552 489.409 84.64C488.897 85.728 488.001 86.72 486.721 87.616C485.505 88.512 483.809 88.96 481.633 88.96Z" fill="#81E4C4"/>
<path d="M46.949 42.91C46.8024 44.1567 46.399 45.3667 45.739 46.54C45.079 47.64 44.309 48.7033 43.429 49.73C42.549 50.6833 41.5957 51.5267 40.569 52.26C39.6157 52.9933 38.699 53.5433 37.819 53.91C35.2524 54.9367 32.5024 55.8533 29.569 56.66C26.709 57.3933 23.8857 58.0167 21.099 58.53C21.0257 58.53 20.769 58.5667 20.329 58.64C19.889 58.64 19.5957 58.53 19.449 58.31C19.449 58.1633 19.5957 57.9433 19.889 57.65C20.1824 57.3567 20.4024 57.21 20.549 57.21C21.5757 56.55 22.969 55.7433 24.729 54.79C26.5624 53.8367 28.139 53.14 29.459 52.7C29.899 52.6267 30.9257 52.2233 32.539 51.49C34.2257 50.6833 35.9857 49.7667 37.819 48.74C39.7257 47.64 41.4857 46.5033 43.099 45.33C44.7857 44.1567 45.849 43.0933 46.289 42.14C46.4357 42.0667 46.5457 41.9933 46.619 41.92C46.6924 41.8467 46.8024 41.81 46.949 41.81V42.91ZM46.509 38.84C45.3357 41.3333 43.7224 43.3133 41.669 44.78C39.6157 46.2467 37.3057 47.4933 34.739 48.52C32.2457 49.5467 29.6057 50.4633 26.819 51.27C24.1057 52.0767 21.5024 53.0667 19.009 54.24C15.929 55.7067 12.9957 57.7967 10.209 60.51C7.49569 63.15 5.62569 66.4133 4.59902 70.3C4.45235 70.3733 4.30569 70.4833 4.15902 70.63C4.08569 70.7767 3.97569 70.9233 3.82902 71.07C3.90235 68.43 4.37902 66.0467 5.25902 63.92C6.13902 61.72 7.23902 59.7767 8.55902 58.09C9.95235 56.4033 11.4924 54.9733 13.179 53.8C14.8657 52.5533 16.6257 51.5267 18.459 50.72C21.0257 49.62 23.629 48.6667 26.269 47.86C28.909 46.98 31.439 46.1 33.859 45.22C36.279 44.34 38.5524 43.35 40.679 42.25C42.8057 41.15 44.639 39.7933 46.179 38.18C46.399 38.18 46.509 38.18 46.509 38.18C46.6557 38.18 46.6924 38.2533 46.619 38.4C46.5457 38.5467 46.509 38.6933 46.509 38.84ZM48.599 80.53C48.599 80.6767 48.5624 80.8233 48.489 80.97C48.4157 81.0433 48.3424 81.1533 48.269 81.3L47.939 81.63C47.059 82.4367 46.289 83.06 45.629 83.5C44.969 83.94 43.9057 84.27 42.439 84.49C41.8524 84.5633 41.1924 84.6 40.459 84.6C39.7257 84.6 39.029 84.5633 38.369 84.49C37.7824 84.3433 37.269 84.1967 36.829 84.05C36.389 83.83 36.2424 83.61 36.389 83.39C36.4624 83.2433 36.829 83.1333 37.489 83.06C38.2224 82.9133 38.699 82.84 38.919 82.84C39.7257 82.6933 40.459 82.5833 41.119 82.51C41.8524 82.4367 42.5124 82.3267 43.099 82.18C44.0524 81.96 44.8957 81.74 45.629 81.52C46.3624 81.3 47.2057 80.97 48.159 80.53C48.4524 80.3833 48.599 80.3833 48.599 80.53ZM42.549 80.86C42.549 80.9333 42.4024 80.97 42.109 80.97C41.8157 80.8967 41.559 80.86 41.339 80.86C38.259 80.2733 35.289 79.2833 32.429 77.89C29.569 76.4967 26.7457 74.92 23.959 73.16C23.739 73.0133 23.2624 72.6833 22.529 72.17C21.7957 71.5833 20.8424 71.0333 19.669 70.52C18.4957 69.9333 17.1024 69.4567 15.489 69.09C13.949 68.65 12.2624 68.4667 10.429 68.54L11.199 67.77C13.7657 65.2033 16.809 63.26 20.329 61.94C23.9224 60.5467 27.5524 59.2267 31.219 57.98C33.4924 57.1733 35.7657 56.2933 38.039 55.34C40.3857 54.3867 42.5857 53.03 44.639 51.27C44.7857 50.9767 44.9324 50.9033 45.079 51.05C45.2257 51.1967 45.2624 51.3433 45.189 51.49C45.1157 51.5633 45.0057 51.71 44.859 51.93C44.419 53.47 43.3557 54.9 41.669 56.22C40.0557 57.54 38.2224 58.7133 36.169 59.74C34.189 60.7667 32.1724 61.6833 30.119 62.49C28.0657 63.2967 26.4157 63.9567 25.169 64.47C24.1424 64.91 23.0057 65.35 21.759 65.79C20.5857 66.23 19.3757 66.6333 18.129 67C19.3757 67.2933 20.6224 67.6967 21.869 68.21C23.189 68.7233 24.4357 69.31 25.609 69.97C26.8557 70.5567 27.9924 71.1433 29.019 71.73C30.0457 72.3167 30.9257 72.7933 31.659 73.16C33.419 74.1133 35.179 75.25 36.939 76.57C38.7724 77.8167 40.4224 78.9533 41.889 79.98C42.4024 80.2733 42.6224 80.5667 42.549 80.86ZM12.959 62.05C13.1057 62.05 13.1057 62.1967 12.959 62.49C12.8857 62.71 12.739 62.9667 12.519 63.26C12.3724 63.48 12.189 63.7367 11.969 64.03C11.749 64.25 11.639 64.3967 11.639 64.47C11.1257 65.2033 10.6124 65.8633 10.099 66.45C9.58569 67.0367 9.14569 67.6233 8.77902 68.21L8.33902 68.98L5.80902 69.86C5.88235 69.42 5.99235 68.9067 6.13902 68.32C6.35902 67.7333 6.72569 67.0733 7.23902 66.34C7.60569 65.8267 8.08235 65.2767 8.66902 64.69C9.32902 64.03 9.95235 63.48 10.539 63.04C11.1257 62.5267 11.639 62.16 12.079 61.94C12.5924 61.72 12.8857 61.7567 12.959 62.05ZM47.389 84.16C45.409 85.9933 43.429 87.3133 41.449 88.12C39.469 88.9267 37.5624 89.4033 35.729 89.55C33.8957 89.6233 32.099 89.44 30.339 89C28.6524 88.4867 27.039 87.8267 25.499 87.02C23.3724 85.92 21.319 84.71 19.339 83.39C17.4324 82.07 15.5257 80.8233 13.619 79.65C11.7124 78.4767 9.80569 77.4867 7.89902 76.68C6.06569 75.8733 4.15902 75.47 2.17902 75.47C1.59235 75.47 1.44569 75.36 1.73902 75.14C2.03235 74.92 2.21569 74.81 2.28902 74.81C4.63569 73.93 6.87235 73.7467 8.99902 74.26C11.199 74.7733 13.3257 75.6167 15.379 76.79C17.5057 77.89 19.559 79.1733 21.539 80.64C23.5924 82.0333 25.6824 83.28 27.809 84.38C29.129 85.04 30.559 85.6267 32.099 86.14C33.639 86.58 35.2524 86.8367 36.939 86.91C38.6257 86.91 40.3124 86.69 41.999 86.25C43.6857 85.81 45.3724 85.0033 47.059 83.83C47.499 83.5367 47.6824 83.5 47.609 83.72C47.5357 83.94 47.4624 84.0867 47.389 84.16ZM30.449 81.19C30.3024 81.41 30.0457 81.52 29.679 81.52C29.3124 81.4467 29.0924 81.3367 29.019 81.19C27.919 81.0433 26.5624 80.6033 24.949 79.87C23.3357 79.1367 22.0524 78.4033 21.099 77.67C20.8057 77.45 19.9624 77.01 18.569 76.35C17.1757 75.69 15.599 75.0667 13.839 74.48C12.1524 73.82 10.429 73.3067 8.66902 72.94C6.98235 72.5 5.69902 72.4267 4.81902 72.72C4.52569 72.8667 4.37902 72.83 4.37902 72.61C4.52569 72.4633 4.63569 72.3533 4.70902 72.28C4.78235 72.2067 4.89235 72.0967 5.03902 71.95C5.99235 71.2167 7.01902 70.7033 8.11902 70.41C9.29235 70.0433 10.4657 69.86 11.639 69.86C12.8124 69.7867 13.9124 69.86 14.939 70.08C16.039 70.3 16.9557 70.63 17.689 71.07C19.7424 72.2433 21.7957 73.6 23.849 75.14C25.9757 76.68 27.8824 78.2933 29.569 79.98C29.7157 80.0533 29.9357 80.2367 30.229 80.53C30.5224 80.8233 30.5957 81.0433 30.449 81.19ZM61.8076 38.62C63.3476 43.0933 64.7776 47.8967 66.0976 53.03C67.4909 58.1633 68.5909 63.0033 69.3976 67.55C69.5443 67.8433 69.6543 68.3567 69.7276 69.09C69.8743 69.75 69.8743 70.1533 69.7276 70.3C69.4343 70.3 69.1043 70.0067 68.7376 69.42C68.4443 68.8333 68.2609 68.3933 68.1876 68.1C67.6743 67.1467 67.1243 65.9733 66.5376 64.58C65.9509 63.1133 65.3643 61.61 64.7776 60.07C64.2643 58.53 63.7509 57.0267 63.2376 55.56C62.7243 54.02 62.3209 52.7 62.0276 51.6C61.8809 51.0867 61.5143 50.06 60.9276 48.52C60.3409 46.98 59.6443 45.1833 58.8376 43.13C58.0309 41.0767 57.1143 38.8767 56.0876 36.53C55.0609 34.11 54.0343 31.8367 53.0076 29.71C51.9809 27.51 50.9543 25.5667 49.9276 23.88C48.9743 22.12 48.1309 20.8733 47.3976 20.14C47.2509 19.9933 47.1409 19.8833 47.0676 19.81C46.9943 19.6633 46.9209 19.5167 46.8476 19.37C46.7743 19.2233 46.7376 19.1133 46.7376 19.04C46.8843 18.9667 47.0309 19.0033 47.1776 19.15C47.3976 19.2233 47.5809 19.26 47.7276 19.26C49.1943 19.9933 50.6243 21.13 52.0176 22.67C53.4843 24.1367 54.8409 25.7867 56.0876 27.62C57.4076 29.38 58.5443 31.25 59.4976 33.23C60.4509 35.21 61.2209 37.0067 61.8076 38.62ZM75.4476 63.48C76.7676 67.44 78.0876 71.51 79.4076 75.69C80.8009 79.87 82.0843 83.5 83.2576 86.58C83.3309 87.1667 83.4043 87.6433 83.4776 88.01C83.5509 88.3033 83.5143 88.45 83.3676 88.45C83.2943 88.5967 83.1109 88.4867 82.8176 88.12C82.5976 87.7533 82.3776 87.3867 82.1576 87.02C80.3976 84.38 78.8209 81.63 77.4276 78.77C76.1076 75.91 74.8609 72.9767 73.6876 69.97C72.5876 66.9633 71.5243 63.8467 70.4976 60.62C69.5443 57.3933 68.5543 54.13 67.5276 50.83C66.2809 46.87 64.9243 42.8367 63.4576 38.73C61.9909 34.6233 60.0476 30.48 57.6276 26.3C57.4076 26.08 57.2976 25.97 57.2976 25.97C57.2976 25.8967 57.3709 25.8233 57.5176 25.75C57.5909 25.6033 57.6643 25.6033 57.7376 25.75C57.8109 25.8967 57.9576 26.0433 58.1776 26.19C60.0109 27.5833 61.8076 29.93 63.5676 33.23C65.3276 36.4567 66.9776 39.9767 68.5176 43.79C70.0576 47.6033 71.4143 51.3433 72.5876 55.01C73.8343 58.6033 74.7876 61.4267 75.4476 63.48ZM87.6576 98.46C87.951 98.6067 88.1709 98.79 88.3176 99.01C88.4643 99.1567 88.4643 99.23 88.3176 99.23C88.2443 99.45 88.0609 99.45 87.7676 99.23C84.5409 98.4233 81.5343 97.03 78.7476 95.05C76.0343 93.07 73.5776 90.7233 71.3776 88.01C69.1776 85.2233 67.1976 82.18 65.4376 78.88C63.7509 75.58 62.3209 72.2067 61.1476 68.76C59.6076 64.14 58.1409 59.5567 56.7476 55.01C55.4276 50.39 54.0343 45.9167 52.5676 41.59C51.1743 37.19 49.6709 33.0467 48.0576 29.16C46.5176 25.2733 44.7209 21.7533 42.6676 18.6C42.6676 18.2333 42.6676 18.05 42.6676 18.05C42.6676 17.9033 42.6676 17.8667 42.6676 17.94C42.7409 18.0133 42.8509 18.0867 42.9976 18.16C43.1443 18.3067 43.2909 18.4167 43.4376 18.49C46.3709 21.35 48.8276 24.76 50.8076 28.72C52.8609 32.6067 54.6576 36.8233 56.1976 41.37C57.7376 45.8433 59.1676 50.5 60.4876 55.34C61.8809 60.1067 63.3843 64.7633 64.9976 69.31C66.0243 72.2433 67.3076 75.1767 68.8476 78.11C70.4609 81.0433 72.2209 83.7933 74.1276 86.36C76.1076 88.9267 78.2343 91.2733 80.5076 93.4C82.7809 95.5267 85.1643 97.2133 87.6576 98.46ZM83.3676 91.09C84.5409 92.1167 85.6776 93.07 86.7776 93.95C87.8776 94.7567 89.0509 95.5267 90.2976 96.26C90.4443 96.4067 90.5909 96.59 90.7376 96.81C90.9576 97.03 91.0309 97.14 90.9576 97.14C90.8109 97.2867 90.6276 97.36 90.4076 97.36C90.2609 97.36 90.1143 97.36 89.9676 97.36C89.7476 97.36 89.6009 97.3233 89.5276 97.25C88.7943 97.03 88.1343 96.8467 87.5476 96.7C86.9609 96.5533 86.3743 96.3333 85.7876 96.04C85.2009 95.6733 84.5776 95.27 83.9176 94.83C83.2576 94.3167 82.4876 93.62 81.6076 92.74C80.9476 92.08 80.1776 91.1633 79.2976 89.99C78.4909 88.8167 77.7209 87.68 76.9876 86.58C76.2543 85.4067 75.6676 84.4167 75.2276 83.61C74.8609 82.73 74.7876 82.2167 75.0076 82.07C75.0809 81.9967 75.2643 82.1067 75.5576 82.4C75.9243 82.62 76.2909 82.95 76.6576 83.39C77.0243 83.7567 77.3543 84.16 77.6476 84.6C78.0143 84.9667 78.2709 85.2233 78.4176 85.37C79.2243 86.5433 80.0309 87.57 80.8376 88.45C81.6443 89.33 82.4876 90.21 83.3676 91.09ZM131.27 65.24C131.197 65.3867 131.013 65.4233 130.72 65.35C130.427 65.2767 130.17 65.1667 129.95 65.02C126.503 63.7733 123.313 62.0133 120.38 59.74C117.447 57.4667 114.55 55.01 111.69 52.37C110.003 50.7567 108.17 49.18 106.19 47.64C104.283 46.1 102.047 44.8167 99.48 43.79C99.3334 43.79 99.26 43.7533 99.26 43.68C99.3334 43.46 99.5167 43.3133 99.81 43.24C101.423 42.9467 103.22 43.24 105.2 44.12C107.18 44.9267 109.087 45.9533 110.92 47.2C112.827 48.4467 114.623 49.7667 116.31 51.16C117.997 52.5533 119.39 53.6533 120.49 54.46C122.323 55.9267 124.157 57.5767 125.99 59.41C127.897 61.17 129.473 62.7467 130.72 64.14C130.867 64.36 131.013 64.58 131.16 64.8C131.38 64.9467 131.417 65.0933 131.27 65.24ZM135.67 69.97C135.377 71.2167 134.827 72.39 134.02 73.49C133.287 74.59 132.443 75.6167 131.49 76.57C130.537 77.45 129.51 78.22 128.41 78.88C127.31 79.4667 126.283 79.87 125.33 80.09C122.763 81.0433 119.94 81.8133 116.86 82.4C113.78 82.9133 110.92 83.17 108.28 83.17C107.913 83.2433 107.547 83.28 107.18 83.28C106.887 83.28 106.703 83.2433 106.63 83.17C106.483 82.8767 106.557 82.62 106.85 82.4C107.217 82.18 107.473 82.07 107.62 82.07C108.133 81.7767 108.793 81.4467 109.6 81.08C110.407 80.7133 111.25 80.3467 112.13 79.98C113.01 79.6133 113.89 79.2833 114.77 78.99C115.65 78.6967 116.383 78.4767 116.97 78.33C117.483 78.1833 118.583 77.8167 120.27 77.23C122.03 76.57 123.9 75.8367 125.88 75.03C127.933 74.2233 129.84 73.3433 131.6 72.39C133.36 71.3633 134.533 70.3733 135.12 69.42C135.34 69.0533 135.523 68.9067 135.67 68.98C135.817 69.0533 135.817 69.3833 135.67 69.97ZM117.74 62.38C117.593 62.5267 117.337 62.5633 116.97 62.49C116.677 62.3433 116.493 62.1967 116.42 62.05C115.247 61.4633 113.817 60.62 112.13 59.52C110.443 58.42 109.16 57.3933 108.28 56.44C107.913 56.1467 106.96 55.4867 105.42 54.46C103.953 53.36 102.303 52.26 100.47 51.16C98.6367 49.9867 96.8034 48.96 94.97 48.08C93.21 47.1267 91.8534 46.65 90.9 46.65C90.7534 46.7967 90.57 46.8333 90.35 46.76C90.2034 46.6133 90.13 46.4667 90.13 46.32L91.12 45.88C92.22 45.3667 93.43 45.11 94.75 45.11C96.07 45.11 97.3534 45.2933 98.6 45.66C99.92 45.9533 101.13 46.3933 102.23 46.98C103.403 47.4933 104.357 48.08 105.09 48.74C107.07 50.4267 109.123 52.37 111.25 54.57C113.45 56.6967 115.43 58.8233 117.19 60.95C117.337 61.0967 117.483 61.3533 117.63 61.72C117.85 62.0133 117.887 62.2333 117.74 62.38ZM135.56 65.9C134.167 68.32 132.333 70.19 130.06 71.51C127.86 72.7567 125.44 73.7833 122.8 74.59C120.16 75.3233 117.41 75.9833 114.55 76.57C111.69 77.1567 108.94 77.89 106.3 78.77C104.687 79.2833 103.073 80.0167 101.46 80.97C99.8467 81.85 98.3067 82.95 96.84 84.27C95.3734 85.5167 94.0534 86.9467 92.88 88.56C91.7067 90.1733 90.79 91.97 90.13 93.95C89.9834 94.39 89.91 94.61 89.91 94.61C89.7634 94.61 89.69 94.5367 89.69 94.39C89.69 94.2433 89.69 94.0967 89.69 93.95C90.0567 91.2367 90.7534 88.8533 91.78 86.8C92.8067 84.7467 94.0534 82.9867 95.52 81.52C96.9867 79.98 98.6367 78.6967 100.47 77.67C102.377 76.6433 104.32 75.8 106.3 75.14C108.573 74.3333 110.883 73.71 113.23 73.27C115.577 72.7567 117.887 72.2067 120.16 71.62C118.547 71.18 117.08 70.5567 115.76 69.75C114.44 68.9433 113.083 68.0267 111.69 67C109.49 65.3133 107.363 63.5533 105.31 61.72C103.33 59.8867 101.35 58.1267 99.37 56.44C97.4634 54.7533 95.52 53.25 93.54 51.93C91.6334 50.5367 89.6167 49.4733 87.49 48.74H87.27C87.1234 48.74 87.0867 48.7033 87.16 48.63C87.0867 48.4833 87.16 48.41 87.38 48.41C87.6 48.3367 87.7834 48.3 87.93 48.3C90.57 48.08 93.0267 48.52 95.3 49.62C97.5734 50.6467 99.7367 52.0033 101.79 53.69C103.917 55.3767 106.007 57.21 108.06 59.19C110.113 61.17 112.24 63.0033 114.44 64.69C115.54 65.4967 116.677 66.3033 117.85 67.11C119.097 67.8433 120.343 68.4667 121.59 68.98C122.837 69.42 124.12 69.6767 125.44 69.75C126.833 69.8233 128.19 69.5667 129.51 68.98C128.85 68.9067 128.153 68.76 127.42 68.54C126.76 68.32 126.137 68.1 125.55 67.88C124.963 67.5867 124.487 67.2933 124.12 67C123.827 66.7067 123.753 66.45 123.9 66.23C124.047 66.01 124.56 65.9733 125.44 66.12C126.393 66.1933 127.053 66.23 127.42 66.23C128.74 66.45 130.023 66.5967 131.27 66.67C132.59 66.67 133.763 66.3767 134.79 65.79C134.937 65.6433 135.193 65.4967 135.56 65.35C135.927 65.2033 135.927 65.3867 135.56 65.9ZM132.92 78.11C132.92 78.1833 132.883 78.2567 132.81 78.33C132.81 78.4033 132.81 78.4767 132.81 78.55C132.737 78.6967 132.7 78.8067 132.7 78.88C132.04 80.4933 130.793 81.8867 128.96 83.06C127.127 84.16 125.11 85.1133 122.91 85.92C120.783 86.7267 118.657 87.4233 116.53 88.01C114.477 88.5233 112.827 89 111.58 89.44C109.307 90.2467 106.887 90.9067 104.32 91.42C101.753 91.86 99.5167 92.3 97.61 92.74C96.8767 92.74 96.4 92.7033 96.18 92.63C96.18 92.41 96.29 92.2267 96.51 92.08C96.8034 91.86 97.06 91.6767 97.28 91.53C100.36 89.4033 103.66 87.8267 107.18 86.8C110.773 85.7 114.44 84.6733 118.18 83.72C120.527 83.1333 122.91 82.4733 125.33 81.74C127.75 80.9333 130.133 79.7233 132.48 78.11C132.773 78.0367 132.92 78.0367 132.92 78.11ZM99.7 85.81C99.7734 85.9567 99.7367 86.1767 99.59 86.47C99.4434 86.7633 99.26 87.0567 99.04 87.35C98.82 87.57 98.6 87.79 98.38 88.01C98.16 88.23 98.05 88.3767 98.05 88.45C97.3167 89.0367 96.6934 89.6233 96.18 90.21C95.6667 90.7233 95.1534 91.2733 94.64 91.86C94.1267 92.6667 93.65 93.4733 93.21 94.28C92.77 95.0133 92.2934 95.6733 91.78 96.26C91.78 96.4067 91.7067 96.5167 91.56 96.59C91.4134 96.6633 91.4134 96.6267 91.56 96.48C91.4134 96.3333 91.34 96.0767 91.34 95.71V95.38C91.34 94.5733 91.45 93.7667 91.67 92.96C91.89 92.08 92.5134 91.0167 93.54 89.77C93.9067 89.33 94.42 88.8533 95.08 88.34C95.74 87.7533 96.4 87.24 97.06 86.8C97.72 86.36 98.27 86.03 98.71 85.81C99.2234 85.59 99.5534 85.59 99.7 85.81Z" fill="#81E4C4"/>
</svg>
