<svg width="422" height="169" viewBox="0 0 422 169" fill="none" xmlns="http://www.w3.org/2000/svg">
<path d="M206.222 116.64C205.71 116.64 205.198 116.512 204.686 116.256C204.174 116.085 203.79 115.787 203.534 115.36L174.734 50.208H174.35L174.606 101.024C174.691 102.645 174.819 104.224 174.99 105.76C175.246 107.211 175.928 108.448 177.038 109.472C178.147 110.411 180.024 110.88 182.67 110.88C183.608 110.88 184.376 110.965 184.974 111.136C185.571 111.307 185.912 112.117 185.998 113.568C185.998 114.251 185.784 114.891 185.358 115.488C185.016 116.085 184.462 116.384 183.694 116.384C181.902 116.299 180.451 116.213 179.342 116.128C178.232 116.128 177.166 116.085 176.142 116C175.118 116 173.752 116 172.046 116C169.486 116 167.395 116 165.774 116C164.238 116.085 162.104 116.213 159.374 116.384C158.52 116.384 157.923 116.085 157.582 115.488C157.24 114.891 157.07 114.251 157.07 113.568C157.155 112.117 157.496 111.307 158.094 111.136C158.691 110.965 159.416 110.88 160.27 110.88C163 110.88 164.878 110.411 165.902 109.472C167.011 108.448 167.694 107.211 167.95 105.76C168.206 104.224 168.333 102.645 168.333 101.024L168.59 50.208C168.59 47.4773 168.291 45.472 167.694 44.192C167.096 42.8267 166.158 41.888 164.878 41.376C163.598 40.7787 161.976 40.3093 160.014 39.968C158.819 39.712 157.966 39.4987 157.454 39.328C157.027 39.1573 156.814 38.3893 156.814 37.024C156.814 35.5733 157.326 34.8053 158.35 34.72C159.374 34.5493 160.568 34.464 161.934 34.464C166.115 34.464 169.784 34.8053 172.942 35.488C176.184 36.1707 179 37.4933 181.39 39.456C183.779 41.3333 185.742 44.192 187.278 48.032L209.294 97.44H209.678L234.894 35.232H242.19C244.75 35.232 247.224 35.1893 249.614 35.104C252.088 35.0187 254.691 34.9333 257.422 34.848C258.275 34.848 258.872 35.1467 259.214 35.744C259.555 36.3413 259.726 36.9813 259.726 37.664C259.64 39.1147 259.299 39.9253 258.702 40.096C258.104 40.2667 257.379 40.352 256.526 40.352C253.88 40.352 251.96 40.864 250.766 41.888C249.656 42.8267 248.974 44.064 248.718 45.6C248.462 47.0507 248.291 48.5867 248.206 50.208V101.024C248.291 102.645 248.462 104.224 248.718 105.76C248.974 107.211 249.656 108.448 250.766 109.472C251.96 110.411 253.88 110.88 256.526 110.88C257.379 110.88 258.104 110.965 258.702 111.136C259.299 111.307 259.64 112.117 259.726 113.568C259.726 114.251 259.555 114.891 259.214 115.488C258.872 116.085 258.275 116.384 257.422 116.384C254.691 116.213 252.088 116.085 249.614 116C247.139 116 244.622 116 242.062 116C237.112 116 231.864 116.128 226.318 116.384C225.464 116.384 224.867 116.085 224.526 115.488C224.184 114.891 224.014 114.251 224.014 113.568C224.099 112.117 224.44 111.307 225.038 111.136C225.635 110.965 226.36 110.88 227.214 110.88C229.944 110.88 231.864 110.411 232.974 109.472C234.083 108.448 234.766 107.211 235.022 105.76C235.363 104.224 235.534 102.645 235.534 101.024V50.208H235.15L208.782 115.36C208.611 115.787 208.27 116.085 207.758 116.256C207.246 116.512 206.734 116.64 206.222 116.64ZM272.868 116.384C272.014 116.384 271.417 116.085 271.076 115.488C270.734 114.891 270.564 114.251 270.564 113.568C270.649 112.117 270.99 111.307 271.588 111.136C272.185 110.965 272.91 110.88 273.764 110.88C276.494 110.88 278.414 110.411 279.524 109.472C280.633 108.448 281.316 107.211 281.572 105.76C281.913 104.224 282.083 102.645 282.083 101.024V50.208C282.083 48.5867 281.913 47.0507 281.572 45.6C281.316 44.064 280.633 42.8267 279.524 41.888C278.414 40.864 276.494 40.352 273.764 40.352C272.91 40.352 272.185 40.2667 271.588 40.096C270.99 39.9253 270.649 39.1147 270.564 37.664C270.564 36.9813 270.734 36.3413 271.076 35.744C271.417 35.1467 272.014 34.848 272.868 34.848C275.598 34.9333 278.158 35.0187 280.548 35.104C282.937 35.1893 285.412 35.232 287.972 35.232H306.02C310.969 35.232 314.852 35.616 317.668 36.384C320.569 37.0667 323.086 38.0907 325.22 39.456C327.438 40.9067 329.188 42.912 330.468 45.472C331.748 47.9467 332.388 50.6773 332.388 53.664C332.388 57.504 331.492 60.7467 329.7 63.392C327.908 65.952 325.646 68 322.916 69.536C320.27 70.9867 317.668 72.0107 315.108 72.608V72.992C319.63 72.9067 323.641 73.7173 327.14 75.424C330.638 77.1307 333.412 79.392 335.46 82.208C337.508 85.024 338.574 88.096 338.66 91.424C338.83 96.288 337.806 100.299 335.588 103.456C333.369 106.613 330.468 109.131 326.884 111.008C323.385 112.885 319.545 114.208 315.364 114.976C311.268 115.744 307.3 116.128 303.46 116.128L288.1 116C285.54 116 283.022 116 280.548 116C278.158 116.085 275.598 116.213 272.868 116.384ZM294.756 70.432H300.132C301.838 70.432 303.758 70.3467 305.892 70.176C308.025 70.0053 310.073 69.4933 312.036 68.64C313.998 67.7013 315.577 66.208 316.772 64.16C318.052 62.0267 318.692 59.04 318.692 55.2C318.692 50.6773 317.582 47.008 315.364 44.192C313.23 41.376 309.348 39.968 303.716 39.968H294.756V70.432ZM303.972 111.008C307.812 110.923 311.31 110.283 314.468 109.088C317.625 107.893 320.142 105.888 322.02 103.072C323.897 100.256 324.836 96.3733 324.836 91.424C324.58 88.6933 323.641 86.1333 322.02 83.744C320.484 81.3547 317.924 79.392 314.34 77.856C310.841 76.32 306.062 75.552 300.004 75.552H294.756V101.024C294.756 105.291 295.396 108.021 296.676 109.216C297.956 110.411 300.388 111.008 303.972 111.008ZM351.118 116.384C350.35 116.384 349.795 116.085 349.454 115.488C349.112 114.891 348.942 114.251 348.942 113.568C349.027 112.117 349.368 111.307 349.966 111.136C350.563 110.965 351.288 110.88 352.142 110.88C354.872 110.88 356.792 110.411 357.902 109.472C359.011 108.448 359.694 107.211 359.95 105.76C360.291 104.224 360.462 102.645 360.462 101.024V50.208C360.462 48.5867 360.291 47.0507 359.95 45.6C359.694 44.064 359.011 42.8267 357.902 41.888C356.792 40.864 354.872 40.352 352.142 40.352C351.288 40.352 350.563 40.2667 349.966 40.096C349.368 39.9253 349.027 39.1147 348.942 37.664C348.942 36.9813 349.112 36.3413 349.454 35.744C349.795 35.1467 350.35 34.848 351.118 34.848C353.934 34.9333 356.536 35.0187 358.926 35.104C361.315 35.1893 363.79 35.232 366.35 35.232C371.555 35.232 376.888 35.104 382.35 34.848C383.203 34.848 383.8 35.1467 384.142 35.744C384.483 36.3413 384.654 36.9813 384.654 37.664C384.568 39.1147 384.227 39.9253 383.63 40.096C383.032 40.2667 382.307 40.352 381.454 40.352C378.808 40.352 376.888 40.864 375.694 41.888C374.584 42.8267 373.902 44.064 373.646 45.6C373.39 47.0507 373.219 48.5867 373.134 50.208V102.944C373.219 104.053 373.39 105.248 373.646 106.528C373.902 107.808 374.627 108.875 375.822 109.728C377.102 110.581 379.192 110.965 382.094 110.88H393.614C396.6 110.795 398.862 110.325 400.398 109.472C402.019 108.533 403.299 106.997 404.238 104.864C405.176 102.731 406.2 99.7867 407.31 96.032C407.651 95.1787 408.206 94.624 408.974 94.368C409.827 94.112 410.723 94.0693 411.662 94.24C412.344 94.3253 413.027 94.624 413.71 95.136C414.478 95.648 414.819 96.3307 414.734 97.184L412.174 113.312C411.918 114.507 411.491 115.275 410.894 115.616C410.382 115.872 409.571 116 408.462 116H366.478C363.918 116 361.4 116 358.926 116C356.536 116.085 353.934 116.213 351.118 116.384Z" fill="white"/>
<path d="M46.949 74.91C46.8024 76.1567 46.399 77.3667 45.739 78.54C45.079 79.64 44.309 80.7033 43.429 81.73C42.549 82.6833 41.5957 83.5267 40.569 84.26C39.6157 84.9933 38.699 85.5433 37.819 85.91C35.2524 86.9367 32.5024 87.8533 29.569 88.66C26.709 89.3933 23.8857 90.0167 21.099 90.53C21.0257 90.53 20.769 90.5667 20.329 90.64C19.889 90.64 19.5957 90.53 19.449 90.31C19.449 90.1633 19.5957 89.9433 19.889 89.65C20.1824 89.3567 20.4024 89.21 20.549 89.21C21.5757 88.55 22.969 87.7433 24.729 86.79C26.5624 85.8367 28.139 85.14 29.459 84.7C29.899 84.6267 30.9257 84.2233 32.539 83.49C34.2257 82.6833 35.9857 81.7667 37.819 80.74C39.7257 79.64 41.4857 78.5033 43.099 77.33C44.7857 76.1567 45.849 75.0933 46.289 74.14C46.4357 74.0667 46.5457 73.9933 46.619 73.92C46.6924 73.8467 46.8024 73.81 46.949 73.81V74.91ZM46.509 70.84C45.3357 73.3333 43.7224 75.3133 41.669 76.78C39.6157 78.2467 37.3057 79.4933 34.739 80.52C32.2457 81.5467 29.6057 82.4633 26.819 83.27C24.1057 84.0767 21.5024 85.0667 19.009 86.24C15.929 87.7067 12.9957 89.7967 10.209 92.51C7.49569 95.15 5.62569 98.4133 4.59902 102.3C4.45235 102.373 4.30569 102.483 4.15902 102.63C4.08569 102.777 3.97569 102.923 3.82902 103.07C3.90235 100.43 4.37902 98.0467 5.25902 95.92C6.13902 93.72 7.23902 91.7767 8.55902 90.09C9.95235 88.4033 11.4924 86.9733 13.179 85.8C14.8657 84.5533 16.6257 83.5267 18.459 82.72C21.0257 81.62 23.629 80.6667 26.269 79.86C28.909 78.98 31.439 78.1 33.859 77.22C36.279 76.34 38.5524 75.35 40.679 74.25C42.8057 73.15 44.639 71.7933 46.179 70.18C46.399 70.18 46.509 70.18 46.509 70.18C46.6557 70.18 46.6924 70.2533 46.619 70.4C46.5457 70.5467 46.509 70.6933 46.509 70.84ZM48.599 112.53C48.599 112.677 48.5624 112.823 48.489 112.97C48.4157 113.043 48.3424 113.153 48.269 113.3L47.939 113.63C47.059 114.437 46.289 115.06 45.629 115.5C44.969 115.94 43.9057 116.27 42.439 116.49C41.8524 116.563 41.1924 116.6 40.459 116.6C39.7257 116.6 39.029 116.563 38.369 116.49C37.7824 116.343 37.269 116.197 36.829 116.05C36.389 115.83 36.2424 115.61 36.389 115.39C36.4624 115.243 36.829 115.133 37.489 115.06C38.2224 114.913 38.699 114.84 38.919 114.84C39.7257 114.693 40.459 114.583 41.119 114.51C41.8524 114.437 42.5124 114.327 43.099 114.18C44.0524 113.96 44.8957 113.74 45.629 113.52C46.3624 113.3 47.2057 112.97 48.159 112.53C48.4524 112.383 48.599 112.383 48.599 112.53ZM42.549 112.86C42.549 112.933 42.4024 112.97 42.109 112.97C41.8157 112.897 41.559 112.86 41.339 112.86C38.259 112.273 35.289 111.283 32.429 109.89C29.569 108.497 26.7457 106.92 23.959 105.16C23.739 105.013 23.2624 104.683 22.529 104.17C21.7957 103.583 20.8424 103.033 19.669 102.52C18.4957 101.933 17.1024 101.457 15.489 101.09C13.949 100.65 12.2624 100.467 10.429 100.54L11.199 99.77C13.7657 97.2033 16.809 95.26 20.329 93.94C23.9224 92.5467 27.5524 91.2267 31.219 89.98C33.4924 89.1733 35.7657 88.2933 38.039 87.34C40.3857 86.3867 42.5857 85.03 44.639 83.27C44.7857 82.9767 44.9324 82.9033 45.079 83.05C45.2257 83.1967 45.2624 83.3433 45.189 83.49C45.1157 83.5633 45.0057 83.71 44.859 83.93C44.419 85.47 43.3557 86.9 41.669 88.22C40.0557 89.54 38.2224 90.7133 36.169 91.74C34.189 92.7667 32.1724 93.6833 30.119 94.49C28.0657 95.2967 26.4157 95.9567 25.169 96.47C24.1424 96.91 23.0057 97.35 21.759 97.79C20.5857 98.23 19.3757 98.6333 18.129 99C19.3757 99.2933 20.6224 99.6967 21.869 100.21C23.189 100.723 24.4357 101.31 25.609 101.97C26.8557 102.557 27.9924 103.143 29.019 103.73C30.0457 104.317 30.9257 104.793 31.659 105.16C33.419 106.113 35.179 107.25 36.939 108.57C38.7724 109.817 40.4224 110.953 41.889 111.98C42.4024 112.273 42.6224 112.567 42.549 112.86ZM12.959 94.05C13.1057 94.05 13.1057 94.1967 12.959 94.49C12.8857 94.71 12.739 94.9667 12.519 95.26C12.3724 95.48 12.189 95.7367 11.969 96.03C11.749 96.25 11.639 96.3967 11.639 96.47C11.1257 97.2033 10.6124 97.8633 10.099 98.45C9.58569 99.0367 9.14569 99.6233 8.77902 100.21L8.33902 100.98L5.80902 101.86C5.88235 101.42 5.99235 100.907 6.13902 100.32C6.35902 99.7333 6.72569 99.0733 7.23902 98.34C7.60569 97.8267 8.08235 97.2767 8.66902 96.69C9.32902 96.03 9.95235 95.48 10.539 95.04C11.1257 94.5267 11.639 94.16 12.079 93.94C12.5924 93.72 12.8857 93.7567 12.959 94.05ZM47.389 116.16C45.409 117.993 43.429 119.313 41.449 120.12C39.469 120.927 37.5624 121.403 35.729 121.55C33.8957 121.623 32.099 121.44 30.339 121C28.6524 120.487 27.039 119.827 25.499 119.02C23.3724 117.92 21.319 116.71 19.339 115.39C17.4324 114.07 15.5257 112.823 13.619 111.65C11.7124 110.477 9.80569 109.487 7.89902 108.68C6.06569 107.873 4.15902 107.47 2.17902 107.47C1.59235 107.47 1.44569 107.36 1.73902 107.14C2.03235 106.92 2.21569 106.81 2.28902 106.81C4.63569 105.93 6.87235 105.747 8.99902 106.26C11.199 106.773 13.3257 107.617 15.379 108.79C17.5057 109.89 19.559 111.173 21.539 112.64C23.5924 114.033 25.6824 115.28 27.809 116.38C29.129 117.04 30.559 117.627 32.099 118.14C33.639 118.58 35.2524 118.837 36.939 118.91C38.6257 118.91 40.3124 118.69 41.999 118.25C43.6857 117.81 45.3724 117.003 47.059 115.83C47.499 115.537 47.6824 115.5 47.609 115.72C47.5357 115.94 47.4624 116.087 47.389 116.16ZM30.449 113.19C30.3024 113.41 30.0457 113.52 29.679 113.52C29.3124 113.447 29.0924 113.337 29.019 113.19C27.919 113.043 26.5624 112.603 24.949 111.87C23.3357 111.137 22.0524 110.403 21.099 109.67C20.8057 109.45 19.9624 109.01 18.569 108.35C17.1757 107.69 15.599 107.067 13.839 106.48C12.1524 105.82 10.429 105.307 8.66902 104.94C6.98235 104.5 5.69902 104.427 4.81902 104.72C4.52569 104.867 4.37902 104.83 4.37902 104.61C4.52569 104.463 4.63569 104.353 4.70902 104.28C4.78235 104.207 4.89235 104.097 5.03902 103.95C5.99235 103.217 7.01902 102.703 8.11902 102.41C9.29235 102.043 10.4657 101.86 11.639 101.86C12.8124 101.787 13.9124 101.86 14.939 102.08C16.039 102.3 16.9557 102.63 17.689 103.07C19.7424 104.243 21.7957 105.6 23.849 107.14C25.9757 108.68 27.8824 110.293 29.569 111.98C29.7157 112.053 29.9357 112.237 30.229 112.53C30.5224 112.823 30.5957 113.043 30.449 113.19ZM61.8076 70.62C63.3476 75.0933 64.7776 79.8967 66.0976 85.03C67.4909 90.1633 68.5909 95.0033 69.3976 99.55C69.5443 99.8433 69.6543 100.357 69.7276 101.09C69.8743 101.75 69.8743 102.153 69.7276 102.3C69.4343 102.3 69.1043 102.007 68.7376 101.42C68.4443 100.833 68.2609 100.393 68.1876 100.1C67.6743 99.1467 67.1243 97.9733 66.5376 96.58C65.9509 95.1133 65.3643 93.61 64.7776 92.07C64.2643 90.53 63.7509 89.0267 63.2376 87.56C62.7243 86.02 62.3209 84.7 62.0276 83.6C61.8809 83.0867 61.5143 82.06 60.9276 80.52C60.3409 78.98 59.6443 77.1833 58.8376 75.13C58.0309 73.0767 57.1143 70.8767 56.0876 68.53C55.0609 66.11 54.0343 63.8367 53.0076 61.71C51.9809 59.51 50.9543 57.5667 49.9276 55.88C48.9743 54.12 48.1309 52.8733 47.3976 52.14C47.2509 51.9933 47.1409 51.8833 47.0676 51.81C46.9943 51.6633 46.9209 51.5167 46.8476 51.37C46.7743 51.2233 46.7376 51.1133 46.7376 51.04C46.8843 50.9667 47.0309 51.0033 47.1776 51.15C47.3976 51.2233 47.5809 51.26 47.7276 51.26C49.1943 51.9933 50.6243 53.13 52.0176 54.67C53.4843 56.1367 54.8409 57.7867 56.0876 59.62C57.4076 61.38 58.5443 63.25 59.4976 65.23C60.4509 67.21 61.2209 69.0067 61.8076 70.62ZM75.4476 95.48C76.7676 99.44 78.0876 103.51 79.4076 107.69C80.8009 111.87 82.0843 115.5 83.2576 118.58C83.3309 119.167 83.4043 119.643 83.4776 120.01C83.5509 120.303 83.5143 120.45 83.3676 120.45C83.2943 120.597 83.1109 120.487 82.8176 120.12C82.5976 119.753 82.3776 119.387 82.1576 119.02C80.3976 116.38 78.8209 113.63 77.4276 110.77C76.1076 107.91 74.8609 104.977 73.6876 101.97C72.5876 98.9633 71.5243 95.8467 70.4976 92.62C69.5443 89.3933 68.5543 86.13 67.5276 82.83C66.2809 78.87 64.9243 74.8367 63.4576 70.73C61.9909 66.6233 60.0476 62.48 57.6276 58.3C57.4076 58.08 57.2976 57.97 57.2976 57.97C57.2976 57.8967 57.3709 57.8233 57.5176 57.75C57.5909 57.6033 57.6643 57.6033 57.7376 57.75C57.8109 57.8967 57.9576 58.0433 58.1776 58.19C60.0109 59.5833 61.8076 61.93 63.5676 65.23C65.3276 68.4567 66.9776 71.9767 68.5176 75.79C70.0576 79.6033 71.4143 83.3433 72.5876 87.01C73.8343 90.6033 74.7876 93.4267 75.4476 95.48ZM87.6576 130.46C87.951 130.607 88.1709 130.79 88.3176 131.01C88.4643 131.157 88.4643 131.23 88.3176 131.23C88.2443 131.45 88.0609 131.45 87.7676 131.23C84.5409 130.423 81.5343 129.03 78.7476 127.05C76.0343 125.07 73.5776 122.723 71.3776 120.01C69.1776 117.223 67.1976 114.18 65.4376 110.88C63.7509 107.58 62.3209 104.207 61.1476 100.76C59.6076 96.14 58.1409 91.5567 56.7476 87.01C55.4276 82.39 54.0343 77.9167 52.5676 73.59C51.1743 69.19 49.6709 65.0467 48.0576 61.16C46.5176 57.2733 44.7209 53.7533 42.6676 50.6C42.6676 50.2333 42.6676 50.05 42.6676 50.05C42.6676 49.9033 42.6676 49.8667 42.6676 49.94C42.7409 50.0133 42.8509 50.0867 42.9976 50.16C43.1443 50.3067 43.2909 50.4167 43.4376 50.49C46.3709 53.35 48.8276 56.76 50.8076 60.72C52.8609 64.6067 54.6576 68.8233 56.1976 73.37C57.7376 77.8433 59.1676 82.5 60.4876 87.34C61.8809 92.1067 63.3843 96.7633 64.9976 101.31C66.0243 104.243 67.3076 107.177 68.8476 110.11C70.4609 113.043 72.2209 115.793 74.1276 118.36C76.1076 120.927 78.2343 123.273 80.5076 125.4C82.7809 127.527 85.1643 129.213 87.6576 130.46ZM83.3676 123.09C84.5409 124.117 85.6776 125.07 86.7776 125.95C87.8776 126.757 89.0509 127.527 90.2976 128.26C90.4443 128.407 90.5909 128.59 90.7376 128.81C90.9576 129.03 91.0309 129.14 90.9576 129.14C90.8109 129.287 90.6276 129.36 90.4076 129.36C90.2609 129.36 90.1143 129.36 89.9676 129.36C89.7476 129.36 89.6009 129.323 89.5276 129.25C88.7943 129.03 88.1343 128.847 87.5476 128.7C86.9609 128.553 86.3743 128.333 85.7876 128.04C85.2009 127.673 84.5776 127.27 83.9176 126.83C83.2576 126.317 82.4876 125.62 81.6076 124.74C80.9476 124.08 80.1776 123.163 79.2976 121.99C78.4909 120.817 77.7209 119.68 76.9876 118.58C76.2543 117.407 75.6676 116.417 75.2276 115.61C74.8609 114.73 74.7876 114.217 75.0076 114.07C75.0809 113.997 75.2643 114.107 75.5576 114.4C75.9243 114.62 76.2909 114.95 76.6576 115.39C77.0243 115.757 77.3543 116.16 77.6476 116.6C78.0143 116.967 78.2709 117.223 78.4176 117.37C79.2243 118.543 80.0309 119.57 80.8376 120.45C81.6443 121.33 82.4876 122.21 83.3676 123.09ZM131.27 97.24C131.197 97.3867 131.013 97.4233 130.72 97.35C130.427 97.2767 130.17 97.1667 129.95 97.02C126.503 95.7733 123.313 94.0133 120.38 91.74C117.447 89.4667 114.55 87.01 111.69 84.37C110.003 82.7567 108.17 81.18 106.19 79.64C104.283 78.1 102.047 76.8167 99.48 75.79C99.3334 75.79 99.26 75.7533 99.26 75.68C99.3334 75.46 99.5167 75.3133 99.81 75.24C101.423 74.9467 103.22 75.24 105.2 76.12C107.18 76.9267 109.087 77.9533 110.92 79.2C112.827 80.4467 114.623 81.7667 116.31 83.16C117.997 84.5533 119.39 85.6533 120.49 86.46C122.323 87.9267 124.157 89.5767 125.99 91.41C127.897 93.17 129.473 94.7467 130.72 96.14C130.867 96.36 131.013 96.58 131.16 96.8C131.38 96.9467 131.417 97.0933 131.27 97.24ZM135.67 101.97C135.377 103.217 134.827 104.39 134.02 105.49C133.287 106.59 132.443 107.617 131.49 108.57C130.537 109.45 129.51 110.22 128.41 110.88C127.31 111.467 126.283 111.87 125.33 112.09C122.763 113.043 119.94 113.813 116.86 114.4C113.78 114.913 110.92 115.17 108.28 115.17C107.913 115.243 107.547 115.28 107.18 115.28C106.887 115.28 106.703 115.243 106.63 115.17C106.483 114.877 106.557 114.62 106.85 114.4C107.217 114.18 107.473 114.07 107.62 114.07C108.133 113.777 108.793 113.447 109.6 113.08C110.407 112.713 111.25 112.347 112.13 111.98C113.01 111.613 113.89 111.283 114.77 110.99C115.65 110.697 116.383 110.477 116.97 110.33C117.483 110.183 118.583 109.817 120.27 109.23C122.03 108.57 123.9 107.837 125.88 107.03C127.933 106.223 129.84 105.343 131.6 104.39C133.36 103.363 134.533 102.373 135.12 101.42C135.34 101.053 135.523 100.907 135.67 100.98C135.817 101.053 135.817 101.383 135.67 101.97ZM117.74 94.38C117.593 94.5267 117.337 94.5633 116.97 94.49C116.677 94.3433 116.493 94.1967 116.42 94.05C115.247 93.4633 113.817 92.62 112.13 91.52C110.443 90.42 109.16 89.3933 108.28 88.44C107.913 88.1467 106.96 87.4867 105.42 86.46C103.953 85.36 102.303 84.26 100.47 83.16C98.6367 81.9867 96.8034 80.96 94.97 80.08C93.21 79.1267 91.8534 78.65 90.9 78.65C90.7534 78.7967 90.57 78.8333 90.35 78.76C90.2034 78.6133 90.13 78.4667 90.13 78.32L91.12 77.88C92.22 77.3667 93.43 77.11 94.75 77.11C96.07 77.11 97.3534 77.2933 98.6 77.66C99.92 77.9533 101.13 78.3933 102.23 78.98C103.403 79.4933 104.357 80.08 105.09 80.74C107.07 82.4267 109.123 84.37 111.25 86.57C113.45 88.6967 115.43 90.8233 117.19 92.95C117.337 93.0967 117.483 93.3533 117.63 93.72C117.85 94.0133 117.887 94.2333 117.74 94.38ZM135.56 97.9C134.167 100.32 132.333 102.19 130.06 103.51C127.86 104.757 125.44 105.783 122.8 106.59C120.16 107.323 117.41 107.983 114.55 108.57C111.69 109.157 108.94 109.89 106.3 110.77C104.687 111.283 103.073 112.017 101.46 112.97C99.8467 113.85 98.3067 114.95 96.84 116.27C95.3734 117.517 94.0534 118.947 92.88 120.56C91.7067 122.173 90.79 123.97 90.13 125.95C89.9834 126.39 89.91 126.61 89.91 126.61C89.7634 126.61 89.69 126.537 89.69 126.39C89.69 126.243 89.69 126.097 89.69 125.95C90.0567 123.237 90.7534 120.853 91.78 118.8C92.8067 116.747 94.0534 114.987 95.52 113.52C96.9867 111.98 98.6367 110.697 100.47 109.67C102.377 108.643 104.32 107.8 106.3 107.14C108.573 106.333 110.883 105.71 113.23 105.27C115.577 104.757 117.887 104.207 120.16 103.62C118.547 103.18 117.08 102.557 115.76 101.75C114.44 100.943 113.083 100.027 111.69 99C109.49 97.3133 107.363 95.5533 105.31 93.72C103.33 91.8867 101.35 90.1267 99.37 88.44C97.4634 86.7533 95.52 85.25 93.54 83.93C91.6334 82.5367 89.6167 81.4733 87.49 80.74H87.27C87.1234 80.74 87.0867 80.7033 87.16 80.63C87.0867 80.4833 87.16 80.41 87.38 80.41C87.6 80.3367 87.7834 80.3 87.93 80.3C90.57 80.08 93.0267 80.52 95.3 81.62C97.5734 82.6467 99.7367 84.0033 101.79 85.69C103.917 87.3767 106.007 89.21 108.06 91.19C110.113 93.17 112.24 95.0033 114.44 96.69C115.54 97.4967 116.677 98.3033 117.85 99.11C119.097 99.8433 120.343 100.467 121.59 100.98C122.837 101.42 124.12 101.677 125.44 101.75C126.833 101.823 128.19 101.567 129.51 100.98C128.85 100.907 128.153 100.76 127.42 100.54C126.76 100.32 126.137 100.1 125.55 99.88C124.963 99.5867 124.487 99.2933 124.12 99C123.827 98.7067 123.753 98.45 123.9 98.23C124.047 98.01 124.56 97.9733 125.44 98.12C126.393 98.1933 127.053 98.23 127.42 98.23C128.74 98.45 130.023 98.5967 131.27 98.67C132.59 98.67 133.763 98.3767 134.79 97.79C134.937 97.6433 135.193 97.4967 135.56 97.35C135.927 97.2033 135.927 97.3867 135.56 97.9ZM132.92 110.11C132.92 110.183 132.883 110.257 132.81 110.33C132.81 110.403 132.81 110.477 132.81 110.55C132.737 110.697 132.7 110.807 132.7 110.88C132.04 112.493 130.793 113.887 128.96 115.06C127.127 116.16 125.11 117.113 122.91 117.92C120.783 118.727 118.657 119.423 116.53 120.01C114.477 120.523 112.827 121 111.58 121.44C109.307 122.247 106.887 122.907 104.32 123.42C101.753 123.86 99.5167 124.3 97.61 124.74C96.8767 124.74 96.4 124.703 96.18 124.63C96.18 124.41 96.29 124.227 96.51 124.08C96.8034 123.86 97.06 123.677 97.28 123.53C100.36 121.403 103.66 119.827 107.18 118.8C110.773 117.7 114.44 116.673 118.18 115.72C120.527 115.133 122.91 114.473 125.33 113.74C127.75 112.933 130.133 111.723 132.48 110.11C132.773 110.037 132.92 110.037 132.92 110.11ZM99.7 117.81C99.7734 117.957 99.7367 118.177 99.59 118.47C99.4434 118.763 99.26 119.057 99.04 119.35C98.82 119.57 98.6 119.79 98.38 120.01C98.16 120.23 98.05 120.377 98.05 120.45C97.3167 121.037 96.6934 121.623 96.18 122.21C95.6667 122.723 95.1534 123.273 94.64 123.86C94.1267 124.667 93.65 125.473 93.21 126.28C92.77 127.013 92.2934 127.673 91.78 128.26C91.78 128.407 91.7067 128.517 91.56 128.59C91.4134 128.663 91.4134 128.627 91.56 128.48C91.4134 128.333 91.34 128.077 91.34 127.71V127.38C91.34 126.573 91.45 125.767 91.67 124.96C91.89 124.08 92.5134 123.017 93.54 121.77C93.9067 121.33 94.42 120.853 95.08 120.34C95.74 119.753 96.4 119.24 97.06 118.8C97.72 118.36 98.27 118.03 98.71 117.81C99.2234 117.59 99.5534 117.59 99.7 117.81Z" fill="white"/>
<path d="M158.133 154.352C157.365 154.352 157.024 154.096 157.109 153.584C157.344 152.667 157.536 151.739 157.685 150.8C157.856 149.84 157.941 148.923 157.941 148.048C157.941 146.917 157.866 146.096 157.717 145.584C157.589 145.051 157.408 144.688 157.173 144.496C156.938 144.283 156.65 144.123 156.309 144.016C156.16 143.952 156.021 143.867 155.893 143.76C155.786 143.653 155.733 143.504 155.733 143.312C155.733 143.013 155.85 142.683 156.085 142.32C156.32 141.957 156.65 141.648 157.077 141.392C157.525 141.115 158.026 140.976 158.581 140.976C159.306 140.976 159.808 141.232 160.085 141.744C160.362 142.235 160.501 142.885 160.501 143.696C160.501 144.229 160.448 144.827 160.341 145.488C160.234 146.149 160.128 146.747 160.021 147.28L160.085 147.312C160.426 146.181 160.842 145.136 161.333 144.176C161.845 143.216 162.453 142.437 163.157 141.84C163.882 141.243 164.714 140.944 165.653 140.944C166.613 140.944 167.37 141.275 167.925 141.936C168.48 142.576 168.757 143.525 168.757 144.784V145.488C169.376 144.187 170.122 143.099 170.997 142.224C171.893 141.349 172.97 140.912 174.229 140.912C175.253 140.912 176.053 141.253 176.629 141.936C177.205 142.619 177.493 143.472 177.493 144.496C177.493 144.901 177.45 145.296 177.365 145.68C177.28 146.043 177.184 146.405 177.077 146.768C176.992 147.109 176.906 147.461 176.821 147.824C176.736 148.187 176.693 148.549 176.693 148.912C176.693 150.192 177.237 151.024 178.325 151.408C178.474 151.472 178.592 151.547 178.677 151.632C178.762 151.696 178.805 151.824 178.805 152.016C178.805 152.208 178.741 152.485 178.613 152.848C178.506 153.211 178.282 153.552 177.941 153.872C177.6 154.171 177.109 154.32 176.469 154.32C175.637 154.32 174.997 154.021 174.549 153.424C174.101 152.805 173.877 152.027 173.877 151.088C173.877 150.619 173.92 150.128 174.005 149.616C174.09 149.104 174.197 148.613 174.325 148.144C174.432 147.717 174.517 147.312 174.581 146.928C174.666 146.544 174.709 146.213 174.709 145.936C174.709 145.424 174.581 145.051 174.325 144.816C174.09 144.581 173.77 144.464 173.365 144.464C172.682 144.464 172.064 144.677 171.509 145.104C170.976 145.531 170.496 146.085 170.069 146.768C169.664 147.451 169.312 148.197 169.013 149.008C169.034 149.2 169.045 149.456 169.045 149.776C169.066 150.075 169.077 150.341 169.077 150.576C169.077 150.981 169.045 151.408 168.981 151.856C168.938 152.304 168.842 152.677 168.693 152.976C168.522 153.381 168.266 153.712 167.925 153.968C167.605 154.224 167.168 154.352 166.613 154.352C166.378 154.352 166.154 154.299 165.941 154.192C165.728 154.107 165.621 153.957 165.621 153.744C165.621 153.659 165.685 153.285 165.813 152.624C165.941 151.941 166.069 151.109 166.197 150.128C166.325 149.147 166.389 148.187 166.389 147.248C166.389 146.224 166.282 145.52 166.069 145.136C165.856 144.731 165.536 144.528 165.109 144.528C164.576 144.528 164.064 144.752 163.573 145.2C163.104 145.648 162.666 146.224 162.261 146.928C161.877 147.632 161.536 148.368 161.237 149.136C160.96 149.904 160.736 150.619 160.565 151.28V151.632C160.565 152.421 160.341 153.072 159.893 153.584C159.466 154.096 158.88 154.352 158.133 154.352ZM210.441 154.416C209.374 154.416 208.542 154.107 207.945 153.488C207.369 152.869 207.081 151.973 207.081 150.8C207.081 149.968 207.198 149.115 207.433 148.24C207.54 147.877 207.625 147.515 207.689 147.152C207.753 146.789 207.785 146.427 207.785 146.064C207.785 145.125 207.497 144.517 206.921 144.24C206.366 143.941 206.089 143.621 206.089 143.28C206.089 142.939 206.228 142.597 206.505 142.256C206.804 141.915 207.166 141.637 207.593 141.424C208.02 141.189 208.446 141.072 208.873 141.072C210.089 141.072 210.697 142.064 210.697 144.048C210.697 144.688 210.644 145.285 210.537 145.84C210.452 146.373 210.345 146.885 210.217 147.376C210.132 147.717 210.057 148.059 209.993 148.4C209.95 148.741 209.929 149.04 209.929 149.296C209.929 150.363 210.452 150.896 211.497 150.896C212.478 150.896 213.396 150.373 214.249 149.328C215.102 148.283 215.806 146.821 216.361 144.944L216.329 144.336C216.286 143.269 216.468 142.459 216.873 141.904C217.3 141.349 217.918 141.072 218.729 141.072C219.433 141.072 219.785 141.296 219.785 141.744C219.785 141.893 219.753 142.085 219.689 142.32C219.646 142.555 219.572 142.832 219.465 143.152C219.252 143.941 219.07 144.784 218.921 145.68C218.772 146.555 218.697 147.365 218.697 148.112C218.697 148.944 218.825 149.637 219.081 150.192C219.337 150.725 219.817 151.088 220.521 151.28C220.713 151.301 220.862 151.365 220.969 151.472C221.097 151.557 221.161 151.749 221.161 152.048C221.161 152.56 220.948 153.061 220.521 153.552C220.094 154.043 219.476 154.288 218.665 154.288C217.108 154.288 216.329 153.189 216.329 150.992C216.329 150.608 216.361 150.032 216.425 149.264L216.361 149.232C215.017 152.688 213.044 154.416 210.441 154.416ZM255.036 154.416C254.247 154.416 253.564 154.277 252.988 154C252.434 153.723 251.943 153.371 251.516 152.944C251.303 153.307 251.047 153.637 250.748 153.936C250.471 154.213 250.151 154.352 249.788 154.352C249.554 154.352 249.33 154.277 249.116 154.128C248.903 154 248.818 153.819 248.86 153.584C249.18 151.877 249.447 150.149 249.66 148.4C249.895 146.651 250.012 144.869 250.012 143.056C250.012 141.541 249.959 140.123 249.852 138.8C249.746 137.477 249.415 136.261 248.86 135.152C248.754 134.939 248.658 134.736 248.572 134.544C248.508 134.352 248.476 134.171 248.476 134C248.476 133.595 248.711 133.2 249.18 132.816C249.65 132.432 250.151 132.24 250.684 132.24C251.452 132.24 251.975 132.709 252.252 133.648C252.53 134.587 252.668 135.973 252.668 137.808C252.668 139.365 252.594 140.795 252.444 142.096C252.316 143.376 252.167 144.475 251.996 145.392C252.594 144.133 253.404 143.077 254.428 142.224C255.474 141.349 256.647 140.912 257.948 140.912C259.25 140.912 260.263 141.349 260.988 142.224C261.735 143.077 262.108 144.24 262.108 145.712C262.108 146.8 261.938 147.867 261.596 148.912C261.255 149.936 260.775 150.864 260.156 151.696C259.538 152.528 258.791 153.189 257.916 153.68C257.063 154.171 256.103 154.416 255.036 154.416ZM255.772 150.96C256.988 150.96 257.927 150.576 258.588 149.808C259.25 149.04 259.58 148.155 259.58 147.152C259.58 146.277 259.335 145.605 258.844 145.136C258.375 144.645 257.746 144.4 256.956 144.4C256.167 144.4 255.463 144.645 254.844 145.136C254.226 145.605 253.703 146.235 253.276 147.024C252.85 147.792 252.519 148.624 252.284 149.52C252.775 149.989 253.319 150.352 253.916 150.608C254.535 150.843 255.154 150.96 255.772 150.96ZM295.196 154.416C293.575 154.416 292.306 153.957 291.388 153.04C290.492 152.101 290.044 150.8 290.044 149.136C290.044 147.621 290.375 146.245 291.036 145.008C291.698 143.771 292.583 142.789 293.692 142.064C294.823 141.317 296.06 140.944 297.404 140.944C298.684 140.944 299.708 141.264 300.476 141.904C301.244 142.523 301.628 143.355 301.628 144.4C301.628 145.232 301.372 146 300.86 146.704C300.348 147.408 299.666 147.973 298.812 148.4C297.959 148.805 297.01 149.008 295.964 149.008C294.684 149.008 293.639 148.72 292.828 148.144C292.85 149.125 293.18 149.915 293.82 150.512C294.482 151.109 295.324 151.408 296.348 151.408C296.967 151.408 297.596 151.301 298.236 151.088C298.898 150.853 299.463 150.544 299.932 150.16C300.231 149.904 300.508 149.776 300.764 149.776C300.978 149.776 301.148 149.851 301.276 150C301.426 150.128 301.5 150.299 301.5 150.512C301.5 150.981 301.095 151.6 300.284 152.368C298.855 153.733 297.159 154.416 295.196 154.416ZM295.676 146.896C296.444 146.896 297.084 146.736 297.596 146.416C298.108 146.096 298.364 145.691 298.364 145.2C298.364 144.795 298.194 144.485 297.852 144.272C297.511 144.037 297.042 143.92 296.444 143.92C295.655 143.92 294.962 144.133 294.364 144.56C293.788 144.965 293.372 145.541 293.116 146.288C293.415 146.48 293.799 146.629 294.268 146.736C294.738 146.843 295.207 146.896 295.676 146.896ZM334.577 154.416C332.956 154.416 331.687 153.957 330.769 153.04C329.873 152.101 329.425 150.8 329.425 149.136C329.425 147.621 329.756 146.245 330.417 145.008C331.079 143.771 331.964 142.789 333.073 142.064C334.204 141.317 335.441 140.944 336.785 140.944C338.065 140.944 339.089 141.264 339.857 141.904C340.625 142.523 341.009 143.355 341.009 144.4C341.009 145.232 340.753 146 340.241 146.704C339.729 147.408 339.047 147.973 338.193 148.4C337.34 148.805 336.391 149.008 335.345 149.008C334.065 149.008 333.02 148.72 332.209 148.144C332.231 149.125 332.561 149.915 333.201 150.512C333.863 151.109 334.705 151.408 335.729 151.408C336.348 151.408 336.977 151.301 337.617 151.088C338.279 150.853 338.844 150.544 339.313 150.16C339.612 149.904 339.889 149.776 340.145 149.776C340.359 149.776 340.529 149.851 340.657 150C340.807 150.128 340.881 150.299 340.881 150.512C340.881 150.981 340.476 151.6 339.665 152.368C338.236 153.733 336.54 154.416 334.577 154.416ZM335.057 146.896C335.825 146.896 336.465 146.736 336.977 146.416C337.489 146.096 337.745 145.691 337.745 145.2C337.745 144.795 337.575 144.485 337.233 144.272C336.892 144.037 336.423 143.92 335.825 143.92C335.036 143.92 334.343 144.133 333.745 144.56C333.169 144.965 332.753 145.541 332.497 146.288C332.796 146.48 333.18 146.629 333.649 146.736C334.119 146.843 334.588 146.896 335.057 146.896ZM371.178 154.32C370.559 154.32 370.1 154.149 369.802 153.808C369.503 153.467 369.354 152.869 369.354 152.016C369.354 151.611 369.386 151.088 369.45 150.448C369.514 149.808 369.588 149.115 369.674 148.368C369.802 147.451 369.908 146.491 369.994 145.488C370.1 144.485 370.154 143.525 370.154 142.608C370.154 141.307 370.09 139.963 369.962 138.576C369.855 137.168 369.535 135.941 369.002 134.896C368.81 134.469 368.714 134.16 368.714 133.968C368.714 133.691 368.831 133.424 369.066 133.168C369.322 132.912 369.631 132.699 369.994 132.528C370.356 132.336 370.708 132.24 371.05 132.24C371.604 132.24 372.02 132.496 372.298 133.008C372.575 133.499 372.756 134.181 372.842 135.056C372.927 135.909 372.97 136.891 372.97 138C372.97 139.685 372.895 141.147 372.746 142.384C372.618 143.621 372.49 144.709 372.362 145.648C372.276 146.267 372.191 146.853 372.106 147.408C372.042 147.963 372.01 148.464 372.01 148.912C372.01 149.659 372.127 150.203 372.362 150.544C372.618 150.864 373.023 151.184 373.578 151.504C373.727 151.589 373.834 151.675 373.898 151.76C373.983 151.824 374.026 151.931 374.026 152.08C374.026 152.251 373.94 152.517 373.77 152.88C373.599 153.243 373.3 153.573 372.874 153.872C372.468 154.171 371.903 154.32 371.178 154.32Z" fill="white"/>
</svg>
