<svg width="513" height="297" viewBox="0 0 513 297" fill="none" xmlns="http://www.w3.org/2000/svg">
<rect width="513" height="297" rx="20" fill="white"/>
<path d="M247.222 180.64C246.71 180.64 246.198 180.512 245.686 180.256C245.174 180.085 244.79 179.787 244.534 179.36L215.734 114.208H215.35L215.606 165.024C215.691 166.645 215.819 168.224 215.99 169.76C216.246 171.211 216.928 172.448 218.038 173.472C219.147 174.411 221.024 174.88 223.67 174.88C224.608 174.88 225.376 174.965 225.974 175.136C226.571 175.307 226.912 176.117 226.998 177.568C226.998 178.251 226.784 178.891 226.358 179.488C226.016 180.085 225.462 180.384 224.694 180.384C222.902 180.299 221.451 180.213 220.342 180.128C219.232 180.128 218.166 180.085 217.142 180C216.118 180 214.752 180 213.046 180C210.486 180 208.395 180 206.774 180C205.238 180.085 203.104 180.213 200.374 180.384C199.52 180.384 198.923 180.085 198.582 179.488C198.24 178.891 198.07 178.251 198.07 177.568C198.155 176.117 198.496 175.307 199.094 175.136C199.691 174.965 200.416 174.88 201.27 174.88C204 174.88 205.878 174.411 206.902 173.472C208.011 172.448 208.694 171.211 208.95 169.76C209.206 168.224 209.333 166.645 209.333 165.024L209.59 114.208C209.59 111.477 209.291 109.472 208.694 108.192C208.096 106.827 207.158 105.888 205.878 105.376C204.598 104.779 202.976 104.309 201.014 103.968C199.819 103.712 198.966 103.499 198.454 103.328C198.027 103.157 197.814 102.389 197.814 101.024C197.814 99.5733 198.326 98.8053 199.35 98.72C200.374 98.5493 201.568 98.464 202.934 98.464C207.115 98.464 210.784 98.8053 213.942 99.488C217.184 100.171 220 101.493 222.39 103.456C224.779 105.333 226.742 108.192 228.278 112.032L250.294 161.44H250.678L275.894 99.232H283.19C285.75 99.232 288.224 99.1893 290.614 99.104C293.088 99.0187 295.691 98.9333 298.422 98.848C299.275 98.848 299.872 99.1467 300.214 99.744C300.555 100.341 300.726 100.981 300.726 101.664C300.64 103.115 300.299 103.925 299.702 104.096C299.104 104.267 298.379 104.352 297.526 104.352C294.88 104.352 292.96 104.864 291.766 105.888C290.656 106.827 289.974 108.064 289.718 109.6C289.462 111.051 289.291 112.587 289.206 114.208V165.024C289.291 166.645 289.462 168.224 289.718 169.76C289.974 171.211 290.656 172.448 291.766 173.472C292.96 174.411 294.88 174.88 297.526 174.88C298.379 174.88 299.104 174.965 299.702 175.136C300.299 175.307 300.64 176.117 300.726 177.568C300.726 178.251 300.555 178.891 300.214 179.488C299.872 180.085 299.275 180.384 298.422 180.384C295.691 180.213 293.088 180.085 290.614 180C288.139 180 285.622 180 283.062 180C278.112 180 272.864 180.128 267.318 180.384C266.464 180.384 265.867 180.085 265.526 179.488C265.184 178.891 265.014 178.251 265.014 177.568C265.099 176.117 265.44 175.307 266.038 175.136C266.635 174.965 267.36 174.88 268.214 174.88C270.944 174.88 272.864 174.411 273.974 173.472C275.083 172.448 275.766 171.211 276.022 169.76C276.363 168.224 276.534 166.645 276.534 165.024V114.208H276.15L249.782 179.36C249.611 179.787 249.27 180.085 248.758 180.256C248.246 180.512 247.734 180.64 247.222 180.64ZM313.868 180.384C313.014 180.384 312.417 180.085 312.076 179.488C311.734 178.891 311.564 178.251 311.564 177.568C311.649 176.117 311.99 175.307 312.588 175.136C313.185 174.965 313.91 174.88 314.764 174.88C317.494 174.88 319.414 174.411 320.524 173.472C321.633 172.448 322.316 171.211 322.572 169.76C322.913 168.224 323.083 166.645 323.083 165.024V114.208C323.083 112.587 322.913 111.051 322.572 109.6C322.316 108.064 321.633 106.827 320.524 105.888C319.414 104.864 317.494 104.352 314.764 104.352C313.91 104.352 313.185 104.267 312.588 104.096C311.99 103.925 311.649 103.115 311.564 101.664C311.564 100.981 311.734 100.341 312.076 99.744C312.417 99.1467 313.014 98.848 313.868 98.848C316.598 98.9333 319.158 99.0187 321.548 99.104C323.937 99.1893 326.412 99.232 328.972 99.232H347.02C351.969 99.232 355.852 99.616 358.668 100.384C361.569 101.067 364.086 102.091 366.22 103.456C368.438 104.907 370.188 106.912 371.468 109.472C372.748 111.947 373.388 114.677 373.388 117.664C373.388 121.504 372.492 124.747 370.7 127.392C368.908 129.952 366.646 132 363.916 133.536C361.27 134.987 358.668 136.011 356.108 136.608V136.992C360.63 136.907 364.641 137.717 368.14 139.424C371.638 141.131 374.412 143.392 376.46 146.208C378.508 149.024 379.574 152.096 379.66 155.424C379.83 160.288 378.806 164.299 376.588 167.456C374.369 170.613 371.468 173.131 367.884 175.008C364.385 176.885 360.545 178.208 356.364 178.976C352.268 179.744 348.3 180.128 344.46 180.128L329.1 180C326.54 180 324.022 180 321.548 180C319.158 180.085 316.598 180.213 313.868 180.384ZM335.756 134.432H341.132C342.838 134.432 344.758 134.347 346.892 134.176C349.025 134.005 351.073 133.493 353.036 132.64C354.998 131.701 356.577 130.208 357.772 128.16C359.052 126.027 359.692 123.04 359.692 119.2C359.692 114.677 358.582 111.008 356.364 108.192C354.23 105.376 350.348 103.968 344.716 103.968H335.756V134.432ZM344.972 175.008C348.812 174.923 352.31 174.283 355.468 173.088C358.625 171.893 361.142 169.888 363.02 167.072C364.897 164.256 365.836 160.373 365.836 155.424C365.58 152.693 364.641 150.133 363.02 147.744C361.484 145.355 358.924 143.392 355.34 141.856C351.841 140.32 347.062 139.552 341.004 139.552H335.756V165.024C335.756 169.291 336.396 172.021 337.676 173.216C338.956 174.411 341.388 175.008 344.972 175.008ZM392.118 180.384C391.35 180.384 390.795 180.085 390.454 179.488C390.112 178.891 389.942 178.251 389.942 177.568C390.027 176.117 390.368 175.307 390.966 175.136C391.563 174.965 392.288 174.88 393.142 174.88C395.872 174.88 397.792 174.411 398.902 173.472C400.011 172.448 400.694 171.211 400.95 169.76C401.291 168.224 401.462 166.645 401.462 165.024V114.208C401.462 112.587 401.291 111.051 400.95 109.6C400.694 108.064 400.011 106.827 398.902 105.888C397.792 104.864 395.872 104.352 393.142 104.352C392.288 104.352 391.563 104.267 390.966 104.096C390.368 103.925 390.027 103.115 389.942 101.664C389.942 100.981 390.112 100.341 390.454 99.744C390.795 99.1467 391.35 98.848 392.118 98.848C394.934 98.9333 397.536 99.0187 399.926 99.104C402.315 99.1893 404.79 99.232 407.35 99.232C412.555 99.232 417.888 99.104 423.35 98.848C424.203 98.848 424.8 99.1467 425.142 99.744C425.483 100.341 425.654 100.981 425.654 101.664C425.568 103.115 425.227 103.925 424.63 104.096C424.032 104.267 423.307 104.352 422.454 104.352C419.808 104.352 417.888 104.864 416.694 105.888C415.584 106.827 414.902 108.064 414.646 109.6C414.39 111.051 414.219 112.587 414.134 114.208V166.944C414.219 168.053 414.39 169.248 414.646 170.528C414.902 171.808 415.627 172.875 416.822 173.728C418.102 174.581 420.192 174.965 423.094 174.88H434.614C437.6 174.795 439.862 174.325 441.398 173.472C443.019 172.533 444.299 170.997 445.238 168.864C446.176 166.731 447.2 163.787 448.31 160.032C448.651 159.179 449.206 158.624 449.974 158.368C450.827 158.112 451.723 158.069 452.662 158.24C453.344 158.325 454.027 158.624 454.71 159.136C455.478 159.648 455.819 160.331 455.734 161.184L453.174 177.312C452.918 178.507 452.491 179.275 451.894 179.616C451.382 179.872 450.571 180 449.462 180H407.478C404.918 180 402.4 180 399.926 180C397.536 180.085 394.934 180.213 392.118 180.384Z" fill="black"/>
<path d="M96.949 138.91C96.8024 140.157 96.399 141.367 95.739 142.54C95.079 143.64 94.309 144.703 93.429 145.73C92.549 146.683 91.5957 147.527 90.569 148.26C89.6157 148.993 88.699 149.543 87.819 149.91C85.2524 150.937 82.5024 151.853 79.569 152.66C76.709 153.393 73.8857 154.017 71.099 154.53C71.0257 154.53 70.769 154.567 70.329 154.64C69.889 154.64 69.5957 154.53 69.449 154.31C69.449 154.163 69.5957 153.943 69.889 153.65C70.1824 153.357 70.4024 153.21 70.549 153.21C71.5757 152.55 72.969 151.743 74.729 150.79C76.5624 149.837 78.139 149.14 79.459 148.7C79.899 148.627 80.9257 148.223 82.539 147.49C84.2257 146.683 85.9857 145.767 87.819 144.74C89.7257 143.64 91.4857 142.503 93.099 141.33C94.7857 140.157 95.849 139.093 96.289 138.14C96.4357 138.067 96.5457 137.993 96.619 137.92C96.6924 137.847 96.8024 137.81 96.949 137.81V138.91ZM96.509 134.84C95.3357 137.333 93.7224 139.313 91.669 140.78C89.6157 142.247 87.3057 143.493 84.739 144.52C82.2457 145.547 79.6057 146.463 76.819 147.27C74.1057 148.077 71.5024 149.067 69.009 150.24C65.929 151.707 62.9957 153.797 60.209 156.51C57.4957 159.15 55.6257 162.413 54.599 166.3C54.4524 166.373 54.3057 166.483 54.159 166.63C54.0857 166.777 53.9757 166.923 53.829 167.07C53.9024 164.43 54.379 162.047 55.259 159.92C56.139 157.72 57.239 155.777 58.559 154.09C59.9524 152.403 61.4924 150.973 63.179 149.8C64.8657 148.553 66.6257 147.527 68.459 146.72C71.0257 145.62 73.629 144.667 76.269 143.86C78.909 142.98 81.439 142.1 83.859 141.22C86.279 140.34 88.5524 139.35 90.679 138.25C92.8057 137.15 94.639 135.793 96.179 134.18C96.399 134.18 96.509 134.18 96.509 134.18C96.6557 134.18 96.6924 134.253 96.619 134.4C96.5457 134.547 96.509 134.693 96.509 134.84ZM98.599 176.53C98.599 176.677 98.5624 176.823 98.489 176.97C98.4157 177.043 98.3424 177.153 98.269 177.3L97.939 177.63C97.059 178.437 96.289 179.06 95.629 179.5C94.969 179.94 93.9057 180.27 92.439 180.49C91.8524 180.563 91.1924 180.6 90.459 180.6C89.7257 180.6 89.029 180.563 88.369 180.49C87.7824 180.343 87.269 180.197 86.829 180.05C86.389 179.83 86.2424 179.61 86.389 179.39C86.4624 179.243 86.829 179.133 87.489 179.06C88.2224 178.913 88.699 178.84 88.919 178.84C89.7257 178.693 90.459 178.583 91.119 178.51C91.8524 178.437 92.5124 178.327 93.099 178.18C94.0524 177.96 94.8957 177.74 95.629 177.52C96.3624 177.3 97.2057 176.97 98.159 176.53C98.4524 176.383 98.599 176.383 98.599 176.53ZM92.549 176.86C92.549 176.933 92.4024 176.97 92.109 176.97C91.8157 176.897 91.559 176.86 91.339 176.86C88.259 176.273 85.289 175.283 82.429 173.89C79.569 172.497 76.7457 170.92 73.959 169.16C73.739 169.013 73.2624 168.683 72.529 168.17C71.7957 167.583 70.8424 167.033 69.669 166.52C68.4957 165.933 67.1024 165.457 65.489 165.09C63.949 164.65 62.2624 164.467 60.429 164.54L61.199 163.77C63.7657 161.203 66.809 159.26 70.329 157.94C73.9224 156.547 77.5524 155.227 81.219 153.98C83.4924 153.173 85.7657 152.293 88.039 151.34C90.3857 150.387 92.5857 149.03 94.639 147.27C94.7857 146.977 94.9324 146.903 95.079 147.05C95.2257 147.197 95.2624 147.343 95.189 147.49C95.1157 147.563 95.0057 147.71 94.859 147.93C94.419 149.47 93.3557 150.9 91.669 152.22C90.0557 153.54 88.2224 154.713 86.169 155.74C84.189 156.767 82.1724 157.683 80.119 158.49C78.0657 159.297 76.4157 159.957 75.169 160.47C74.1424 160.91 73.0057 161.35 71.759 161.79C70.5857 162.23 69.3757 162.633 68.129 163C69.3757 163.293 70.6224 163.697 71.869 164.21C73.189 164.723 74.4357 165.31 75.609 165.97C76.8557 166.557 77.9924 167.143 79.019 167.73C80.0457 168.317 80.9257 168.793 81.659 169.16C83.419 170.113 85.179 171.25 86.939 172.57C88.7724 173.817 90.4224 174.953 91.889 175.98C92.4024 176.273 92.6224 176.567 92.549 176.86ZM62.959 158.05C63.1057 158.05 63.1057 158.197 62.959 158.49C62.8857 158.71 62.739 158.967 62.519 159.26C62.3724 159.48 62.189 159.737 61.969 160.03C61.749 160.25 61.639 160.397 61.639 160.47C61.1257 161.203 60.6124 161.863 60.099 162.45C59.5857 163.037 59.1457 163.623 58.779 164.21L58.339 164.98L55.809 165.86C55.8824 165.42 55.9924 164.907 56.139 164.32C56.359 163.733 56.7257 163.073 57.239 162.34C57.6057 161.827 58.0824 161.277 58.669 160.69C59.329 160.03 59.9524 159.48 60.539 159.04C61.1257 158.527 61.639 158.16 62.079 157.94C62.5924 157.72 62.8857 157.757 62.959 158.05ZM97.389 180.16C95.409 181.993 93.429 183.313 91.449 184.12C89.469 184.927 87.5624 185.403 85.729 185.55C83.8957 185.623 82.099 185.44 80.339 185C78.6524 184.487 77.039 183.827 75.499 183.02C73.3724 181.92 71.319 180.71 69.339 179.39C67.4324 178.07 65.5257 176.823 63.619 175.65C61.7124 174.477 59.8057 173.487 57.899 172.68C56.0657 171.873 54.159 171.47 52.179 171.47C51.5924 171.47 51.4457 171.36 51.739 171.14C52.0324 170.92 52.2157 170.81 52.289 170.81C54.6357 169.93 56.8724 169.747 58.999 170.26C61.199 170.773 63.3257 171.617 65.379 172.79C67.5057 173.89 69.559 175.173 71.539 176.64C73.5924 178.033 75.6824 179.28 77.809 180.38C79.129 181.04 80.559 181.627 82.099 182.14C83.639 182.58 85.2524 182.837 86.939 182.91C88.6257 182.91 90.3124 182.69 91.999 182.25C93.6857 181.81 95.3724 181.003 97.059 179.83C97.499 179.537 97.6824 179.5 97.609 179.72C97.5357 179.94 97.4624 180.087 97.389 180.16ZM80.449 177.19C80.3024 177.41 80.0457 177.52 79.679 177.52C79.3124 177.447 79.0924 177.337 79.019 177.19C77.919 177.043 76.5624 176.603 74.949 175.87C73.3357 175.137 72.0524 174.403 71.099 173.67C70.8057 173.45 69.9624 173.01 68.569 172.35C67.1757 171.69 65.599 171.067 63.839 170.48C62.1524 169.82 60.429 169.307 58.669 168.94C56.9824 168.5 55.699 168.427 54.819 168.72C54.5257 168.867 54.379 168.83 54.379 168.61C54.5257 168.463 54.6357 168.353 54.709 168.28C54.7824 168.207 54.8924 168.097 55.039 167.95C55.9924 167.217 57.019 166.703 58.119 166.41C59.2924 166.043 60.4657 165.86 61.639 165.86C62.8124 165.787 63.9124 165.86 64.939 166.08C66.039 166.3 66.9557 166.63 67.689 167.07C69.7424 168.243 71.7957 169.6 73.849 171.14C75.9757 172.68 77.8824 174.293 79.569 175.98C79.7157 176.053 79.9357 176.237 80.229 176.53C80.5224 176.823 80.5957 177.043 80.449 177.19ZM111.808 134.62C113.348 139.093 114.778 143.897 116.098 149.03C117.491 154.163 118.591 159.003 119.398 163.55C119.544 163.843 119.654 164.357 119.728 165.09C119.874 165.75 119.874 166.153 119.728 166.3C119.434 166.3 119.104 166.007 118.738 165.42C118.444 164.833 118.261 164.393 118.188 164.1C117.674 163.147 117.124 161.973 116.538 160.58C115.951 159.113 115.364 157.61 114.778 156.07C114.264 154.53 113.751 153.027 113.238 151.56C112.724 150.02 112.321 148.7 112.028 147.6C111.881 147.087 111.514 146.06 110.928 144.52C110.341 142.98 109.644 141.183 108.838 139.13C108.031 137.077 107.114 134.877 106.088 132.53C105.061 130.11 104.034 127.837 103.008 125.71C101.981 123.51 100.954 121.567 99.9276 119.88C98.9743 118.12 98.1309 116.873 97.3976 116.14C97.2509 115.993 97.1409 115.883 97.0676 115.81C96.9943 115.663 96.9209 115.517 96.8476 115.37C96.7743 115.223 96.7376 115.113 96.7376 115.04C96.8843 114.967 97.0309 115.003 97.1776 115.15C97.3976 115.223 97.5809 115.26 97.7276 115.26C99.1943 115.993 100.624 117.13 102.018 118.67C103.484 120.137 104.841 121.787 106.088 123.62C107.408 125.38 108.544 127.25 109.498 129.23C110.451 131.21 111.221 133.007 111.808 134.62ZM125.448 159.48C126.768 163.44 128.088 167.51 129.408 171.69C130.801 175.87 132.084 179.5 133.258 182.58C133.331 183.167 133.404 183.643 133.478 184.01C133.551 184.303 133.514 184.45 133.368 184.45C133.294 184.597 133.111 184.487 132.818 184.12C132.598 183.753 132.378 183.387 132.158 183.02C130.398 180.38 128.821 177.63 127.428 174.77C126.108 171.91 124.861 168.977 123.688 165.97C122.588 162.963 121.524 159.847 120.498 156.62C119.544 153.393 118.554 150.13 117.528 146.83C116.281 142.87 114.924 138.837 113.458 134.73C111.991 130.623 110.048 126.48 107.628 122.3C107.408 122.08 107.298 121.97 107.298 121.97C107.298 121.897 107.371 121.823 107.518 121.75C107.591 121.603 107.664 121.603 107.738 121.75C107.811 121.897 107.958 122.043 108.178 122.19C110.011 123.583 111.808 125.93 113.568 129.23C115.328 132.457 116.978 135.977 118.518 139.79C120.058 143.603 121.414 147.343 122.588 151.01C123.834 154.603 124.788 157.427 125.448 159.48ZM137.658 194.46C137.951 194.607 138.171 194.79 138.318 195.01C138.464 195.157 138.464 195.23 138.318 195.23C138.244 195.45 138.061 195.45 137.768 195.23C134.541 194.423 131.534 193.03 128.748 191.05C126.034 189.07 123.578 186.723 121.378 184.01C119.178 181.223 117.198 178.18 115.438 174.88C113.751 171.58 112.321 168.207 111.148 164.76C109.608 160.14 108.141 155.557 106.748 151.01C105.428 146.39 104.034 141.917 102.568 137.59C101.174 133.19 99.6709 129.047 98.0576 125.16C96.5176 121.273 94.7209 117.753 92.6676 114.6C92.6676 114.233 92.6676 114.05 92.6676 114.05C92.6676 113.903 92.6676 113.867 92.6676 113.94C92.7409 114.013 92.8509 114.087 92.9976 114.16C93.1443 114.307 93.2909 114.417 93.4376 114.49C96.3709 117.35 98.8276 120.76 100.808 124.72C102.861 128.607 104.658 132.823 106.198 137.37C107.738 141.843 109.168 146.5 110.488 151.34C111.881 156.107 113.384 160.763 114.998 165.31C116.024 168.243 117.308 171.177 118.848 174.11C120.461 177.043 122.221 179.793 124.128 182.36C126.108 184.927 128.234 187.273 130.508 189.4C132.781 191.527 135.164 193.213 137.658 194.46ZM133.368 187.09C134.541 188.117 135.678 189.07 136.778 189.95C137.878 190.757 139.051 191.527 140.298 192.26C140.444 192.407 140.591 192.59 140.738 192.81C140.958 193.03 141.031 193.14 140.958 193.14C140.811 193.287 140.628 193.36 140.408 193.36C140.261 193.36 140.114 193.36 139.968 193.36C139.748 193.36 139.601 193.323 139.528 193.25C138.794 193.03 138.134 192.847 137.548 192.7C136.961 192.553 136.374 192.333 135.788 192.04C135.201 191.673 134.578 191.27 133.918 190.83C133.258 190.317 132.488 189.62 131.608 188.74C130.948 188.08 130.178 187.163 129.298 185.99C128.491 184.817 127.721 183.68 126.988 182.58C126.254 181.407 125.668 180.417 125.228 179.61C124.861 178.73 124.788 178.217 125.008 178.07C125.081 177.997 125.264 178.107 125.558 178.4C125.924 178.62 126.291 178.95 126.658 179.39C127.024 179.757 127.354 180.16 127.648 180.6C128.014 180.967 128.271 181.223 128.418 181.37C129.224 182.543 130.031 183.57 130.838 184.45C131.644 185.33 132.488 186.21 133.368 187.09ZM181.27 161.24C181.197 161.387 181.013 161.423 180.72 161.35C180.427 161.277 180.17 161.167 179.95 161.02C176.503 159.773 173.313 158.013 170.38 155.74C167.447 153.467 164.55 151.01 161.69 148.37C160.003 146.757 158.17 145.18 156.19 143.64C154.283 142.1 152.047 140.817 149.48 139.79C149.333 139.79 149.26 139.753 149.26 139.68C149.333 139.46 149.517 139.313 149.81 139.24C151.423 138.947 153.22 139.24 155.2 140.12C157.18 140.927 159.087 141.953 160.92 143.2C162.827 144.447 164.623 145.767 166.31 147.16C167.997 148.553 169.39 149.653 170.49 150.46C172.323 151.927 174.157 153.577 175.99 155.41C177.897 157.17 179.473 158.747 180.72 160.14C180.867 160.36 181.013 160.58 181.16 160.8C181.38 160.947 181.417 161.093 181.27 161.24ZM185.67 165.97C185.377 167.217 184.827 168.39 184.02 169.49C183.287 170.59 182.443 171.617 181.49 172.57C180.537 173.45 179.51 174.22 178.41 174.88C177.31 175.467 176.283 175.87 175.33 176.09C172.763 177.043 169.94 177.813 166.86 178.4C163.78 178.913 160.92 179.17 158.28 179.17C157.913 179.243 157.547 179.28 157.18 179.28C156.887 179.28 156.703 179.243 156.63 179.17C156.483 178.877 156.557 178.62 156.85 178.4C157.217 178.18 157.473 178.07 157.62 178.07C158.133 177.777 158.793 177.447 159.6 177.08C160.407 176.713 161.25 176.347 162.13 175.98C163.01 175.613 163.89 175.283 164.77 174.99C165.65 174.697 166.383 174.477 166.97 174.33C167.483 174.183 168.583 173.817 170.27 173.23C172.03 172.57 173.9 171.837 175.88 171.03C177.933 170.223 179.84 169.343 181.6 168.39C183.36 167.363 184.533 166.373 185.12 165.42C185.34 165.053 185.523 164.907 185.67 164.98C185.817 165.053 185.817 165.383 185.67 165.97ZM167.74 158.38C167.593 158.527 167.337 158.563 166.97 158.49C166.677 158.343 166.493 158.197 166.42 158.05C165.247 157.463 163.817 156.62 162.13 155.52C160.443 154.42 159.16 153.393 158.28 152.44C157.913 152.147 156.96 151.487 155.42 150.46C153.953 149.36 152.303 148.26 150.47 147.16C148.637 145.987 146.803 144.96 144.97 144.08C143.21 143.127 141.853 142.65 140.9 142.65C140.753 142.797 140.57 142.833 140.35 142.76C140.203 142.613 140.13 142.467 140.13 142.32L141.12 141.88C142.22 141.367 143.43 141.11 144.75 141.11C146.07 141.11 147.353 141.293 148.6 141.66C149.92 141.953 151.13 142.393 152.23 142.98C153.403 143.493 154.357 144.08 155.09 144.74C157.07 146.427 159.123 148.37 161.25 150.57C163.45 152.697 165.43 154.823 167.19 156.95C167.337 157.097 167.483 157.353 167.63 157.72C167.85 158.013 167.887 158.233 167.74 158.38ZM185.56 161.9C184.167 164.32 182.333 166.19 180.06 167.51C177.86 168.757 175.44 169.783 172.8 170.59C170.16 171.323 167.41 171.983 164.55 172.57C161.69 173.157 158.94 173.89 156.3 174.77C154.687 175.283 153.073 176.017 151.46 176.97C149.847 177.85 148.307 178.95 146.84 180.27C145.373 181.517 144.053 182.947 142.88 184.56C141.707 186.173 140.79 187.97 140.13 189.95C139.983 190.39 139.91 190.61 139.91 190.61C139.763 190.61 139.69 190.537 139.69 190.39C139.69 190.243 139.69 190.097 139.69 189.95C140.057 187.237 140.753 184.853 141.78 182.8C142.807 180.747 144.053 178.987 145.52 177.52C146.987 175.98 148.637 174.697 150.47 173.67C152.377 172.643 154.32 171.8 156.3 171.14C158.573 170.333 160.883 169.71 163.23 169.27C165.577 168.757 167.887 168.207 170.16 167.62C168.547 167.18 167.08 166.557 165.76 165.75C164.44 164.943 163.083 164.027 161.69 163C159.49 161.313 157.363 159.553 155.31 157.72C153.33 155.887 151.35 154.127 149.37 152.44C147.463 150.753 145.52 149.25 143.54 147.93C141.633 146.537 139.617 145.473 137.49 144.74H137.27C137.123 144.74 137.087 144.703 137.16 144.63C137.087 144.483 137.16 144.41 137.38 144.41C137.6 144.337 137.783 144.3 137.93 144.3C140.57 144.08 143.027 144.52 145.3 145.62C147.573 146.647 149.737 148.003 151.79 149.69C153.917 151.377 156.007 153.21 158.06 155.19C160.113 157.17 162.24 159.003 164.44 160.69C165.54 161.497 166.677 162.303 167.85 163.11C169.097 163.843 170.343 164.467 171.59 164.98C172.837 165.42 174.12 165.677 175.44 165.75C176.833 165.823 178.19 165.567 179.51 164.98C178.85 164.907 178.153 164.76 177.42 164.54C176.76 164.32 176.137 164.1 175.55 163.88C174.963 163.587 174.487 163.293 174.12 163C173.827 162.707 173.753 162.45 173.9 162.23C174.047 162.01 174.56 161.973 175.44 162.12C176.393 162.193 177.053 162.23 177.42 162.23C178.74 162.45 180.023 162.597 181.27 162.67C182.59 162.67 183.763 162.377 184.79 161.79C184.937 161.643 185.193 161.497 185.56 161.35C185.927 161.203 185.927 161.387 185.56 161.9ZM182.92 174.11C182.92 174.183 182.883 174.257 182.81 174.33C182.81 174.403 182.81 174.477 182.81 174.55C182.737 174.697 182.7 174.807 182.7 174.88C182.04 176.493 180.793 177.887 178.96 179.06C177.127 180.16 175.11 181.113 172.91 181.92C170.783 182.727 168.657 183.423 166.53 184.01C164.477 184.523 162.827 185 161.58 185.44C159.307 186.247 156.887 186.907 154.32 187.42C151.753 187.86 149.517 188.3 147.61 188.74C146.877 188.74 146.4 188.703 146.18 188.63C146.18 188.41 146.29 188.227 146.51 188.08C146.803 187.86 147.06 187.677 147.28 187.53C150.36 185.403 153.66 183.827 157.18 182.8C160.773 181.7 164.44 180.673 168.18 179.72C170.527 179.133 172.91 178.473 175.33 177.74C177.75 176.933 180.133 175.723 182.48 174.11C182.773 174.037 182.92 174.037 182.92 174.11ZM149.7 181.81C149.773 181.957 149.737 182.177 149.59 182.47C149.443 182.763 149.26 183.057 149.04 183.35C148.82 183.57 148.6 183.79 148.38 184.01C148.16 184.23 148.05 184.377 148.05 184.45C147.317 185.037 146.693 185.623 146.18 186.21C145.667 186.723 145.153 187.273 144.64 187.86C144.127 188.667 143.65 189.473 143.21 190.28C142.77 191.013 142.293 191.673 141.78 192.26C141.78 192.407 141.707 192.517 141.56 192.59C141.413 192.663 141.413 192.627 141.56 192.48C141.413 192.333 141.34 192.077 141.34 191.71V191.38C141.34 190.573 141.45 189.767 141.67 188.96C141.89 188.08 142.513 187.017 143.54 185.77C143.907 185.33 144.42 184.853 145.08 184.34C145.74 183.753 146.4 183.24 147.06 182.8C147.72 182.36 148.27 182.03 148.71 181.81C149.223 181.59 149.553 181.59 149.7 181.81Z" fill="black"/>
<path d="M199.133 218.352C198.365 218.352 198.024 218.096 198.109 217.584C198.344 216.667 198.536 215.739 198.685 214.8C198.856 213.84 198.941 212.923 198.941 212.048C198.941 210.917 198.866 210.096 198.717 209.584C198.589 209.051 198.408 208.688 198.173 208.496C197.938 208.283 197.65 208.123 197.309 208.016C197.16 207.952 197.021 207.867 196.893 207.76C196.786 207.653 196.733 207.504 196.733 207.312C196.733 207.013 196.85 206.683 197.085 206.32C197.32 205.957 197.65 205.648 198.077 205.392C198.525 205.115 199.026 204.976 199.581 204.976C200.306 204.976 200.808 205.232 201.085 205.744C201.362 206.235 201.501 206.885 201.501 207.696C201.501 208.229 201.448 208.827 201.341 209.488C201.234 210.149 201.128 210.747 201.021 211.28L201.085 211.312C201.426 210.181 201.842 209.136 202.333 208.176C202.845 207.216 203.453 206.437 204.157 205.84C204.882 205.243 205.714 204.944 206.653 204.944C207.613 204.944 208.37 205.275 208.925 205.936C209.48 206.576 209.757 207.525 209.757 208.784V209.488C210.376 208.187 211.122 207.099 211.997 206.224C212.893 205.349 213.97 204.912 215.229 204.912C216.253 204.912 217.053 205.253 217.629 205.936C218.205 206.619 218.493 207.472 218.493 208.496C218.493 208.901 218.45 209.296 218.365 209.68C218.28 210.043 218.184 210.405 218.077 210.768C217.992 211.109 217.906 211.461 217.821 211.824C217.736 212.187 217.693 212.549 217.693 212.912C217.693 214.192 218.237 215.024 219.325 215.408C219.474 215.472 219.592 215.547 219.677 215.632C219.762 215.696 219.805 215.824 219.805 216.016C219.805 216.208 219.741 216.485 219.613 216.848C219.506 217.211 219.282 217.552 218.941 217.872C218.6 218.171 218.109 218.32 217.469 218.32C216.637 218.32 215.997 218.021 215.549 217.424C215.101 216.805 214.877 216.027 214.877 215.088C214.877 214.619 214.92 214.128 215.005 213.616C215.09 213.104 215.197 212.613 215.325 212.144C215.432 211.717 215.517 211.312 215.581 210.928C215.666 210.544 215.709 210.213 215.709 209.936C215.709 209.424 215.581 209.051 215.325 208.816C215.09 208.581 214.77 208.464 214.365 208.464C213.682 208.464 213.064 208.677 212.509 209.104C211.976 209.531 211.496 210.085 211.069 210.768C210.664 211.451 210.312 212.197 210.013 213.008C210.034 213.2 210.045 213.456 210.045 213.776C210.066 214.075 210.077 214.341 210.077 214.576C210.077 214.981 210.045 215.408 209.981 215.856C209.938 216.304 209.842 216.677 209.693 216.976C209.522 217.381 209.266 217.712 208.925 217.968C208.605 218.224 208.168 218.352 207.613 218.352C207.378 218.352 207.154 218.299 206.941 218.192C206.728 218.107 206.621 217.957 206.621 217.744C206.621 217.659 206.685 217.285 206.813 216.624C206.941 215.941 207.069 215.109 207.197 214.128C207.325 213.147 207.389 212.187 207.389 211.248C207.389 210.224 207.282 209.52 207.069 209.136C206.856 208.731 206.536 208.528 206.109 208.528C205.576 208.528 205.064 208.752 204.573 209.2C204.104 209.648 203.666 210.224 203.261 210.928C202.877 211.632 202.536 212.368 202.237 213.136C201.96 213.904 201.736 214.619 201.565 215.28V215.632C201.565 216.421 201.341 217.072 200.893 217.584C200.466 218.096 199.88 218.352 199.133 218.352ZM251.441 218.416C250.374 218.416 249.542 218.107 248.945 217.488C248.369 216.869 248.081 215.973 248.081 214.8C248.081 213.968 248.198 213.115 248.433 212.24C248.54 211.877 248.625 211.515 248.689 211.152C248.753 210.789 248.785 210.427 248.785 210.064C248.785 209.125 248.497 208.517 247.921 208.24C247.366 207.941 247.089 207.621 247.089 207.28C247.089 206.939 247.228 206.597 247.505 206.256C247.804 205.915 248.166 205.637 248.593 205.424C249.02 205.189 249.446 205.072 249.873 205.072C251.089 205.072 251.697 206.064 251.697 208.048C251.697 208.688 251.644 209.285 251.537 209.84C251.452 210.373 251.345 210.885 251.217 211.376C251.132 211.717 251.057 212.059 250.993 212.4C250.95 212.741 250.929 213.04 250.929 213.296C250.929 214.363 251.452 214.896 252.497 214.896C253.478 214.896 254.396 214.373 255.249 213.328C256.102 212.283 256.806 210.821 257.361 208.944L257.329 208.336C257.286 207.269 257.468 206.459 257.873 205.904C258.3 205.349 258.918 205.072 259.729 205.072C260.433 205.072 260.785 205.296 260.785 205.744C260.785 205.893 260.753 206.085 260.689 206.32C260.646 206.555 260.572 206.832 260.465 207.152C260.252 207.941 260.07 208.784 259.921 209.68C259.772 210.555 259.697 211.365 259.697 212.112C259.697 212.944 259.825 213.637 260.081 214.192C260.337 214.725 260.817 215.088 261.521 215.28C261.713 215.301 261.862 215.365 261.969 215.472C262.097 215.557 262.161 215.749 262.161 216.048C262.161 216.56 261.948 217.061 261.521 217.552C261.094 218.043 260.476 218.288 259.665 218.288C258.108 218.288 257.329 217.189 257.329 214.992C257.329 214.608 257.361 214.032 257.425 213.264L257.361 213.232C256.017 216.688 254.044 218.416 251.441 218.416ZM296.036 218.416C295.247 218.416 294.564 218.277 293.988 218C293.434 217.723 292.943 217.371 292.516 216.944C292.303 217.307 292.047 217.637 291.748 217.936C291.471 218.213 291.151 218.352 290.788 218.352C290.554 218.352 290.33 218.277 290.116 218.128C289.903 218 289.818 217.819 289.86 217.584C290.18 215.877 290.447 214.149 290.66 212.4C290.895 210.651 291.012 208.869 291.012 207.056C291.012 205.541 290.959 204.123 290.852 202.8C290.746 201.477 290.415 200.261 289.86 199.152C289.754 198.939 289.658 198.736 289.572 198.544C289.508 198.352 289.476 198.171 289.476 198C289.476 197.595 289.711 197.2 290.18 196.816C290.65 196.432 291.151 196.24 291.684 196.24C292.452 196.24 292.975 196.709 293.252 197.648C293.53 198.587 293.668 199.973 293.668 201.808C293.668 203.365 293.594 204.795 293.444 206.096C293.316 207.376 293.167 208.475 292.996 209.392C293.594 208.133 294.404 207.077 295.428 206.224C296.474 205.349 297.647 204.912 298.948 204.912C300.25 204.912 301.263 205.349 301.988 206.224C302.735 207.077 303.108 208.24 303.108 209.712C303.108 210.8 302.938 211.867 302.596 212.912C302.255 213.936 301.775 214.864 301.156 215.696C300.538 216.528 299.791 217.189 298.916 217.68C298.063 218.171 297.103 218.416 296.036 218.416ZM296.772 214.96C297.988 214.96 298.927 214.576 299.588 213.808C300.25 213.04 300.58 212.155 300.58 211.152C300.58 210.277 300.335 209.605 299.844 209.136C299.375 208.645 298.746 208.4 297.956 208.4C297.167 208.4 296.463 208.645 295.844 209.136C295.226 209.605 294.703 210.235 294.276 211.024C293.85 211.792 293.519 212.624 293.284 213.52C293.775 213.989 294.319 214.352 294.916 214.608C295.535 214.843 296.154 214.96 296.772 214.96ZM336.196 218.416C334.575 218.416 333.306 217.957 332.388 217.04C331.492 216.101 331.044 214.8 331.044 213.136C331.044 211.621 331.375 210.245 332.036 209.008C332.698 207.771 333.583 206.789 334.692 206.064C335.823 205.317 337.06 204.944 338.404 204.944C339.684 204.944 340.708 205.264 341.476 205.904C342.244 206.523 342.628 207.355 342.628 208.4C342.628 209.232 342.372 210 341.86 210.704C341.348 211.408 340.666 211.973 339.812 212.4C338.959 212.805 338.01 213.008 336.964 213.008C335.684 213.008 334.639 212.72 333.828 212.144C333.85 213.125 334.18 213.915 334.82 214.512C335.482 215.109 336.324 215.408 337.348 215.408C337.967 215.408 338.596 215.301 339.236 215.088C339.898 214.853 340.463 214.544 340.932 214.16C341.231 213.904 341.508 213.776 341.764 213.776C341.978 213.776 342.148 213.851 342.276 214C342.426 214.128 342.5 214.299 342.5 214.512C342.5 214.981 342.095 215.6 341.284 216.368C339.855 217.733 338.159 218.416 336.196 218.416ZM336.676 210.896C337.444 210.896 338.084 210.736 338.596 210.416C339.108 210.096 339.364 209.691 339.364 209.2C339.364 208.795 339.194 208.485 338.852 208.272C338.511 208.037 338.042 207.92 337.444 207.92C336.655 207.92 335.962 208.133 335.364 208.56C334.788 208.965 334.372 209.541 334.116 210.288C334.415 210.48 334.799 210.629 335.268 210.736C335.738 210.843 336.207 210.896 336.676 210.896ZM375.577 218.416C373.956 218.416 372.687 217.957 371.769 217.04C370.873 216.101 370.425 214.8 370.425 213.136C370.425 211.621 370.756 210.245 371.417 209.008C372.079 207.771 372.964 206.789 374.073 206.064C375.204 205.317 376.441 204.944 377.785 204.944C379.065 204.944 380.089 205.264 380.857 205.904C381.625 206.523 382.009 207.355 382.009 208.4C382.009 209.232 381.753 210 381.241 210.704C380.729 211.408 380.047 211.973 379.193 212.4C378.34 212.805 377.391 213.008 376.345 213.008C375.065 213.008 374.02 212.72 373.209 212.144C373.231 213.125 373.561 213.915 374.201 214.512C374.863 215.109 375.705 215.408 376.729 215.408C377.348 215.408 377.977 215.301 378.617 215.088C379.279 214.853 379.844 214.544 380.313 214.16C380.612 213.904 380.889 213.776 381.145 213.776C381.359 213.776 381.529 213.851 381.657 214C381.807 214.128 381.881 214.299 381.881 214.512C381.881 214.981 381.476 215.6 380.665 216.368C379.236 217.733 377.54 218.416 375.577 218.416ZM376.057 210.896C376.825 210.896 377.465 210.736 377.977 210.416C378.489 210.096 378.745 209.691 378.745 209.2C378.745 208.795 378.575 208.485 378.233 208.272C377.892 208.037 377.423 207.92 376.825 207.92C376.036 207.92 375.343 208.133 374.745 208.56C374.169 208.965 373.753 209.541 373.497 210.288C373.796 210.48 374.18 210.629 374.649 210.736C375.119 210.843 375.588 210.896 376.057 210.896ZM412.178 218.32C411.559 218.32 411.1 218.149 410.802 217.808C410.503 217.467 410.354 216.869 410.354 216.016C410.354 215.611 410.386 215.088 410.45 214.448C410.514 213.808 410.588 213.115 410.674 212.368C410.802 211.451 410.908 210.491 410.994 209.488C411.1 208.485 411.154 207.525 411.154 206.608C411.154 205.307 411.09 203.963 410.962 202.576C410.855 201.168 410.535 199.941 410.002 198.896C409.81 198.469 409.714 198.16 409.714 197.968C409.714 197.691 409.831 197.424 410.066 197.168C410.322 196.912 410.631 196.699 410.994 196.528C411.356 196.336 411.708 196.24 412.05 196.24C412.604 196.24 413.02 196.496 413.298 197.008C413.575 197.499 413.756 198.181 413.842 199.056C413.927 199.909 413.97 200.891 413.97 202C413.97 203.685 413.895 205.147 413.746 206.384C413.618 207.621 413.49 208.709 413.362 209.648C413.276 210.267 413.191 210.853 413.106 211.408C413.042 211.963 413.01 212.464 413.01 212.912C413.01 213.659 413.127 214.203 413.362 214.544C413.618 214.864 414.023 215.184 414.578 215.504C414.727 215.589 414.834 215.675 414.898 215.76C414.983 215.824 415.026 215.931 415.026 216.08C415.026 216.251 414.94 216.517 414.77 216.88C414.599 217.243 414.3 217.573 413.874 217.872C413.468 218.171 412.903 218.32 412.178 218.32Z" fill="black"/>
</svg>
