<svg width="2098" height="1218" viewBox="0 0 2098 1218" fill="none" xmlns="http://www.w3.org/2000/svg">
<rect width="2098" height="1218" rx="100" fill="#81E4C4"/>
<path d="M853.082 381C851.749 392.333 848.082 403.333 842.082 414C836.082 424 829.082 433.667 821.082 443C813.082 451.667 804.415 459.333 795.082 466C786.415 472.667 778.082 477.667 770.082 481C746.749 490.333 721.749 498.667 695.082 506C669.082 512.667 643.415 518.333 618.082 523C617.415 523 615.082 523.333 611.082 524C607.082 524 604.415 523 603.082 521C603.082 519.667 604.415 517.667 607.082 515C609.749 512.333 611.749 511 613.082 511C622.415 505 635.082 497.667 651.082 489C667.749 480.333 682.082 474 694.082 470C698.082 469.333 707.415 465.667 722.082 459C737.415 451.667 753.415 443.333 770.082 434C787.415 424 803.415 413.667 818.082 403C833.415 392.333 843.082 382.667 847.082 374C848.415 373.333 849.415 372.667 850.082 372C850.749 371.333 851.749 371 853.082 371V381ZM849.082 344C838.415 366.667 823.749 384.667 805.082 398C786.415 411.333 765.415 422.667 742.082 432C719.415 441.333 695.415 449.667 670.082 457C645.415 464.333 621.749 473.333 599.082 484C571.082 497.333 544.415 516.333 519.082 541C494.415 565 477.415 594.667 468.082 630C466.749 630.667 465.415 631.667 464.082 633C463.415 634.333 462.415 635.667 461.082 637C461.749 613 466.082 591.333 474.082 572C482.082 552 492.082 534.333 504.082 519C516.749 503.667 530.749 490.667 546.082 480C561.415 468.667 577.415 459.333 594.082 452C617.415 442 641.082 433.333 665.082 426C689.082 418 712.082 410 734.082 402C756.082 394 776.749 385 796.082 375C815.415 365 832.082 352.667 846.082 338C848.082 338 849.082 338 849.082 338C850.415 338 850.749 338.667 850.082 340C849.415 341.333 849.082 342.667 849.082 344ZM868.082 723C868.082 724.333 867.749 725.667 867.082 727C866.415 727.667 865.749 728.667 865.082 730L862.082 733C854.082 740.333 847.082 746 841.082 750C835.082 754 825.415 757 812.082 759C806.749 759.667 800.749 760 794.082 760C787.415 760 781.082 759.667 775.082 759C769.749 757.667 765.082 756.333 761.082 755C757.082 753 755.749 751 757.082 749C757.749 747.667 761.082 746.667 767.082 746C773.749 744.667 778.082 744 780.082 744C787.415 742.667 794.082 741.667 800.082 741C806.749 740.333 812.749 739.333 818.082 738C826.749 736 834.415 734 841.082 732C847.749 730 855.415 727 864.082 723C866.749 721.667 868.082 721.667 868.082 723ZM813.082 726C813.082 726.667 811.749 727 809.082 727C806.415 726.333 804.082 726 802.082 726C774.082 720.667 747.082 711.667 721.082 699C695.082 686.333 669.415 672 644.082 656C642.082 654.667 637.749 651.667 631.082 647C624.415 641.667 615.749 636.667 605.082 632C594.415 626.667 581.749 622.333 567.082 619C553.082 615 537.749 613.333 521.082 614L528.082 607C551.415 583.667 579.082 566 611.082 554C643.749 541.333 676.749 529.333 710.082 518C730.749 510.667 751.415 502.667 772.082 494C793.415 485.333 813.415 473 832.082 457C833.415 454.333 834.749 453.667 836.082 455C837.415 456.333 837.749 457.667 837.082 459C836.415 459.667 835.415 461 834.082 463C830.082 477 820.415 490 805.082 502C790.415 514 773.749 524.667 755.082 534C737.082 543.333 718.749 551.667 700.082 559C681.415 566.333 666.415 572.333 655.082 577C645.749 581 635.415 585 624.082 589C613.415 593 602.415 596.667 591.082 600C602.415 602.667 613.749 606.333 625.082 611C637.082 615.667 648.415 621 659.082 627C670.415 632.333 680.749 637.667 690.082 643C699.415 648.333 707.415 652.667 714.082 656C730.082 664.667 746.082 675 762.082 687C778.749 698.333 793.749 708.667 807.082 718C811.749 720.667 813.749 723.333 813.082 726ZM544.082 555C545.415 555 545.415 556.333 544.082 559C543.415 561 542.082 563.333 540.082 566C538.749 568 537.082 570.333 535.082 573C533.082 575 532.082 576.333 532.082 577C527.415 583.667 522.749 589.667 518.082 595C513.415 600.333 509.415 605.667 506.082 611L502.082 618L479.082 626C479.749 622 480.749 617.333 482.082 612C484.082 606.667 487.415 600.667 492.082 594C495.415 589.333 499.749 584.333 505.082 579C511.082 573 516.749 568 522.082 564C527.415 559.333 532.082 556 536.082 554C540.749 552 543.415 552.333 544.082 555ZM857.082 756C839.082 772.667 821.082 784.667 803.082 792C785.082 799.333 767.749 803.667 751.082 805C734.415 805.667 718.082 804 702.082 800C686.749 795.333 672.082 789.333 658.082 782C638.749 772 620.082 761 602.082 749C584.749 737 567.415 725.667 550.082 715C532.749 704.333 515.415 695.333 498.082 688C481.415 680.667 464.082 677 446.082 677C440.749 677 439.415 676 442.082 674C444.749 672 446.415 671 447.082 671C468.415 663 488.749 661.333 508.082 666C528.082 670.667 547.415 678.333 566.082 689C585.415 699 604.082 710.667 622.082 724C640.749 736.667 659.749 748 679.082 758C691.082 764 704.082 769.333 718.082 774C732.082 778 746.749 780.333 762.082 781C777.415 781 792.749 779 808.082 775C823.415 771 838.749 763.667 854.082 753C858.082 750.333 859.749 750 859.082 752C858.415 754 857.749 755.333 857.082 756ZM703.082 729C701.749 731 699.415 732 696.082 732C692.749 731.333 690.749 730.333 690.082 729C680.082 727.667 667.749 723.667 653.082 717C638.415 710.333 626.749 703.667 618.082 697C615.415 695 607.749 691 595.082 685C582.415 679 568.082 673.333 552.082 668C536.749 662 521.082 657.333 505.082 654C489.749 650 478.082 649.333 470.082 652C467.415 653.333 466.082 653 466.082 651C467.415 649.667 468.415 648.667 469.082 648C469.749 647.333 470.749 646.333 472.082 645C480.749 638.333 490.082 633.667 500.082 631C510.749 627.667 521.415 626 532.082 626C542.749 625.333 552.749 626 562.082 628C572.082 630 580.415 633 587.082 637C605.749 647.667 624.415 660 643.082 674C662.415 688 679.749 702.667 695.082 718C696.415 718.667 698.415 720.333 701.082 723C703.749 725.667 704.415 727.667 703.082 729ZM988.16 342C1002.16 382.667 1015.16 426.333 1027.16 473C1039.83 519.667 1049.83 563.667 1057.16 605C1058.49 607.667 1059.49 612.333 1060.16 619C1061.49 625 1061.49 628.667 1060.16 630C1057.49 630 1054.49 627.333 1051.16 622C1048.49 616.667 1046.83 612.667 1046.16 610C1041.49 601.333 1036.49 590.667 1031.16 578C1025.83 564.667 1020.49 551 1015.16 537C1010.49 523 1005.83 509.333 1001.16 496C996.493 482 992.827 470 990.16 460C988.827 455.333 985.494 446 980.16 432C974.827 418 968.493 401.667 961.16 383C953.827 364.333 945.493 344.333 936.16 323C926.827 301 917.493 280.333 908.16 261C898.827 241 889.493 223.333 880.16 208C871.493 192 863.827 180.667 857.16 174C855.827 172.667 854.827 171.667 854.16 171C853.493 169.667 852.827 168.333 852.16 167C851.493 165.667 851.16 164.667 851.16 164C852.493 163.333 853.827 163.667 855.16 165C857.16 165.667 858.827 166 860.16 166C873.493 172.667 886.493 183 899.16 197C912.493 210.333 924.827 225.333 936.16 242C948.16 258 958.493 275 967.16 293C975.827 311 982.827 327.333 988.16 342ZM1112.16 568C1124.16 604 1136.16 641 1148.16 679C1160.83 717 1172.49 750 1183.16 778C1183.83 783.333 1184.49 787.667 1185.16 791C1185.83 793.667 1185.49 795 1184.16 795C1183.49 796.333 1181.83 795.333 1179.16 792C1177.16 788.667 1175.16 785.333 1173.16 782C1157.16 758 1142.83 733 1130.16 707C1118.16 681 1106.83 654.333 1096.16 627C1086.16 599.667 1076.49 571.333 1067.16 542C1058.49 512.667 1049.49 483 1040.16 453C1028.83 417 1016.49 380.333 1003.16 343C989.827 305.667 972.16 268 950.16 230C948.16 228 947.16 227 947.16 227C947.16 226.333 947.827 225.667 949.16 225C949.827 223.667 950.493 223.667 951.16 225C951.827 226.333 953.16 227.667 955.16 229C971.827 241.667 988.16 263 1004.16 293C1020.16 322.333 1035.16 354.333 1049.16 389C1063.16 423.667 1075.49 457.667 1086.16 491C1097.49 523.667 1106.16 549.333 1112.16 568ZM1223.16 886C1225.83 887.333 1227.83 889 1229.16 891C1230.49 892.333 1230.49 893 1229.16 893C1228.49 895 1226.83 895 1224.16 893C1194.83 885.667 1167.49 873 1142.16 855C1117.49 837 1095.16 815.667 1075.16 791C1055.16 765.667 1037.16 738 1021.16 708C1005.83 678 992.827 647.333 982.16 616C968.16 574 954.827 532.333 942.16 491C930.16 449 917.493 408.333 904.16 369C891.493 329 877.827 291.333 863.16 256C849.16 220.667 832.827 188.667 814.16 160C814.16 156.667 814.16 155 814.16 155C814.16 153.667 814.16 153.333 814.16 154C814.827 154.667 815.827 155.333 817.16 156C818.493 157.333 819.827 158.333 821.16 159C847.827 185 870.16 216 888.16 252C906.827 287.333 923.16 325.667 937.16 367C951.16 407.667 964.16 450 976.16 494C988.827 537.333 1002.49 579.667 1017.16 621C1026.49 647.667 1038.16 674.333 1052.16 701C1066.83 727.667 1082.83 752.667 1100.16 776C1118.16 799.333 1137.49 820.667 1158.16 840C1178.83 859.333 1200.49 874.667 1223.16 886ZM1184.16 819C1194.83 828.333 1205.16 837 1215.16 845C1225.16 852.333 1235.83 859.333 1247.16 866C1248.49 867.333 1249.83 869 1251.16 871C1253.16 873 1253.83 874 1253.16 874C1251.83 875.333 1250.16 876 1248.16 876C1246.83 876 1245.49 876 1244.16 876C1242.16 876 1240.83 875.667 1240.16 875C1233.49 873 1227.49 871.333 1222.16 870C1216.83 868.667 1211.49 866.667 1206.16 864C1200.83 860.667 1195.16 857 1189.16 853C1183.16 848.333 1176.16 842 1168.16 834C1162.16 828 1155.16 819.667 1147.16 809C1139.83 798.333 1132.83 788 1126.16 778C1119.49 767.333 1114.16 758.333 1110.16 751C1106.83 743 1106.16 738.333 1108.16 737C1108.83 736.333 1110.49 737.333 1113.16 740C1116.49 742 1119.83 745 1123.16 749C1126.49 752.333 1129.49 756 1132.16 760C1135.49 763.333 1137.83 765.667 1139.16 767C1146.49 777.667 1153.83 787 1161.16 795C1168.49 803 1176.16 811 1184.16 819ZM1619.64 584C1618.97 585.333 1617.3 585.667 1614.64 585C1611.97 584.333 1609.64 583.333 1607.64 582C1576.3 570.667 1547.3 554.667 1520.64 534C1493.97 513.333 1467.64 491 1441.64 467C1426.3 452.333 1409.64 438 1391.64 424C1374.3 410 1353.97 398.333 1330.64 389C1329.3 389 1328.64 388.667 1328.64 388C1329.3 386 1330.97 384.667 1333.64 384C1348.3 381.333 1364.64 384 1382.64 392C1400.64 399.333 1417.97 408.667 1434.64 420C1451.97 431.333 1468.3 443.333 1483.64 456C1498.97 468.667 1511.64 478.667 1521.64 486C1538.3 499.333 1554.97 514.333 1571.64 531C1588.97 547 1603.3 561.333 1614.64 574C1615.97 576 1617.3 578 1618.64 580C1620.64 581.333 1620.97 582.667 1619.64 584ZM1659.64 627C1656.97 638.333 1651.97 649 1644.64 659C1637.97 669 1630.3 678.333 1621.64 687C1612.97 695 1603.64 702 1593.64 708C1583.64 713.333 1574.3 717 1565.64 719C1542.3 727.667 1516.64 734.667 1488.64 740C1460.64 744.667 1434.64 747 1410.64 747C1407.3 747.667 1403.97 748 1400.64 748C1397.97 748 1396.3 747.667 1395.64 747C1394.3 744.333 1394.97 742 1397.64 740C1400.97 738 1403.3 737 1404.64 737C1409.3 734.333 1415.3 731.333 1422.64 728C1429.97 724.667 1437.64 721.333 1445.64 718C1453.64 714.667 1461.64 711.667 1469.64 709C1477.64 706.333 1484.3 704.333 1489.64 703C1494.3 701.667 1504.3 698.333 1519.64 693C1535.64 687 1552.64 680.333 1570.64 673C1589.3 665.667 1606.64 657.667 1622.64 649C1638.64 639.667 1649.3 630.667 1654.64 622C1656.64 618.667 1658.3 617.333 1659.64 618C1660.97 618.667 1660.97 621.667 1659.64 627ZM1496.64 558C1495.3 559.333 1492.97 559.667 1489.64 559C1486.97 557.667 1485.3 556.333 1484.64 555C1473.97 549.667 1460.97 542 1445.64 532C1430.3 522 1418.64 512.667 1410.64 504C1407.3 501.333 1398.64 495.333 1384.64 486C1371.3 476 1356.3 466 1339.64 456C1322.97 445.333 1306.3 436 1289.64 428C1273.64 419.333 1261.3 415 1252.64 415C1251.3 416.333 1249.64 416.667 1247.64 416C1246.3 414.667 1245.64 413.333 1245.64 412L1254.64 408C1264.64 403.333 1275.64 401 1287.64 401C1299.64 401 1311.3 402.667 1322.64 406C1334.64 408.667 1345.64 412.667 1355.64 418C1366.3 422.667 1374.97 428 1381.64 434C1399.64 449.333 1418.3 467 1437.64 487C1457.64 506.333 1475.64 525.667 1491.64 545C1492.97 546.333 1494.3 548.667 1495.64 552C1497.64 554.667 1497.97 556.667 1496.64 558ZM1658.64 590C1645.97 612 1629.3 629 1608.64 641C1588.64 652.333 1566.64 661.667 1542.64 669C1518.64 675.667 1493.64 681.667 1467.64 687C1441.64 692.333 1416.64 699 1392.64 707C1377.97 711.667 1363.3 718.333 1348.64 727C1333.97 735 1319.97 745 1306.64 757C1293.3 768.333 1281.3 781.333 1270.64 796C1259.97 810.667 1251.64 827 1245.64 845C1244.3 849 1243.64 851 1243.64 851C1242.3 851 1241.64 850.333 1241.64 849C1241.64 847.667 1241.64 846.333 1241.64 845C1244.97 820.333 1251.3 798.667 1260.64 780C1269.97 761.333 1281.3 745.333 1294.64 732C1307.97 718 1322.97 706.333 1339.64 697C1356.97 687.667 1374.64 680 1392.64 674C1413.3 666.667 1434.3 661 1455.64 657C1476.97 652.333 1497.97 647.333 1518.64 642C1503.97 638 1490.64 632.333 1478.64 625C1466.64 617.667 1454.3 609.333 1441.64 600C1421.64 584.667 1402.3 568.667 1383.64 552C1365.64 535.333 1347.64 519.333 1329.64 504C1312.3 488.667 1294.64 475 1276.64 463C1259.3 450.333 1240.97 440.667 1221.64 434H1219.64C1218.3 434 1217.97 433.667 1218.64 433C1217.97 431.667 1218.64 431 1220.64 431C1222.64 430.333 1224.3 430 1225.64 430C1249.64 428 1271.97 432 1292.64 442C1313.3 451.333 1332.97 463.667 1351.64 479C1370.97 494.333 1389.97 511 1408.64 529C1427.3 547 1446.64 563.667 1466.64 579C1476.64 586.333 1486.97 593.667 1497.64 601C1508.97 607.667 1520.3 613.333 1531.64 618C1542.97 622 1554.64 624.333 1566.64 625C1579.3 625.667 1591.64 623.333 1603.64 618C1597.64 617.333 1591.3 616 1584.64 614C1578.64 612 1572.97 610 1567.64 608C1562.3 605.333 1557.97 602.667 1554.64 600C1551.97 597.333 1551.3 595 1552.64 593C1553.97 591 1558.64 590.667 1566.64 592C1575.3 592.667 1581.3 593 1584.64 593C1596.64 595 1608.3 596.333 1619.64 597C1631.64 597 1642.3 594.333 1651.64 589C1652.97 587.667 1655.3 586.333 1658.64 585C1661.97 583.667 1661.97 585.333 1658.64 590ZM1634.64 701C1634.64 701.667 1634.3 702.333 1633.64 703C1633.64 703.667 1633.64 704.333 1633.64 705C1632.97 706.333 1632.64 707.333 1632.64 708C1626.64 722.667 1615.3 735.333 1598.64 746C1581.97 756 1563.64 764.667 1543.64 772C1524.3 779.333 1504.97 785.667 1485.64 791C1466.97 795.667 1451.97 800 1440.64 804C1419.97 811.333 1397.97 817.333 1374.64 822C1351.3 826 1330.97 830 1313.64 834C1306.97 834 1302.64 833.667 1300.64 833C1300.64 831 1301.64 829.333 1303.64 828C1306.3 826 1308.64 824.333 1310.64 823C1338.64 803.667 1368.64 789.333 1400.64 780C1433.3 770 1466.64 760.667 1500.64 752C1521.97 746.667 1543.64 740.667 1565.64 734C1587.64 726.667 1609.3 715.667 1630.64 701C1633.3 700.333 1634.64 700.333 1634.64 701ZM1332.64 771C1333.3 772.333 1332.97 774.333 1331.64 777C1330.3 779.667 1328.64 782.333 1326.64 785C1324.64 787 1322.64 789 1320.64 791C1318.64 793 1317.64 794.333 1317.64 795C1310.97 800.333 1305.3 805.667 1300.64 811C1295.97 815.667 1291.3 820.667 1286.64 826C1281.97 833.333 1277.64 840.667 1273.64 848C1269.64 854.667 1265.3 860.667 1260.64 866C1260.64 867.333 1259.97 868.333 1258.64 869C1257.3 869.667 1257.3 869.333 1258.64 868C1257.3 866.667 1256.64 864.333 1256.64 861V858C1256.64 850.667 1257.64 843.333 1259.64 836C1261.64 828 1267.3 818.333 1276.64 807C1279.97 803 1284.64 798.667 1290.64 794C1296.64 788.667 1302.64 784 1308.64 780C1314.64 776 1319.64 773 1323.64 771C1328.3 769 1331.3 769 1332.64 771Z" fill="black"/>
</svg>
